<?xml version="1.0" encoding="iso-8859-1"?>
<!-- Generator: Adobe Illustrator 19.0.0, SVG Export Plug-In . SVG Version: 6.00 Build 0)  -->
<svg version="1.1" id="Layer_1" xmlns="http://www.w3.org/2000/svg" xmlns:xlink="http://www.w3.org/1999/xlink" x="0px" y="0px"
	 viewBox="0 0 511.992 511.992" style="enable-background:new 0 0 511.992 511.992;" xml:space="preserve">
<path style="fill:#DA4453;" d="M372.338,84.361c-31.156-26.843-72.468-41.639-116.342-41.639c-43.859,0-85.171,14.797-116.326,41.64
	c-31.594,27.25-49,63.593-49,102.358v261.207h330.667V186.719C421.337,147.954,403.931,111.611,372.338,84.361z"/>
<rect x="138.666" y="319.925" style="fill:#656D78;" width="234.67" height="128"/>
<g>
	<path style="fill:#ED5564;" d="M74.671,213.266C33.499,213.266,0,246.749,0,287.929c0,28.999,16.875,55.218,42.671,67.467v113.873
		h106.67v-181.34C149.341,246.749,115.842,213.266,74.671,213.266z"/>
	<path style="fill:#ED5564;" d="M437.336,213.266c-41.17,0-74.67,33.483-74.67,74.663v181.34h106.67V355.395
		c25.797-12.249,42.656-38.468,42.656-67.467C511.992,246.749,478.508,213.266,437.336,213.266z"/>
</g>
<rect x="149.336" y="383.925" style="fill:#434A54;" width="213.32" height="64.06"/>
<g>
	<path style="fill:#DA4453;" d="M95.998,426.582c-5.875,0-10.655-4.78-10.655-10.655v-64c0-5.906,4.78-10.655,10.655-10.655
		c5.906,0,10.672,4.749,10.672,10.655v64C106.67,421.802,101.904,426.582,95.998,426.582z"/>
	<path style="fill:#DA4453;" d="M415.993,426.582c-5.875,0-10.656-4.78-10.656-10.655v-64c0-5.906,4.781-10.655,10.656-10.655
		c5.906,0,10.672,4.749,10.672,10.655v64C426.665,421.802,421.899,426.582,415.993,426.582z"/>
</g>
<g>
	<path style="fill:#ED5564;" d="M213.355,106.596c-5.891,0-10.656,4.781-10.656,10.671c0,5.891,4.766,10.672,10.656,10.672
		c5.89,0,10.672-4.781,10.672-10.672C224.027,111.377,219.246,106.596,213.355,106.596z"/>
	<path style="fill:#ED5564;" d="M298.698,106.596c-5.891,0-10.672,4.781-10.672,10.671c0,5.891,4.781,10.672,10.672,10.672
		s10.656-4.781,10.656-10.672C309.354,111.377,304.589,106.596,298.698,106.596z"/>
	<path style="fill:#ED5564;" d="M341.353,191.937c-5.891,0-10.656,4.766-10.656,10.656s4.766,10.672,10.656,10.672
		s10.672-4.781,10.672-10.672S347.244,191.937,341.353,191.937z"/>
	<path style="fill:#ED5564;" d="M256.027,191.937c-5.891,0-10.672,4.766-10.672,10.656s4.781,10.672,10.672,10.672
		s10.672-4.781,10.672-10.672S261.918,191.937,256.027,191.937z"/>
	<path style="fill:#ED5564;" d="M170.7,191.937c-5.891,0-10.672,4.766-10.672,10.656s4.781,10.672,10.672,10.672
		s10.656-4.781,10.656-10.672S176.591,191.937,170.7,191.937z"/>
	<path style="fill:#ED5564;" d="M213.355,277.21c-5.891,0-10.656,4.781-10.656,10.688c0,5.875,4.766,10.656,10.656,10.656
		c5.89,0,10.672-4.781,10.672-10.656C224.027,281.991,219.246,277.21,213.355,277.21z"/>
	<path style="fill:#ED5564;" d="M298.698,277.304c-5.891,0-10.672,4.75-10.672,10.656c0,5.875,4.781,10.656,10.672,10.656
		s10.656-4.781,10.656-10.656C309.354,282.054,304.589,277.304,298.698,277.304z"/>
</g>
<g>
	<path style="fill:#DA4453;" d="M85.343,287.897c0,5.875-4.781,10.656-10.672,10.656s-10.672-4.781-10.672-10.656
		c0-5.906,4.781-10.688,10.672-10.688S85.343,281.991,85.343,287.897z"/>
	<path style="fill:#DA4453;" d="M447.992,287.897c0,5.875-4.766,10.656-10.656,10.656s-10.671-4.781-10.671-10.656
		c0-5.906,4.78-10.688,10.671-10.688S447.992,281.991,447.992,287.897z"/>
</g>
<g>
</g>
<g>
</g>
<g>
</g>
<g>
</g>
<g>
</g>
<g>
</g>
<g>
</g>
<g>
</g>
<g>
</g>
<g>
</g>
<g>
</g>
<g>
</g>
<g>
</g>
<g>
</g>
<g>
</g>
</svg>
