<?xml version="1.0" encoding="iso-8859-1"?>
<!-- Generator: Adobe Illustrator 19.0.0, SVG Export Plug-In . SVG Version: 6.00 Build 0)  -->
<svg version="1.1" id="Layer_1" xmlns="http://www.w3.org/2000/svg" xmlns:xlink="http://www.w3.org/1999/xlink" x="0px" y="0px"
	 viewBox="0 0 511.991 511.991" style="enable-background:new 0 0 511.991 511.991;" xml:space="preserve">
<g>
	<path style="fill:#434A54;" d="M213.328,447.992c-5.891,0-10.672-4.781-10.672-10.656v-42.687c0-5.875,4.781-10.656,10.672-10.656
		s10.664,4.781,10.664,10.656v42.687C223.992,443.211,219.219,447.992,213.328,447.992z"/>
	<path style="fill:#434A54;" d="M298.646,447.992c-5.875,0-10.655-4.781-10.655-10.656v-42.687c0-5.875,4.78-10.656,10.655-10.656
		c5.906,0,10.688,4.781,10.688,10.656v42.687C309.334,443.211,304.553,447.992,298.646,447.992z"/>
	<path style="fill:#434A54;" d="M255.991,447.992c-5.891,0-10.664-4.781-10.664-10.656v-42.687c0-5.875,4.773-10.656,10.664-10.656
		c5.891,0,10.664,4.781,10.664,10.656v42.687C266.655,443.211,261.882,447.992,255.991,447.992z"/>
</g>
<path style="fill:#ED5564;" d="M199.328,394.649h113.318c59.921-41.89,124.685-158.794,124.685-234.652
	C437.331,117.334,404.738,0,255.991,0S74.659,95.999,74.659,159.997C74.659,235.855,139.415,352.76,199.328,394.649z"/>
<path style="fill:#FFCE54;" d="M309.334,511.991H202.656c-5.891,0-10.664-4.781-10.664-10.656v-63.999
	c0-5.906,4.773-10.688,10.664-10.688h106.678c5.875,0,10.655,4.781,10.655,10.688v63.999
	C319.989,507.21,315.209,511.991,309.334,511.991z"/>
<path style="fill:#E6E9ED;" d="M250.366,0.048c-5.086,2.391-11.983,6.125-19.577,11.601c-20.625,14.867-36.383,34.89-46.827,59.514
	c-13.875,32.703-17.828,72.749-11.734,119.021c7.367,55.952,29.483,131.778,65.765,204.465h35.999
	c36.28-72.687,58.404-148.513,65.764-204.465c6.094-46.272,2.141-86.318-11.734-119.021c-10.438-24.624-26.202-44.647-46.826-59.514
	c-7.578-5.469-14.477-9.195-19.555-11.585c-1.867-0.039-3.742-0.062-5.648-0.062C254.093,0.001,252.225,0.017,250.366,0.048z"/>
<g>
	<path style="fill:#F6BB42;" d="M234.656,458.648c-5.891,0-10.664-4.766-10.664-10.656v-10.656c0-5.906,4.773-10.688,10.664-10.688
		c5.89,0,10.671,4.781,10.671,10.688v10.656C245.327,453.883,240.546,458.648,234.656,458.648z"/>
	<path style="fill:#F6BB42;" d="M277.335,458.648c-5.898,0-10.68-4.766-10.68-10.656v-10.656c0-5.906,4.781-10.688,10.68-10.688
		c5.875,0,10.656,4.781,10.656,10.688v10.656C287.991,453.883,283.21,458.648,277.335,458.648z"/>
</g>
<g>
</g>
<g>
</g>
<g>
</g>
<g>
</g>
<g>
</g>
<g>
</g>
<g>
</g>
<g>
</g>
<g>
</g>
<g>
</g>
<g>
</g>
<g>
</g>
<g>
</g>
<g>
</g>
<g>
</g>
</svg>
