<?xml version="1.0" encoding="utf-8"?>
<!-- Generator: Adobe Illustrator 16.0.0, SVG Export Plug-In . SVG Version: 6.00 Build 0)  -->
<!DOCTYPE svg PUBLIC "-//W3C//DTD SVG 1.1//EN" "http://www.w3.org/Graphics/SVG/1.1/DTD/svg11.dtd">
<svg xmlns="http://www.w3.org/2000/svg" xmlns:xlink="http://www.w3.org/1999/xlink" version="1.1" id="Layer_1" x="0px" y="0px" width="512" height="512" viewBox="0 0 512 512" enable-background="new 0 0 512 512" xml:space="preserve">
<g id="burgers">
	<path fill="#424953" d="M508.866,418.371L93.632,3.13c-2.078-2.086-4.812-3.125-7.547-3.125c-2.719,0-5.453,1.039-7.531,3.125   L3.118,78.55c-4.156,4.164-4.156,10.922,0,15.086l415.25,415.234c2.062,2.094,4.812,3.125,7.531,3.125s5.469-1.031,7.531-3.125   l75.436-75.421C513.022,429.277,513.022,422.527,508.866,418.371z M425.899,486.246L25.758,86.097l60.327-60.343l400.156,400.148   L425.899,486.246z"/>
	<path fill="#646C77" d="M255.988,501.339c-31.859,0-62.921-6.062-92.311-17.968c-30.438-12.344-57.733-30.469-81.155-53.906   c-23.421-23.405-41.562-50.717-53.89-81.139C16.711,318.937,10.665,287.874,10.665,256c0-31.867,6.046-62.929,17.968-92.318   c12.328-30.43,30.469-57.733,53.89-81.155c23.422-23.421,50.718-41.554,81.155-53.89c29.39-11.921,60.451-17.968,92.311-17.968   c31.882,0,62.944,6.046,92.318,17.968c30.437,12.336,57.749,30.469,81.155,53.89c23.437,23.422,41.562,50.726,53.904,81.155   c11.906,29.39,17.969,60.452,17.969,92.318c0,31.874-6.062,62.937-17.969,92.326c-12.343,30.422-30.468,57.733-53.904,81.139   c-23.406,23.438-50.719,41.562-81.155,53.906C318.933,495.276,287.87,501.339,255.988,501.339z"/>
	<path fill="#A9B1BC" d="M437.024,74.988c-50-49.991-115.498-74.983-181.036-74.983c-65.515,0-131.029,24.992-181.013,74.983   c-99.967,99.967-99.967,262.057,0,362.04c49.983,49.969,115.498,74.968,181.013,74.968c65.507,0,131.036-24.999,181.036-74.983   C536.991,337.045,536.991,174.955,437.024,74.988z M483.022,196.407l-76.467-76.459l22.469-22.46   c18.999,20.687,33.937,44.249,44.468,70.202C477.304,177.087,480.46,186.673,483.022,196.407z M344.308,38.52   c25.687,10.422,49.061,25.164,69.592,43.897l-22.438,22.445l-75.873-75.874C325.308,31.535,334.901,34.707,344.308,38.52z    M255.988,21.34c7.688,0,15.312,0.367,22.882,1.094l97.498,97.514l-30.155,30.171L220.16,24.067   C231.957,22.262,243.91,21.34,255.988,21.34z M167.677,38.52c9.031-3.656,18.219-6.734,27.547-9.227L331.12,165.197l-30.156,30.171   L151.428,45.84C156.74,43.207,162.146,40.762,167.677,38.52z M132.068,56.652L285.87,210.454l-30.163,30.171L97.788,82.698   C108.476,72.917,119.928,64.222,132.068,56.652z M82.694,97.784l157.919,157.927l-30.155,30.163L56.648,132.08   C64.21,119.924,72.913,108.472,82.694,97.784z M38.508,167.689c2.25-5.531,4.688-10.945,7.328-16.257l149.528,149.536   l-30.171,30.155L29.289,195.228C31.789,185.899,34.852,176.712,38.508,167.689z M21.336,256c0-12.086,0.922-24.039,2.719-35.835   l126.061,126.052l-30.172,30.172L22.43,278.875C21.695,271.312,21.336,263.68,21.336,256z M38.508,344.311   c-3.812-9.406-6.984-18.984-9.531-28.718l75.874,75.873l-22.438,22.438C63.68,393.372,48.93,369.998,38.508,344.311z    M167.677,473.48c-25.937-10.516-49.515-25.453-70.201-44.453l22.468-22.468l76.452,76.452   C186.677,480.465,177.083,477.293,167.677,473.48z M255.988,490.652c-7.672,0-15.297-0.359-22.875-1.094l-98.092-98.093   l30.172-30.155l126.646,126.623C280.026,489.746,268.082,490.652,255.988,490.652z M344.308,473.48   c-9.031,3.656-18.219,6.734-27.531,9.234l-136.49-136.498l30.172-30.171l150.099,150.106   C355.244,468.793,349.838,471.246,344.308,473.48z M379.931,455.34L225.535,300.968l30.172-30.171l158.505,158.512   C403.524,439.09,392.056,447.777,379.931,455.34z M429.306,414.216L270.784,255.711l30.18-30.171l154.372,154.38   C447.774,392.075,439.087,403.528,429.306,414.216z M473.492,344.311c-2.25,5.531-4.688,10.938-7.344,16.25L316.058,210.454   l30.155-30.172L482.71,316.78C480.21,326.092,477.147,335.295,473.492,344.311z M361.307,165.197l30.155-30.164l98.092,98.092   c0.75,7.57,1.094,15.195,1.094,22.875c0,12.086-0.906,24.047-2.719,35.843L361.307,165.197z"/>
	<g>
		<path fill="#7F4545" d="M255.801,320.186c0,58.812-47.655,106.467-106.467,106.467S42.852,378.998,42.852,320.186    c0-58.803,47.671-106.481,106.482-106.481S255.801,261.383,255.801,320.186z"/>
	</g>
	<g>
		<path fill="#965353" d="M255.801,287.999c0,58.812-47.655,106.482-106.467,106.482S42.852,346.811,42.852,287.999    c0-58.803,47.671-106.475,106.482-106.475S255.801,229.196,255.801,287.999z"/>
	</g>
	<g>
		<path fill="#7F4545" d="M469.148,224c0,58.811-47.687,106.482-106.498,106.482S256.176,282.812,256.176,224    c0-58.803,47.663-106.475,106.475-106.475S469.148,165.197,469.148,224z"/>
	</g>
	<g>
		<path fill="#965353" d="M469.148,191.813c0,58.812-47.687,106.482-106.498,106.482s-106.475-47.671-106.475-106.482    c0-58.804,47.663-106.475,106.475-106.475S469.148,133.01,469.148,191.813z"/>
	</g>
	<path fill="#7F4545" d="M138.662,245.297c0,5.891-4.766,10.672-10.672,10.672c-5.891,0-10.656-4.781-10.656-10.672   s4.766-10.664,10.656-10.664C133.896,234.633,138.662,239.406,138.662,245.297z"/>
	<path fill="#7F4545" d="M181.333,245.297c0,5.891-4.781,10.672-10.672,10.672c-5.89,0-10.671-4.781-10.671-10.672   s4.781-10.664,10.671-10.664C176.552,234.633,181.333,239.406,181.333,245.297z"/>
	<path fill="#7F4545" d="M138.662,330.701c0,5.891-4.766,10.672-10.672,10.672c-5.891,0-10.656-4.781-10.656-10.672   s4.766-10.672,10.656-10.672C133.896,320.029,138.662,324.811,138.662,330.701z"/>
	<path fill="#7F4545" d="M181.333,330.701c0,5.891-4.781,10.672-10.672,10.672c-5.89,0-10.671-4.781-10.671-10.672   s4.781-10.672,10.671-10.672C176.552,320.029,181.333,324.811,181.333,330.701z"/>
	<path fill="#7F4545" d="M117.334,287.968c0,5.891-4.78,10.656-10.671,10.656s-10.672-4.766-10.672-10.656   s4.781-10.671,10.672-10.671S117.334,282.077,117.334,287.968z"/>
	<path fill="#7F4545" d="M159.99,287.968c0,5.891-4.766,10.656-10.656,10.656s-10.672-4.766-10.672-10.656   s4.781-10.671,10.672-10.671S159.99,282.077,159.99,287.968z"/>
	<path fill="#7F4545" d="M202.661,287.968c0,5.891-4.766,10.656-10.672,10.656c-5.891,0-10.656-4.766-10.656-10.656   s4.766-10.671,10.656-10.671C197.896,277.297,202.661,282.077,202.661,287.968z"/>
	<path fill="#7F4545" d="M351.994,149.299c0,5.891-4.781,10.672-10.655,10.672c-5.906,0-10.688-4.781-10.688-10.672   s4.781-10.664,10.688-10.664C347.213,138.635,351.994,143.408,351.994,149.299z"/>
	<path fill="#7F4545" d="M394.649,149.299c0,5.891-4.75,10.672-10.656,10.672s-10.656-4.781-10.656-10.672   s4.75-10.664,10.656-10.664S394.649,143.408,394.649,149.299z"/>
	<path fill="#7F4545" d="M351.994,234.703c0,5.891-4.781,10.664-10.655,10.664c-5.906,0-10.688-4.773-10.688-10.664   c0-5.89,4.781-10.664,10.688-10.664C347.213,224.04,351.994,228.813,351.994,234.703z"/>
	<path fill="#7F4545" d="M394.649,234.703c0,5.891-4.75,10.664-10.656,10.664s-10.656-4.773-10.656-10.664   c0-5.89,4.75-10.664,10.656-10.664S394.649,228.813,394.649,234.703z"/>
	<path fill="#7F4545" d="M330.651,191.97c0,5.891-4.75,10.664-10.656,10.664s-10.656-4.773-10.656-10.664s4.75-10.672,10.656-10.672   S330.651,186.079,330.651,191.97z"/>
	<path fill="#7F4545" d="M373.337,191.97c0,5.891-4.78,10.664-10.687,10.664c-5.875,0-10.656-4.773-10.656-10.664   s4.781-10.672,10.656-10.672C368.557,181.298,373.337,186.079,373.337,191.97z"/>
	<path fill="#7F4545" d="M415.993,191.97c0,5.891-4.781,10.664-10.656,10.664c-5.906,0-10.688-4.773-10.688-10.664   s4.781-10.672,10.688-10.672C411.212,181.298,415.993,186.079,415.993,191.97z"/>
</g>
</svg>
