<?xml version="1.0" encoding="iso-8859-1"?>
<!-- Generator: Adobe Illustrator 19.0.0, SVG Export Plug-In . SVG Version: 6.00 Build 0)  -->
<svg version="1.1" id="Capa_1" xmlns="http://www.w3.org/2000/svg" xmlns:xlink="http://www.w3.org/1999/xlink" x="0px" y="0px"
	 viewBox="0 0 512.611 512.611" style="enable-background:new 0 0 512.611 512.611;" xml:space="preserve">
<path style="fill:#546E7A;" d="M491.876,316.353c-1.314-1.016-2.747-1.868-4.267-2.539c-5.564-2.749-11.693-4.159-17.899-4.117
	c-30.304,1.913-59.515,12.039-84.501,29.291c-5.027,3.072-6.611,9.637-3.539,14.664c0.439,0.718,0.961,1.381,1.555,1.976
	l4.267,4.267c13.035,13.269,57.6,56.512,82.261,56.512c30.4,0,42.667-37.653,42.667-53.333
	C513.951,345.021,506.214,327.426,491.876,316.353z"/>
<path style="fill:#CFD8DC;" d="M488.91,314.539l-98.56-66.987c-1.761-1.202-3.841-1.848-5.973-1.856
	c-65.173,0-225.621,39.659-290.901,71.872c-9.499,4.087-18.274,9.685-25.984,16.576c-3.941,3.942-4.183,10.254-0.555,14.485
	c3.115,3.627,77.056,89.067,156.587,89.067c52.608,0,96.363-29.589,138.667-58.197c11.477-7.744,22.805-15.424,34.133-22.315
	c21.51-15.456,46.949-24.523,73.387-26.155c2.951-0.061,5.874,0.575,8.533,1.856c5.368,2.426,11.687,0.041,14.113-5.327
	C494.439,322.951,493,317.514,488.91,314.539z"/>
<path style="fill:#607D8B;" d="M164.132,90.369c-1.381-5.542-6.883-9.013-12.48-7.872c-39.066,6.131-75.617,23.135-105.472,49.067
	c-32.296,33.209-48.949,78.583-45.803,124.8c0.244,29.69,3.946,59.251,11.029,88.085c1.246,4.667,5.473,7.914,10.304,7.915h53.333
	c2.831,0.005,5.548-1.115,7.552-3.115c6.001-5.174,12.784-9.364,20.096-12.416c4.904-2.348,7.256-8.009,5.461-13.141
	c-26.581-76.203-29.867-134.677-9.835-173.76c12.144-23.038,33.33-39.981,58.475-46.763
	C162.272,101.555,165.507,95.912,164.132,90.369z"/>
<path style="fill:#2196F3;" d="M394.574,253.249l-34.581-112.725c-6.675-21.437-22.583-38.769-43.371-47.253
	c-52.979-20.06-110.755-23.775-165.867-10.667c-30.797,8.4-56.693,29.27-71.445,57.579c-22.827,44.48-19.925,108.587,8.683,190.549
	c0.993,2.898,3.185,5.23,6.016,6.4c2.833,1.156,6.027,1.039,8.768-0.32c62.101-30.677,219.989-69.781,281.6-69.781
	c5.891-0.002,10.665-4.78,10.662-10.671C395.039,255.305,394.882,254.257,394.574,253.249z"/>
<g>
</g>
<g>
</g>
<g>
</g>
<g>
</g>
<g>
</g>
<g>
</g>
<g>
</g>
<g>
</g>
<g>
</g>
<g>
</g>
<g>
</g>
<g>
</g>
<g>
</g>
<g>
</g>
<g>
</g>
</svg>
