<svg height="512pt" viewBox="0 0 512 512.00037" width="512pt" xmlns="http://www.w3.org/2000/svg"><path d="m511.855469 256.140625c0 141.308594-114.550781 255.859375-255.855469 255.859375-141.308594 0-255.859375-114.550781-255.859375-255.859375 0-141.304687 114.550781-255.855469 255.859375-255.855469 141.304688 0 255.855469 114.550782 255.855469 255.855469zm0 0" fill="#f26b32"/><path d="m409.511719 382.242188c69.984375-69.96875 93.34375-174.019532 59.980469-267.1875-77.777344-117.972657-236.46875-150.558594-354.441407-72.78125-98.582031 64.996093-139.882812 189.015624-99.953125 300.136718 78.070313 117.910156 236.941406 150.207032 354.851563 72.136719 14.234375-9.421875 27.484375-20.242187 39.5625-32.304687zm0 0" fill="#fb6f34"/><g fill="#e0632e"><path d="m414.539062 122.191406c13.011719 49.183594-16.316406 99.601563-65.496093 112.613282-7.703125 2.035156-15.632813 3.066406-23.597657 3.0625-29.28125-.054688-56.808593-13.980469-74.199218-37.539063l-122.261719-166.289063c55.613281-31.726562 121.082031-41.503906 183.539063-27.414062-68.628907-15.535156-140.628907-2.132812-199.074219 37.054688l123.121093 167.46875c20.832032 28.222656 53.796876 44.910156 88.875 44.992187 60.964844.027344 110.40625-49.371094 110.433594-110.335937.003906-9.550782-1.234375-19.058594-3.675781-28.292969l-16.128906-60.949219c-7.449219-5.976562-15.234375-11.527344-23.308594-16.628906zm0 0"/><path d="m312.769531 6.679688c10.960938 2.480468 21.742188 5.6875 32.277344 9.597656-10.535156-3.910156-21.316406-7.117188-32.277344-9.597656zm0 0"/><path d="m391.300781 39.011719c-4.195312-2.613281-8.460937-5.101563-12.792969-7.46875 4.339844 2.359375 8.601563 4.847656 12.792969 7.46875zm0 0"/><path d="m377.066406 30.722656c-4.984375-2.675781-10.027344-5.179687-15.132812-7.511718 5.117187 2.320312 10.160156 4.824218 15.132812 7.511718zm0 0"/><path d="m361.613281 23.074219c-4.933593-2.230469-9.933593-4.277344-14.96875-6.175781 5.035157 1.898437 10.035157 3.945312 14.96875 6.175781zm0 0"/><path d="m392.152344 472.707031c3.378906-2.132812 6.730468-4.347656 10.050781-6.652343-3.324219 2.328124-6.675781 4.546874-10.050781 6.652343zm0 0"/><path d="m430.601562 443.066406c-18.195312-58.089844-80.035156-90.429687-138.125-72.234375-22.417968 7.019531-42.003906 21.023438-55.90625 39.957031l-64.128906 87.222657c6.132813 2.109375 12.335938 3.9375 18.578125 5.574219l60.308594-81.976563c30.105469-40.957031 87.710937-49.753906 128.667969-19.648437 18 13.230468 30.570312 32.554687 35.375 54.371093-3.746094 2.996094-7.574219 5.847657-11.449219 8.609375 9.375-6.683594 18.289063-13.992187 26.679687-21.875zm0 0"/><path d="m220.152344 509.46875c-9.765625-1.394531-19.445313-3.347656-28.988282-5.847656 9.542969 2.507812 19.21875 4.460937 28.988282 5.847656zm0 0"/><path d="m245.792969 511.753906c-1.828125-.074218-3.65625-.171875-5.4375-.292968 1.808593.117187 3.625.21875 5.4375.292968zm0 0"/><path d="m233.152344 510.949219c-3.34375-.308594-6.695313-.683594-10.050782-1.125 3.34375.429687 6.679688.824219 10.050782 1.125zm0 0"/><path d="m367.871094 486.242188c2.960937-1.445313 5.914062-2.917969 8.828125-4.46875-2.90625 1.5625-5.867188 3.023437-8.828125 4.46875zm0 0"/><path d="m328.058594 501.675781 2.128906-.652343zm0 0"/><path d="m316.308594 504.808594 1.03125-.246094zm0 0"/><path d="m389.410156 474.445312c-3.070312 1.878907-6.175781 3.652344-9.3125 5.417969 3.164063-1.726562 6.265625-3.53125 9.3125-5.417969zm0 0"/><path d="m340.15625 497.808594c.914062-.320313 1.828125-.683594 2.742188-1.023438-.886719.339844-1.808594.703125-2.742188 1.023438zm0 0"/><path d="m355.0625 492.050781c2.949219-1.230469 5.902344-2.484375 8.816406-3.835937-2.90625 1.359375-5.867187 2.59375-8.816406 3.835937zm0 0"/><path d="m460.410156 281.363281c-74.980468 19.523438-153.074218 24.105469-229.824218 13.488281l-230.273438-31.609374c.167969 6.214843.523438 12.417968 1.144531 18.605468l226.617188 31.113282c27.691406 3.804687 55.609375 5.722656 83.5625 5.730468 51.746093-.003906 103.277343-6.589844 153.359375-19.601562l44.878906-11.640625c.785156-6.398438 1.394531-12.859375 1.699219-19.308594zm0 0"/><path d="m309.355469 129.886719c20.277343 77.914062 25.042969 159.054687 14.015625 238.804687l-19.042969 138.738282c6.394531-1.222657 12.746094-2.738282 19.0625-4.46875l18.082031-131.757813c11.355469-82.113281 6.449219-165.65625-14.4375-245.878906l-31.605468-121.953125c-6.460938-1.003906-12.949219-1.734375-19.464844-2.246094zm0 0"/></g></svg>