<?xml version="1.0" encoding="iso-8859-1"?>
<!-- Generator: Adobe Illustrator 19.0.0, SVG Export Plug-In . SVG Version: 6.00 Build 0)  -->
<svg version="1.1" id="Layer_1" xmlns="http://www.w3.org/2000/svg" xmlns:xlink="http://www.w3.org/1999/xlink" x="0px" y="0px"
	 viewBox="0 0 511.992 511.992" style="enable-background:new 0 0 511.992 511.992;" xml:space="preserve">
<rect x="330.646" y="207.996" style="fill:#FFCE54;" width="128" height="42.671"/>
<path style="fill:#ED5564;" d="M42.663,250.67c0,5.891-4.773,10.656-10.664,10.656c-5.89,0-10.663-4.766-10.663-10.656
	c0-5.89,4.773-10.671,10.663-10.671C37.89,239.998,42.663,244.779,42.663,250.67z"/>
<path style="fill:#5D9CEC;" d="M106.662,250.67c0,5.891-4.773,10.656-10.664,10.656s-10.663-4.766-10.663-10.656
	c0-5.89,4.772-10.671,10.663-10.671S106.662,244.779,106.662,250.67z"/>
<g>
	<path style="fill:#3BAFDA;" d="M88.076,468.275c-6.491,13.188-1.07,29.141,12.125,35.641c13.188,6.5,29.148,1.062,35.641-12.125
		l50.218-101.998l-47.765-23.516L88.076,468.275z"/>
	<path style="fill:#3BAFDA;" d="M425.993,468.275L375.76,366.277l-47.766,23.516l50.219,101.998
		c6.5,13.188,22.453,18.625,35.655,12.125C427.056,497.416,432.476,481.463,425.993,468.275z"/>
</g>
<path style="fill:#4FC2E9;" d="M10.664,378.668c0,47.124,38.21,85.326,85.334,85.326h319.995c47.124,0,85.343-38.202,85.343-85.326
	V250.67H10.664V378.668z"/>
<g style="opacity:0.2;">
	<path style="fill:#FFFFFF;" d="M479.992,250.67v127.998c0,47.124-38.203,85.326-85.342,85.326h21.343
		c47.124,0,85.343-38.202,85.343-85.326V250.67H479.992z"/>
</g>
<path style="fill:#CCD1D9;" d="M127.998,5.33c-41.172,0-74.663,33.5-74.663,74.67l0,0v174.669h21.328V80.001h0.008
	c0-29.405,23.921-53.327,53.327-53.327c29.405,0,53.327,23.922,53.327,53.327h21.335C202.66,38.83,169.169,5.33,127.998,5.33z"/>
<path style="fill:#E6E9ED;" d="M191.997,80.001c-23.57,0-42.672,19.094-42.672,42.671v10.656h85.335v-10.656
	C234.66,99.095,215.558,80.001,191.997,80.001z"/>
<g>
	<path style="fill:#5D9CEC;" d="M159.997,175.999c0,5.891-4.773,10.672-10.664,10.672s-10.671-4.781-10.671-10.672
		c0-5.89,4.78-10.671,10.671-10.671S159.997,170.109,159.997,175.999z"/>
	<path style="fill:#5D9CEC;" d="M202.66,175.999c0,5.891-4.772,10.672-10.663,10.672s-10.664-4.781-10.664-10.672
		c0-5.89,4.773-10.671,10.664-10.671S202.66,170.109,202.66,175.999z"/>
	<path style="fill:#5D9CEC;" d="M245.324,175.999c0,5.891-4.773,10.672-10.664,10.672s-10.664-4.781-10.664-10.672
		c0-5.89,4.773-10.671,10.664-10.671S245.324,170.109,245.324,175.999z"/>
	<path style="fill:#5D9CEC;" d="M138.662,218.671c0,5.875-4.773,10.656-10.664,10.656s-10.664-4.781-10.664-10.656
		c0-5.891,4.773-10.672,10.664-10.672C133.889,207.999,138.662,212.78,138.662,218.671z"/>
	<path style="fill:#5D9CEC;" d="M181.333,218.671c0,5.875-4.781,10.656-10.672,10.656s-10.664-4.781-10.664-10.656
		c0-5.891,4.773-10.672,10.664-10.672S181.333,212.78,181.333,218.671z"/>
	<path style="fill:#5D9CEC;" d="M223.996,218.671c0,5.875-4.781,10.656-10.672,10.656s-10.664-4.781-10.664-10.656
		c0-5.891,4.773-10.672,10.664-10.672S223.996,212.78,223.996,218.671z"/>
	<path style="fill:#5D9CEC;" d="M266.66,218.671c0,5.875-4.773,10.656-10.664,10.656s-10.664-4.781-10.664-10.656
		c0-5.891,4.773-10.672,10.664-10.672C261.887,207.999,266.66,212.78,266.66,218.671z"/>
</g>
<g>
	<path style="fill:#F6BB42;" d="M405.337,218.671c0,5.891-4.78,10.656-10.687,10.656c-5.875,0-10.656-4.766-10.656-10.656
		s4.781-10.672,10.656-10.672C400.557,207.999,405.337,212.78,405.337,218.671z"/>
	<path style="fill:#F6BB42;" d="M426.649,239.998c0,5.89-4.766,10.671-10.656,10.671s-10.656-4.781-10.656-10.671
		c0-5.891,4.766-10.671,10.656-10.671S426.649,234.108,426.649,239.998z"/>
	<path style="fill:#F6BB42;" d="M447.992,218.671c0,5.891-4.781,10.656-10.656,10.656c-5.906,0-10.687-4.766-10.687-10.656
		s4.78-10.672,10.687-10.672C443.211,207.999,447.992,212.78,447.992,218.671z"/>
	<path style="fill:#F6BB42;" d="M383.994,239.998c0,5.89-4.781,10.671-10.656,10.671c-5.906,0-10.688-4.781-10.688-10.671
		c0-5.891,4.781-10.656,10.688-10.656C379.213,229.343,383.994,234.108,383.994,239.998z"/>
	<path style="fill:#F6BB42;" d="M362.65,218.671c0,5.891-4.766,10.656-10.656,10.656s-10.656-4.766-10.656-10.656
		s4.766-10.672,10.656-10.672S362.65,212.78,362.65,218.671z"/>
</g>
<path style="fill:#3BAFDA;" d="M501.336,271.998H10.664C4.773,271.998,0,267.217,0,261.326c0-5.891,4.773-10.656,10.664-10.656
	h490.672c5.875,0,10.656,4.766,10.656,10.656C511.992,267.216,507.211,271.998,501.336,271.998z"/>
<g>
</g>
<g>
</g>
<g>
</g>
<g>
</g>
<g>
</g>
<g>
</g>
<g>
</g>
<g>
</g>
<g>
</g>
<g>
</g>
<g>
</g>
<g>
</g>
<g>
</g>
<g>
</g>
<g>
</g>
</svg>
