<?xml version="1.0" encoding="iso-8859-1"?>
<!-- Generator: Adobe Illustrator 19.0.0, SVG Export Plug-In . SVG Version: 6.00 Build 0)  -->
<svg version="1.1" id="Layer_1" xmlns="http://www.w3.org/2000/svg" xmlns:xlink="http://www.w3.org/1999/xlink" x="0px" y="0px"
	 viewBox="0 0 511.992 511.992" style="enable-background:new 0 0 511.992 511.992;" xml:space="preserve">
<path style="fill:#F4BE8E;" d="M400.619,154.605c-1.094-0.188-75.031-42.655-144.623-42.655
	c-69.585,0-144.631,42.655-144.631,42.655H42.663v161.34h426.673v-161.34H400.619z"/>
<g>
	<path style="fill:#FFD2A6;" d="M53.335,271.963c-5.891,0-10.672-4.766-10.672-10.656V143.964c0-5.891,4.781-10.656,10.672-10.656
		s10.664,4.766,10.664,10.656v117.342C63.999,267.197,59.225,271.963,53.335,271.963z"/>
	<path style="fill:#FFD2A6;" d="M458.648,271.963c-5.875,0-10.656-4.766-10.656-10.656V143.964c0-5.891,4.781-10.656,10.656-10.656
		c5.906,0,10.688,4.766,10.688,10.656v117.342C469.336,267.197,464.555,271.963,458.648,271.963z"/>
</g>
<g>
	<rect x="21.258" y="335.494" style="fill:#F4BE8E;" width="106.67" height="75.22"/>
	<rect x="383.996" y="335.494" style="fill:#F4BE8E;" width="106.65" height="75.22"/>
</g>
<g>
	<path style="fill:#E6E9ED;" d="M234.66,283.932c0,5.891-4.773,10.672-10.664,10.672H95.998c-5.891,0-10.663-4.781-10.663-10.672
		v-65.296c0-5.891,4.772-10.672,10.663-10.672h127.998c5.891,0,10.664,4.781,10.664,10.672V283.932z"/>
	<path style="fill:#E6E9ED;" d="M426.649,283.932c0,5.891-4.766,10.672-10.656,10.672H287.995c-5.89,0-10.655-4.781-10.655-10.672
		v-65.296c0-5.891,4.766-10.672,10.655-10.672h127.998c5.891,0,10.656,4.781,10.656,10.672V283.932z"/>
</g>
<path style="fill:#5D9CEC;" d="M511.992,360.633c0,5.891-4.781,10.672-10.656,10.672H10.664C4.773,371.305,0,366.524,0,360.633
	v-99.326c0-5.891,4.773-10.672,10.664-10.672h490.672c5.875,0,10.656,4.781,10.656,10.672V360.633z"/>
<g>
	<rect y="293.304" style="fill:#4A89DC;" width="511.99" height="21.326"/>
	<path style="fill:#4A89DC;" d="M469.336,261.306c5.875,0,10.656-4.782,10.656-10.672h-21.344
		C458.648,256.525,463.43,261.306,469.336,261.306z"/>
	<path style="fill:#4A89DC;" d="M426.649,261.306c5.905,0,10.687-4.782,10.687-10.672h-21.343
		C415.993,256.525,420.774,261.306,426.649,261.306z"/>
	<path style="fill:#4A89DC;" d="M383.994,261.306c5.891,0,10.656-4.782,10.656-10.672h-21.312
		C373.338,256.525,378.103,261.306,383.994,261.306z"/>
	<path style="fill:#4A89DC;" d="M341.338,261.306c5.875,0,10.656-4.782,10.656-10.672H330.65
		C330.65,256.525,335.432,261.306,341.338,261.306z"/>
	<path style="fill:#4A89DC;" d="M298.651,261.306c5.906,0,10.688-4.782,10.688-10.672h-21.344
		C287.995,256.525,292.776,261.306,298.651,261.306z"/>
	<path style="fill:#4A89DC;" d="M255.996,261.306c5.891,0,10.664-4.782,10.664-10.672h-21.328
		C245.332,256.525,250.105,261.306,255.996,261.306z"/>
	<path style="fill:#4A89DC;" d="M213.332,261.306c5.891,0,10.664-4.782,10.664-10.672H202.66
		C202.66,256.525,207.441,261.306,213.332,261.306z"/>
	<path style="fill:#4A89DC;" d="M170.661,261.306c5.891,0,10.672-4.782,10.672-10.672h-21.336
		C159.997,256.525,164.77,261.306,170.661,261.306z"/>
	<path style="fill:#4A89DC;" d="M127.998,261.306c5.891,0,10.664-4.782,10.664-10.672h-21.328
		C117.334,256.525,122.107,261.306,127.998,261.306z"/>
	<path style="fill:#4A89DC;" d="M85.335,261.306c5.89,0,10.663-4.782,10.663-10.672H74.663
		C74.663,256.525,79.444,261.306,85.335,261.306z"/>
	<path style="fill:#4A89DC;" d="M42.663,261.306c5.891,0,10.672-4.782,10.672-10.672H31.999
		C31.999,256.525,36.772,261.306,42.663,261.306z"/>
</g>
<g>
	<path style="fill:#FFD2A6;" d="M63.999,111.95c0,5.89-4.773,10.656-10.664,10.656s-10.672-4.766-10.672-10.656
		c0-5.891,4.781-10.672,10.672-10.672S63.999,106.059,63.999,111.95z"/>
	<path style="fill:#FFD2A6;" d="M469.336,111.95c0,5.89-4.781,10.656-10.688,10.656c-5.875,0-10.656-4.766-10.656-10.656
		c0-5.891,4.781-10.672,10.656-10.672C464.555,101.278,469.336,106.059,469.336,111.95z"/>
	<path style="fill:#FFD2A6;" d="M0,335.961v32c0,5.891,4.773,10.672,10.664,10.672h490.672c5.875,0,10.656-4.781,10.656-10.672v-32
		H0z"/>
</g>
<g>
</g>
<g>
</g>
<g>
</g>
<g>
</g>
<g>
</g>
<g>
</g>
<g>
</g>
<g>
</g>
<g>
</g>
<g>
</g>
<g>
</g>
<g>
</g>
<g>
</g>
<g>
</g>
<g>
</g>
</svg>
