<?xml version="1.0" encoding="iso-8859-1"?>
<!-- Generator: Adobe Illustrator 19.0.0, SVG Export Plug-In . SVG Version: 6.00 Build 0)  -->
<svg version="1.1" id="Layer_1" xmlns="http://www.w3.org/2000/svg" xmlns:xlink="http://www.w3.org/1999/xlink" x="0px" y="0px"
	 viewBox="0 0 511.985 511.985" style="enable-background:new 0 0 511.985 511.985;" xml:space="preserve">
<path style="fill:#E6E9ED;" d="M485.334,149.323H282.652c-11.773,0-21.319,9.547-21.319,21.328v21.343h181.314
	c11.781,0,21.344,9.547,21.344,21.328v149.323c0,11.781-9.562,21.344-21.344,21.344H261.333v21.328
	c0,11.78,9.546,21.327,21.319,21.327h202.682c11.781,0,21.312-9.547,21.312-21.327V170.651
	C506.645,158.87,497.115,149.323,485.334,149.323z"/>
<path style="fill:#FFCE54;" d="M58.666,85.325v405.317c0,11.781,9.562,21.343,21.343,21.343H378.65
	c11.781,0,21.344-9.562,21.344-21.343V85.325H58.666z"/>
<path style="fill:#E6E9ED;" d="M58.666,469.315v21.327c0,11.781,9.562,21.343,21.343,21.343H378.65
	c11.781,0,21.344-9.562,21.344-21.343v-21.327H58.666z"/>
<g>
	<path style="fill:#F6BB42;" d="M154.663,191.994c-5.891,0-10.656,4.766-10.656,10.656l0,0v191.995l0,0
		c0,5.891,4.766,10.672,10.656,10.672c5.89,0,10.672-4.781,10.672-10.672l0,0V202.65l0,0
		C165.335,196.76,160.554,191.994,154.663,191.994z"/>
	<path style="fill:#F6BB42;" d="M229.333,191.994c-5.891,0-10.672,4.766-10.672,10.656l0,0v191.995l0,0
		c0,5.891,4.781,10.672,10.672,10.672s10.672-4.781,10.672-10.672l0,0V202.65l0,0C240.005,196.76,235.223,191.994,229.333,191.994z"
		/>
	<path style="fill:#F6BB42;" d="M314.651,202.65c0-5.891-4.75-10.656-10.656-10.656c-5.875,0-10.656,4.766-10.656,10.656l0,0
		v191.995l0,0c0,5.891,4.781,10.672,10.656,10.672c5.906,0,10.656-4.781,10.656-10.672l0,0V202.65L314.651,202.65z"/>
</g>
<g>
	<path style="fill:#CCD1D9;" d="M101.336,479.987c5.891,0,10.672-4.781,10.672-10.672H90.665
		C90.665,475.206,95.446,479.987,101.336,479.987z"/>
	<path style="fill:#CCD1D9;" d="M144.007,479.987c5.891,0,10.656-4.781,10.656-10.672h-21.327
		C133.336,475.206,138.116,479.987,144.007,479.987z"/>
	<path style="fill:#CCD1D9;" d="M186.662,479.987c5.891,0,10.672-4.781,10.672-10.672h-21.328
		C176.006,475.206,180.771,479.987,186.662,479.987z"/>
	<path style="fill:#CCD1D9;" d="M229.333,479.987c5.891,0,10.672-4.781,10.672-10.672h-21.344
		C218.661,475.206,223.442,479.987,229.333,479.987z"/>
	<path style="fill:#CCD1D9;" d="M271.996,479.987c5.875,0,10.656-4.781,10.656-10.672h-21.319
		C261.333,475.206,266.097,479.987,271.996,479.987z"/>
	<path style="fill:#CCD1D9;" d="M314.651,479.987c5.906,0,10.688-4.781,10.688-10.672h-21.344
		C303.995,475.206,308.776,479.987,314.651,479.987z"/>
	<path style="fill:#CCD1D9;" d="M357.337,479.987c5.875,0,10.656-4.781,10.656-10.672H346.65
		C346.65,475.206,351.431,479.987,357.337,479.987z"/>
</g>
<g style="opacity:0.2;">
	<path style="fill:#FFFFFF;" d="M80.009,490.642V85.325H58.666v405.317c0,11.781,9.562,21.343,21.343,21.343h21.327
		C89.555,511.985,80.009,502.424,80.009,490.642z"/>
</g>
<path style="fill:#F5F7FA;" d="M357.337,10.655c-17.937,0-34.123,7.328-45.748,19.125c-13.312-11.891-30.937-19.125-50.256-19.125
	c-17.547,0-33.703,5.969-46.5,15.984c-13.921-10.047-31.015-15.984-49.498-15.984c-21.578,0-41.28,8.094-56.233,21.391
	c-51.67,1.531-93.091,43.904-93.091,95.95c0,53.015,42.968,95.997,95.997,95.997c36.265,0,67.826-20.108,84.154-49.795
	c9.641-3.766,18.405-9.25,25.952-16.078c11.734,13.969,29.39,22.844,49.108,22.844c29.804,0,54.866-20.266,61.991-47.702
	c7.437,3.016,15.593,4.688,24.123,4.688c35.344,0,63.999-28.499,63.999-63.64C421.336,39.154,392.68,10.655,357.337,10.655z"/>
<path style="fill:#E6E9ED;" d="M112.008,234.649c-58.811,0-106.669-47.843-106.669-106.653c0-27.937,10.719-54.343,30.187-74.357
	c18.531-19.062,43.062-30.358,69.42-32.077C121.962,7.624,143.258,0,165.336,0c17.562,0,34.437,4.719,49.279,13.703
	C228.506,4.719,244.506,0,261.334,0c17.976,0,35.381,5.578,49.881,15.859C324.309,5.578,340.37,0,357.338,0
	c41.156,0,74.654,33.328,74.654,74.311c0,40.968-33.498,74.311-74.654,74.311c-5.937,0-11.78-0.688-17.437-2.047
	c-11.593,27-38.437,45.062-68.678,45.062c-18.625,0-36.327-6.859-49.968-19.093c-5.5,4-11.405,7.375-17.655,10.125
	C184.381,214.822,149.632,234.649,112.008,234.649z M165.335,21.327c-18.141,0-35.593,6.641-49.14,18.687l-2.906,2.578l-3.875,0.109
	c-22.233,0.656-43.046,9.828-58.592,25.812c-15.578,16.015-24.155,37.14-24.155,59.482c0,47.046,38.279,85.326,85.341,85.326
	c31.124,0,59.78-16.953,74.811-44.265l1.859-3.391l3.594-1.406c8.359-3.266,16-7.984,22.687-14.047l8.203-7.421l7.125,8.468
	c10.172,12.109,25.093,19.047,40.937,19.047c24.366,0,45.585-16.344,51.647-39.718l3.062-11.781l11.281,4.562
	c6.374,2.594,13.155,3.906,20.123,3.906c29.406,0,53.312-23.765,53.312-52.968c0-29.218-23.906-52.982-53.312-52.982
	c-14.468,0-27.998,5.656-38.123,15.937l-7.125,7.234l-7.594-6.75c-11.875-10.593-27.187-16.421-43.162-16.421
	c-14.641,0-28.453,4.75-39.938,13.719l-6.312,4.921l-6.499-4.687C195.943,26.155,180.99,21.327,165.335,21.327z"/>
<g>
</g>
<g>
</g>
<g>
</g>
<g>
</g>
<g>
</g>
<g>
</g>
<g>
</g>
<g>
</g>
<g>
</g>
<g>
</g>
<g>
</g>
<g>
</g>
<g>
</g>
<g>
</g>
<g>
</g>
</svg>
