<?xml version="1.0" encoding="iso-8859-1"?>
<!-- Generator: Adobe Illustrator 19.0.0, SVG Export Plug-In . SVG Version: 6.00 Build 0)  -->
<svg version="1.1" id="Capa_1" xmlns="http://www.w3.org/2000/svg" xmlns:xlink="http://www.w3.org/1999/xlink" x="0px" y="0px"
	 viewBox="0 0 512 512" style="enable-background:new 0 0 512 512;" xml:space="preserve">
<path style="fill:#607D8B;" d="M21.44,250.659c39.531-18.837,129.6-32,234.56-32s195.029,13.163,234.56,32
	c13.717-6.528,21.44-35.072,21.44-42.667c0-29.461-114.624-53.333-256-53.333S0,178.531,0,207.992
	C0,215.587,7.723,244.131,21.44,250.659z"/>
<path style="fill:#455A64;" d="M256,250.659c-141.376,0-256-23.872-256-53.333v64c0,29.461,114.624,53.333,256,53.333
	s256-23.872,256-53.333v-64C512,226.787,397.376,250.659,256,250.659z"/>
<path style="fill:#37474F;" d="M488.875,330.083l-21.333-32c-1.272-1.891-3.109-3.332-5.248-4.117
	c-4.949-1.771-121.6-43.691-174.293-43.691c-5.891,0-10.667,4.776-10.667,10.667v42.667c0,5.891,4.776,10.667,10.667,10.667
	c31.659,0,115.712,30.549,145.387,42.304c2.075,0.83,4.359,0.986,6.528,0.448l42.667-10.667c5.717-1.422,9.198-7.21,7.776-12.927
	C490.06,332.24,489.558,331.106,488.875,330.083z"/>
<path style="fill:#FFC107;" d="M181.333,229.326H288c5.891,0,10.667,4.776,10.667,10.667v85.333c0,5.891-4.776,10.667-10.667,10.667
	H181.333c-5.891,0-10.667-4.776-10.667-10.667v-85.333C170.667,234.101,175.442,229.326,181.333,229.326z"/>
<path style="fill:#FAFAFA;" d="M288,293.326h-53.333c-5.891,0-10.667-4.776-10.667-10.667s4.776-10.667,10.667-10.667H288
	c5.891,0,10.667,4.776,10.667,10.667S293.891,293.326,288,293.326z"/>
<g>
</g>
<g>
</g>
<g>
</g>
<g>
</g>
<g>
</g>
<g>
</g>
<g>
</g>
<g>
</g>
<g>
</g>
<g>
</g>
<g>
</g>
<g>
</g>
<g>
</g>
<g>
</g>
<g>
</g>
</svg>
