<?xml version="1.0" encoding="iso-8859-1"?>
<!-- Generator: Adobe Illustrator 19.0.0, SVG Export Plug-In . SVG Version: 6.00 Build 0)  -->
<svg version="1.1" id="Layer_1" xmlns="http://www.w3.org/2000/svg" xmlns:xlink="http://www.w3.org/1999/xlink" x="0px" y="0px"
	 viewBox="0 0 361.957 361.957" style="enable-background:new 0 0 361.957 361.957;" xml:space="preserve">
<g id="XMLID_1480_">
	<g id="XMLID_1481_">
		<path id="XMLID_1482_" style="fill:#FF628B;" d="M275.925,301.466c6.754-3.544,10.429-11.087,9.026-18.584
			c-8.418-44.978-34.088-63.177-36.372-63.177H113.496c-2.388,0-28.193,17.496-36.491,62.194
			c-1.388,7.476,2.202,14.994,8.903,18.588c20.391,10.936,63.802,35.635,78.235,54.94c3.073,4.11,7.897,6.529,13.028,6.529h7.657
			c5.1,0,9.905-2.383,12.973-6.457C212.256,336.311,255.482,312.195,275.925,301.466z"/>
		<path id="XMLID_1483_" style="fill:#CF476A;" d="M284.952,282.882c-8.418-44.978-34.088-63.177-36.372-63.177h-67.588v142.252
			h3.836c5.1,0,9.905-2.383,12.973-6.457c14.454-19.189,57.681-43.306,78.124-54.035
			C282.679,297.922,286.355,290.379,284.952,282.882z"/>
	</g>
	<g id="XMLID_1484_">
		<path id="XMLID_1485_" style="fill:#C1E8E6;" d="M274.127,80.504c-0.016-0.021-54.277-62.783-54.277-62.783
			C209.982,6.514,195.825,0.067,180.979,0c-14.847,0.067-29.003,6.514-38.871,17.72c0,0-54.261,62.762-54.277,62.783
			c-9.808,12.718-22.549,40.537,13.56,87.554c14.368,18.708,68.875,0.231,78.632,0.231c0.27,0,0.59,0.02,0.956,0.057
			c0.366-0.037,0.686-0.057,0.956-0.057c9.758,0,64.265,18.477,78.632-0.231C296.676,121.041,283.935,93.222,274.127,80.504z
			 M180.979,106.694c-6.477,0-45.198-13.086-70.648-20.828l47.06-54.433c5.991-6.804,14.578-10.726,23.589-10.793
			c9.011,0.067,17.597,3.989,23.589,10.793l47.06,54.433C226.177,93.608,187.456,106.694,180.979,106.694z"/>
		<path id="XMLID_1490_" style="fill:#A0CFF1;" d="M274.127,80.504c-0.016-0.021-54.277-62.783-54.277-62.783
			C209.985,6.517,195.834,0.072,180.992,0v20.64c9.006,0.071,17.587,3.992,23.575,10.792l47.06,54.433
			c-25.435,7.738-64.123,20.811-70.635,20.827v61.651c0.36-0.036,0.676-0.056,0.943-0.056c9.758,0,64.265,18.477,78.632-0.231
			C296.676,121.041,283.935,93.222,274.127,80.504z"/>
	</g>
</g>
<g>
</g>
<g>
</g>
<g>
</g>
<g>
</g>
<g>
</g>
<g>
</g>
<g>
</g>
<g>
</g>
<g>
</g>
<g>
</g>
<g>
</g>
<g>
</g>
<g>
</g>
<g>
</g>
<g>
</g>
</svg>
