<?xml version="1.0" encoding="iso-8859-1"?>
<!-- Generator: Adobe Illustrator 19.0.0, SVG Export Plug-In . SVG Version: 6.00 Build 0)  -->
<svg version="1.1" id="Layer_1" xmlns="http://www.w3.org/2000/svg" xmlns:xlink="http://www.w3.org/1999/xlink" x="0px" y="0px"
	 viewBox="0 0 511.966 511.966" style="enable-background:new 0 0 511.966 511.966;" xml:space="preserve">
<path style="fill:#CCD1D9;" d="M148.176,121.486c-2.547-0.281-4.875,0.453-6.484,2.062l-18.093,18.093
	c-3.328,3.328-2.656,9.405,1.516,13.577l231.597,231.596c1.999,2,4.546,3.281,7.093,3.562s4.875-0.453,6.469-2.047l18.108-18.107
	c3.328-3.328,2.656-9.406-1.516-13.578L155.27,125.049C153.27,123.049,150.723,121.768,148.176,121.486z"/>
<path style="fill:#656D78;" d="M161.895,126.423l-11.312-48.997c-0.453-1.953-1.438-3.734-2.844-5.156L78.587,3.117
	c-4.172-4.156-10.921-4.156-15.093,0L3.169,63.442c-2,2-3.125,4.719-3.125,7.531c0,2.844,1.125,5.546,3.125,7.546l69.168,69.153
	c1.406,1.422,3.188,2.406,5.141,2.859l48.997,11.312c0.797,0.188,1.609,0.266,2.406,0.266c2.797,0,5.516-1.094,7.546-3.125
	l22.624-22.624C161.645,133.767,162.723,130.002,161.895,126.423z"/>
<path style="fill:#434A54;" d="M49.713,64.739c4.156,4.156,10.905,4.156,15.077,0c4.172-4.172,4.172-10.921,0-15.093L40.87,25.725
	L25.808,40.818L49.713,64.739z"/>
<path style="fill:#656D78;" d="M434.504,361.348l-48.996-11.312c-3.594-0.827-7.344,0.25-9.953,2.844l-22.624,22.624
	c-2.594,2.609-3.672,6.359-2.844,9.937l11.312,49.014c0.453,1.953,1.438,3.734,2.844,5.141l69.168,69.152
	c4.156,4.172,10.906,4.172,15.078,0l60.324-60.309c2-2,3.109-4.719,3.109-7.547s-1.109-5.547-3.109-7.547l-69.168-69.152
	C438.239,362.786,436.458,361.786,434.504,361.348z"/>
<path style="fill:#434A54;" d="M486.19,471.061l-23.905-23.92c-4.171-4.172-10.921-4.172-15.093,0
	c-4.156,4.155-4.156,10.921,0,15.076l23.92,23.922L486.19,471.061z"/>
<path style="fill:#48CFAD;" d="M497.706,2.117c-1.625,0.234-38.342,4.172-98.402,31.28c-35.014,15.828-70.152,35.655-104.4,58.966
	C252.156,121.408,210.643,156,171.52,195.123c-39.17,39.154-72.512,79.464-99.151,119.79
	c-21.405,32.421-38.561,64.966-50.966,96.684C0.013,466.343,0.045,499.888,0.06,501.294l0.094,10.672l10.671-0.094
	c1.422-0.016,35.467-0.578,90.729-22.546c32.045-12.733,64.84-30.155,97.433-51.747c40.56-26.873,80.996-60.341,120.15-99.511
	c39.123-39.107,73.59-80.511,102.401-123.024c23.123-34.061,42.7-68.95,58.184-103.635c26.546-59.513,29.889-95.729,30.107-97.323
	l1.891-14.031L497.706,2.117z"/>
<path style="fill:#656D78;" d="M308.825,203.185c-16.656-16.655-43.67-16.655-60.326,0.016l-60.325,60.309
	c-16.655,16.655-16.655,43.654,0,60.325c16.671,16.655,43.669,16.655,60.325,0l60.326-60.325
	C325.479,246.855,325.479,219.84,308.825,203.185z"/>
<g>
	<path style="fill:#37BC9B;" d="M316.355,195.654c-20.765-20.796-54.606-20.796-75.402,0l-60.309,60.31
		c-20.796,20.794-20.796,54.622,0,75.402c10.062,10.077,23.467,15.624,37.686,15.624c14.249,0,27.639-5.547,37.716-15.624
		l60.31-60.31c10.077-10.077,15.624-23.467,15.624-37.716C331.979,219.107,326.432,205.716,316.355,195.654z M301.294,255.964
		l-60.341,60.324c-6.031,6.047-14.077,9.375-22.624,9.375c-8.531,0-16.562-3.328-22.608-9.375
		c-12.468-12.452-12.468-32.764,0-45.231l60.325-60.34c12.469-12.452,32.764-12.452,45.248,0c6.031,6.047,9.359,14.077,9.359,22.624
		C310.653,241.886,307.325,249.933,301.294,255.964z"/>
	<path style="fill:#37BC9B;" d="M112.725,399.206c-4.172-4.156-10.921-4.156-15.093,0L0.231,496.622
		c-0.172,2.797-0.172,4.391-0.172,4.672l0.094,10.672l10.671-0.094c0.281,0,1.828-0.031,4.546-0.234l97.354-97.354
		C116.865,410.128,116.865,403.362,112.725,399.206z"/>
	<path style="fill:#37BC9B;" d="M429.427,82.488c4.171,4.172,10.921,4.172,15.093,0l64.715-64.715
		c0.375-2.172,0.562-3.421,0.594-3.687l1.891-14.031l-14.014,2.062c-0.266,0.031-1.484,0.219-3.609,0.625l-64.669,64.669
		C425.271,71.583,425.271,78.332,429.427,82.488z"/>
</g>
<g>
	<path style="fill:#E6E9ED;" d="M409.975,102.034V82.535c0-5.891-4.781-10.656-10.672-10.656c-5.89,0-10.64,4.765-10.64,10.656
		l-0.016,19.499h-19.499c-5.891,0-10.656,4.781-10.656,10.671c0,5.875,4.766,10.656,10.656,10.656h19.515v19.499
		c-0.016,5.89,4.75,10.655,10.64,10.655c2.953,0,5.609-1.188,7.547-3.125c1.922-1.921,3.125-4.593,3.125-7.53v-19.499h19.499
		c2.938,0,5.608-1.203,7.546-3.125c1.922-1.938,3.125-4.578,3.125-7.531c0-5.89-4.781-10.671-10.671-10.671H409.975z"/>
	<path style="fill:#E6E9ED;" d="M364.743,147.282v-19.515c0-5.89-4.781-10.64-10.671-10.64s-10.671,4.75-10.671,10.64v19.515h-19.5
		c-5.89,0-10.655,4.765-10.655,10.656c0,5.89,4.766,10.671,10.655,10.671h19.5v19.499c0,5.891,4.781,10.672,10.671,10.672
		c2.938,0,5.608-1.203,7.546-3.125c1.922-1.938,3.125-4.609,3.125-7.547v-19.499h19.5c2.937,0,5.608-1.203,7.53-3.125
		c1.922-1.938,3.109-4.593,3.109-7.546c0-5.891-4.75-10.656-10.64-10.656H364.743z"/>
</g>
<path style="fill:#37BC9B;" d="M165.519,376.582c-8.343,8.327-21.842,8.327-30.17,0s-8.328-21.843,0-30.17
	c8.328-8.328,21.843-8.328,30.17,0C173.847,354.739,173.847,368.254,165.519,376.582z"/>
<g>
</g>
<g>
</g>
<g>
</g>
<g>
</g>
<g>
</g>
<g>
</g>
<g>
</g>
<g>
</g>
<g>
</g>
<g>
</g>
<g>
</g>
<g>
</g>
<g>
</g>
<g>
</g>
<g>
</g>
</svg>
