<?xml version="1.0" encoding="iso-8859-1"?>
<!-- Generator: Adobe Illustrator 19.0.0, SVG Export Plug-In . SVG Version: 6.00 Build 0)  -->
<svg version="1.1" id="Layer_1" xmlns="http://www.w3.org/2000/svg" xmlns:xlink="http://www.w3.org/1999/xlink" x="0px" y="0px"
	 viewBox="0 0 511.983 511.983" style="enable-background:new 0 0 511.983 511.983;" xml:space="preserve">
<g>
	<path style="fill:#CCD1D9;" d="M314.65,373.331c-5.875,0-10.656-4.781-10.656-10.672v-213.32c0-5.89,4.781-10.671,10.656-10.671
		c5.906,0,10.688,4.781,10.688,10.671v213.32C325.338,368.55,320.556,373.331,314.65,373.331z"/>
	<path style="fill:#CCD1D9;" d="M16.012,373.331c-5.906,0-10.671-4.781-10.671-10.672v-213.32c0-5.89,4.765-10.671,10.671-10.671
		c5.891,0,10.656,4.781,10.656,10.671v213.32C26.667,368.55,21.902,373.331,16.012,373.331z"/>
</g>
<path style="fill:#48CFAD;" d="M297.65,94.341L230.192,19.39C220.255,8.344,201.537,0,186.663,0h-42.655
	c-14.875,0-33.592,8.344-43.545,19.39L33.012,94.34c-9.531,10.594-17,30.062-17,44.327V373.33c0,14.25,7.469,33.718,17,44.326
	l67.451,74.951c9.953,11.047,28.67,19.375,43.545,19.375h42.655c14.875,0,33.592-8.328,43.529-19.375l67.458-74.951
	c9.531-10.608,17-30.076,17-44.326V138.668C314.65,124.402,307.181,104.934,297.65,94.341z"/>
<polygon style="fill:#E6E9ED;" points="16.012,213.337 16.012,227.57 16.012,234.664 16.012,298.662 58.666,298.662 58.666,234.664 
	58.666,227.57 58.666,213.337 "/>
<path style="fill:#CCD1D9;" d="M44.886,248.461c4.156,4.156,4.156,10.905,0,15.077c-4.171,4.172-10.921,4.172-15.093,0
	c-4.156-4.172-4.156-10.921,0-15.077C33.964,244.289,40.714,244.289,44.886,248.461z"/>
<polygon style="fill:#E6E9ED;" points="271.996,213.337 271.996,227.57 271.996,234.664 271.996,298.662 314.65,298.662 
	314.65,234.664 314.65,227.57 314.65,213.337 "/>
<path style="fill:#CCD1D9;" d="M300.869,248.461c4.156,4.156,4.156,10.905,0,15.077s-10.905,4.172-15.093,0
	c-4.156-4.172-4.156-10.921,0-15.077C289.964,244.289,296.713,244.289,300.869,248.461z"/>
<path style="fill:#37BC9B;" d="M254.988,110.716L211.192,62.06c-9.937-11.062-28.655-19.39-43.529-19.39h-4.656
	c-14.875,0-33.593,8.328-43.53,19.39l-43.795,48.655c-9.546,10.593-17.015,30.062-17.015,44.326v201.914
	c0,14.25,7.469,33.734,17.015,44.327l43.795,48.655c9.937,11.046,28.655,19.39,43.53,19.39h4.656
	c14.875,0,33.593-8.344,43.529-19.39l43.796-48.655c9.531-10.593,17.008-30.077,17.008-44.327V155.042
	C271.996,140.777,264.519,121.308,254.988,110.716z"/>
<g>
	<rect x="58.666" y="159.992" style="fill:#434A54;" width="213.33" height="42.671"/>
	<rect x="58.666" y="309.332" style="fill:#434A54;" width="213.33" height="42.654"/>
	<path style="fill:#434A54;" d="M378.647,511.983c-5.875,0-10.656-4.766-10.656-10.656V159.995c0-5.891,4.781-10.656,10.656-10.656
		c5.906,0,10.688,4.766,10.688,10.656v341.332C389.335,507.218,384.554,511.983,378.647,511.983z"/>
	<path style="fill:#434A54;" d="M463.989,362.659c-5.906,0-10.656-4.766-10.656-10.671V10.673c0-5.891,4.75-10.672,10.656-10.672
		s10.655,4.781,10.655,10.672v341.315C474.644,357.893,469.895,362.659,463.989,362.659z"/>
</g>
<g>
	<path style="fill:#656D78;" d="M421.334,10.673c0-5.891-4.781-10.672-10.688-10.672h-63.997c-5.874,0-10.655,4.781-10.655,10.672
		v95.996c0,1.359,0.25,2.703,0.75,3.953l21.342,53.342c1.624,4.047,5.53,6.703,9.905,6.703h21.344c4.344,0,8.281-2.656,9.906-6.703
		l21.312-53.342c0.5-1.25,0.781-2.594,0.781-3.953L421.334,10.673L421.334,10.673z"/>
	<path style="fill:#656D78;" d="M505.893,401.361l-21.343-53.326c-1.625-4.046-5.531-6.702-9.906-6.702h-21.312
		c-4.375,0-8.281,2.656-9.906,6.702l-21.343,53.326c-0.5,1.266-0.75,2.609-0.75,3.969v95.997c0,5.891,4.749,10.656,10.655,10.656
		h63.998c5.906,0,10.656-4.766,10.656-10.656V405.33C506.643,403.971,506.393,402.627,505.893,401.361z"/>
</g>
<g>
</g>
<g>
</g>
<g>
</g>
<g>
</g>
<g>
</g>
<g>
</g>
<g>
</g>
<g>
</g>
<g>
</g>
<g>
</g>
<g>
</g>
<g>
</g>
<g>
</g>
<g>
</g>
<g>
</g>
</svg>
