<?xml version="1.0" encoding="iso-8859-1"?>
<!-- Generator: Adobe Illustrator 19.0.0, SVG Export Plug-In . SVG Version: 6.00 Build 0)  -->
<svg version="1.1" id="Layer_1" xmlns="http://www.w3.org/2000/svg" xmlns:xlink="http://www.w3.org/1999/xlink" x="0px" y="0px"
	 viewBox="0 0 511.986 511.986" style="enable-background:new 0 0 511.986 511.986;" xml:space="preserve">
<rect x="437.613" y="415.834" style="fill:#CCD1D9;" width="21.359" height="42.734"/>
<path style="fill:#E6E9ED;" d="M479.664,454.8c-1.609-4.25-5.688-7-10.266-6.906L52.726,458.581
	c-4.797,0.109-8.922,3.422-10.086,8.077l-10.687,32.063c-0.797,3.188-0.078,6.562,1.945,9.156s5.132,4.109,8.421,4.109H405.57
	c2.5,0,4.906-0.875,6.828-2.469l64.108-42.734C479.992,463.862,481.273,459.065,479.664,454.8z"/>
<g>
	<path style="fill:#ED5564;" d="M448.305,426.518H234.621c-4.07,0-7.797-2.312-9.586-5.969c-1.797-3.672-1.352-8.03,1.141-11.249
		c23.148-29.922,37.586-69.015,42.906-116.217c4.32-38.374,2.656-82.084-4.945-129.919c-13.016-81.905-39.172-147.856-39.43-148.513
		c-2.117-5.273,0.273-11.281,5.438-13.664c5.156-2.383,11.281-0.312,13.929,4.71l213.668,405.148
		c1.75,3.312,1.641,7.296-0.297,10.499C455.508,424.565,452.039,426.518,448.305,426.518z"/>
	<path style="fill:#ED5564;" d="M237.847,0.504c-5.633-1.781-11.633,1.336-13.406,6.96L96.233,412.613
		c-1.023,3.249-0.445,6.796,1.57,9.53c2.008,2.75,5.211,4.375,8.617,4.375h128.201c5.906,0,10.687-4.781,10.687-10.688l-0.5-401.921
		C246.589,8.285,243.472,2.278,237.847,0.504z"/>
</g>
<path style="fill:#656D78;" d="M458.976,426.518H85.054c-5.898,0-10.68-4.781-10.68-10.688c0-5.89,4.781-10.671,10.68-10.671
	h373.923c5.906,0,10.688,4.781,10.688,10.671C469.664,421.737,464.883,426.518,458.976,426.518z"/>
<path style="fill:#434A54;" d="M245.308,453.643V10.683c0-5.898-4.781-10.679-10.687-10.679c-5.898,0-10.68,4.781-10.68,10.679
	V454.19L245.308,453.643z"/>
<g>
</g>
<g>
</g>
<g>
</g>
<g>
</g>
<g>
</g>
<g>
</g>
<g>
</g>
<g>
</g>
<g>
</g>
<g>
</g>
<g>
</g>
<g>
</g>
<g>
</g>
<g>
</g>
<g>
</g>
</svg>
