<?xml version="1.0" encoding="iso-8859-1"?>
<!-- Generator: Adobe Illustrator 19.0.0, SVG Export Plug-In . SVG Version: 6.00 Build 0)  -->
<svg version="1.1" id="Layer_1" xmlns="http://www.w3.org/2000/svg" xmlns:xlink="http://www.w3.org/1999/xlink" x="0px" y="0px"
	 viewBox="0 0 511.983 511.983" style="enable-background:new 0 0 511.983 511.983;" xml:space="preserve">
<path style="fill:#965353;" d="M493.077,360.892c-2.937,17.641-12.593,23.125-18.108,24.812L68.412,511.013
	c-2.703,0.844-5.625,0.562-8.125-0.75c-2.5-1.328-4.375-3.594-5.203-6.281l-25.125-81.498c-1.734-5.625,1.422-11.578,7.047-13.312
	l406.572-125.309c2.078-0.656,4.234-0.969,6.422-0.969c16,0,31.999,17.062,39.843,42.468
	C493.671,337.801,494.811,350.425,493.077,360.892z"/>
<path style="fill:#EAAD7A;" d="M40.148,419.359c11.25-3.469,25.999,11.953,32.937,34.469c6.937,22.499,3.437,43.529-7.812,46.998
	s-25.999-11.953-32.937-34.452S28.898,422.828,40.148,419.359z"/>
<g>
	<path style="fill:#7F4545;" d="M83.271,450.672c3.828,12.437,4.984,25.062,3.234,35.529c-2.172,13.078-8.594,21.891-18.093,24.812
		c-2.078,0.656-4.234,0.969-6.422,0.969c-16,0-32.015-17.062-39.842-42.468c-3.828-12.437-4.984-25.062-3.234-35.53
		c2.172-13.078,8.593-21.891,18.093-24.812c2.062-0.641,4.234-0.969,6.421-0.969l0,0C59.428,408.204,75.443,425.265,83.271,450.672z
		 M62.131,490.654c0.344-0.109,2.344-1.922,3.344-7.938c1.203-7.171,0.25-16.562-2.578-25.764
		c-5.546-18-15.625-27.438-19.468-27.438c-0.062,0-0.109,0.016-0.141,0.031c-0.344,0.094-2.343,1.922-3.343,7.938
		c-1.203,7.156-0.25,16.562,2.578,25.749c5.547,17.999,15.625,27.437,19.468,27.437C62.037,490.67,62.084,490.67,62.131,490.654z"/>
	<path style="fill:#7F4545;" d="M394.706,376.986c-5.469,1.688-6.719,4.375-7.203,6.781c-0.578,2.781-0.031,5.734,0.219,6.656
		l-0.031-0.125l-20.375,6.296c-0.406-1.359-3.922-13.608,2.125-25.077c2.609-4.938,8.016-11.516,18.984-14.891
		c17.109-5.265,81.857-25.936,101.138-32.092c0.094,0.266,0.188,0.547,0.281,0.828c2.093,6.812,3.39,13.688,3.843,20.234
		C471.923,352.55,411.252,371.892,394.706,376.986z"/>
	<path style="fill:#7F4545;" d="M215.985,376.267l-20.374,6.312l-0.031-0.125c0.266,0.906,0.797,3.875,0.234,6.641
		c-0.5,2.406-1.75,5.093-7.203,6.78c-20.359,6.266-122.215,37.702-122.215,37.702l6.297,20.359c0,0,101.84-31.422,122.183-37.703
		c10.969-3.375,16.374-9.968,18.983-14.89C219.907,389.877,216.407,377.642,215.985,376.267z"/>
</g>
<path style="fill:#A85D5D;" d="M482.031,422.484l-25.124,81.498c-1.734,5.625-7.703,8.781-13.328,7.031L37.007,385.705
	c-5.5-1.688-15.171-7.172-18.093-24.812c-1.75-10.468-0.594-23.092,3.234-35.529c7.828-25.405,23.843-42.468,39.842-42.468l0,0
	c2.188,0,4.344,0.312,6.422,0.969l406.572,125.309c2.688,0.828,4.953,2.702,6.281,5.202
	C482.578,416.859,482.859,419.797,482.031,422.484z"/>
<g>
	<path style="fill:#965353;" d="M140.457,373.017c2.14,5.469,3.187,12.234,3.109,20.062c-0.141,12.265-3.015,23.514-3.125,23.998
		c-0.047,0.156-0.109,0.312-0.156,0.469l-20.375-6.281c0.469-2.03,2.25-10.108,2.344-18.42c0.031-3.359-0.219-14.391-4.969-15.859
		c-18.452-5.688-87.044-27.062-99.028-30.811c0.422-6.719,1.734-13.781,3.891-20.812c0.031-0.094,0.062-0.156,0.078-0.25
		c0.203,0.062,0.391,0.094,0.594,0.156c0.797,0.25,80.638,25.155,100.747,31.357C129.004,358.299,136.347,362.502,140.457,373.017z"
		/>
	<path style="fill:#965353;" d="M323.381,395.876c20.358,6.266,122.198,37.702,122.198,37.702l-6.281,20.359
		c0,0-101.839-31.422-122.198-37.703c-9.188-2.812-20.203-11.437-20.547-36.342c-0.156-12.328,2.406-23.655,2.516-24.124
		c0.062-0.25,0.125-0.5,0.203-0.75l20.406,6.28C316.849,374.361,316.865,393.86,323.381,395.876z"/>
</g>
<path style="fill:#F4BE8E;" d="M471.845,419.359c-11.25-3.469-26,11.969-32.938,34.469c-6.938,22.499-3.438,43.529,7.812,46.998
	s26-11.953,32.937-34.452C486.594,443.875,483.094,422.828,471.845,419.359z"/>
<path style="fill:#965353;" d="M474.984,409.173c9.5,2.937,15.922,11.733,18.093,24.812c1.734,10.469,0.594,23.094-3.233,35.53
	c-7.844,25.405-23.843,42.468-39.843,42.468c-2.188,0-4.344-0.312-6.422-0.969c-9.5-2.922-15.922-11.734-18.094-24.812
	c-1.749-10.468-0.594-23.093,3.234-35.529c7.828-25.406,23.844-42.468,39.844-42.468
	C470.751,408.204,472.907,408.532,474.984,409.173z M469.47,463.233c2.828-9.187,3.781-18.593,2.578-25.749
	c-1-6.016-3-7.844-3.344-7.938c-0.031-0.016-0.078-0.031-0.141-0.031c-3.844,0-13.922,9.438-19.469,27.438
	c-2.828,9.202-3.781,18.593-2.578,25.764c1,6.016,3,7.828,3.344,7.938c0.031,0.016,0.078,0.016,0.141,0.016
	C453.845,490.67,463.923,481.232,469.47,463.233z"/>
<path style="fill:#F6BB42;" d="M394.659,236.819c-5.656-26.335-20.469-52.412-44.045-77.489
	c-25.577-27.21-39.983-59.029-42.812-94.575c-2.141-26.804,3.453-45.834,3.5-45.998L317.052,0l-18.859,5.391
	c-51.568,14.733-90.738,38.607-116.394,70.981c-20.015,25.233-32.077,55.896-36.015,91.427c-0.109-0.141-0.203-0.281-0.297-0.414
	c-2.406-3.469-4.906-7.055-7.453-10.219l-11.047-13.765l-7.031,16.194c-13.062,30.062-18.749,59.467-16.905,87.411
	c1.672,25.343,9.437,48.982,23.092,70.279c14.484,22.593,35.249,41.7,60.03,55.294c23.139,12.688,49.107,19.938,73.076,20.422
	c1.156,0.016,2.328,0.047,3.5,0.047c42.053,0,101.815-33.25,125.034-86.95C397.425,283.802,399.753,260.482,394.659,236.819z"/>
<path style="fill:#FFCE54;" d="M308.974,258.224c-29.687-35.187-42.646-70.138-42.771-70.481l-5.484-15.132l-11.797,10.96
	c-31.655,29.444-52.889,57.521-63.076,83.458c-9.016,22.897-9.688,44.429-2.016,63.99c7.172,18.28,21.937,34.732,42.686,47.529
	c8.109,5,15.578,8.484,20.406,10.531c9.328,3.922,11.438,3.922,12.562,3.922l1.938,0.016l1.797-0.688
	c19.585-7.266,54.084-31.953,63.365-67.217C332.615,302.177,326.521,279.053,308.974,258.224z"/>
<g>
</g>
<g>
</g>
<g>
</g>
<g>
</g>
<g>
</g>
<g>
</g>
<g>
</g>
<g>
</g>
<g>
</g>
<g>
</g>
<g>
</g>
<g>
</g>
<g>
</g>
<g>
</g>
<g>
</g>
</svg>
