<?xml version="1.0" encoding="iso-8859-1"?>
<!-- Generator: Adobe Illustrator 19.0.0, SVG Export Plug-In . SVG Version: 6.00 Build 0)  -->
<svg version="1.1" id="Layer_1" xmlns="http://www.w3.org/2000/svg" xmlns:xlink="http://www.w3.org/1999/xlink" x="0px" y="0px"
	 viewBox="0 0 511.973 511.973" style="enable-background:new 0 0 511.973 511.973;" xml:space="preserve">
<path style="fill:#E6E9ED;" d="M475.709,154.383l0.531-20.593c3.5-6.953,12.078-26.92,12.078-55.466
	c0-17.89-5.359-32.717-15.5-42.888c-9.062-9.093-21.67-14.109-35.498-14.109c-13.842,0-26.436,5.016-35.498,14.109
	c-10.14,10.171-15.499,24.999-15.499,42.888c0,28.546,8.578,48.513,12.062,55.466l0.547,20.593
	c-5.702,14.296-36.279,93.917-36.279,158.928c0,70.342,24.546,126.025,25.593,128.354c1.719,3.844,5.531,6.312,9.733,6.312h78.668
	c4.203,0,8.016-2.469,9.734-6.312c1.047-2.328,25.592-58.012,25.592-128.354C511.972,248.3,481.412,168.679,475.709,154.383z"/>
<g>
	<path style="fill:#ED5564;" d="M398.4,134.321l0.531,20.062c-1.469,3.672-4.577,11.671-8.39,22.608h93.542
		c-3.812-10.937-6.922-18.937-8.375-22.608l0.516-20.062H398.4z"/>
	<path style="fill:#ED5564;" d="M273.127,217.521c-30.218-30.218-70.388-46.857-113.135-46.857
		c-42.732,0-82.902,16.64-113.119,46.857C16.655,247.737,0,287.907,0,330.655c0,42.732,16.655,82.902,46.873,113.119
		s70.387,46.873,113.119,46.873c42.748,0,82.917-16.656,113.135-46.873c30.217-30.217,46.856-70.387,46.856-113.119
		C319.983,287.907,303.343,247.737,273.127,217.521z"/>
</g>
<path style="opacity:0.2;fill:#FFFFFF;enable-background:new    ;" d="M273.127,217.521
	c-30.218-30.218-70.388-46.857-113.135-46.857c-3.562,0-7.125,0.125-10.656,0.359c38.717,2.531,74.777,18.812,102.463,46.498
	c30.217,30.217,46.857,70.386,46.857,113.134c0,42.732-16.64,82.902-46.857,113.119c-27.686,27.701-63.747,43.982-102.463,46.514
	c3.531,0.234,7.093,0.359,10.656,0.359c42.748,0,82.917-16.656,113.135-46.873c30.217-30.217,46.856-70.387,46.856-113.119
	C319.983,287.907,303.343,247.737,273.127,217.521z"/>
<g>
	<path style="fill:#434A54;" d="M235.425,285.391c-8.343,8.344-21.843,8.344-30.17,0c-8.328-8.328-8.328-21.826,0-30.154
		c8.328-8.344,21.827-8.344,30.17,0C243.753,263.565,243.753,277.063,235.425,285.391z"/>
	<path style="fill:#434A54;" d="M220.332,360.825c-8.328,8.328-21.827,8.328-30.17,0c-8.328-8.344-8.328-21.842,0-30.17
		c8.343-8.344,21.842-8.344,30.17,0C228.675,338.983,228.659,352.48,220.332,360.825z"/>
	<path style="fill:#434A54;" d="M159.991,300.484c-8.328,8.328-21.827,8.328-30.155,0c-8.343-8.328-8.343-21.844,0-30.17
		c8.328-8.328,21.827-8.328,30.155,0C168.335,278.641,168.335,292.157,159.991,300.484z"/>
</g>
<path style="opacity:0.3;fill:#FFFFFF;enable-background:new    ;" d="M475.709,154.383l0.531-20.593
	c3.5-6.953,12.078-26.92,12.078-55.466c0-17.89-5.359-32.717-15.5-42.888c-9.062-9.093-21.67-14.109-35.498-14.109
	c-1.797,0-3.578,0.094-5.343,0.266c11.733,1.125,22.296,5.938,30.186,13.843c10.124,10.171,15.483,24.999,15.483,42.888
	c0,28.546-8.577,48.513-12.062,55.466l-0.547,20.593c5.702,14.296,36.279,93.917,36.279,158.928
	c0,70.342-24.562,126.025-25.593,128.354c-1.719,3.844-5.531,6.312-9.749,6.312h10.671c4.203,0,8.016-2.469,9.734-6.312
	c1.047-2.328,25.592-58.012,25.592-128.354C511.972,248.3,481.412,168.679,475.709,154.383z"/>
<g>
</g>
<g>
</g>
<g>
</g>
<g>
</g>
<g>
</g>
<g>
</g>
<g>
</g>
<g>
</g>
<g>
</g>
<g>
</g>
<g>
</g>
<g>
</g>
<g>
</g>
<g>
</g>
<g>
</g>
</svg>
