<?xml version="1.0" encoding="iso-8859-1"?>
<!-- Generator: Adobe Illustrator 19.0.0, SVG Export Plug-In . SVG Version: 6.00 Build 0)  -->
<svg version="1.1" id="Capa_1" xmlns="http://www.w3.org/2000/svg" xmlns:xlink="http://www.w3.org/1999/xlink" x="0px" y="0px"
	 viewBox="0 0 512 512" style="enable-background:new 0 0 512 512;" xml:space="preserve">
<path style="fill:#FDBC4B;" d="M512,112H0v368c0,17.68,14.32,32,32,32h448c17.664,0,32-14.32,32-32V112z"/>
<path style="fill:#FFCC5B;" d="M458.096,0H53.904c-14.56,0-27.296,9.84-30.96,23.936L0,112h512l-22.928-88.064
	C485.392,9.84,472.672,0,458.096,0z"/>
<polyline style="fill:#ED6362;" points="310.864,0 317.92,112 194.08,112 201.136,0 "/>
<polyline style="fill:#E95454;" points="317.92,111.6 317.92,224.256 256,199.728 194.08,224.256 194.08,111.6 "/>
<path style="fill:#FCB644;" d="M512,112H370.064c-14.912,0-28.784,10.176-31.12,24.912c-2.976,18.64,11.344,34.72,29.424,34.72
	h39.568c14.544,0,26.304,11.888,26.144,26.432v0.624c0,0.576,0.016,1.136,0.048,1.712c0.768,13.936-10.256,25.36-24.208,25.36
	h-21.296c-14.912,0-28.784,10.176-31.12,24.912c-2.976,18.64,11.344,34.72,29.424,34.72h40.768c13.952,0,24.88,11.712,24.192,25.648
	c-0.016,0.464-0.032,0.944-0.032,1.408c0,0.48,0.016,0.944,0.032,1.424c0.688,13.936-10.256,25.648-24.192,25.648h-95.328
	c-14.912,0-28.784,10.176-31.12,24.912c-2.976,18.64,11.344,34.72,29.424,34.72h35.296c14.192,0,25.76,11.616,25.696,25.808v0.336
	c0,0.576,0.016,1.136,0.048,1.712c0.768,13.936-10.256,25.36-24.208,25.36H354.08c-14.912,0-28.784,10.176-31.12,24.912
	c-2.992,18.64,11.328,34.72,29.408,34.72H480c17.664,0,32-14.336,32-32V112z"/>
<rect x="33.664" y="377.632" style="fill:#F3F3F3;" width="160.48" height="101.712"/>
<g>
	<polygon style="fill:#464646;" points="110.912,420.912 85.968,395.968 61.04,420.912 76.32,420.912 76.32,460.992 95.632,460.992 
		95.632,420.912 	"/>
	<polygon style="fill:#464646;" points="166.704,420.912 141.776,395.968 116.832,420.912 132.112,420.912 132.112,460.992 
		151.424,460.992 151.424,420.912 	"/>
</g>
<g>
</g>
<g>
</g>
<g>
</g>
<g>
</g>
<g>
</g>
<g>
</g>
<g>
</g>
<g>
</g>
<g>
</g>
<g>
</g>
<g>
</g>
<g>
</g>
<g>
</g>
<g>
</g>
<g>
</g>
</svg>
