<?xml version="1.0" encoding="iso-8859-1"?>
<!-- Generator: Adobe Illustrator 19.0.0, SVG Export Plug-In . SVG Version: 6.00 Build 0)  -->
<svg version="1.1" id="Capa_1" xmlns="http://www.w3.org/2000/svg" xmlns:xlink="http://www.w3.org/1999/xlink" x="0px" y="0px"
	 viewBox="0 0 469.373 469.373" style="enable-background:new 0 0 469.373 469.373;" xml:space="preserve">
<g>
	<path style="fill:#C2185B;" d="M96.02,234.686c-5.891,0-10.667-4.776-10.667-10.667c0-145.28,6.784-224,42.667-224
		c28.309,0,42.667,75.371,42.667,224c0,5.891-4.776,10.667-10.667,10.667c-5.891,0-10.667-4.776-10.667-10.667
		c0-90.325-9.216-193.472-22.891-203.051c-8.149,3.349-19.776,40.917-19.776,203.051C106.686,229.911,101.911,234.686,96.02,234.686
		z"/>
	<path style="fill:#C2185B;" d="M373.353,234.686c-5.891,0-10.667-4.776-10.667-10.667c0-162.133-11.627-199.701-21.333-202.667
		c-12.075,9.195-21.333,112.341-21.333,202.667c0,5.891-4.776,10.667-10.667,10.667l0,0c-5.891,0-10.667-4.776-10.667-10.667
		c0-148.629,14.357-224,42.667-224c35.883,0,42.667,78.72,42.667,224C384.02,229.911,379.244,234.686,373.353,234.686z"/>
</g>
<g>
	<path style="fill:#EC407A;" d="M231.188,386.793c-34.389-31.275-123.733-121.6-124.501-162.944
		c-0.097-5.89-4.951-10.586-10.841-10.489c-1.78,0.029-3.524,0.504-5.073,1.38C33.838,247.083-0.948,307.881,0.02,373.353
		c0,55.616,49.344,96,117.333,96c67.051,0,113.472-65.771,115.435-68.587C235.836,396.367,235.151,390.39,231.188,386.793z"/>
	<path style="fill:#EC407A;" d="M378.601,214.74c-5.128-2.899-11.636-1.092-14.535,4.036c-0.876,1.549-1.35,3.294-1.38,5.073
		c-0.661,41.408-90.112,131.669-124.501,162.944c-3.963,3.597-4.648,9.574-1.6,13.973c1.963,2.816,48.384,68.587,115.435,68.587
		c67.989,0,117.333-40.384,117.333-96C470.321,307.881,435.535,247.083,378.601,214.74z"/>
</g>
<path style="fill:#C2185B;" d="M245.353,405.353H224.02c-5.891,0-10.667-4.776-10.667-10.667s4.776-10.667,10.667-10.667h21.333
	c5.891,0,10.667,4.776,10.667,10.667S251.244,405.353,245.353,405.353z"/>
<g>
</g>
<g>
</g>
<g>
</g>
<g>
</g>
<g>
</g>
<g>
</g>
<g>
</g>
<g>
</g>
<g>
</g>
<g>
</g>
<g>
</g>
<g>
</g>
<g>
</g>
<g>
</g>
<g>
</g>
</svg>
