<?xml version="1.0" encoding="iso-8859-1"?>
<!-- Generator: Adobe Illustrator 19.0.0, SVG Export Plug-In . SVG Version: 6.00 Build 0)  -->
<svg version="1.1" id="Capa_1" xmlns="http://www.w3.org/2000/svg" xmlns:xlink="http://www.w3.org/1999/xlink" x="0px" y="0px"
	 viewBox="0 0 512.021 512.021" style="enable-background:new 0 0 512.021 512.021;" xml:space="preserve">
<path style="fill:#FF7058;" d="M512,84.293v88.8H0v-88.8C0,72.507,9.557,62.96,21.333,62.96h469.333
	C502.453,62.96,512,72.507,512,84.293"/>
<path style="fill:#F6F7F7;" d="M512,173.104v236.885L410.005,511.995H21.333C9.557,511.995,0,502.437,0,490.661V173.104H512z"/>
<path style="fill:#CED4DF;" d="M512.021,410h-80.672c-11.776,0-21.333,9.557-21.333,21.333v80.672L512.021,410z"/>
<g>
	<rect x="161.397" y="237.029" style="fill:#89D6F7;" width="79.285" height="79.285"/>
	<rect x="51.584" y="237.029" style="fill:#89D6F7;" width="79.285" height="79.285"/>
	<rect x="271.285" y="237.029" style="fill:#89D6F7;" width="79.285" height="79.285"/>
	<rect x="381.131" y="237.029" style="fill:#89D6F7;" width="79.296" height="79.285"/>
</g>
<rect x="51.584" y="368.773" style="fill:#FFD15C;" width="79.285" height="79.275"/>
<g>
	<rect x="161.397" y="368.773" style="fill:#89D6F7;" width="79.285" height="79.275"/>
	<rect x="271.285" y="368.773" style="fill:#89D6F7;" width="79.285" height="79.275"/>
</g>
<rect x="0.01" y="173.104" style="fill:#E5E8EC;" width="512" height="15.947"/>
<g>
	<path style="fill:#FFFFFF;" d="M165.44,108.965c0,15.605-12.64,28.245-28.245,28.245c-15.595,0-28.235-12.651-28.235-28.245
		c0-15.584,12.651-28.235,28.235-28.235C152.8,80.72,165.44,93.381,165.44,108.965"/>
	<path style="fill:#FFFFFF;" d="M403.104,108.965c0,15.605-12.651,28.245-28.245,28.245c-15.595,0-28.245-12.651-28.245-28.245
		c0-15.584,12.661-28.235,28.245-28.235C390.453,80.72,403.104,93.381,403.104,108.965"/>
</g>
<g>
	<path style="fill:#334A5E;" d="M137.195,125.947L137.195,125.947c-10.517,0-19.051-8.523-19.051-19.04V19.056
		c0-10.507,8.533-19.04,19.051-19.04c10.507,0,19.051,8.533,19.051,19.04v87.84C156.245,117.424,147.712,125.947,137.195,125.947"/>
	<path style="fill:#334A5E;" d="M374.859,125.947L374.859,125.947c-10.507,0-19.051-8.523-19.051-19.04V19.056
		c-0.011-10.507,8.533-19.04,19.051-19.04s19.051,8.533,19.051,19.04v87.84C393.909,117.424,385.376,125.947,374.859,125.947"/>
</g>
<g>
</g>
<g>
</g>
<g>
</g>
<g>
</g>
<g>
</g>
<g>
</g>
<g>
</g>
<g>
</g>
<g>
</g>
<g>
</g>
<g>
</g>
<g>
</g>
<g>
</g>
<g>
</g>
<g>
</g>
</svg>
