<?xml version="1.0" encoding="iso-8859-1"?>
<!-- Generator: Adobe Illustrator 19.0.0, SVG Export Plug-In . SVG Version: 6.00 Build 0)  -->
<svg version="1.1" id="Layer_1" xmlns="http://www.w3.org/2000/svg" xmlns:xlink="http://www.w3.org/1999/xlink" x="0px" y="0px"
	 viewBox="0 0 511.987 511.987" style="enable-background:new 0 0 511.987 511.987;" xml:space="preserve">
<path style="fill:#656D78;" d="M442.969,179.844l-27.951-17.452c-8.391-14.062-51.779-81.887-112.698-90.293
	c-11.938-1.641-22.344-2.438-31.781-2.438c-41.655,0-60.419,15.937-86.372,37.999l-1.828,1.547
	c-23.108,19.608-28.905,47.576-35.045,77.168c-8.781,42.264-18.718,90.168-79.06,135.775c-2.688,2.031-4.265,5.219-4.234,8.609
	c0.031,3.375,1.671,6.531,4.39,8.516L303.054,509.94c1.828,1.344,4.047,2.047,6.266,2.047c0.75,0,1.499-0.078,2.233-0.234
	c2.953-0.641,5.516-2.5,7.016-5.125c1.094-1.875,26.717-46.935,33.342-103.137c5.547-46.92-13.094-74.31-21.047-86.011
	c-0.53-0.766-1.14-1.656-1.608-2.391c2.296-20.672,18.421-24.484,46.061-29.25c13.593-2.344,27.655-4.78,39.108-11.124
	c14.327-7.922,22.077-20.749,23.077-38.124c0.172-3.078-1-5.968-3.031-8.062l4.438-5.109c1.124-1.297,1.921-2.859,2.327-4.546
	l6.469-27.546C448.75,186.875,446.844,182.25,442.969,179.844z"/>
<path style="fill:#434A54;" d="M373.315,160.001c0,5.891-4.766,10.656-10.655,10.656c-5.891,0-10.672-4.765-10.672-10.656
	s4.781-10.671,10.672-10.671C368.55,149.33,373.315,154.111,373.315,160.001z"/>
<path style="fill:#656D78;" d="M277.288,97.863l-6.656-87.997c-0.266-3.5-2.25-6.656-5.28-8.421
	c-3.031-1.766-6.75-1.922-9.922-0.422c-2.297,1.094-56.294,27.608-63.388,112.089c-0.5,5.859,3.859,11.015,9.718,11.515
	c0.312,0.031,0.625,0.031,0.906,0.031c5.5,0,10.156-4.203,10.625-9.765c0.094-1.188,0.219-2.359,0.344-3.516l42.654-10.234
	c1.204,5.016,5.875,8.562,11.187,8.156C273.35,108.863,277.741,103.738,277.288,97.863z"/>
<path style="fill:#5D9CEC;" d="M68.39,339.275L303.054,509.94c1.828,1.344,4.047,2.047,6.266,2.047c0.75,0,1.499-0.078,2.233-0.234
	c2.953-0.641,5.516-2.5,7.016-5.125c0.438-0.75,4.719-8.281,10.155-20.624L84.717,308.543c-5.031,4.547-10.515,9.094-16.483,13.607
	c-2.688,2.031-4.265,5.219-4.234,8.609C64.031,334.135,65.671,337.291,68.39,339.275z"/>
<path style="fill:#EC87C0;" d="M447.703,191.328c1.047-4.453-0.859-9.078-4.734-11.484l-8.858-5.546l0,0l-0.984,16.296l13.312,6.094
	L447.703,191.328z"/>
<path style="opacity:0.1;enable-background:new    ;" d="M277.288,97.863l15.906-26.889c-6.438-0.688-12.406-1.109-18.031-1.25
	L277.288,97.863z"/>
<path style="opacity:0.1;enable-background:new    ;" d="M437.376,238.31c0.047-0.562,0.094-1.141,0.125-1.719
	c0.172-3.078-1-5.968-3.031-8.062h-23.78L437.376,238.31z"/>
<g>
</g>
<g>
</g>
<g>
</g>
<g>
</g>
<g>
</g>
<g>
</g>
<g>
</g>
<g>
</g>
<g>
</g>
<g>
</g>
<g>
</g>
<g>
</g>
<g>
</g>
<g>
</g>
<g>
</g>
</svg>
