<?xml version="1.0" encoding="iso-8859-1"?>
<!-- Generator: Adobe Illustrator 19.0.0, SVG Export Plug-In . SVG Version: 6.00 Build 0)  -->
<svg version="1.1" id="Layer_1" xmlns="http://www.w3.org/2000/svg" xmlns:xlink="http://www.w3.org/1999/xlink" x="0px" y="0px"
	 viewBox="0 0 511.984 511.984" style="enable-background:new 0 0 511.984 511.984;" xml:space="preserve">
<g>
	<path style="fill:#EAAD7A;" d="M160.08,468.922c-5.891,0-10.664-4.781-10.664-10.656v-138.53c0-5.906,4.773-10.656,10.664-10.656
		c5.883,0,10.656,4.75,10.656,10.656v138.529C170.736,464.14,165.963,468.922,160.08,468.922z"/>
	<path style="fill:#EAAD7A;" d="M351.896,468.922c-5.875,0-10.656-4.781-10.656-10.656v-138.53c0-5.906,4.781-10.656,10.656-10.656
		c5.906,0,10.656,4.75,10.656,10.656v138.529C362.553,464.14,357.803,468.922,351.896,468.922z"/>
</g>
<g>
	<path style="fill:#F4BE8E;" d="M117.447,510.234c-5.882,0-10.655-4.781-10.655-10.688v-179.81c0-5.906,4.773-10.656,10.655-10.656
		c5.883,0,10.656,4.75,10.656,10.656v179.811C128.103,505.453,123.33,510.234,117.447,510.234z"/>
	<path style="fill:#F4BE8E;" d="M394.537,511.984c-5.891,0-10.656-4.75-10.656-10.656V319.736c0-5.906,4.766-10.656,10.656-10.656
		s10.655,4.75,10.655,10.656v181.592C405.192,507.234,400.428,511.984,394.537,511.984z"/>
	<path style="fill:#F4BE8E;" d="M362.553,85.264H149.416c-5.883,0-10.656,4.766-10.656,10.656v170.513
		c0,5.898,4.773,10.648,10.656,10.648h213.137c5.906,0,10.672-4.75,10.672-10.648V95.92
		C373.224,90.03,368.459,85.264,362.553,85.264z M266.648,106.576h31.968v149.2h-31.968V106.576z M245.336,255.777H213.36v-149.2
		h31.976V255.777z M160.08,106.576h31.968v149.2H160.08V106.576z M351.896,255.777h-31.969v-149.2h31.969V255.777z"/>
</g>
<path style="fill:#FFD2A6;" d="M362.553,0H149.416c-5.883,0-10.656,4.773-10.656,10.664V95.92c0,5.883,4.773,10.656,10.656,10.656
	h213.137c5.906,0,10.672-4.773,10.672-10.656V10.664C373.224,4.773,368.459,0,362.553,0z"/>
<path style="fill:#F4BE8E;" d="M394.537,255.777h-277.09c-5.882,0-10.655,4.774-10.655,10.657v53.303
	c0,5.875,4.773,10.656,10.655,10.656h277.09c5.891,0,10.655-4.781,10.655-10.656v-53.303
	C405.192,260.551,400.428,255.777,394.537,255.777z"/>
<g>
	<path style="fill:#EAAD7A;" d="M149.416,255.777c-5.883,0-10.656,4.774-10.656,10.657v10.648c0,5.906,4.773,10.656,10.656,10.656
		c5.891,0,10.664-4.75,10.664-10.656v-10.648C160.08,260.551,155.306,255.777,149.416,255.777z"/>
	<path style="fill:#EAAD7A;" d="M192.048,255.777c-5.883,0-10.656,4.774-10.656,10.657v10.648c0,5.906,4.773,10.656,10.656,10.656
		s10.656-4.75,10.656-10.656v-10.648C202.704,260.551,197.93,255.777,192.048,255.777z"/>
	<path style="fill:#EAAD7A;" d="M234.68,255.777c-5.89,0-10.655,4.774-10.655,10.657v10.648c0,5.906,4.766,10.656,10.655,10.656
		c5.883,0,10.656-4.75,10.656-10.656v-10.648C245.336,260.551,240.562,255.777,234.68,255.777z"/>
	<path style="fill:#EAAD7A;" d="M277.304,255.777c-5.883,0-10.656,4.774-10.656,10.657v10.648c0,5.906,4.773,10.656,10.656,10.656
		c5.891,0,10.655-4.75,10.655-10.656v-10.648C287.96,260.551,283.195,255.777,277.304,255.777z"/>
	<path style="fill:#EAAD7A;" d="M319.928,255.777c-5.874,0-10.655,4.774-10.655,10.657v10.648c0,5.906,4.781,10.656,10.655,10.656
		c5.891,0,10.656-4.75,10.656-10.656v-10.648C330.584,260.551,325.818,255.777,319.928,255.777z"/>
	<path style="fill:#EAAD7A;" d="M362.553,255.777c-5.875,0-10.656,4.774-10.656,10.657v10.648c0,5.906,4.781,10.656,10.656,10.656
		c5.906,0,10.672-4.75,10.672-10.656v-10.648C373.224,260.551,368.459,255.777,362.553,255.777z"/>
</g>
<path style="fill:#FFD2A6;" d="M405.192,277.082h-298.4c-5.891,0-10.656-4.75-10.656-10.648c0-5.883,4.766-10.657,10.656-10.657
	h298.4c5.891,0,10.656,4.774,10.656,10.657C415.848,272.332,411.083,277.082,405.192,277.082z"/>
<g>
</g>
<g>
</g>
<g>
</g>
<g>
</g>
<g>
</g>
<g>
</g>
<g>
</g>
<g>
</g>
<g>
</g>
<g>
</g>
<g>
</g>
<g>
</g>
<g>
</g>
<g>
</g>
<g>
</g>
</svg>
