<?xml version="1.0" encoding="iso-8859-1"?>
<!-- Generator: Adobe Illustrator 19.0.0, SVG Export Plug-In . SVG Version: 6.00 Build 0)  -->
<svg version="1.1" id="Layer_1" xmlns="http://www.w3.org/2000/svg" xmlns:xlink="http://www.w3.org/1999/xlink" x="0px" y="0px"
	 viewBox="0 0 511.988 511.988" style="enable-background:new 0 0 511.988 511.988;" xml:space="preserve">
<path style="fill:#F5F7FA;" d="M373.32,32c-15.546,0-30.64,2.781-44.702,8C310.009,20.485,283.76,8.329,254.682,8.329
	c-28.734,0-54.702,11.875-73.264,30.968c-13.5-4.766-27.922-7.296-42.765-7.296c-70.577,0-127.997,57.42-127.997,127.997
	c0,25.765,7.625,50.593,22.03,71.811c14.078,20.734,33.702,36.765,56.749,46.374l6.562,2.734v220.4h319.978v-220.4l6.562-2.734
	c23.046-9.609,42.67-25.64,56.748-46.374c14.406-21.218,22.031-46.046,22.031-71.811C501.317,89.42,443.896,32,373.32,32z"/>
<g>
	<path style="fill:#E6E9ED;" d="M373.32,21.328c-18.093,0-35.39,3.468-51.233,9.781c6.859,4.687,13.203,10.093,18.906,16.093
		c10.453-2.984,21.344-4.547,32.327-4.547c31.343,0,60.796,12.219,82.967,34.374c22.155,22.156,34.358,51.624,34.358,82.967
		c0,23.609-6.984,46.374-20.188,65.812c-12.905,19.015-30.904,33.717-52.014,42.53l-13.125,5.469v14.219v202.618H106.654V288.025
		v-14.219l-13.124-5.469c-21.109-8.812-39.108-23.515-52.015-42.53c-13.203-19.438-20.188-42.202-20.188-65.812
		c0-31.343,12.203-60.811,34.359-82.967c22.171-22.155,51.623-34.374,82.967-34.374c10.983,0,21.874,1.562,32.327,4.547
		c5.703-6,12.046-11.406,18.905-16.093c-15.843-6.312-33.14-9.781-51.232-9.781C62.076,21.328,0,83.404,0,159.995
		c0,57.671,35.218,107.123,85.326,128.029v223.963h341.32V288.025c50.107-20.906,85.342-70.358,85.342-128.029
		C511.989,83.405,449.896,21.328,373.32,21.328z"/>
	<path style="fill:#E6E9ED;" d="M255.995,0c-70.702,0-127.997,57.296-127.997,127.997c0,5.891,4.766,10.656,10.656,10.656
		s10.671-4.766,10.671-10.656l0,0c0-28.499,11.094-55.28,31.234-75.42c20.156-20.155,46.936-31.249,75.436-31.249
		c28.483,0,55.264,11.093,75.42,31.249c20.141,20.14,31.234,46.921,31.234,75.404v0.016c0,5.891,4.78,10.656,10.671,10.656
		s10.671-4.766,10.671-10.656l0,0C383.991,57.296,326.681,0,255.995,0z"/>
	<rect x="85.325" y="469.314" style="fill:#E6E9ED;" width="341.32" height="42.67"/>
</g>
<g>
	<path style="fill:#CCD1D9;" d="M181.325,234.651c-5.891,0-10.672,4.781-10.672,10.671l0,0v149.326l0,0
		c0,5.891,4.781,10.67,10.672,10.67c5.89,0,10.655-4.779,10.655-10.67l0,0V245.323l0,0
		C191.98,239.432,187.215,234.651,181.325,234.651z"/>
	<path style="fill:#CCD1D9;" d="M255.979,234.651c-5.891,0-10.656,4.781-10.656,10.671l0,0v149.326l0,0
		c0,5.891,4.766,10.67,10.656,10.67s10.672-4.779,10.672-10.67l0,0V245.323l0,0C266.651,239.432,261.87,234.651,255.979,234.651z"/>
	<path style="fill:#CCD1D9;" d="M330.649,234.651c-5.891,0-10.656,4.781-10.656,10.671h-0.016v149.326h0.016
		c0,5.891,4.766,10.67,10.656,10.67s10.672-4.779,10.672-10.67V245.323C341.321,239.432,336.54,234.651,330.649,234.651z"/>
</g>
<g>
</g>
<g>
</g>
<g>
</g>
<g>
</g>
<g>
</g>
<g>
</g>
<g>
</g>
<g>
</g>
<g>
</g>
<g>
</g>
<g>
</g>
<g>
</g>
<g>
</g>
<g>
</g>
<g>
</g>
</svg>
