<?xml version="1.0" encoding="iso-8859-1"?>
<!-- Generator: Adobe Illustrator 19.0.0, SVG Export Plug-In . SVG Version: 6.00 Build 0)  -->
<svg version="1.1" id="Layer_1" xmlns="http://www.w3.org/2000/svg" xmlns:xlink="http://www.w3.org/1999/xlink" x="0px" y="0px"
	 viewBox="0 0 511.988 511.988" style="enable-background:new 0 0 511.988 511.988;" xml:space="preserve">
<path style="fill:#E6E9ED;" d="M434.146,402.383l-1.562-0.453c-23.094-6.203-30.906-12.172-41.188-16.078
	c-36.467-13.891-45.967-23.906-48.389-28.641c-0.078-0.156-0.156-0.344-0.234-0.516l-0.297-42.357l-86.482-0.985l-86.482,0.984
	l-0.297,42.357c-0.078,0.172-0.148,0.359-0.234,0.516c-2.43,4.734-11.914,14.75-48.381,28.641
	c-10.281,3.906-18.094,9.875-41.187,16.078l-1.578,0.453c-21.023,6.951-35.164,26.436-35.164,48.436v61.17h213.323h213.322v-61.17
	C469.316,428.818,455.178,409.334,434.146,402.383z"/>
<rect x="169.514" y="314.334" style="fill:#DBAFA5;" width="173.26" height="128.15"/>
<path style="fill:#EAC6BB;" d="M375.992,232.37c0,77.968-74.326,149.731-119.998,149.731c-45.671,0-120.005-71.764-120.005-149.731
	s53.733-129.403,120.005-129.403C322.273,102.967,375.992,154.403,375.992,232.37z"/>
<g>
	<path style="fill:#FC6E51;" d="M324.039,265.744c13.078-4.016,24.766,5.391,9.703,13.516
		c-30.375,16.391-53.264-45.265-79.005-13.047c-25.734,32.219,15.281,64.701,52.005,61.326
		c99.904-9.188,57.641-77.794,38.703-77.216C330.992,250.76,324.039,265.744,324.039,265.744z"/>
	<path style="fill:#FC6E51;" d="M187.949,265.744c-13.085-4.016-24.773,5.391-9.71,13.516
		c30.382,16.391,53.272-45.265,79.013-13.047c25.742,32.219-15.28,64.701-52.006,61.326c-99.904-9.188-57.639-77.794-38.702-77.216
		C181.004,250.76,187.949,265.744,187.949,265.744z"/>
</g>
<path style="fill:#F5F7FA;" d="M146.661,202.667v-64.92l-7.234-2.453c-25.976-8.812-43.429-33.187-43.429-60.624
	c0-35.296,28.71-63.998,63.999-63.998c15.5,0,30.444,5.609,42.1,15.796c11.539,10.078-0.476-1.484,1.68,13.609l24-20.671
	l56.999-2.828l21.17,17c2.156-15.093,3.078,2.968,14.609-7.109c11.656-10.187,26.609-15.796,42.109-15.796
	c35.295,0,63.982,28.702,63.982,63.998c0,31-22.094,57.483-52.545,62.968l-8.766,1.594v63.436H146.661V202.667z"/>
<path style="fill:#E6E9ED;" d="M362.664,0c-20.891,0-39.797,8.578-53.328,22.422C295.775,8.594,276.9,0,255.994,0
	c-18.281,0-35.022,6.578-48.007,17.484C195.011,6.578,178.277,0,159.996,0c-41.233,0-74.663,33.421-74.663,74.67
	c0,32.828,21.203,60.718,50.663,70.717v67.936h239.995v-65.186c34.873-6.281,61.342-36.78,61.342-73.467
	C437.334,33.422,403.896,0,362.664,0z M403.428,109.045c-8,9.484-19.094,15.921-31.217,18.109l-17.547,3.156v17.828v43.858H157.325
	v-46.608v-15.296l-14.477-4.906c-21.64-7.344-36.179-27.64-36.179-50.515c0-29.405,23.921-53.342,53.327-53.342
	c12.343,0,24.265,4.281,33.772,12.078c-7.859,11.812-12.437,26-12.437,41.264c0,5.891,4.773,10.656,10.664,10.656
	s10.664-4.766,10.664-10.656c0-29.405,23.929-53.342,53.335-53.342s53.341,23.937,53.341,53.342l0,0
	c0,5.891,4.766,10.656,10.656,10.656s10.672-4.766,10.672-10.656c0-0.031-0.016-0.047-0.016-0.062c0-12.499-3.078-24.265-8.5-34.608
	c1.656-1.953,3.469-3.797,5.438-5.516c9.703-8.484,22.156-13.155,35.078-13.155c29.404,0,53.326,23.937,53.326,53.342
	C415.99,87.248,411.521,99.452,403.428,109.045z"/>
<path style="fill:#ED5564;" d="M255.994,511.988h87.013V357.211c0,0-45.467,51.045-87.013,51.045s-86.779-51.561-86.779-51.561
	v155.293L255.994,511.988L255.994,511.988z"/>
<g>
	<path style="fill:#434A54;" d="M234.667,437.318c0,5.891-4.781,10.672-10.672,10.672c-5.89,0-10.664-4.781-10.664-10.672
		s4.773-10.656,10.664-10.656C229.886,426.662,234.667,431.428,234.667,437.318z"/>
	<path style="fill:#434A54;" d="M234.667,479.99c0,5.889-4.781,10.67-10.672,10.67c-5.89,0-10.664-4.781-10.664-10.67
		c0-5.891,4.773-10.672,10.664-10.672C229.886,469.318,234.667,474.099,234.667,479.99z"/>
	<path style="fill:#434A54;" d="M298.666,437.318c0,5.891-4.781,10.672-10.672,10.672s-10.656-4.781-10.656-10.672
		s4.766-10.656,10.656-10.656S298.666,431.428,298.666,437.318z"/>
	<path style="fill:#434A54;" d="M298.666,479.99c0,5.889-4.781,10.67-10.672,10.67s-10.656-4.781-10.656-10.67
		c0-5.891,4.766-10.672,10.656-10.672S298.666,474.099,298.666,479.99z"/>
</g>
<g>
</g>
<g>
</g>
<g>
</g>
<g>
</g>
<g>
</g>
<g>
</g>
<g>
</g>
<g>
</g>
<g>
</g>
<g>
</g>
<g>
</g>
<g>
</g>
<g>
</g>
<g>
</g>
<g>
</g>
</svg>
