<?xml version="1.0" encoding="iso-8859-1"?>
<!-- Generator: Adobe Illustrator 19.0.0, SVG Export Plug-In . SVG Version: 6.00 Build 0)  -->
<svg version="1.1" id="Layer_1" xmlns="http://www.w3.org/2000/svg" xmlns:xlink="http://www.w3.org/1999/xlink" x="0px" y="0px"
	 viewBox="0 0 512.043 512.043" style="enable-background:new 0 0 512.043 512.043;" xml:space="preserve">
<path style="fill:#F1543F;" d="M472.466,293.377c-30.933-54.4-75.733-53.333-75.733-53.333c-17.067,0-32,6.4-43.733,14.933
	c-24.533,17.067-51.2,28.8-81.067,34.133c-13.867,3.2-28.8,8.533-40.533,21.333c0,0-32,32-12.8,91.733c0,0,19.2,66.133,72.533,89.6
	c0,0,53.333,33.067,118.4,5.333c56.533-24.533,77.867-89.6,77.867-89.6C507.666,353.11,472.466,293.377,472.466,293.377z"/>
<path style="fill:#F2F2F2;" d="M447.933,315.777c-3.2,1.067-8.533,0-10.667-3.2c-17.067-30.933-38.4-33.067-39.467-33.067
	c-4.267,0-7.467-4.267-7.467-8.533s4.267-7.467,8.533-7.467c3.2,0,32,2.133,53.333,40.533
	C454.333,308.31,452.199,313.643,447.933,315.777C448.999,315.777,447.933,315.777,447.933,315.777z"/>
<path style="opacity:0.1;fill:#231F20;enable-background:new    ;" d="M310.333,347.777c-3.2-27.733-12.8-48-22.4-61.867
	c-5.333,1.067-9.6,3.2-14.933,3.2c-13.867,3.2-28.8,9.6-40.533,21.333c0,0-32,32-12.8,91.733c0,0,13.867,45.867,49.067,74.667
	c3.2-3.2,5.333-5.333,5.333-5.333C318.866,424.577,310.333,350.977,310.333,347.777z"/>
<path style="fill:#FF7058;" d="M294.333,349.91c-6.4-61.867-48-78.933-48-78.933c-16-7.467-32-6.4-45.867-4.267
	c-28.8,6.4-58.667,6.4-87.467,0c-13.867-3.2-29.867-3.2-45.867,4.267c0,0-41.6,17.067-48,78.933c0,0-8.533,69.333,30.933,110.933
	c0,0,35.2,51.2,106.667,51.2c61.867,0,106.667-51.2,106.667-51.2C302.866,418.177,294.333,349.91,294.333,349.91z"/>
<path style="fill:#F2F2F2;" d="M262.333,360.577c-4.267,0-7.467-3.2-7.467-7.467c-3.2-36.267-22.4-45.867-23.467-45.867
	c-4.267-2.133-5.333-6.4-3.2-10.667c2.133-4.267,6.4-5.333,10.667-3.2c3.2,1.067,27.733,14.933,33.067,58.667
	C270.866,356.31,267.666,360.577,262.333,360.577C263.399,360.577,262.333,360.577,262.333,360.577z"/>
<path style="fill:#4CDBC4;" d="M333.799,302.977c-3.2,0-7.467-1.067-10.667-4.267c-77.867-78.933-55.467-186.667-37.333-248.533
	c-117.333,91.733-123.733,233.6-123.733,235.733c0,7.467-6.4,13.867-14.933,13.867c-7.467,0-13.867-6.4-13.867-14.933
	c0-7.467,7.467-185.6,172.8-283.733c6.4-2.133,13.867-1.067,18.133,2.133c4.267,4.267,6.4,10.667,3.2,17.067
	c-1.067,2.133-78.933,163.2,16,259.2c5.333,5.333,5.333,14.933,0,20.267C341.266,301.91,336.999,302.977,333.799,302.977z"/>
<path style="fill:#3DC9AE;" d="M314.599,0.043c0,83.2,67.2,150.4,150.4,150.4C464.999,67.243,397.799,0.043,314.599,0.043z"/>
<g>
</g>
<g>
</g>
<g>
</g>
<g>
</g>
<g>
</g>
<g>
</g>
<g>
</g>
<g>
</g>
<g>
</g>
<g>
</g>
<g>
</g>
<g>
</g>
<g>
</g>
<g>
</g>
<g>
</g>
</svg>
