<?xml version="1.0" encoding="iso-8859-1"?>
<!-- Generator: Adobe Illustrator 19.0.0, SVG Export Plug-In . SVG Version: 6.00 Build 0)  -->
<svg version="1.1" id="Layer_1" xmlns="http://www.w3.org/2000/svg" xmlns:xlink="http://www.w3.org/1999/xlink" x="0px" y="0px"
	 viewBox="0 0 512 512" style="enable-background:new 0 0 512 512;" xml:space="preserve">
<path style="fill:#FF7058;" d="M512,224c0,165.333-235.733,278.4-246.4,282.667L256,512l-9.6-4.267C235.733,502.4,0,388.267,0,224
	v-72.533h512V224z"/>
<path style="fill:#F8B64C;" d="M246.4,434.133C235.733,429.867,0,314.667,0,151.467C0,68.267,68.267,0,151.467,0
	c39.467,0,76.8,16,104.533,42.667C283.733,16,321.067,0,360.533,0C443.733,0,512,68.267,512,151.467
	c0,165.333-235.733,278.4-246.4,282.667l-9.6,5.333L246.4,434.133z"/>
<path style="fill:#FFD15C;" d="M360.533,23.467C316.8,23.467,278.4,44.8,256,77.867c-23.467-33.067-61.867-54.4-104.533-54.4
	c-70.4,0-128,57.6-128,128c0,151.467,232.533,262.4,232.533,262.4s232.533-108.8,232.533-262.4
	C488.533,81.067,432,23.467,360.533,23.467z"/>
<path style="fill:#84DBFF;" d="M29.867,325.333L512,148.267c-1.067-30.933-10.667-58.667-26.667-83.2L1.067,244.267
	C4.267,273.067,14.933,300.8,29.867,325.333z"/>
<g>
	<path style="fill:#54C0EB;" d="M86.4,305.067l-36.267,13.867L7.467,276.267c-3.2-10.667-5.333-20.267-6.4-32l18.133-6.4
		L86.4,305.067z"/>
	<polygon style="fill:#54C0EB;" points="170.667,274.133 134.4,286.933 68.267,218.667 104.533,205.867 	"/>
	<polygon style="fill:#54C0EB;" points="256,242.133 219.733,256 152.533,187.733 189.867,174.933 	"/>
	<polygon style="fill:#54C0EB;" points="341.333,211.2 304,225.067 237.867,156.8 274.133,142.933 	"/>
	<polygon style="fill:#54C0EB;" points="425.6,180.267 389.333,193.067 322.133,125.867 359.467,112 	"/>
	<polygon style="fill:#54C0EB;" points="510.933,149.333 473.6,162.133 407.467,93.867 443.733,81.067 	"/>
</g>
<g>
	<path style="fill:#FF7058;" d="M279.467,244.267c1.067,1.067,1.067,1.067,2.133,2.133c3.2,3.2,18.133,17.067,7.467,22.4
		c0,0-1.067,0-2.133,1.067c-19.2,6.4-37.333,17.067-51.2,33.067c-4.267,5.333-9.6,9.6-11.733,13.867l-14.933-32l-22.4-60.8
		l42.667-19.2C229.333,204.8,257.067,220.8,279.467,244.267z"/>
	<path style="fill:#FF7058;" d="M186.667,222.933c0,0-29.867,34.133-49.067,49.067c0,0-29.867,25.6-28.8,30.933l37.333-4.267
		l19.2,44.8c0,0,6.4-52.267,28.8-65.067l7.467-23.467L186.667,222.933z"/>
</g>
<path style="fill:#F1543F;" d="M193.067,286.933c-1.067-2.133-2.133-4.267-3.2-6.4c-6.4-18.133-7.467-55.467-7.467-57.6l1.067-5.333
	l4.267,3.2c0,0,11.733,9.6,23.467,34.133c3.2,6.4,5.333,12.8,7.467,19.2c0,1.067,8.533,23.467,6.4,38.4
	c0,2.133-2.133,4.267-4.267,5.333c-2.133,1.067-5.333,0-7.467-1.067C208,311.467,198.4,298.667,193.067,286.933L193.067,286.933z"/>
<g>
	<path style="fill:#FF7058;" d="M221.867,120.533c0-1.067,0-2.133,0-2.133c0-5.333-2.133-25.6-11.733-20.267
		c0,0-1.067,1.067-2.133,1.067c-17.067,10.667-37.333,17.067-57.6,18.133c-6.4,0-13.867,0-18.133,0l14.933,32l32,55.467l42.667-19.2
		C219.733,184.533,225.067,152.533,221.867,120.533z"/>
	<path style="fill:#FF7058;" d="M178.133,205.867c0,0-44.8,1.067-68.267,6.4c0,0-38.4,6.4-41.6,2.133L96,188.8l-22.4-43.733
		c0,0,43.733,28.8,68.267,20.267l22.4,9.6L178.133,205.867z"/>
</g>
<path style="fill:#F1543F;" d="M133.333,158.933c1.067,2.133,2.133,4.267,3.2,6.4c9.6,17.067,38.4,41.6,39.467,42.667l5.333,3.2
	v-5.333c0-1.067,1.067-14.933-10.667-39.467c-3.2-6.4-6.4-11.733-9.6-18.133c0-1.067-11.733-21.333-25.6-29.867
	c-2.133-1.067-5.333-1.067-7.467,0c-2.133,1.067-3.2,3.2-3.2,6.4C124.8,132.267,128,147.2,133.333,158.933L133.333,158.933z"/>
<path style="fill:#40596B;" d="M183.467,236.8c-5.333-12.8-11.733-25.6-17.067-37.333c13.867-14.933,35.2-24.533,55.467-25.6
	c5.333,12.8,11.733,25.6,17.067,37.333C225.067,225.067,203.733,234.667,183.467,236.8z"/>
<g>
</g>
<g>
</g>
<g>
</g>
<g>
</g>
<g>
</g>
<g>
</g>
<g>
</g>
<g>
</g>
<g>
</g>
<g>
</g>
<g>
</g>
<g>
</g>
<g>
</g>
<g>
</g>
<g>
</g>
</svg>
