<?xml version="1.0" encoding="iso-8859-1"?>
<!-- Generator: Adobe Illustrator 19.0.0, SVG Export Plug-In . SVG Version: 6.00 Build 0)  -->
<svg version="1.1" id="Layer_1" xmlns="http://www.w3.org/2000/svg" xmlns:xlink="http://www.w3.org/1999/xlink" x="0px" y="0px"
	 viewBox="0 0 508.082 508.082" style="enable-background:new 0 0 508.082 508.082;" xml:space="preserve">
<ellipse style="fill:#40596B;" cx="253.2" cy="254.041" rx="253.2" ry="254"/>
<path style="fill:#F2F2F2;" d="M253.2,451.541c-108.6,0-196.9-88.6-196.9-197.5s88.3-197.5,196.9-197.5s196.9,88.6,196.9,197.5
	S361.8,451.541,253.2,451.541z"/>
<path style="fill:#E5E8EA;" d="M253.2,56.541c-108.6,0-196.9,88.6-196.9,197.5c0,3.8,0.1,7.5,0.3,11.3
	c5.9-103.7,91.8-186.3,196.6-186.3s190.7,82.6,196.6,186.3c0.2-3.7,0.3-7.5,0.3-11.3C450.1,145.141,361.8,56.541,253.2,56.541z"/>
<g>
	<path style="fill:#FFD15C;" d="M178.8,323.041L178.8,323.041c5.2,6.2,14.5,7,20.7,1.7l62.3-53c6.2-5.3,6.9-14.6,1.7-20.8l0,0
		c-5.2-6.2-14.5-7-20.7-1.7l-62.3,53C174.4,307.541,173.6,316.841,178.8,323.041z"/>
	<path style="fill:#FFD15C;" d="M266.5,262.441h-26.6c-0.8,0-1.4-0.6-1.4-1.4v-148.5c0-0.8,0.6-1.4,1.4-1.4h26.6
		c0.8,0,1.4,0.6,1.4,1.4v148.5C267.9,261.741,267.2,262.441,266.5,262.441z"/>
</g>
<ellipse style="fill:#FF7058;" cx="253.2" cy="251.041" rx="37.7" ry="37.9"/>
<ellipse style="fill:#F2F2F2;" cx="253.2" cy="251.041" rx="18.8" ry="18.9"/>
<path style="fill:#4CDBC4;" d="M474.2,328.241H333.5c-15.5,0-29,10.6-32.8,25.7l-27.7,112.1c-5.3,21.4,10.8,42,32.8,42h140.7
	c15.5,0,29-10.6,32.8-25.7l27.8-112C512.3,348.941,496.2,328.241,474.2,328.241z"/>
<path style="fill:#CDD6E0;" d="M266.5,79.541c-4.4-0.3-8.8-0.5-13.3-0.5c-4.5,0-8.9,0.2-13.3,0.5c1.6-5.9,7-10.2,13.3-10.2
	C259.6,69.341,264.9,73.641,266.5,79.541z"/>
<g>
	<path style="fill:#FFFFFF;" d="M348.9,436.241v10h-37.7c0.4-3.8,1.6-7.4,3.7-10.8c2-3.4,6.1-7.9,12.1-13.5c4.9-4.5,7.8-7.6,8.9-9.2
		c1.5-2.2,2.2-4.4,2.2-6.6c0-2.4-0.6-4.3-1.9-5.6s-3.1-1.9-5.3-1.9c-2.2,0-4,0.7-5.4,2c-1.3,1.4-2.1,3.6-2.3,6.8l-10.7-1.1
		c0.6-5.9,2.6-10.2,6-12.8s7.6-3.9,12.6-3.9c5.5,0,9.9,1.5,13.1,4.5s4.7,6.7,4.7,11.2c0,2.5-0.5,5-1.4,7.2c-0.9,2.3-2.3,4.7-4.3,7.2
		c-1.3,1.7-3.7,4.1-7,7.2c-3.4,3.1-5.5,5.2-6.5,6.2c-0.9,1-1.6,2-2.2,3h21.4V436.241z"/>
	<path style="fill:#FFFFFF;" d="M377.2,446.341v-11.3h-23v-9.5l24.4-35.8h9v35.7h7v9.5h-7v11.3h-10.4V446.341z M377.2,425.441v-19.2
		l-12.9,19.2H377.2z"/>
	<path style="fill:#FFFFFF;" d="M396.3,447.241l13.9-58.2h8.1l-14.1,58.2H396.3z"/>
	<path style="fill:#FFFFFF;" d="M424,446.341v-56.3h11.3v22.2h22.2v-22.2h11.3v56.3h-11.3v-24.6h-22.2v24.6H424z"/>
</g>
<g>
	<ellipse style="fill:#40596B;" cx="253.2" cy="424.841" rx="13.8" ry="13.8"/>
	<ellipse style="fill:#40596B;" cx="423.5" cy="254.041" rx="13.8" ry="13.8"/>
	<ellipse style="fill:#40596B;" cx="82.9" cy="254.041" rx="13.8" ry="13.8"/>
	<path style="fill:#40596B;" d="M253.2,69.341c-6.4,0-11.8,4.3-13.3,10.2c-0.3,1.2-0.5,2.4-0.5,3.7c0,7.6,6.2,13.8,13.8,13.8
		c7.6,0,13.8-6.2,13.8-13.8c0-1.3-0.2-2.5-0.5-3.7C264.9,73.641,259.6,69.341,253.2,69.341z"/>
</g>
<g>
</g>
<g>
</g>
<g>
</g>
<g>
</g>
<g>
</g>
<g>
</g>
<g>
</g>
<g>
</g>
<g>
</g>
<g>
</g>
<g>
</g>
<g>
</g>
<g>
</g>
<g>
</g>
<g>
</g>
</svg>
