<?xml version="1.0" encoding="iso-8859-1"?>
<!-- Generator: Adobe Illustrator 19.0.0, SVG Export Plug-In . SVG Version: 6.00 Build 0)  -->
<svg version="1.1" id="Layer_1" xmlns="http://www.w3.org/2000/svg" xmlns:xlink="http://www.w3.org/1999/xlink" x="0px" y="0px"
	 viewBox="0 0 511.986 511.986" style="enable-background:new 0 0 511.986 511.986;" xml:space="preserve">
<path style="fill:#A0D468;" d="M118.497,159.918c5.187-36.062,36.358-63.857,73.903-63.857c37.546,0,68.702,27.796,73.904,63.857
	H118.497z"/>
<g>
	<path style="fill:#8CC153;" d="M192.4,85.389c-47.123,0-85.341,38.14-85.341,85.201h170.667
		C277.727,123.528,239.525,85.389,192.4,85.389z M132.074,149.262c8.812-24.765,32.53-42.545,60.326-42.545
		c27.797,0,51.499,17.78,60.327,42.545H132.074z"/>
	<path style="fill:#8CC153;" d="M177.307,170.59h30.171l0,0l52.296-52.28c-4.391-5.641-9.469-10.702-15.109-15.062l-41.608,41.593
		V86.045c-3.484-0.438-7.047-0.656-10.656-0.656c-3.624,0-7.171,0.219-10.671,0.656v58.796l-41.593-41.593
		c-5.641,4.359-10.719,9.421-15.109,15.062L177.307,170.59z"/>
</g>
<path style="fill:#E6E9ED;" d="M382.193,228.291c-15.25-37.296,0-100.294,0-100.294h-93.514h-93.497c0,0,15.25,62.998,0,100.294
	c-9.233,22.547-22.733,71.123-22.733,98.811c0,68.717,52.046,99.544,116.23,99.544c64.202,0,116.248-30.827,116.248-99.544
	C404.927,299.414,391.411,250.838,382.193,228.291z"/>
<rect x="278.023" y="416.423" style="fill:#CCD1D9;" width="21.327" height="87.11"/>
<path style="fill:#A0D468;" d="M395.349,10.656C395.349,4.765,390.568,0,384.677,0c-4.75,0-8.766,3.094-10.156,7.391l0,0v0.047
	c-0.016,0.031-0.031,0.062-0.031,0.094l-75.404,234.525l20.312,6.531l75.436-234.666l0,0
	C395.161,12.89,395.349,11.797,395.349,10.656z"/>
<path style="fill:#AC92EB;" d="M172.449,327.101c0,68.717,52.046,99.544,116.23,99.544c64.202,0,116.248-30.827,116.248-99.544
	c0-25.312-11.281-68.061-20.266-92.451H192.714C183.729,259.041,172.449,301.789,172.449,327.101z"/>
<g>
	<path style="fill:#967ADC;" d="M374.021,351.991c0,5.891-4.781,10.655-10.672,10.655s-10.671-4.765-10.671-10.655
		s4.78-10.672,10.671-10.672S374.021,346.1,374.021,351.991z"/>
	<path style="fill:#967ADC;" d="M352.46,309.32c0,5.891-4.781,10.672-10.672,10.672c-5.89,0-10.655-4.781-10.655-10.672
		s4.766-10.672,10.655-10.672C347.678,298.648,352.46,303.43,352.46,309.32z"/>
</g>
<path style="fill:#E6E9ED;" d="M352.678,490.643H224.682c-5.891,0-10.656,4.781-10.656,10.672s4.766,10.671,10.656,10.671h127.996
	c5.89,0,10.671-4.78,10.671-10.671S358.568,490.643,352.678,490.643z"/>
<g style="opacity:0.2;">
	<path style="fill:#FFFFFF;" d="M382.193,228.291c-15.25-37.296,0-100.294,0-100.294h-21.328c0,0-15.265,62.998,0,100.294
		c9.219,22.547,22.719,71.123,22.719,98.811c0,64.873-46.373,95.966-105.56,99.247c3.516,0.203,7.062,0.297,10.655,0.297
		c64.202,0,116.248-30.827,116.248-99.544C404.927,299.414,391.411,250.838,382.193,228.291z"/>
</g>
<g>
</g>
<g>
</g>
<g>
</g>
<g>
</g>
<g>
</g>
<g>
</g>
<g>
</g>
<g>
</g>
<g>
</g>
<g>
</g>
<g>
</g>
<g>
</g>
<g>
</g>
<g>
</g>
<g>
</g>
</svg>
