<?xml version="1.0" encoding="iso-8859-1"?>
<!-- Generator: Adobe Illustrator 19.0.0, SVG Export Plug-In . SVG Version: 6.00 Build 0)  -->
<svg version="1.1" id="Layer_1" xmlns="http://www.w3.org/2000/svg" xmlns:xlink="http://www.w3.org/1999/xlink" x="0px" y="0px"
	 viewBox="0 0 511.986 511.986" style="enable-background:new 0 0 511.986 511.986;" xml:space="preserve">
<path style="fill:#FFCE54;" d="M95.998,202.662c-47.046,0-85.326-38.28-85.326-85.326c0-47.061,38.28-85.326,85.326-85.326
	c47.053,0,85.333,38.265,85.333,85.326C181.331,164.382,143.051,202.662,95.998,202.662z"/>
<path style="fill:#F6BB42;" d="M95.998,21.339C42.983,21.339,0,64.322,0,117.337s42.983,95.998,95.998,95.998
	c53.021,0,95.997-42.983,95.997-95.998S149.019,21.339,95.998,21.339z M169.91,106.665h-48.155l34.054-34.046
	C163.324,82.618,168.152,94.275,169.91,106.665z M106.669,43.417c12.391,1.766,24.039,6.593,34.054,14.109l-34.054,34.062
	C106.669,91.588,106.669,43.417,106.669,43.417z M85.334,91.587L51.28,57.526c10.016-7.516,21.663-12.343,34.054-14.109V91.587z
	 M85.334,191.241c-12.391-1.766-24.046-6.578-34.054-14.109l34.054-34.046V191.241z M106.669,143.086l34.054,34.046
	c-10.007,7.531-21.663,12.343-34.054,14.109C106.669,191.241,106.669,143.086,106.669,143.086z M36.194,72.619l34.054,34.046H22.094
	C23.851,94.275,28.679,82.618,36.194,72.619z M22.094,128.008h48.154l-34.054,34.046C28.679,152.039,23.851,140.399,22.094,128.008z
	 M155.808,162.054l-34.054-34.046h48.155C168.152,140.399,163.324,152.039,155.808,162.054z"/>
<rect x="298.663" y="335.123" style="fill:#CCD1D9;" width="21.328" height="149.31"/>
<path style="fill:#DA4453;" d="M309.336,341.339c-86.232,0-96.006-128.004-96.006-128.004h192.004
	C405.334,213.334,395.553,341.339,309.336,341.339z"/>
<path style="fill:#E6E9ED;" d="M437.332,234.661c-53.342,0-192.002,0-256.001,0c-63.998,0-74.662-127.996-74.662-127.996h405.317
	C511.986,106.665,490.659,234.661,437.332,234.661z"/>
<path style="fill:#ED5564;" d="M113.934,149.336c8.977,37.233,28.163,85.326,67.396,85.326c63.999,0,202.659,0,256.001,0
	c32.688,0,53.358-48.092,64.468-85.326L113.934,149.336L113.934,149.336z"/>
<path style="fill:#E6E9ED;" d="M383.99,469.335H234.666l0,0l0,0c-5.891,0-10.664,4.781-10.664,10.656
	c0,5.906,4.773,10.656,10.664,10.656l0,0l0,0H383.99c5.891,0,10.672-4.75,10.672-10.656
	C394.662,474.116,389.881,469.335,383.99,469.335z"/>
<g style="opacity:0.2;">
	<path style="fill:#FFFFFF;" d="M298.664,340.62c3.422,0.469,6.969,0.719,10.672,0.719c63.873,0,85.795-70.256,92.873-106.677
		c-6.469,0-13.625,0-21.344,0C374.209,268.973,354.366,333.307,298.664,340.62z"/>
	<path style="fill:#FFFFFF;" d="M490.659,106.665c0,0-21.327,127.996-74.67,127.996c8.062,0,15.249,0,21.343,0
		c53.327,0,74.654-127.996,74.654-127.996H490.659z"/>
</g>
<g>
</g>
<g>
</g>
<g>
</g>
<g>
</g>
<g>
</g>
<g>
</g>
<g>
</g>
<g>
</g>
<g>
</g>
<g>
</g>
<g>
</g>
<g>
</g>
<g>
</g>
<g>
</g>
<g>
</g>
</svg>
