<?xml version="1.0" encoding="iso-8859-1"?>
<!-- Generator: Adobe Illustrator 19.0.0, SVG Export Plug-In . SVG Version: 6.00 Build 0)  -->
<svg version="1.1" id="Capa_1" xmlns="http://www.w3.org/2000/svg" xmlns:xlink="http://www.w3.org/1999/xlink" x="0px" y="0px"
	 viewBox="0 0 511.253 511.253" style="enable-background:new 0 0 511.253 511.253;" xml:space="preserve">
<path style="fill:#FFD15C;" d="M197.634,67.104c0,37.067-30.027,67.083-67.093,67.083s-67.093-30.016-67.093-67.083
	S93.474,0,130.541,0S197.634,30.048,197.634,67.104"/>
<path style="fill:#F8B64C;" d="M187.512,67.104c0,31.456-25.515,56.96-56.971,56.96S73.56,98.56,73.56,67.104
	c0-31.477,25.525-56.981,56.981-56.981S187.512,35.627,187.512,67.104"/>
<g>
	<path style="fill:#FFD15C;" d="M82.647,63.872h35.904c1.557,0,2.325-1.877,1.227-2.955L94.381,35.499
		c-0.747-0.747-2.016-0.704-2.688,0.107c-5.941,7.36-9.835,16.352-10.869,26.272C80.727,62.923,81.602,63.872,82.647,63.872"/>
	<path style="fill:#FFD15C;" d="M136.738,56.331l25.419-25.397c0.747-0.747,0.704-2.016-0.128-2.688
		c-7.339-5.963-16.331-9.835-26.251-10.859c-1.056-0.128-2.005,0.747-2.005,1.813v35.915
		C133.773,56.672,135.639,57.44,136.738,56.331"/>
	<path style="fill:#FFD15C;" d="M125.314,17.376c-9.92,1.045-18.923,4.939-26.272,10.88c-0.811,0.672-0.853,1.941-0.107,2.688
		l25.419,25.397c1.099,1.109,2.955,0.331,2.955-1.227V19.211C127.319,18.144,126.37,17.269,125.314,17.376"/>
	<path style="fill:#FFD15C;" d="M118.551,70.336H82.637c-1.045,0-1.92,0.939-1.813,1.984c1.035,9.931,4.917,18.933,10.869,26.283
		c0.672,0.789,1.952,0.853,2.688,0.107l25.408-25.419C120.877,72.192,120.109,70.336,118.551,70.336"/>
	<path style="fill:#FFD15C;" d="M142.52,63.872h35.915c1.056,0,1.92-0.96,1.813-2.005c-1.035-9.92-4.917-18.933-10.869-26.272
		c-0.661-0.811-1.952-0.853-2.677-0.107l-25.408,25.419C140.215,62.005,140.983,63.872,142.52,63.872"/>
	<path style="fill:#FFD15C;" d="M178.445,70.336H142.53c-1.547,0-2.315,1.856-1.216,2.955l25.408,25.419
		c0.747,0.747,2.016,0.683,2.677-0.107c5.952-7.349,9.835-16.352,10.869-26.293C180.354,71.275,179.479,70.336,178.445,70.336"/>
	<path style="fill:#FFD15C;" d="M124.354,77.856l-25.408,25.419c-0.747,0.747-0.704,2.016,0.107,2.667
		c7.339,5.963,16.352,9.835,26.272,10.88c1.056,0.107,2.005-0.747,2.005-1.813V79.083C127.319,77.547,125.453,76.747,124.354,77.856
		"/>
	<path style="fill:#FFD15C;" d="M136.738,77.856c-1.099-1.109-2.955-0.309-2.955,1.227v35.915c0,1.067,0.949,1.92,2.005,1.813
		c9.92-1.045,18.912-4.917,26.251-10.88c0.832-0.651,0.875-1.92,0.128-2.667L136.738,77.856z"/>
</g>
<g>
	<rect x="245.176" y="362.251" style="fill:#CDD6E0;" width="28.747" height="134.624"/>
	<path style="fill:#CDD6E0;" d="M192.28,496.875L192.28,496.875c0-7.936,6.443-14.357,14.379-14.357h105.877
		c7.936,0,14.379,6.421,14.379,14.357c0,7.936-6.443,14.379-14.379,14.379H206.658C198.711,511.253,192.28,504.811,192.28,496.875"
		/>
</g>
<path style="fill:#F2F2F2;" d="M397.165,253.312c-8.523-61.707-11.232-124.043-8.299-186.208H130.327
	c2.923,62.165,0.224,124.501-8.309,186.208l-3.819,27.733c-11.787,85.813,54.901,162.229,141.397,162.229
	s153.184-76.416,141.408-162.229L397.165,253.312z"/>
<path style="fill:#FFD15C;" d="M381.314,255.499c-3.979-28.747-6.688-57.813-8.203-87.019H146.05
	c-1.504,29.227-4.213,58.293-8.192,87.019l-3.819,27.733c-4.981,36.309,5.973,72.96,30.048,100.608
	c24.096,27.605,58.891,43.435,95.499,43.435c36.619,0,71.413-15.829,95.499-43.435c24.085-27.648,35.04-64.288,30.048-100.587
	L381.314,255.499z"/>
<path style="fill:#FF7058;" d="M447.565,12.981c-1.248-5.749-6.901-9.419-12.672-8.171L334.637,34.688
	c-3.413,0.725-6.24,3.104-7.584,6.336l-53.088,127.477h23.104l47.52-114.123l94.816-28.704
	C445.154,24.416,448.802,18.752,447.565,12.981"/>
<g>
	<path style="fill:#FFFFFF;" d="M249.058,340.309l-21.792-21.792c-5.771-5.771-15.115-5.771-20.885,0l-21.792,21.792
		c-5.76,5.771-5.76,15.104,0,20.875l21.792,21.792c5.771,5.771,15.115,5.771,20.885,0l21.792-21.792
		C254.829,355.413,254.829,346.08,249.058,340.309"/>
	<path style="fill:#FFFFFF;" d="M338.733,299.232l-21.792-21.792c-5.771-5.771-15.115-5.771-20.885,0l-21.792,21.792
		c-5.76,5.771-5.76,15.125,0,20.896l21.792,21.792c5.771,5.749,15.115,5.749,20.885,0l21.792-21.792
		C344.504,314.357,344.504,305.003,338.733,299.232"/>
</g>
<g>
</g>
<g>
</g>
<g>
</g>
<g>
</g>
<g>
</g>
<g>
</g>
<g>
</g>
<g>
</g>
<g>
</g>
<g>
</g>
<g>
</g>
<g>
</g>
<g>
</g>
<g>
</g>
<g>
</g>
</svg>
