<svg height="512pt" viewBox="-134 0 512 512.00001" width="512pt" xmlns="http://www.w3.org/2000/svg"><path d="m200.222656 512h-156.695312l-26.117188-287.277344 17.410156-8.707031h174.109376l17.410156 8.707031zm0 0" fill="#744630"/><path d="m171.070312 303.070312c-9.59375-27.164062-39.390624-41.410156-66.554687-31.816406-14.871094 5.253906-26.566406 16.949219-31.816406 31.816406h-48.167969l1.585938 17.410157 7.914062 87.054687h38.648438c9.59375 27.164063 39.394531 41.410156 66.558593 31.816406 14.867188-5.253906 26.5625-16.949218 31.816407-31.816406h38.648437l7.933594-87.054687 1.582031-17.410157zm0 0" fill="#cd9c7a"/><path d="m217.636719 181.195312-17.414063 8.703126h-147.988281l-26.117187-8.703126c0-48.078124 38.972656-87.054687 87.054687-87.054687h17.410156c48.078125 0 87.054688 38.976563 87.054688 87.054687zm0 0" fill="#cdcdcd"/><path d="m130.582031 181.195312h-17.410156v-130.582031c0-2.8125 1.355469-5.453125 3.644531-7.085937l60.941406-43.527344 10.113282 14.171875-57.289063 40.925781zm0 0" fill="#5e8569"/><path d="m113.171875 94.140625h17.410156v95.757813h-17.410156zm0 0" fill="#55785f"/><path d="m128.03125 398.828125c-9.242188.027344-18.105469-3.648437-24.621094-10.199219l-12.308594-12.3125c-13.445312-13.746094-13.203124-35.792968.546876-49.242187 13.53125-13.234375 35.15625-13.234375 48.691406-.003907l12.308594 12.320313c13.59375 13.597656 13.59375 35.640625 0 49.238281-6.511719 6.550782-15.378907 10.226563-24.617188 10.199219zm-12.308594-64.539063c-9.617187 0-17.410156 7.796876-17.410156 17.414063.003906 4.613281 1.835938 9.039063 5.097656 12.304687l12.3125 12.308594c6.886719 6.582032 17.730469 6.582032 24.617188 0 6.796875-6.796875 6.796875-17.820312 0-24.617187l-12.308594-12.320313c-3.261719-3.269531-7.691406-5.101562-12.308594-5.089844zm0 0" fill="#744630"/><path d="m146.496094 391.175781c-2.308594 0-4.523438-.917969-6.15625-2.550781l-49.238282-49.246094c-3.339843-3.457031-3.242187-8.96875.214844-12.308594 3.371094-3.257812 8.722656-3.257812 12.09375 0l49.238282 49.246094c3.398437 3.402344 3.398437 8.914063 0 12.3125-1.632813 1.632813-3.847657 2.546875-6.152344 2.546875zm0 0" fill="#744630"/><path d="m0 181.195312h243.75v43.527344h-243.75zm0 0" fill="#d9d9d9"/></svg>