<?xml version="1.0" encoding="iso-8859-1"?>
<!-- Generator: Adobe Illustrator 19.0.0, SVG Export Plug-In . SVG Version: 6.00 Build 0)  -->
<svg version="1.1" id="Capa_1" xmlns="http://www.w3.org/2000/svg" xmlns:xlink="http://www.w3.org/1999/xlink" x="0px" y="0px"
	 viewBox="0 0 512 512" style="enable-background:new 0 0 512 512;" xml:space="preserve">
<path style="fill:#ACB3BA;" d="M512,88.533v334.933c0,11.733-9.6,21.333-21.333,21.333h-147.2c-11.733,0-21.333-9.6-21.333-21.333
	V88.533c0-11.733,9.6-21.333,21.333-21.333h147.2C502.4,67.2,512,76.8,512,88.533z"/>
<g>
	<rect x="341.333" y="94.933" style="fill:#CDD6E0;" width="151.467" height="35.2"/>
	<rect x="341.333" y="153.6" style="fill:#CDD6E0;" width="151.467" height="35.2"/>
	<rect x="341.333" y="212.267" style="fill:#CDD6E0;" width="151.467" height="35.2"/>
</g>
<circle style="fill:#40596B;" cx="417.067" cy="369.067" r="20.267"/>
<path style="fill:#A0ABB5;" d="M322.133,153.6v247.467h32c20.267,0,37.333-17.067,37.333-37.333V153.6H322.133z"/>
<g>
	<rect x="341.333" y="153.6" style="fill:#C3D0DB;" width="50.133" height="35.2"/>
	<rect x="341.333" y="212.267" style="fill:#C3D0DB;" width="50.133" height="35.2"/>
</g>
<rect x="114.133" y="358.4" style="fill:#CDD6E0;" width="147.2" height="61.867"/>
<rect x="84.267" y="419.2" style="fill:#F2F2F2;" width="208" height="25.6"/>
<rect x="114.133" y="358.4" style="fill:#C3D0DB;" width="147.2" height="42.667"/>
<path style="fill:#F2F2F2;" d="M354.133,384h-332.8C9.6,384,0,374.4,0,362.667v-224c0-11.733,9.6-21.333,21.333-21.333h332.8
	c11.733,0,21.333,9.6,21.333,21.333v224C375.467,374.4,365.867,384,354.133,384z"/>
<rect x="26.667" y="145.067" style="fill:#84DBFF;" width="322.133" height="213.333"/>
<g>
</g>
<g>
</g>
<g>
</g>
<g>
</g>
<g>
</g>
<g>
</g>
<g>
</g>
<g>
</g>
<g>
</g>
<g>
</g>
<g>
</g>
<g>
</g>
<g>
</g>
<g>
</g>
<g>
</g>
</svg>
