<?xml version="1.0" encoding="iso-8859-1"?>
<!-- Generator: Adobe Illustrator 19.0.0, SVG Export Plug-In . SVG Version: 6.00 Build 0)  -->
<svg version="1.1" id="Capa_1" xmlns="http://www.w3.org/2000/svg" xmlns:xlink="http://www.w3.org/1999/xlink" x="0px" y="0px"
	 viewBox="0 0 512 512" style="enable-background:new 0 0 512 512;" xml:space="preserve">
<path style="fill:#40596B;" d="M401.952,368.021H21.333C9.557,368.021,0,358.475,0,346.688V113.771
	c0-11.776,9.557-21.333,21.333-21.333h380.619c11.776,0,21.333,9.557,21.333,21.333v232.917
	C423.285,358.475,413.728,368.021,401.952,368.021"/>
<rect y="163.232" style="fill:#334A5E;" width="423.275" height="53.76"/>
<path style="fill:#54C0EB;" d="M490.667,419.563H110.048c-11.776,0-21.333-9.557-21.333-21.333V165.291
	c0-11.776,9.557-21.333,21.333-21.333h380.619c11.776,0,21.333,9.557,21.333,21.333v232.939
	C512,410.005,502.443,419.563,490.667,419.563"/>
<g>
	<path style="fill:#F2F2F2;" d="M211.637,221.44c0,25.109-20.352,45.461-45.461,45.461s-45.461-20.352-45.461-45.461
		c0-25.12,20.352-45.483,45.461-45.483S211.637,196.309,211.637,221.44"/>
	<rect x="120.715" y="285.227" style="fill:#F2F2F2;" width="69.792" height="26.379"/>
	<rect x="217.216" y="285.227" style="fill:#F2F2F2;" width="69.771" height="26.379"/>
	<rect x="313.717" y="285.227" style="fill:#F2F2F2;" width="69.771" height="26.379"/>
	<rect x="410.219" y="285.227" style="fill:#F2F2F2;" width="69.781" height="26.379"/>
</g>
<rect x="120.715" y="346.933" style="fill:#CDD6E0;" width="192.96" height="26.379"/>
<rect x="379.253" y="332.693" style="fill:#FF7058;" width="100.747" height="54.88"/>
<g>
</g>
<g>
</g>
<g>
</g>
<g>
</g>
<g>
</g>
<g>
</g>
<g>
</g>
<g>
</g>
<g>
</g>
<g>
</g>
<g>
</g>
<g>
</g>
<g>
</g>
<g>
</g>
<g>
</g>
</svg>
