<?xml version="1.0" encoding="iso-8859-1"?>
<!-- Generator: Adobe Illustrator 19.0.0, SVG Export Plug-In . SVG Version: 6.00 Build 0)  -->
<svg version="1.1" id="Capa_1" xmlns="http://www.w3.org/2000/svg" xmlns:xlink="http://www.w3.org/1999/xlink" x="0px" y="0px"
	 viewBox="0 0 512.128 512.128" style="enable-background:new 0 0 512.128 512.128;" xml:space="preserve">
<path style="fill:#65B1EF;" d="M512,105.984v300.16c0,15.52-12.64,28.16-28.16,28.16H28.16c-15.52,0-28.16-12.64-28.16-28.16
	v-300.16c0-15.52,12.64-28.16,28.16-28.16h455.68C499.36,77.824,512,90.464,512,105.984z"/>
<g>
	<path style="fill:#4E99D2;" d="M512,135.488c-2.592-0.448-5.136-0.864-7.84-1.328c-0.144,2.944-1.776,3.296-3.728,2.704
		c-2.624-0.8-2.976-2.704-1.552-5.712c-3.2-0.16-5.92-0.336-8.656-0.416c-1.376-0.048-3.024-0.4-4.08,0.208
		c-3.792,2.208-7.344,2.784-11.024-0.112c-0.416-0.32-1.136-0.384-1.696-0.368c-2.848,0.144-5.968,1.2-8.464,0.368
		c-3.728-1.216-6.8,0.016-10.176,0.688c-1.536,0.304-3.168,0.048-4.768,0.048c3.568-1.28,7.216-1.696,10.768-2.496
		c1.536-0.352,2.896-1.488,4.736-2.496c-5.248-2.592-9.68-4.464-14.352-1.264c-0.88-1.36-1.312-2.704-2.224-3.248
		c-0.944-0.576-2.368-0.416-4.096-0.656c1.04-0.48,1.536-0.704,1.968-0.896c-1.104-0.464-2.16-0.912-3.216-1.312
		c-5.6-2.16-6.4-1.984-8.912,2.24h8.528c-0.848,0.512-1.76,0.608-2.528,0.992c-4.528,2.256-9.024,3.152-14.32,2.928
		c-6.864-0.288-13.824,1.44-20.976,2.336c0.416,1.056,0.608,1.552,0.8,2.048c-4.96,2.592-10.112,0.624-15.2,0.672
		c1.088,0.944,2.16,1.616,3.312,2.144c0.608,0.288,1.344,0.336,2.032,0.464c3.472,0.704,3.744,1.232,2.48,5.04
		c-0.688-1.136-1.296-2.128-2-3.28c-3.168-0.48-6.64-1.008-10.128-1.52c0.08,0.24,0.144,0.48,0.224,0.72
		c-1.088,0.096-2.192,0.208-3.616,0.352c1.456,0.592,2.624,1.056,3.808,1.536c-0.08,0.24-0.16,0.496-0.24,0.736
		c-1.616-0.272-3.216-0.544-4.208-0.72c-0.416-1.84-0.704-3.072-0.864-3.792c-2.064,1.248-3.6,2.176-5.248,3.184
		c2.992,0.736,2.16,2.528,0.24,4.736c2.464,0,4.32-0.032,6.176,0c3.344,0.048,3.616,0.224,3.888,2.368
		c-3.856-1.776-6.048-1.328-9.376,2.384c-2.16,2.416-4.528,2.784-6.976,2.032c2.352-1.408,4.832-2.896,6.496-3.904
		c-0.8-3.984-1.376-6.832-1.952-9.664c-0.448-0.928-1.44-1.952-2.608-2.688c-0.4-0.256-1.6-0.048-1.808,0.304
		c-1.648,2.832-4.496,3.568-6.912,4.256c-0.176,1.44-0.336,2.688-0.512,3.968c1.04,0.72,2.272,1.6,3.392,2.4
		c-5.984-1.184-11.968-2.352-18.352-3.6c0.64,1.664,1.008,2.592,1.392,3.616c-6.608,1.024-12.208,0.56-14.032-1.072
		c-5.168,2.416-17.312,4.592-19.056,3.232c0.64-0.384,1.184-0.72,2.272-1.36c-2.48-0.592-4.32-1.024-6.064-1.44
		c0.672,2.224,1.248,4.096,1.968,6.464c-1.92-0.192-3.392-0.752-4.576-0.384c-2.064,0.64-3.856,2.352-5.92,2.704
		c-2.144,0.368-4.48-0.352-6.736-0.592c-0.064,0.24-0.128,0.496-0.192,0.752c1.2,0.624,2.416,1.248,3.76,1.952
		c-0.416,0.384-0.784,0.768-0.816,0.736c-2.128-1.664-6.928,0.72-6.832-4.48c0.016-0.512-0.992-1.216-1.68-1.536
		c-1.04-0.496-2.192-0.736-3.296-1.088c0.048-0.24,0.112-0.464,0.16-0.704c1.856,0.448,3.68,1.088,5.552,1.296
		c3.344,0.352,6.72,0.592,10.08,0.56c0.944-0.016,1.856-1.168,2.8-1.808c-0.768-0.672-1.456-1.792-2.304-1.968
		c-6.656-1.376-13.328-2.576-20.016-3.824c-0.336-0.064-0.688-0.096-1.168-0.176c0.672-0.576,1.12-0.976,1.68-1.456
		c-0.528-0.24-0.88-0.528-1.056-0.448c-3.616,1.536-7.328,0.288-10.976,0.336c-2.496,0.032-5.024-0.224-7.456,0.128
		c-3.056,0.448-6.032,1.6-9.088,2.064c-1.92,0.288-3.472,2.432-5.76,1.12c-0.256-0.144-1.232,1.008-1.952,1.632
		c0.768,0.208,1.36,0.368,2.08,0.576c-3.76,3.2-7.024,6.72-10.96,9.12c-3.872,2.368-8.432,3.584-12.416,5.184
		c0.192,4.128,3.072,5.728,5.744,6.976c3.44,1.616,5.488-1.936,8.08-3.264c3.712,3.376,4.688,6.784,2.496,8.656
		c0.96,0.16,1.856,0.416,2.784,0.48c3.152,0.208,6.384-1.344,6.816-3.488c0.496-2.48,1.28-4.32,4.256-4.368
		c0.56-0.016,1.088-0.944,1.632-1.456c-0.576-0.416-1.104-0.944-1.744-1.232c-0.672-0.304-1.456-0.352-2.128-0.512
		c-0.08-3.632,2.416-4.544,4.912-5.584c2.352-0.992,5.696-1.12,5.28-5.088c-0.032-0.208,0.576-0.672,0.88-0.672
		c2.208-0.064,4.416-0.032,6.976-0.032c-1.504,2.976-3.296,4.624-6.256,4.64c-1.536,0-2.768,0.304-2.736,2.304
		c0.032,1.6-0.176,3.2-0.304,5.232c3.824,1.792,8.048,0.72,12.128-0.448c2.048-0.576,3.808-1.2,5.76,0.832
		c-4.816,0.72-9.408,1.408-13.984,2.096c0.016,0.224,0.048,0.464,0.08,0.688c1.28,0.624,2.56,1.248,3.904,1.888
		c-1.76,2.512-1.76,2.512-4.176,1.344c-2.144-1.04-4.032,0.08-4.128,2.448c-0.128,3.248-1.504,4.224-4.624,3.344
		c-0.944-0.256-2.208-0.8-2.848-0.416c-3.984,2.384-8.176,1.344-12.304,1.024c-1.136-0.08-2.752-0.48-3.184-1.28
		c-0.448-0.8,0.304-2.256,0.576-3.728c-0.368-0.32-0.96-1.072-1.728-1.488c-1.712-0.944-3.248-0.16-3.392,1.536
		c-0.16,1.856,0.528,3.792,0.896,5.872c-1.968,0.32-4.176,0.672-5.52,0.896c-1.392,1.632-2.144,3.232-3.36,3.76
		c-2.64,1.152-5.52,1.744-8.304,2.576h0.016l0.064-0.048h-0.048l-0.016,0.032c-1.152,0.528-2.304,1.008-3.424,1.552
		c-0.608,0.288-1.136,0.752-1.744,1.056c-1.104,0.56-2.208,1.104-3.376,1.536c-1.008,0.384-2.08,0.608-3.12,0.896
		c1.008,1.184,1.824,1.568,2.656,1.904c2.928,1.2,4.768,3.664,4.432,6.656c-0.112,0.976-1.328,2.576-2.096,2.592
		c-2.848,0.096-5.92,0.208-8.528-0.736c-2.576-0.928-4.32-0.352-6.544,1.056c3.248,4.192-0.336,8.272-0.096,11.472
		c2.784,1.152,4.944,2.096,7.152,2.96c0.432,0.16,0.976,0.16,1.456,0.064c2.448-0.448,5.12-0.512,7.296-1.568
		c1.808-0.88,4.528-3.264,4.272-4.416c-0.72-3.2,1.168-3.728,3.056-4.864c1.36-0.832,3.408-1.888,3.568-3.072
		c0.384-2.64,1.872-2.752,3.536-2.208c2.704,0.88,5.136,0.432,7.504-0.784c2.176-1.12,3.968-0.704,5.776,0.8
		c2.576,2.128,5.344,4.048,7.824,6.272c1.248,1.104,3.024,2.88,2.832,4.048c-0.416,2.416-2.944,1.664-4.784,1.616
		c-0.176,0-0.368,0.096-0.304,0.08c1.28,1.056,2.64,2.16,3.904,3.2c1.312-1.6,3.44-3.056,3.76-4.816
		c0.4-2.272,0.64-3.728,3.536-3.424c-5.664-2.672-11.872-4.08-14.384-11.2c1.36,0.08,2.496-0.16,3.328,0.24
		c2.56,1.216,5.024,2.656,7.488,4.064c0.592,0.336,1.008,0.976,1.552,1.408c1.616,1.328,3.264,2.624,5.024,4.048
		c0.304,0.816,0.64,2,1.184,3.104c0.88,1.776,1.888,3.52,3.216,5.984c1.232-0.608,3.056-1.504,4.72-2.32
		c-1.264-2.176-2.176-3.744-3.568-6.128h13.68c0.032,0.16,0.064,0.32,0.096,0.48c-2.08,0.448-4.144,0.912-5.792,1.264
		c0.816,1.856,1.952,3.2,1.808,4.4c-0.224,1.872,0.8,1.92,1.936,2.32c2.304,0.8,4.432,1.472,7.104,0.704
		c2-0.576,4.448,0.576,6.704,0.624c1.152,0.032,2.336-0.64,4.368-1.264c-1.2,3.744-1.856,6.8-3.184,9.504
		c-0.688,1.376-2.944,3.248-3.904,2.96c-3.568-1.088-6.208,0.576-9.088,1.904c-0.928,0.432-1.952,0.64-2.944,0.96
		c-0.08-0.24-0.176-0.496-0.256-0.752c0.912-0.496,1.808-0.992,2.672-1.456c-4.128-1.44-8.032-2.864-11.968-4.128
		c-3.936-1.28-6.304,0.768-5.616,5.712c-7.888-2.896-15.376-5.648-23.248-8.544c4.48-2.016,1.328-4.832,1.968-7.136
		c-1.408,0-2.512-0.112-3.584,0.016c-4.736,0.624-9.472,1.264-14.192,2c-2.064,0.32-4.064,1.104-6.128,1.328
		c-2.512,0.288-5.152,0.608-7.584,0.16c-2.592-0.464-4.416-0.512-5.552,2.304c-0.416,1.04-1.504,1.824-2.4,2.64
		c-2.432,2.224-5.088,4.208-5.376,7.952c-0.048,0.736-0.896,1.76-1.616,2.032c-5.456,2.032-7.936,6.848-10.608,11.376
		c-0.928,1.568-1.104,3.696-1.248,5.6c-0.224,2.656-0.048,5.344-0.128,8c-0.096,3.168-0.336,6.336-0.432,9.504
		c-0.016,0.64,0.384,1.856,0.56,1.84c2.24-0.064,2.64,1.904,3.616,3.152c1.408,1.808,2.96,3.52,4.048,5.504
		c2.368,4.32,6.528,5.936,10.72,7.552c0.48,0.176,1.152-0.112,1.712-0.24c1.696-0.352,3.376-1.008,5.072-1.056
		c4.368-0.144,8.768,0.464,12.896-1.776c5.216-2.816,7.696-1.76,9.792,4.32c1.408-0.688,2.752-1.36,4.208-2.08
		c2.752,1.76,4.192,10.496,2.08,13.216c2.528,2.704,5.024,5.408,7.536,8.08c1.664,1.776,2.48,3.504,1.584,6.208
		c-0.464,1.376,0.848,3.344,1.328,5.056c0.304,1.088,1.104,2.448,0.72,3.2c-1.12,2.192-2.592,4.224-4.16,6.144
		c-2,2.416-2.72,4.832-0.88,7.616c1.36,2.064,2.832,4.048,4.096,6.16c0.56,0.944,0.832,2.096,1.072,3.184
		c0.88,4.144,0.336,8.848,4.912,11.472c0.688,0.384,1.056,1.488,1.36,2.336c0.448,1.2,0.64,2.512,1.072,3.728
		c0.544,1.472,2.128,3.568,1.664,4.208c-1.44,1.952-0.288,2.288,0.976,3.088c0.8,0.496,1.344,1.376,1.664,1.744
		c3.136-0.192,6.096-0.944,8.816-0.4c3.52,0.672,7.04-0.512,9.04-2.064c4.16-3.248,7.376-7.792,10.576-12.112
		c1.376-1.856,1.04-5.024,4.464-5.12c0.208,0,0.576-0.384,0.592-0.608c0.256-2.4,0.432-4.816,0.672-7.216
		c0.176-1.76-0.224-4.24,0.768-5.12c2.08-1.824,4.96-2.704,7.392-4.16c1.472-0.896,3.888-2.16,3.872-3.248
		c-0.08-4.24-0.944-8.464-1.536-12.688c-0.016-0.08-0.144-0.144-0.176-0.24c-1.056-3.696-2.576-7.2-1.424-11.36
		c0.816-2.912,2.352-4.784,4.544-6.64c3.104-2.624,5.648-5.92,8.848-8.4c6.8-5.248,8.576-13.328,12.08-19.792
		c-4.128,0.432-8.32,0.912-12.528,1.28c-3.936,0.352-4.72-0.672-3.728-4.496c0.48,0.064,1.024,0.288,1.424,0.144
		c6.512-2.096,13.136-3.872,19.168-7.248c1.52-0.848,3.52-1.008,4.816-2.08c3.04-2.528,5.856-5.344,8.592-8.208
		c1.024-1.072,1.936-2.592,2.096-4c0.064-0.544-2.048-1.424-3.232-2.016c-0.704-0.352-1.52-0.448-2.288-0.672
		c-2.048-0.624-3.968-1.36-3.216-4.496c-2.208,1.616-3.84,3.12-5.728,4.16c-2.24,1.216-3.152,0.512-3.296-2
		c-0.048-0.72-0.4-1.44-0.752-2.592c-1.04,1.424-1.664,2.288-1.888,2.608c-1.712-2.896-3.408-5.68-4.944-8.528
		c-0.208-0.384,0.112-1.408,0.512-1.712c1.28-0.96,4-0.032,4.624,1.424c1.12,2.624,6.672,5.136,9.536,4.56
		c0.912-0.176,2.032,0.32,2.976,0.72c0.896,0.384,1.616,1.296,2.512,1.504c5.456,1.264,10.928,2.48,16.576,0.944
		c0.624-0.16,1.808-0.064,2.032,0.32c1.84,3.184,4.608,4.672,8.4,5.12c-1.232,0.72-2.448,1.456-3.68,2.176
		c1.792,2.896,4.288,3.104,8.016,1.024c1.328,5.008,2.304,10.224,4.112,15.168c1.808,4.944,4.416,9.584,6.448,13.872
		c5.056-4.4,7.088-9.76,6.064-14.992c2.336-1.984,3.856-3.536,5.616-4.736c2.688-1.808,3.776-5.488,7.584-6.096
		c1.04-0.16,1.856-1.824,2.88-2.912c2.752-0.768,5.936-1.664,8.864-2.496c1.488,2.224,3.328,4.336,4.432,6.784
		s1.472,5.248,2.16,7.904c4.352-1.856,4.352-1.856,6.464,2.496c0.176,0.352,0.56,0.608,0.688,0.96c0.72,2.08,1.744,4.16,1.968,6.304
		c0.192,1.904-0.512,3.904-0.88,6.176c4.768,1.248,4.704,5.936,5.872,9.472c1.28,3.872,4.464,4.112,7.088,5.648
		c-0.528-2.352-0.976-4.672-2.096-6.576c-1.312-2.192-1.488-5.584-5.184-5.824c-0.336-0.016-0.576-1.504-0.896-2.272
		c-0.352-0.864-0.656-2.336-1.2-2.432c-3.152-0.64-2.128-2.368-1.424-4.224c0.56-1.488,0.928-3.04,1.424-4.752
		c2.816-0.176,11.456,7.44,10.736,10.176c2.64-1.568,5.168-3.04,7.632-4.592c0.384-0.24,0.608-0.784,0.784-1.232
		c1.76-4.128,0.544-8.288-3.024-11.152c-0.96-0.768-2.128-1.872-2.256-2.944c-0.736-5.728,2.736-8.896,8.896-8.176
		c-0.4,0.864-0.768,1.696-1.216,2.656c0.608,0,0.928,0.096,1.168-0.016c4.048-1.776,8.224-3.328,12.064-5.472
		c2.512-1.392,4.768-3.44,6.736-5.568c2.096-2.256,3.664-4.992,5.632-7.392c0.96-1.152,1.248-1.776-0.176-2.848
		c-0.752-0.576-0.896-1.92-1.344-2.976c0.96,0.08,1.68,0.144,2.368,0.208c-0.208-4.224-4.064-4.928-6.88-7.36
		c2.992-1.808,5.504-3.344,8.112-4.912c-0.496-0.192-1.344-0.864-2.032-0.752c-1.792,0.32-3.52,0.992-5.376,1.552
		c-1.216-1.488-2.432-2.976-3.648-4.464c3.968,0.08,5.344-5.456,9.776-3.44c-0.816,1.136-1.504,2.08-2.608,3.568
		c3.312-0.656,5.984-3.92,8.944-1.216c-0.56,0.992-0.992,1.76-1.424,2.544c0.784,0.24,1.568,0.448,2.32,0.736
		c0.848,0.32,1.664,0.72,1.696,0.736c0.144,2.992,0.24,5.248,0.4,8.624c2.496-1.92,5.2-3.088,6.4-5.136
		c2.352-4.048-2.992-5.088-3.824-7.216c2.4-2.192,4.384-4.192,6.576-5.904c1.152-0.896,3.328-2.16,3.952-1.712
		c2.592,1.824,4.48,0.4,6.224-0.912c0.24-0.176,0.4-0.416,0.64-0.608v-24.064c-0.08-0.016-0.144-0.016-0.224-0.032
		c0.064-0.064,0.16-0.096,0.224-0.16v-36.016H512z"/>
	<path style="fill:#4E99D2;" d="M125.648,114.672c4.592-0.992,9.312-0.912,13.92-2.544c2.928-1.04,6.672,0.192,10.672,0.448
		c1.616-2.672,4.304,0.368,7.28-0.16c-0.816-0.32-1.616-0.624-2.416-0.944c0.224-0.336,0.448-0.688,0.672-1.024
		c2.208,0.736,4.416,1.488,6.624,2.224c3.04,1.008,6.272-0.4,7.6-3.264h48.64c1.632,0.32,3.28,0.64,4.816,0.944
		c-0.576,1.28-1.12,2.464-1.696,3.728c6.752-0.368,13.344-2.176,19.936,0.384c-6.784,1.392-13.84,1.552-20.064,6.032
		c2.144,0.928,3.872,1.68,5.552,2.416c-0.4,1.008-0.72,1.856-1.168,2.976c-1.696-0.72-3.44-1.488-5.184-2.24
		c-0.096,0.192-0.176,0.384-0.272,0.56c1.248,0.656,2.512,1.312,3.984,2.096c-1.36,1.456-2.624,2.816-4.496,4.832h-6.608
		c2.192,1.264,4.032,2.224,5.76,3.36c0.672,0.448,1.056,1.296,1.568,1.968c-0.672,0.512-1.408,1.536-2,1.472
		c-2.48-0.32-4.928-0.96-7.936-1.616c-0.048,0.064-0.576,0.688-1.328,1.6c2.192,0.256,4.08,0.48,5.952,0.704
		c0.048,0.336,0.08,0.656,0.128,0.992c-2.112,0.64-4.24,1.328-6.368,1.92c-0.672,0.192-1.408,0.272-2.08,0.192
		c-6.416-0.64-12.224,0.336-16.976,5.328c-1.152,1.216-3.056,2.88-5.424,0.896c-0.544-0.448-2.416,0.96-3.712,1.024
		c-1.84,0.096-2.544,0.608-2.16,2.528c0.08,0.416-0.992,1.008-1.44,1.584c-1.2,1.472-2.768,2.8-3.44,4.48
		c-1.584,3.872-2.704,4.416-6.432,2.576c-2.928-1.456-5.904-2.848-8.96-4.032c-3.136-1.2-5.184-3.296-6.16-6.448
		c-0.176-0.576-0.304-1.152-0.48-1.728c-1.488-4.72-1.472-4.688,3.12-6.256c0.72-0.256,1.536-1.056,1.728-1.776
		c0.112-0.416-0.912-1.184-1.504-1.696c-0.368-0.32-0.88-0.448-1.056-0.528c-0.64-5.824-5.92-2.4-8.272-4.848
		c-0.304-3.2-3.968-6.512-8.832-7.024c-3.856-0.416-7.76-0.256-11.648-0.32c-3.024-0.048-6.048,0.848-8.96-1.184
		c-1.04-0.752-2.96-0.272-4.496-0.336c-0.016-0.32-0.032-0.64-0.048-0.96c3.424-0.336,6.848-0.672,10.272-1.008
		c-0.016-0.16-0.032-0.32-0.032-0.496h-12.528c5.568-2.72,11.472-3.504,17.712-2.848c-0.592-1.584-0.592-1.584-6.352-2.72
		C122.592,115.52,124.096,115.008,125.648,114.672z"/>
	<path style="fill:#4E99D2;" d="M188.784,300.32c-1.488-0.4-3.024-1.008-4.256-1.92c-2.416-1.824-4.96-2.784-8.048-2.72
		c-2.416,0.048-4.704-0.24-6.528-2.576c-2.16-2.752-5.568-2.288-8.288,0.208c-1.088,0.992-2.768,1.328-4.176,1.952
		c-0.112-0.304-0.24-0.608-0.352-0.896c0.912-0.32,1.952-0.464,2.72-0.992c0.88-0.624,1.52-1.584,2.272-2.4
		c-1.024-0.336-2.032-0.752-3.088-0.992c-0.528-0.128-1.136,0.048-1.44,0.064c0.464-1.36,1.68-3.024,1.248-3.92
		c-2.432-5.12-6.016-8.896-12.384-8.64c-1.12,0.048-2.48-0.288-3.36-0.944c-2.544-1.84-5.12-3.728-7.232-6.016
		c-1.264-1.376-2.144-2.8-4.224-2.624c-0.144,0.016-0.304-0.16-0.512-0.288c0.32-0.432,0.624-0.848,0.928-1.28
		c-0.096-0.256-0.208-0.496-0.304-0.752c-1.312,0.384-2.64,0.704-3.92,1.152c-0.832,0.288-1.808,1.28-2.384,1.056
		c-3.424-1.312-7.904-0.192-9.792-4.064c-1.088,1.104-2.048,2.064-3.008,3.04c-0.272-0.192-0.56-0.384-0.832-0.56
		c0.256-0.912,0.496-1.824,0.912-3.328c-5.632,1.616-9.648,4.688-12.4,9.504c-2.992-3.408-3.92-3.712-8.016-1.984
		c-2.384,0.992-3.344,0.048-4.832-1.824c-2.08-2.624-1.664-5.488-1.264-8.032c0.336-2.16-0.032-2.88-1.616-4.256
		c-1.632-1.424-2.928-1.648-4.8-1.232c-1.648,0.368-3.36,0.48-5.248,0.72c0.512-2.32,0.4-5.088,1.312-5.472
		c3.184-1.344,1.968-4.352,3.184-6.56c-2.752,0.192-6.4-0.912-7.552,1.952c-1.152,2.88-2.704,3.696-5.28,3.968
		c-1.456,0.144-3.424,1.072-4.256,0.448c-3.216-2.448-6.704-5.008-6.576-9.728c0.064-2.448,0.464-4.88,0.848-7.312
		c0.256-1.52,0.32-3.6,1.296-4.384c3.28-2.592,7.424-3.024,11.488-3.344c0.32-0.032,0.64,0.464,0.992,0.592
		c1.264,0.48,2.56,0.928,3.84,1.376c0.288-0.464,0.576-0.944,0.864-1.408c-0.944-0.416-1.888-0.816-2.832-1.232
		c0.176-0.24,0.368-0.496,0.544-0.752c3.552,1.744,8-2.064,10.96,2.272c2.064-2.048,3.12-1.76,4.352,0.944
		c1.392,3.056,2.816,6.112,4.208,9.152c0.32,0.016,0.64,0.032,0.944,0.048c0.368-1.2,1.2-2.464,1.008-3.568
		c-0.368-2.112-1.136-4.208-2.032-6.16c-1.568-3.392-1.424-4.72,1.552-6.88c1.648-1.2,2.656-3.008,5.2-3.392
		c1.68-0.256,3.056-2.608,4.24-3.712c-0.752-2.144-1.392-3.952-2.016-5.76c0.208-0.08,0.416-0.16,0.624-0.256
		c0.752,0.56,1.488,1.136,2.24,1.696c-0.192-0.24-0.368-0.48-0.544-0.736c2.064-2.192,4.112-4.368,5.968-6.336
		c-0.144-0.048-0.496-0.16-0.848-0.272c1.744-0.512,3.392-0.368,5.056-0.304c0.688,0.016,1.376-0.176,2.064-0.272
		c-0.128-0.704-0.272-1.424-0.384-2.128c-0.128-0.928-0.544-2.576-0.304-2.672c3.872-1.68,7.84-3.152,11.776-4.672
		c0.112,0.32,0.224,0.64,0.336,0.96c-0.24,0.096-0.592,0.128-0.704,0.32c-0.464,0.72-1.056,1.456-1.216,2.272
		c-0.112,0.544,0.416,1.216,0.656,1.84c0.752-0.336,1.536-0.624,2.24-1.024c0.944-0.544,1.776-1.312,2.752-1.776
		c2.128-1.024,4.32-1.92,6.576-2.912c-0.816-1.152-1.408-1.984-2.032-2.88c-2.528,4.128-5.296,4.4-7.712,1.104
		c-0.896-1.216-2.208-2.144-3.104-2.992c0.576-0.128,1.744-0.416,2.928-0.672c0.016-0.304,0.032-0.608,0.048-0.928
		c-1.888-0.416-3.76-0.848-5.632-1.28c-0.032-0.32-0.064-0.608-0.096-0.912c1.936-0.272,3.856-0.624,5.776-0.8
		c3.648-0.336,7.376-0.304,10.96-0.912c2.368-0.416,4.56-1.76,6.88-2.576c2.24-0.784,2.688-2.464,0.88-4
		c-0.656-0.56-1.552-0.88-2.368-1.2c-3.744-1.504-7.552-2.72-10-6.416c-1.824-2.752-4.192-5.152-6.672-8.144
		c-1.2,4.592-4.16,6.016-7.824,5.52c-3.312-0.464-2.304-3.488-2.288-5.36c-6.288-1.472-12.288-2.88-18.048-4.208
		c-1.072,3.344,2.144,6.704-2.592,8.96c3.12,0.56,5.728,1.312,5.408,4.336c-0.432,4.192-4.64,2.912-7.104,4.256
		c0.368,0.656,0.656,1.36,1.12,1.936c1.056,1.328,2.336,2.992,0.592,4.208c-1.504,1.024-3.456,1.216-5.248-0.704
		c-1.92-2.064-2.464-4.112-1.456-7.312c-2.08,0.608-3.632,1.296-5.232,1.488c-1.216,0.144-2.816,0.048-3.728-0.64
		c-4.192-3.184-8.592-5.36-14.4-4c0.4-2.896-0.368-4.752-4-3.936c0.848-3.344,1.856-5.792,5.072-6.944
		c1.84-0.656,3.968-1.424,3.968-4.256c2.064-0.176,4.16-0.272,6.224-0.592c0.656-0.112,1.328-0.752,1.792-1.328
		c0.112-0.144-0.576-0.944-0.912-1.44c0.288-0.032,1.072,0.096,1.392-0.224c1.936-1.984,4.048-1.408,6.496-1.216
		c2.224,0.16,5.232,0.4,7.072-2.528c-1.376-0.4-2.448-0.704-3.664-1.072c0.656-0.768,1.136-1.328,2.096-2.432
		c-3.472-0.784-6.448-1.456-9.424-2.128c0.08,0.4,0.144,0.784,0.208,1.184c-1.296,1.52-2.528,3.104-3.968,4.48
		c-0.208,0.224-1.632-0.352-2.032-0.912c-0.88-1.184-1.472-2.592-2.304-4.112c-1.168,0.96-1.84,1.488-2.816,2.272
		c0.992-4.256-2.336-1.328-3.344-2.384c0.16-0.464,0.512-1.2,0.4-1.28c-1.664-1.216-3.392-2.32-5.904-4
		c1.984-0.512,3.392-0.816,4.768-1.264c1.344-0.432,2.656-0.992,3.984-1.504c-0.096-0.32-0.192-0.64-0.288-0.96H60.864
		c-0.24,1.408-0.416,2.976-0.784,4.496c-0.352,1.36-0.912,2.672-1.536,4.416h4.144c0.32,1.152,0.576,2.064,0.848,3.024
		c-1.376,0.768-2.576,1.44-3.76,2.096c0.32-0.304,0.64-0.624,0.96-0.928c-0.688-0.576-1.392-1.152-2.08-1.728
		c-0.24,0.24-0.464,0.496-0.688,0.752c0.512-0.576,1.008-1.152,1.504-1.728c-0.704-0.448-1.376-1.12-2.144-1.296
		c-2.24-0.528-4.32-0.144-6.384,1.76c1.312,0.368,2.192,0.624,3.104,0.864c0.064,0.24,0.128,0.48,0.192,0.72
		c-0.896,0.304-1.776,0.848-2.704,0.88c-1.584,0.08-3.184-0.192-4.768-0.272c-2.08-0.112-4.976,0.64-6.064-0.432
		c-1.904-1.888-3.648-2.016-5.984-1.28c0.08-0.384,0.144-0.784,0.224-1.168c3.68,0.384,7.344,0.752,11.584,1.2
		c-0.64-1.216-0.912-1.712-1.2-2.272c0.992-0.144,1.792-0.272,2.592-0.384c-3.472-2.24-8.928-2-8.4-8.576
		c-2.256,0.608-4.096,1.088-5.952,1.568c0.16,1.216,0.272,2.144,0.48,3.808c-2.032-1.568-3.52-2.704-4.432-3.408
		c-1.6,0.496-3.184,1.216-3.328,0.992c-1.984-3.04-4.112-0.432-6.112-0.256c-0.72-3.12-2.976-1.28-4.592-1.488
		c-0.992-0.624-1.952-1.76-2.96-1.792C8.272,129.28,4.016,129.36,0,129.376v6.144c2.944,0.624,5.696,0.112,8.848-1.728
		c1.168-0.688,2.528-1.04,3.792-1.536c-0.912,0.8-1.808,1.6-3.184,2.784c2.224,0.112,3.728,0.192,5.904,0.304
		c-1.376,0.64-2.112,0.992-2.928,1.36c1.536,1.392,2.88,2.608,4.72,4.288c-2.688-0.352-4.976-0.768-7.296-0.944
		c-3.28-0.24-6.576-0.272-9.856-0.48v44.64c0.784-0.384,1.072-0.352,2.16,0.752c-0.592,0.08-1.04,0.16-1.504,0.176
		C0.368,185.152,0.24,185.184,0,185.2v20.192c0.208,0.336,0.448,0.624,0.656,0.976c2.48,4.336,4.608,8.896,10.048,10.528
		c1.472,0.448,2.784,1.984,3.808,3.296c2,2.56,3.728,5.296,5.584,7.968c0.368,0.512,0.736,1.024,1.536,2.096
		c-1.968-0.24-3.248-0.4-5.312-0.656c1.28,0.736,1.84,1.072,2.432,1.392c2.16,1.2,6.032,0.608,5.184,4.976
		c-0.016,0.112,0.208,0.336,0.368,0.448c1.632,1.216,3.248,2.448,4.928,3.584c0.24,0.16,0.816-0.192,1.312-0.32
		c-1.36-1.92-2.576-3.68-3.824-5.392c-2.112-2.88-4.256-5.744-6.368-8.64c-0.624-0.864-1.296-1.744-1.664-2.736
		c-0.112-0.32,0.928-1.456,1.072-1.392c1.024,0.464,2.624,1.008,2.8,1.776c0.928,4.352,4.976,5.888,7.472,8.8
		c1.184,1.376,2.544,2.64,3.44,4.176c1.888,3.2,5.984,5.088,5.744,9.6c-0.032,0.576,0.784,1.456,1.424,1.76
		c4.96,2.496,9.888,5.12,15.04,7.232c1.776,0.72,4.096,0.064,6.176,0.128c0.928,0.016,2.448,0,2.672,0.48
		c2.224,4.688,6.688,4.448,10.736,5.2c0.624,0.112,1.568,0.24,1.76,0.656c1.232,2.496,5.168,3.088,4.736,6.736
		c-0.016,0.128,0.208,0.352,0.368,0.448c3.328,1.888,6.64,3.792,10,5.6c0.448,0.24,1.136,0.032,1.712,0.032
		c-0.192-0.192-0.4-0.384-0.592-0.56c0.528-0.912,1.056-1.808,1.584-2.72c0.848,0.544,1.824,0.96,2.48,1.664
		c0.8,0.848,1.312,1.952,1.984,2.928c0.896,1.28,1.088,6.496,0.144,7.712c-0.448,0.576-1.136,0.976-1.744,1.392
		c-0.768,0.528-1.696,0.864-2.352,1.488c-1.664,1.6-2.256,3.68-2.912,5.904c-0.624,2.176-0.736,3.328,1.856,3.712
		c-3.12,2.912-3.808,6.08-1.632,7.872c4.736,3.84,6.832,9.328,8.816,14.672c0.688,1.856,1.424,3.072,2.736,4.368
		c2,1.968,3.728,4.192,6.88,4.384c0.464,0.016,0.848,0.8,1.36,1.072c2.304,1.216,2.176,3.616,2.928,5.632
		c0.672,1.792,1.248,3.296-0.528,4.848c-0.448,0.384-0.224,1.552-0.288,2.352c-0.24,2.768-0.224,5.6-0.768,8.304
		c-0.576,2.88-1.936,5.616-2.48,8.496c-0.512,2.704,0.304,5.808-0.704,8.224c-1.44,3.488-2.656,6.88-2.912,10.64
		c-0.144,2.144-0.576,4.272-0.864,6.4c0.272,0.032,0.544,0.08,0.816,0.112c0.448-1.008,0.912-2.032,1.36-3.04
		c0.16,0.048,0.304,0.08,0.464,0.112c-0.288,1.904-0.56,3.824-0.864,5.824c-0.576-0.384-1.136-0.752-1.568-1.024
		c-1.28,2.176-2.448,4.144-3.776,6.4h3.04c-2.784,1.616-2.688,4.128-2.256,6.544c0.384,2.192,0.608,5.04,2.048,6.288
		c2.704,2.336,6.208,3.728,9.376,5.536c3.904,2.224,6.464-1.92,9.888-2.144c-3.28-1.328-6.56-2.64-9.952-4.016
		c0.928-0.272,1.92-0.576,3.024-0.912c-1.216-2.272-1.84-4.32,1.76-4.896c0.528-0.096,0.896-1.104,1.344-1.68
		c0.576-0.736,1.04-1.664,1.776-2.144c1.776-1.136,2.304-1.936-0.064-3.008c-0.816-0.368-1.36-1.344-2.08-2.112
		c1.376-0.88,2.576-1.312,3.248-2.16c1.072-1.328,1.84-2.896,2.624-4.416c0.24-0.464,0.4-1.248,0.176-1.616
		c-1.408-2.352-0.224-2.48,1.696-2.096c2.032,0.384,4-0.128,3.936-2.368c-0.064-2.752,1.424-2.48,3.2-2.608
		c3.616-0.272,6.864-1.424,8.8-3.392c-0.48-2.304-0.784-3.728-1.152-5.536c3.648,0.672,6.32,0.528,8.336-2.096
		c1.12-1.472,2.784-2.576,3.68-4.144c2.08-3.632,6.048-6.08,6.272-10.928c0.16-3.344,2.416-4.928,5.92-5.776
		c2.688-0.64,4.928-3.008,8.064-2.048c0.16,0.048,0.544-0.96,0.96-1.328c2.816-2.448,4.512-5.392,4.512-9.232
		c0.016-1.904,0.128-3.824,0.368-5.728c0.256-1.952,0.24-4.208,1.248-5.744c1.376-2.128,3.856-3.536,5.344-5.616
		c1.52-2.112,2.704-4.592,3.472-7.088C192.528,302.64,191.28,300.992,188.784,300.32z"/>
</g>
<path style="fill:#FFD93B;" d="M170.56,146.784v60.576c0,5.936-4.784,10.736-10.72,10.736H76.48c-5.936,0-10.56-4.624-10.56-10.56
	v-60.752c0-5.936,4.784-10.72,10.72-10.72h83.184C165.776,136.064,170.56,140.848,170.56,146.784z"/>
<path style="fill:#E9B02C;" d="M170.56,201.728h-23.12c-0.224,0-0.416,0.048-0.624,0.128l-9.84,4.144h-9.264
	c4.288-2.864,7.2-7.424,7.712-12.848h35.136v-3.2h-35.008c-0.4-4.256-2.336-8.16-5.392-11.056h40.4v-3.2h-40.88
	c3.344-2.928,5.456-6.992,5.872-11.472h35.008v-3.2h-35.136c-0.512-5.456-3.424-9.984-7.712-12.864h9.264l9.84,4.144
	c0.208,0.08,0.4,0.128,0.624,0.128h23.12v-3.2h-22.8l-9.84-4.144c-0.208-0.08-0.4-0.128-0.624-0.128H99.184
	c-0.224,0-0.416,0.048-0.624,0.128l-9.856,4.128H65.92v3.2h23.104c0.224,0,0.416-0.048,0.624-0.128l9.872-4.128h9.248
	c-4.288,2.88-7.2,7.424-7.712,12.848H65.92v3.2h34.992c0.432,4.48,2.544,8.528,5.888,11.472H65.92v3.2h40.416
	c-3.072,2.912-5.008,6.8-5.408,11.056H65.92v3.2h35.12c0.512,5.44,3.424,9.984,7.712,12.848H99.52l-9.856-4.144
	c-0.208-0.08-0.4-0.128-0.624-0.128H65.92v3.2h22.784l9.856,4.144c0.208,0.08,0.4,0.128,0.624,0.128h38.112
	c0.224,0,0.416-0.048,0.624-0.128l9.84-4.144h22.8L170.56,201.728L170.56,201.728z M103.904,191.536
	c0-5.392,3.152-10.32,7.984-12.752c0.752-0.128,1.344-0.72,1.344-1.504c0-0.064-0.064-0.096-0.064-0.16
	c0-0.016,0.032-0.032,0.032-0.048c0-0.112-0.144-0.144-0.16-0.24c-0.096-0.32-0.224-0.576-0.48-0.768
	c-0.128-0.128-0.112-0.368-0.288-0.448c-5.072-2.352-8.384-7.456-8.384-13.008c0-7.968,6.432-14.448,14.336-14.448
	c7.888,0,14.32,6.48,14.32,14.448c0,5.552-3.28,10.672-8.352,13.008c-0.16,0.08-0.144,0.32-0.272,0.448
	c-0.288,0.208-0.432,0.496-0.528,0.848c-0.016,0.08-0.112,0.096-0.112,0.176c0,0.016,0.016,0.016,0.016,0.032
	c0,0.064-0.064,0.112-0.064,0.176c0,0.8,0.624,1.408,1.392,1.52c4.816,2.448,7.936,7.36,7.936,12.736
	c0,7.968-6.432,14.448-14.32,14.448S103.904,199.504,103.904,191.536z"/>
<path style="opacity:0.2;fill:#DE9C25;enable-background:new    ;" d="M170.56,146.784v60.64c0,5.92-4.8,10.72-10.72,10.72H76.48
	c-2.24,0-4.32-0.64-5.92-1.76c53.76-7.36,96.96-38.72,99.68-72.16C170.4,145.024,170.56,145.984,170.56,146.784z"/>
<g style="opacity:0.4;">
	<path style="fill:#428DC3;" d="M512,147.104v259.04c0,15.52-12.64,28.16-28.16,28.16H28.16c-8.64,0-16.32-3.84-21.28-9.92
		C259.36,399.264,467.84,281.504,512,147.104z"/>
</g>
<rect y="299.568" style="fill:#5A5F63;" width="512" height="68.544"/>
<path style="fill:#3E4347;" d="M381.888,299.552c-38.416,26-83.472,49.2-133.552,68.544H512v-68.544H381.888z"/>
<g>
</g>
<g>
</g>
<g>
</g>
<g>
</g>
<g>
</g>
<g>
</g>
<g>
</g>
<g>
</g>
<g>
</g>
<g>
</g>
<g>
</g>
<g>
</g>
<g>
</g>
<g>
</g>
<g>
</g>
</svg>
