<svg height="496pt" viewBox="0 -4 496 496" width="496pt" xmlns="http://www.w3.org/2000/svg"><path d="m80.007812 400c-2.960937 0-5.816406-1.648438-7.191406-4.496094l-4.183594-8.542968c-33.207031-67.792969-68.632812-143.121094-68.632812-178.960938 0-33.273438 14.367188-59.65625 41.535156-76.304688 46.183594-28.289062 118.679688-22.289062 162.097656-.152343 3.933594 2 5.503907 6.832031 3.496094 10.761719-2.007812 3.925781-6.824218 5.496093-10.761718 3.496093-38.640626-19.695312-105.625-25.488281-146.472657-.464843-22.488281 13.785156-33.894531 34.863281-33.894531 62.664062 0 35.144531 45.246094 127.527344 67 171.929688l4.183594 8.558593c1.9375 3.96875.289062 8.757813-3.679688 10.695313-1.121094.558594-2.320312.816406-3.496094.816406zm0 0" fill="#f6bb42"/><path d="m415.992188 400c-1.175782 0-2.375-.257812-3.503907-.816406-3.976562-1.9375-5.617187-6.726563-3.679687-10.695313l4.136718-8.449219c21.765626-44.421874 67.054688-136.863281 67.054688-172.039062 0-27.808594-11.40625-48.886719-33.902344-62.671875-40.839844-25.015625-107.824218-19.238281-146.464844.472656-3.953124 2-8.761718.4375-10.761718-3.488281-2.007813-3.9375-.445313-8.761719 3.496094-10.769531 43.410156-22.160157 115.914062-28.144531 162.089843.144531 27.175781 16.648438 41.542969 43.03125 41.542969 76.3125 0 35.878906-35.457031 111.257812-68.6875 179.089844l-4.128906 8.421875c-1.375 2.839843-4.230469 4.488281-7.191406 4.488281zm0 0" fill="#edab37"/><path d="m428 464c6.640625 0 12 5.359375 12 12s-5.359375 12-12 12h-360c-6.640625 0-12-5.359375-12-12s5.359375-12 12-12zm0 0" fill="#ffce54"/><path d="m392 436c0 6.628906-5.371094 12-12 12s-12-5.371094-12-12 5.371094-12 12-12 12 5.371094 12 12zm0 0" fill="#5d9cec"/><path d="m336 436c0 6.628906-5.371094 12-12 12s-12-5.371094-12-12 5.371094-12 12-12 12 5.371094 12 12zm0 0" fill="#5d9cec"/><path d="m128 436c0 6.628906-5.371094 12-12 12s-12-5.371094-12-12 5.371094-12 12-12 12 5.371094 12 12zm0 0" fill="#5d9cec"/><path d="m184 436c0 6.628906-5.371094 12-12 12s-12-5.371094-12-12 5.371094-12 12-12 12 5.371094 12 12zm0 0" fill="#5d9cec"/><path d="m272 430.40625v11.195312l-16 22.398438h-16l-16-22.398438v-11.195312l16-22.40625h16zm0 0" fill="#ed5565"/><path d="m240 408-16 22.40625v11.195312l16 22.398438h-168v-56zm-56 28c0-6.640625-5.359375-12-12-12s-12 5.359375-12 12 5.359375 12 12 12 12-5.359375 12-12zm-56 0c0-6.640625-5.359375-12-12-12s-12 5.359375-12 12 5.359375 12 12 12 12-5.359375 12-12zm0 0" fill="#f6bb42"/><path d="m424 408v56h-168l16-22.398438v-11.195312l-16-22.40625zm-32 28c0-6.640625-5.359375-12-12-12s-12 5.359375-12 12 5.359375 12 12 12 12-5.359375 12-12zm-56 0c0-6.640625-5.359375-12-12-12s-12 5.359375-12 12 5.359375 12 12 12 12-5.359375 12-12zm0 0" fill="#f6bb42"/><path d="m392 408h32v56h-32zm0 0" fill="#edab37"/><path d="m428 384c6.640625 0 12 5.359375 12 12s-5.359375 12-12 12h-360c-6.640625 0-12-5.359375-12-12s5.359375-12 12-12zm0 0" fill="#ffce54"/><g fill="#f6bb42"><path d="m428 384h-32c6.640625 0 12 5.359375 12 12s-5.359375 12-12 12h32c6.640625 0 12-5.359375 12-12s-5.359375-12-12-12zm0 0"/><path d="m428 464h-32c6.640625 0 12 5.359375 12 12s-5.359375 12-12 12h32c6.640625 0 12-5.359375 12-12s-5.359375-12-12-12zm0 0"/><path d="m392 384h-96l-.078125-.078125.078125-.082031 48-47.839844zm0 0"/><path d="m224 359.921875 24-23.921875 48 48h-96l-.078125-.078125.078125-.082031zm0 0"/><path d="m200 384h-96s0 0-.078125-.078125l.078125-.082031 48-47.839844zm0 0"/></g><path d="m464 200c0 40-72 184-72 184l-48-48-48 47.839844-.078125.082031-23.921875-23.921875v-231.359375c8.960938.40625 19.921875 1.046875 32 2.078125h.078125c64 5.359375 159.921875 21.359375 159.921875 69.28125zm0 0" fill="#ed5565"/><path d="m304.078125 130.71875h-.078125c-12.078125-1.03125-23.039062-1.671875-32-2.078125v2.078125h.078125c64 5.359375 159.921875 21.359375 159.921875 69.28125 0 30.398438-41.550781 120.800781-61.519531 162.488281l21.519531 21.511719s72-144 72-184c0-47.921875-95.921875-63.921875-159.921875-69.28125zm0 0" fill="#da4453"/><path d="m272 128.640625v231.359375l-24-24-24 23.921875v-247.921875h48zm0 0" fill="#ffce54"/><path d="m264 83.769531v28.230469h-32v-28.3125c4.71875 2.71875 10.160156 4.3125 16 4.3125s11.28125-1.59375 16-4.3125zm0 0" fill="#f6bb42"/><path d="m224 128.640625v231.28125l-24 23.917969-.078125.082031-47.921875-47.921875-48 47.839844-.078125.082031c-2.160156-4.402344-71.921875-144.5625-71.921875-183.921875 0-47.921875 95.921875-63.921875 159.921875-69.28125h.078125c12.078125-1.03125 23.039062-1.671875 32-2.078125zm0 0" fill="#ed5565"/><path d="m248.238281 160c-4.421875 0-8.039062-3.574219-8.039062-8s3.535156-8 7.953125-8h.085937c4.417969 0 8 3.574219 8 8s-3.582031 8-8 8zm0 0" fill="#f6bb42"/><path d="m248.238281 208c-4.421875 0-8.039062-3.574219-8.039062-8s3.535156-8 7.953125-8h.085937c4.417969 0 8 3.574219 8 8s-3.582031 8-8 8zm0 0" fill="#f6bb42"/><path d="m248.238281 256c-4.421875 0-8.039062-3.574219-8.039062-8s3.535156-8 7.953125-8h.085937c4.417969 0 8 3.574219 8 8s-3.582031 8-8 8zm0 0" fill="#f6bb42"/><path d="m248.238281 304c-4.421875 0-8.039062-3.574219-8.039062-8s3.535156-8 7.953125-8h.085937c4.417969 0 8 3.574219 8 8s-3.582031 8-8 8zm0 0" fill="#f6bb42"/><path d="m256 8c0-4.414062-3.574219-8-8-8s-8 3.585938-8 8c-4.425781 0-8 3.585938-8 8s3.574219 8 8 8v16c0 4.414062 3.574219 8 8 8s8-3.585938 8-8v-16c4.425781 0 8-3.585938 8-8s-3.574219-8-8-8zm0 0" fill="#f6bb42"/><path d="m248 32c17.679688 0 32 14.320312 32 32 0 11.839844-6.398438 22.160156-16 27.6875-4.71875 2.71875-10.160156 4.3125-16 4.3125s-11.28125-1.59375-16-4.3125c-9.601562-5.527344-16-15.839844-16-27.6875 0-17.679688 14.320312-32 32-32zm0 0" fill="#ffce54"/></svg>