<?xml version="1.0" encoding="iso-8859-1"?>
<!-- Generator: Adobe Illustrator 19.0.0, SVG Export Plug-In . SVG Version: 6.00 Build 0)  -->
<svg version="1.1" id="Layer_1" xmlns="http://www.w3.org/2000/svg" xmlns:xlink="http://www.w3.org/1999/xlink" x="0px" y="0px"
	 viewBox="0 0 501.551 501.551" style="enable-background:new 0 0 501.551 501.551;" xml:space="preserve">
<polygon style="fill:#FFD15C;" points="416.914,329.143 403.331,363.624 348.996,501.551 150.465,501.551 96.131,363.624 
	82.547,329.143 "/>
<path style="fill:#F8B64C;" d="M416.914,329.143l-13.584,34.482c-9.404,3.135-19.853,4.18-31.347,4.18
	c-21.943,0-42.841-7.314-61.649-19.853c-17.763,12.539-39.706,19.853-61.649,19.853s-42.841-7.314-61.649-19.853
	c-17.763,12.539-38.661,19.853-61.649,19.853c-10.449,0-20.898-2.09-31.347-4.18l-11.494-34.482H416.914z"/>
<path style="fill:#FF7058;" d="M402.286,174.498c0-2.09,0-3.135,0-5.225c0-50.155-40.751-91.951-91.951-91.951
	c-24.033,0-44.931,9.404-61.649,24.033c-16.718-14.629-37.616-24.033-61.649-24.033c-50.155,0-91.951,40.751-91.951,91.951
	c0,2.09,0,3.135,0,5.225c-33.437,12.539-59.559,45.975-59.559,85.682c0,50.155,40.751,91.951,91.951,91.951
	c24.033,0,44.931-9.404,61.649-24.033c16.718,14.629,37.616,24.033,61.649,24.033c24.033,0,44.931-9.404,61.649-24.033
	c16.718,14.629,37.616,24.033,61.649,24.033c50.155,0,91.951-40.751,91.951-91.951C463.935,220.473,437.812,187.037,402.286,174.498
	z"/>
<circle style="fill:#F1543F;" cx="249.731" cy="72.098" r="37.616"/>
<g>
	<ellipse style="fill:#40596B;" cx="249.731" cy="41.796" rx="9.404" ry="4.18"/>
	<path style="fill:#40596B;" d="M249.731,41.796c-2.09,0-4.18-2.09-4.18-4.18c0-16.718-13.584-29.257-29.257-29.257
		c-2.09,0-4.18-2.09-4.18-4.18s2.09-4.18,4.18-4.18c20.898,0,37.616,16.718,37.616,37.616
		C253.91,39.706,251.82,41.796,249.731,41.796z"/>
</g>
<g>
	<path style="fill:#F1543F;" d="M112.849,176.588c0,0,2.09,0,5.224-1.045c2.09,0,4.18,0,6.269,0c2.09,0,5.224,0,8.359,1.045
		c3.135,0,6.269,1.045,10.449,2.09c3.135,1.045,7.314,2.09,10.449,4.18c3.135,2.09,7.314,4.18,10.449,6.269
		c3.135,2.09,6.269,5.224,9.404,8.359c3.135,3.135,6.269,6.269,8.359,9.404c3.135,3.135,4.18,7.314,6.269,10.449
		c1.045,4.18,3.135,7.314,4.18,10.449c1.045,3.135,2.09,7.314,2.09,10.449c1.045,3.135,1.045,6.269,1.045,8.359
		c0,2.09,0,5.224,0,6.269c0,3.135-1.045,5.224-1.045,5.224s0-2.09-1.045-5.224c-1.045-3.135-2.09-8.359-4.18-13.584
		c-1.045-3.135-2.09-5.225-3.135-8.359c-1.045-3.135-3.135-6.269-5.224-9.404c-4.18-6.269-8.359-12.539-13.584-17.763
		s-11.494-9.404-17.763-13.584c-3.135-1.045-6.269-3.135-9.404-5.224c-3.135-1.045-6.269-3.135-8.359-3.135
		c-5.224-2.09-10.449-3.135-13.584-4.18C114.939,176.588,112.849,176.588,112.849,176.588z"/>
	<path style="fill:#F1543F;" d="M378.253,176.588c0,0-2.09,0-5.224,1.045c-3.135,1.045-8.359,2.09-13.584,4.18
		c-3.135,1.045-5.224,2.09-8.359,3.135c-3.135,1.045-6.269,3.135-9.404,5.224c-6.269,4.18-12.539,8.359-17.763,13.584
		s-9.404,11.494-13.584,17.763c-1.045,3.135-3.135,6.269-5.224,9.404c-1.045,3.135-3.135,6.269-3.135,8.359
		c-2.09,5.224-3.135,10.449-4.18,13.584c-1.045,4.18-1.045,5.225-1.045,5.225s0-2.09-1.045-5.225c0-2.09,0-4.18,0-6.269
		s0-5.224,1.045-8.359c0-3.135,1.045-6.269,2.09-10.449c1.045-3.135,2.09-7.314,4.18-10.449c2.09-3.135,4.18-7.314,6.269-10.449
		s5.224-6.269,8.359-9.404c3.135-3.135,6.269-6.269,9.404-8.359c3.135-3.135,7.314-4.18,10.449-6.269
		c4.18-1.045,7.314-3.135,10.449-4.18c3.135-1.045,7.314-2.09,10.449-2.09c3.135-1.045,6.269-1.045,8.359-1.045s5.224,0,6.269,0
		C376.163,176.588,378.253,176.588,378.253,176.588z"/>
</g>
<g>
</g>
<g>
</g>
<g>
</g>
<g>
</g>
<g>
</g>
<g>
</g>
<g>
</g>
<g>
</g>
<g>
</g>
<g>
</g>
<g>
</g>
<g>
</g>
<g>
</g>
<g>
</g>
<g>
</g>
</svg>
