<?xml version="1.0" encoding="iso-8859-1"?>
<!-- Generator: Adobe Illustrator 19.0.0, SVG Export Plug-In . SVG Version: 6.00 Build 0)  -->
<svg version="1.1" id="Layer_1" xmlns="http://www.w3.org/2000/svg" xmlns:xlink="http://www.w3.org/1999/xlink" x="0px" y="0px"
	 viewBox="0 0 511.979 511.979" style="enable-background:new 0 0 511.979 511.979;" xml:space="preserve">
<path style="fill:#965353;" d="M492.792,248.037c-0.312-3.188-2.047-6.062-4.703-7.828l-96.887-64.591
	c-2.531-9.593-8.734-30.186-17.421-38.857c-3.562-3.578-10.921-8.375-36.39-13.953c-9.171-2.016-17.717-3.469-22.154-4.172
	c-7.155-6.046-27.718-21.374-52.209-21.374c-12.523,0-24.187,3.938-34.679,11.719c-15.827,11.733-55.583,58.857-118.144,140.025
	c-46.232,59.982-88.567,117.417-88.988,117.995c-1.781,2.422-2.461,5.469-1.875,8.421c0.594,2.938,2.398,5.5,4.976,7.047
	l213.32,127.995c1.687,1.016,3.585,1.516,5.492,1.516c1.484,0,2.969-0.297,4.359-0.922c3.18-1.422,5.46-4.312,6.117-7.75
	l40.366-211.819c17.312,5.656,50.138,15.078,76.73,15.078c37.343,0,86.685-20,88.763-20.859c1.312-0.531,2.499-1.328,3.499-2.327
	l26.749-26.749C491.979,254.365,493.104,251.209,492.792,248.037z"/>
<path style="fill:#ED5564;" d="M35.397,347.876c-8.766,11.766-14.031,18.922-14.179,19.125c-1.781,2.422-2.461,5.469-1.875,8.421
	c0.594,2.938,2.398,5.5,4.976,7.047l213.32,127.995c1.687,1.016,3.585,1.516,5.492,1.516c1.484,0,2.969-0.297,4.359-0.922
	c3.18-1.422,5.46-4.312,6.117-7.75l4.188-21.983L35.397,347.876z"/>
<path style="fill:#434A54;" d="M349.798,181.336c0,5.891-4.781,10.656-10.672,10.656s-10.671-4.766-10.671-10.656
	s4.78-10.671,10.671-10.671S349.798,175.446,349.798,181.336z"/>
<g>
	<path style="fill:#FFCE54;" d="M216.46,469.324c0,5.891-4.773,10.656-10.664,10.656s-10.664-4.766-10.664-10.656
		s4.773-10.67,10.664-10.67C211.686,458.654,216.46,463.433,216.46,469.324z"/>
	<path style="fill:#FFCE54;" d="M173.797,444.654c0,5.891-4.773,10.672-10.664,10.672s-10.672-4.781-10.672-10.672
		s4.781-10.672,10.672-10.672S173.797,438.763,173.797,444.654z"/>
	<path style="fill:#FFCE54;" d="M131.135,419.983c0,5.891-4.781,10.672-10.671,10.672c-5.891,0-10.664-4.781-10.664-10.672
		s4.773-10.656,10.664-10.656C126.354,409.327,131.135,414.093,131.135,419.983z"/>
	<ellipse style="fill:#FFCE54;" cx="77.8" cy="394.66" rx="10.664" ry="10.671"/>
</g>
<path style="fill:#7F4545;" d="M264.458,10.671c0,0-29.929,71.997-17.078,138.667l59.749-8.343
	C318.128,71.669,264.458,10.671,264.458,10.671z"/>
<path style="fill:#965353;" d="M247.372,159.993c-5.016,0-9.476-3.547-10.46-8.641C223.599,82.324,253.341,9.64,254.614,6.578
	c1.414-3.406,4.477-5.828,8.109-6.437c3.633-0.594,7.312,0.719,9.749,3.484c0.578,0.672,14.469,16.562,26.984,41.42
	c16.765,33.295,23.062,67.06,18.202,97.621c-0.922,5.828-6.391,9.796-12.202,8.874c-5.812-0.922-9.781-6.39-8.859-12.218
	c5.203-32.795-5.797-63.888-15.953-84.184c-4.266-8.562-8.773-15.984-12.711-21.921c-7.632,24.89-18.381,71.06-10.077,114.089
	c1.117,5.796-2.672,11.39-8.453,12.5C248.716,159.931,248.036,159.993,247.372,159.993z"/>
<path style="fill:#434A54;" d="M492.792,248.037c-0.312-3.188-2.047-6.062-4.703-7.828l-28.967-19.312
	c6.265,15.655,17.077,37.312,29.014,37.312l0,0l1.578-1.578C491.979,254.365,493.104,251.209,492.792,248.037z"/>
<path style="opacity:0.1;enable-background:new    ;" d="M244.177,277.927c-19.726-10.656,42.842,50.013,42.842,50.013l6.953-36.451
	C293.972,291.488,263.895,288.597,244.177,277.927z"/>
<g>
</g>
<g>
</g>
<g>
</g>
<g>
</g>
<g>
</g>
<g>
</g>
<g>
</g>
<g>
</g>
<g>
</g>
<g>
</g>
<g>
</g>
<g>
</g>
<g>
</g>
<g>
</g>
<g>
</g>
</svg>
