<?xml version="1.0" encoding="iso-8859-1"?>
<!-- Generator: Adobe Illustrator 19.0.0, SVG Export Plug-In . SVG Version: 6.00 Build 0)  -->
<svg version="1.1" id="Capa_1" xmlns="http://www.w3.org/2000/svg" xmlns:xlink="http://www.w3.org/1999/xlink" x="0px" y="0px"
	 viewBox="0 0 512 512" style="enable-background:new 0 0 512 512;" xml:space="preserve">
<g>
	<path style="fill:#455A64;" d="M181.395,106.667c-5.891,0-10.667-4.776-10.667-10.667V10.667C170.728,4.776,175.503,0,181.395,0
		s10.667,4.776,10.667,10.667V96C192.061,101.891,187.286,106.667,181.395,106.667z"/>
	<path style="fill:#455A64;" d="M330.728,106.667c-5.891,0-10.667-4.776-10.667-10.667V10.667C320.061,4.776,324.837,0,330.728,0
		s10.667,4.776,10.667,10.667V96C341.395,101.891,336.619,106.667,330.728,106.667z"/>
</g>
<path style="fill:#CFD8DC;" d="M425.64,453.973c-0.704-1.408-69.483-142.635-82.283-212.075c-1.071-5.793-6.635-9.621-12.428-8.55
	c-1.498,0.277-2.92,0.872-4.169,1.744l-2.283,1.6c-42.026,25.775-94.974,25.734-136.96-0.107l-2.133-1.493
	c-4.829-3.374-11.479-2.193-14.853,2.636c-0.873,1.249-1.467,2.671-1.744,4.169c-12.8,69.419-81.6,210.667-82.987,213.888
	c-1.548,7.379,0.423,15.058,5.333,20.779C108.861,500.075,164.456,512,256.061,512s147.2-11.925,164.928-35.435
	C426.32,470.335,428.076,461.803,425.64,453.973z"/>
<path style="fill:#F44336;" d="M362.365,93.291c-1.23-4.684-5.461-7.951-10.304-7.957c-37.263,1.498-72.146,18.715-96,47.381
	c-23.854-28.666-58.737-45.883-96-47.381c-4.843,0.006-9.074,3.273-10.304,7.957c-13.333,50.688-2.261,70.123,8.533,88.896
	c8.275,12.361,12.611,26.939,12.437,41.813c-0.241,6.655-0.954,13.285-2.133,19.84c0.001,3.486,1.706,6.752,4.565,8.747l1.984,1.365
	c24.106,15.539,52.239,23.668,80.917,23.381c28.621,0.339,56.709-7.747,80.768-23.253l2.133-1.493
	c2.867-2.803,4.463-6.657,4.416-10.667c-1.148-5.909-1.812-11.903-1.984-17.92c-0.138-14.878,4.236-29.449,12.544-41.792
	C364.627,163.413,375.699,144,362.365,93.291z"/>
<g>
</g>
<g>
</g>
<g>
</g>
<g>
</g>
<g>
</g>
<g>
</g>
<g>
</g>
<g>
</g>
<g>
</g>
<g>
</g>
<g>
</g>
<g>
</g>
<g>
</g>
<g>
</g>
<g>
</g>
</svg>
