<?xml version="1.0" encoding="iso-8859-1"?>
<!-- Generator: Adobe Illustrator 19.0.0, SVG Export Plug-In . SVG Version: 6.00 Build 0)  -->
<svg version="1.1" id="Capa_1" xmlns="http://www.w3.org/2000/svg" xmlns:xlink="http://www.w3.org/1999/xlink" x="0px" y="0px"
	 viewBox="0 0 512.008 512.008" style="enable-background:new 0 0 512.008 512.008;" xml:space="preserve">
<path style="fill:#FFC107;" d="M384.004,352.008c-0.094,51.611-7.418,102.955-21.76,152.533c-1.405,4.467-5.558,7.495-10.24,7.467
	h-192c-4.682,0.028-8.835-3-10.24-7.467c-14.342-49.579-21.666-100.922-21.76-152.533c0.769-40.926,10.682-81.161,29.013-117.76
	c7.162-13.098,11.794-27.428,13.653-42.24c-0.082-7.195-1.013-14.356-2.773-21.333c-2.179-9.459-4.885-18.79-8.107-27.947
	c-5.892-14.935-9.419-30.698-10.453-46.72c-2.297-20.692-9.067-40.638-19.84-58.453c-2.158-3.761-1.908-8.438,0.64-11.947
	c6.897-9.789,15.583-18.185,25.6-24.747c3.888-1.644,8.376-0.896,11.52,1.92c20.907,19.627,62.293,18.987,82.133,18.56h13.227
	c19.84,0.427,61.227,1.067,82.133-18.56c3.144-2.816,7.632-3.564,11.52-1.92c10.017,6.562,18.703,14.958,25.6,24.747
	c2.548,3.509,2.798,8.186,0.64,11.947c-10.773,17.815-17.543,37.761-19.84,58.453c-1.035,16.022-4.561,31.785-10.453,46.72
	c-3.221,9.157-5.928,18.487-8.107,27.947c-1.761,6.977-2.692,14.138-2.773,21.333c1.86,14.812,6.492,29.142,13.653,42.24
	C373.322,270.847,383.236,311.082,384.004,352.008z"/>
<path style="fill:#455A64;" d="M344.111,170.675c-1.761,6.977-2.692,14.138-2.773,21.333H170.671
	c-0.082-7.195-1.013-14.356-2.773-21.333H344.111z"/>
<g>
</g>
<g>
</g>
<g>
</g>
<g>
</g>
<g>
</g>
<g>
</g>
<g>
</g>
<g>
</g>
<g>
</g>
<g>
</g>
<g>
</g>
<g>
</g>
<g>
</g>
<g>
</g>
<g>
</g>
</svg>
