<?xml version="1.0" encoding="iso-8859-1"?>
<!-- Generator: Adobe Illustrator 19.0.0, SVG Export Plug-In . SVG Version: 6.00 Build 0)  -->
<svg version="1.1" id="Layer_1" xmlns="http://www.w3.org/2000/svg" xmlns:xlink="http://www.w3.org/1999/xlink" x="0px" y="0px"
	 viewBox="0 0 512.001 512.001" style="enable-background:new 0 0 512.001 512.001;" xml:space="preserve">
<path style="fill:#BF953E;" d="M182.34,321.5v-19.746c0-2.945-2.41-5.354-5.354-5.354h-46.979c-2.945,0-5.354,2.408-5.354,5.354
	V321.5H182.34z"/>
<g>
	<path style="fill:#5A482E;" d="M161.402,270.291v-46.058c6.042-0.967,11.87-3.034,17.171-6.119
		c3.772-2.197,5.05-7.036,2.854-10.811c-2.197-3.773-7.035-5.052-10.808-2.856c-5.172,3.01-11.093,4.602-17.122,4.602
		c-4.366,0-7.906,3.539-7.906,7.906v53.335h15.811V270.291z"/>
	<path style="fill:#5A482E;" d="M358.447,0c-27.523,0-49.915,22.394-49.915,49.919c0,4.367,3.54,7.906,7.906,7.906
		c4.366,0,7.907-3.539,7.907-7.906c0-18.806,15.298-34.107,34.103-34.107c18.806,0,34.105,15.3,34.105,34.107
		c0,18.808-15.299,34.109-34.105,34.109c-4.366,0-7.905,3.54-7.905,7.906v58.344h15.811V99.213
		c23.781-3.8,42.01-24.459,42.01-49.295C408.365,22.394,385.973,0,358.447,0z"/>
	<path style="fill:#5A482E;" d="M192.541,198.378c-0.971,0-1.959-0.18-2.917-0.562c-4.057-1.613-6.038-6.209-4.426-10.267
		c1.595-4.008,2.402-8.251,2.403-12.608c0-18.806-15.299-34.106-34.104-34.106s-34.103,15.3-34.103,34.108
		c0,4.367-3.539,7.906-7.906,7.906s-7.906-3.539-7.906-7.906c0-27.525,22.392-49.918,49.916-49.918s49.916,22.393,49.916,49.918
		c-0.001,6.367-1.185,12.573-3.522,18.449C198.658,196.49,195.685,198.378,192.541,198.378z"/>
</g>
<path style="opacity:0.1;enable-background:new    ;" d="M146.89,321.5v-19.746c0-2.945,2.408-5.354,5.353-5.354h-22.235
	c-2.945,0-5.354,2.408-5.354,5.354V321.5H146.89z"/>
<path style="fill:#EFBA50;" d="M182.34,291.642c0,2.945-2.41,5.354-5.354,5.354h-46.979c-2.945,0-5.354-2.408-5.354-5.354V270.3
	c0-2.945,2.41-5.354,5.354-5.354h46.979c2.945,0,5.354,2.41,5.354,5.354V291.642z"/>
<g style="opacity:0.1;">
	<path d="M146.89,291.642V270.3c0-2.945,2.408-5.354,5.353-5.354h-22.235c-2.945,0-5.354,2.41-5.354,5.354v21.342
		c0,2.945,2.41,5.354,5.354,5.354h22.235C149.297,296.997,146.89,294.588,146.89,291.642z"/>
</g>
<path style="fill:#BF953E;" d="M387.348,197.24v-20.509c0-2.943-2.41-5.354-5.354-5.354h-46.98c-2.945,0-5.353,2.41-5.353,5.354
	v20.509H387.348z"/>
<path style="opacity:0.1;enable-background:new    ;" d="M351.46,197.24v-20.509c0-2.943,2.41-5.354,5.353-5.354h-21.799
	c-2.945,0-5.353,2.41-5.353,5.354v20.509H351.46z"/>
<path style="fill:#EFBA50;" d="M387.348,166.189c0,2.945-2.41,5.354-5.353,5.354h-46.98c-2.945,0-5.354-2.41-5.354-5.354v-21.342
	c0-2.945,2.41-5.354,5.354-5.354h46.98c2.943,0,5.353,2.41,5.353,5.354L387.348,166.189L387.348,166.189z"/>
<g style="opacity:0.1;">
	<path d="M351.46,166.189v-21.342c0-2.945,2.41-5.354,5.354-5.354h-21.799c-2.945,0-5.354,2.41-5.354,5.354v21.342
		c0,2.945,2.41,5.354,5.354,5.354h21.799C353.869,171.543,351.46,169.134,351.46,166.189z"/>
</g>
<path style="fill:#D69EF0;" d="M103.471,512c-3.601,0-6.955-1.937-8.754-5.054l-50.026-86.652
	c-1.799-3.118-1.799-6.991-0.001-10.109l50.027-86.654c1.799-3.117,5.154-5.054,8.754-5.054h100.05c3.601,0,6.956,1.936,8.755,5.054
	l50.024,86.652c1.798,3.119,1.798,6.991,0.001,10.107l-50.027,86.655c-1.8,3.117-5.154,5.054-8.755,5.054H103.471V512z"/>
<g>
	<path style="fill:#8F5DAF;" d="M262.302,410.183l-50.025-86.652c-1.8-3.118-5.154-5.054-8.755-5.054h-0.399l-36.093,62.52h6.234
		l19.768,34.241h70.595h0.023C263.65,413.491,263.2,411.743,262.302,410.183z"/>
	<path style="fill:#8F5DAF;" d="M113.962,415.237h-70.62c0,1.748,0.449,3.496,1.35,5.055l50.026,86.652
		c1.799,3.117,5.154,5.054,8.754,5.054h0.218l36.093-62.521h-6.053L113.962,415.237z"/>
</g>
<g>
	<path style="fill:#BC81E2;" d="M103.471,318.477c-3.601,0-6.956,1.936-8.754,5.054L44.69,410.185
		c-0.899,1.559-1.348,3.306-1.348,5.053h70.62l19.767-34.241h6.053l-36.093-62.52H103.471z"/>
	<path style="fill:#BC81E2;" d="M263.627,415.237h-70.595l-19.768,34.241h-6.234L203.123,512h0.399c3.601,0,6.955-1.937,8.755-5.054
		l50.027-86.655c0.898-1.558,1.348-3.305,1.347-5.052h-0.024V415.237z"/>
</g>
<path style="fill:#B9F5ED;" d="M134.813,452.826c-1.867,0-3.591-0.996-4.524-2.612l-18.683-32.364c-0.933-1.616-0.933-3.608,0-5.224
	l18.683-32.364c0.933-1.616,2.657-2.613,4.524-2.613h37.368c1.867,0,3.591,0.996,4.524,2.612l18.684,32.365
	c0.933,1.616,0.933,3.608,0,5.224l-18.684,32.365c-0.933,1.616-2.658,2.612-4.524,2.612h-37.368V452.826z"/>
<path style="opacity:0.1;enable-background:new    ;" d="M127.704,318.477h-24.233c-3.601,0-6.956,1.936-8.754,5.054L44.69,410.185
	c-1.798,3.118-1.798,6.991,0.001,10.109l50.026,86.652c1.799,3.117,5.154,5.054,8.754,5.054h24.233l-54.23-93.936
	c-1.009-1.749-1.009-3.904,0-5.654L127.704,318.477z"/>
<path style="fill:#D69EF0;" d="M308.48,387.615c-3.601,0-6.955-1.937-8.755-5.054l-50.026-86.652
	c-1.799-3.118-1.799-6.991-0.001-10.109l50.027-86.654c1.799-3.117,5.155-5.054,8.755-5.054h100.05c3.601,0,6.956,1.937,8.755,5.054
	l50.025,86.652c1.798,3.119,1.798,6.991,0.002,10.107l-50.027,86.655c-1.799,3.118-5.154,5.054-8.754,5.054H308.48V387.615z"/>
<g>
	<path style="fill:#8F5DAF;" d="M467.31,285.797l-50.025-86.652c-1.799-3.117-5.154-5.054-8.755-5.054h-0.399l-36.094,62.521h6.234
		l19.767,34.241h70.596h0.023C468.659,289.105,468.209,287.357,467.31,285.797z"/>
	<path style="fill:#8F5DAF;" d="M318.971,290.853h-70.619c0,1.747,0.449,3.496,1.349,5.055l50.026,86.652
		c1.8,3.118,5.154,5.054,8.755,5.054h0.217l36.093-62.521h-6.052L318.971,290.853z"/>
</g>
<g>
	<path style="fill:#BC81E2;" d="M308.48,194.091c-3.601,0-6.956,1.937-8.755,5.054l-50.027,86.654
		c-0.899,1.559-1.348,3.306-1.348,5.054h70.619l19.767-34.241h6.052l-36.093-62.521H308.48z"/>
	<path style="fill:#BC81E2;" d="M468.636,290.853h-70.596l-19.767,34.241h-6.234l36.094,62.521h0.399c3.6,0,6.955-1.937,8.754-5.054
		l50.027-86.655c0.899-1.558,1.348-3.305,1.348-5.052h-0.024V290.853z"/>
</g>
<path style="fill:#B9F5ED;" d="M339.821,328.442c-1.867,0-3.591-0.996-4.524-2.613l-18.683-32.364c-0.933-1.616-0.933-3.608,0-5.224
	l18.683-32.364c0.933-1.616,2.658-2.613,4.524-2.613h37.368c1.867,0,3.591,0.996,4.524,2.612l18.684,32.365
	c0.933,1.616,0.933,3.608,0,5.224l-18.684,32.365c-0.933,1.616-2.658,2.612-4.524,2.612H339.821z"/>
<path style="opacity:0.1;enable-background:new    ;" d="M332.713,194.091H308.48c-3.601,0-6.956,1.937-8.755,5.054l-50.027,86.654
	c-1.798,3.118-1.798,6.991,0.001,10.109l50.026,86.652c1.8,3.118,5.155,5.054,8.755,5.054h24.233l-54.23-93.935
	c-1.009-1.75-1.009-3.904,0-5.654L332.713,194.091z"/>
<path style="opacity:0.1;enable-background:new    ;" d="M152.058,450.214l-18.683-32.364c-0.933-1.616-0.933-3.608,0-5.224
	l18.683-32.364c0.933-1.616,2.658-2.613,4.524-2.613h-21.769c-1.867,0-3.591,0.996-4.524,2.613l-18.683,32.364
	c-0.933,1.616-0.933,3.608,0,5.224l18.683,32.364c0.933,1.616,2.657,2.612,4.524,2.612h21.769
	C154.715,452.826,152.991,451.831,152.058,450.214z"/>
<path style="opacity:0.1;enable-background:new    ;" d="M356.858,325.829l-18.683-32.364c-0.933-1.616-0.933-3.608,0-5.225
	l18.683-32.364c0.933-1.616,2.657-2.613,4.524-2.613h-21.561c-1.867,0-3.591,0.996-4.524,2.613l-18.683,32.364
	c-0.933,1.616-0.933,3.608,0,5.225l18.683,32.364c0.933,1.616,2.658,2.613,4.524,2.613h21.561
	C359.515,328.442,357.791,327.446,356.858,325.829z"/>
<g>
</g>
<g>
</g>
<g>
</g>
<g>
</g>
<g>
</g>
<g>
</g>
<g>
</g>
<g>
</g>
<g>
</g>
<g>
</g>
<g>
</g>
<g>
</g>
<g>
</g>
<g>
</g>
<g>
</g>
</svg>
