<?xml version="1.0" encoding="iso-8859-1"?>
<!-- Generator: Adobe Illustrator 19.0.0, SVG Export Plug-In . SVG Version: 6.00 Build 0)  -->
<svg version="1.1" id="Layer_1" xmlns="http://www.w3.org/2000/svg" xmlns:xlink="http://www.w3.org/1999/xlink" x="0px" y="0px"
	 viewBox="0 0 511.987 511.987" style="enable-background:new 0 0 511.987 511.987;" xml:space="preserve">
<path style="fill:#5D9CEC;" d="M128.001,74.662c0,5.891-4.773,10.672-10.664,10.672s-10.672-4.781-10.672-10.672
	c0-5.89,4.781-10.663,10.672-10.663S128.001,68.772,128.001,74.662z"/>
<path style="fill:#4FC2E9;" d="M64.003,53.28c0,5.891-4.773,10.664-10.664,10.664S42.668,59.171,42.668,53.28
	s4.781-10.672,10.671-10.672S64.003,47.389,64.003,53.28z"/>
<path style="fill:#FC6E51;" d="M128.001,10.664c0,5.891-4.773,10.672-10.664,10.672s-10.672-4.781-10.672-10.672
	S111.446,0,117.337,0C123.228,0,128.001,4.773,128.001,10.664z"/>
<path style="fill:#4FC2E9;" d="M426.65,351.882c0,5.891-4.766,10.671-10.656,10.671s-10.656-4.78-10.656-10.671
	s4.766-10.672,10.656-10.672S426.65,345.991,426.65,351.882z"/>
<path style="fill:#EC87C0;" d="M255.998,415.928c0,5.905-4.773,10.671-10.664,10.671s-10.672-4.766-10.672-10.671
	c0-5.875,4.781-10.656,10.672-10.656C251.224,405.271,255.998,410.053,255.998,415.928z"/>
<path style="fill:#FC6E51;" d="M170.664,394.646c0,5.906-4.773,10.688-10.664,10.688c-5.89,0-10.664-4.781-10.664-10.688
	c0-5.875,4.773-10.656,10.664-10.656S170.664,388.771,170.664,394.646z"/>
<path style="fill:#5D9CEC;" d="M42.668,309.336c0,5.875-4.773,10.656-10.664,10.656c-5.89,0-10.664-4.781-10.664-10.656
	c0-5.906,4.773-10.688,10.664-10.688C37.894,298.648,42.668,303.43,42.668,309.336z"/>
<path style="fill:#4FC2E9;" d="M298.651,31.945c0,5.89-4.766,10.663-10.656,10.663c-5.889,0-10.654-4.773-10.654-10.663
	c0-5.891,4.766-10.664,10.654-10.664C293.887,21.281,298.651,26.055,298.651,31.945z"/>
<path style="fill:#FC6E51;" d="M341.34,95.998c0,5.891-4.781,10.664-10.688,10.664c-5.875,0-10.656-4.773-10.656-10.664
	s4.781-10.664,10.656-10.664C336.557,85.334,341.34,90.107,341.34,95.998z"/>
<path style="fill:#5D9CEC;" d="M426.65,181.332c0,5.89-4.766,10.663-10.656,10.663s-10.656-4.773-10.656-10.663
	c0-5.891,4.766-10.672,10.656-10.672S426.65,175.441,426.65,181.332z"/>
<g>
	<path style="fill:#EC87C0;" d="M469.336,117.333c0,5.891-4.781,10.664-10.688,10.664c-5.875,0-10.656-4.773-10.656-10.664
		s4.781-10.671,10.656-10.671C464.555,106.662,469.336,111.442,469.336,117.333z"/>
	<path style="fill:#EC87C0;" d="M85.338,223.83c0,5.891-4.781,10.664-10.671,10.664s-10.664-4.773-10.664-10.664
		c0-5.89,4.773-10.671,10.664-10.671S85.338,217.94,85.338,223.83z"/>
</g>
<polygon style="fill:#AC92EB;" points="226.96,326.305 161.524,371.49 168.43,292.274 89.252,284.837 145.47,228.58 89.612,171.98 
	168.828,165.027 162.414,85.764 227.569,131.356 273.607,66.514 294.215,143.325 371.15,123.247 337.573,195.323 409.431,229.408 
	337.371,263.033 370.493,335.336 293.682,314.773 272.591,391.443 "/>
<path style="fill:#A0D468;" d="M74.667,128.013H64.003v-10.555c0-5.891-4.773-10.671-10.664-10.671s-10.671,4.78-10.671,10.671
	v10.555H32.004c-5.89,0-10.664,4.773-10.664,10.664s4.773,10.663,10.664,10.663h10.664v10.672c0,5.891,4.781,10.664,10.671,10.664
	s10.664-4.773,10.664-10.664V149.34h10.664c5.891,0,10.671-4.772,10.671-10.663S80.557,128.013,74.667,128.013z"/>
<path style="fill:#ED5564;" d="M373.337,405.209H362.65v-10.562c0-5.875-4.766-10.656-10.654-10.656
	c-5.891,0-10.656,4.781-10.656,10.656v10.562h-10.688c-5.875,0-10.656,4.781-10.656,10.672c0,5.89,4.781,10.671,10.656,10.671
	h10.688v10.655c0,5.906,4.766,10.672,10.656,10.672c5.889,0,10.654-4.766,10.654-10.672v-10.655h10.688
	c5.875,0,10.656-4.781,10.656-10.671C383.993,409.99,379.212,405.209,373.337,405.209z"/>
<path style="fill:#A0D468;" d="M479.991,255.993h-10.656v-10.554c0-5.891-4.781-10.672-10.688-10.672
	c-5.875,0-10.656,4.781-10.656,10.672v10.554h-10.656c-5.906,0-10.686,4.774-10.686,10.664c0,5.898,4.779,10.68,10.686,10.68h10.656
	v10.656c0,5.89,4.781,10.655,10.656,10.655c5.906,0,10.688-4.766,10.688-10.655v-10.656h10.656c5.891,0,10.656-4.781,10.656-10.68
	C490.647,260.767,485.883,255.993,479.991,255.993z"/>
<path style="fill:#ED5564;" d="M437.336,42.554H426.65V32c0-5.891-4.766-10.664-10.656-10.664S405.337,26.109,405.337,32v10.554
	H394.65c-5.875,0-10.656,4.773-10.656,10.664c0,5.898,4.781,10.672,10.656,10.672h10.688v10.663c0,5.891,4.766,10.664,10.656,10.664
	s10.656-4.773,10.656-10.664V63.889h10.686c5.875,0,10.656-4.773,10.656-10.672C447.991,47.327,443.211,42.554,437.336,42.554z"/>
<path style="fill:#48CFAD;" d="M223.999,21.219h-10.664V10.664C213.335,4.773,208.554,0,202.664,0S192,4.773,192,10.664v10.555
	h-10.664c-5.891,0-10.671,4.781-10.671,10.672c0,5.89,4.781,10.663,10.671,10.663H192v10.664c0,5.898,4.773,10.672,10.664,10.672
	s10.671-4.773,10.671-10.672V42.554h10.664c5.89,0,10.664-4.773,10.664-10.663C234.662,26,229.889,21.219,223.999,21.219z"/>
<path style="fill:#F6BB42;" d="M239.842,214.847c-34.116,20.476-65.709,48.194-93.912,82.396
	c-22.429,27.219-42.772,58.562-60.467,93.186C55.37,449.302,43.472,496.77,42.98,498.77h0.008c-0.195,0.812-0.32,1.672-0.32,2.562
	c0,5.875,4.781,10.655,10.671,10.655c5.008,0,9.195-3.469,10.344-8.108h0.008c0.117-0.453,11.789-47.046,40.764-103.731
	c17-33.266,36.491-63.311,57.936-89.342c26.648-32.312,56.397-58.443,88.427-77.662L239.842,214.847z"/>
<path style="fill:#FFCE54;" d="M277.341,223.994c0,17.672-14.336,31.999-32.007,31.999s-32-14.327-32-31.999
	c0-17.671,14.328-31.999,32-31.999S277.341,206.323,277.341,223.994z"/>
<g>
</g>
<g>
</g>
<g>
</g>
<g>
</g>
<g>
</g>
<g>
</g>
<g>
</g>
<g>
</g>
<g>
</g>
<g>
</g>
<g>
</g>
<g>
</g>
<g>
</g>
<g>
</g>
<g>
</g>
</svg>
