<svg height="512pt" viewBox="0 0 512 512.00007" width="512pt" xmlns="http://www.w3.org/2000/svg"><path d="m511.960938 256.019531c0 141.375-114.605469 255.980469-255.980469 255.980469s-255.980469-114.605469-255.980469-255.980469 114.605469-255.9804685 255.980469-255.9804685 255.980469 114.6054685 255.980469 255.9804685zm0 0" fill="#cdcdcd"/><path d="m74.976562 75.011719c-42.675781 42.566406-68.886718 98.878906-73.980468 158.941406 12.132812 140.820313 136.128906 245.148437 276.953125 233.015625 123.996093-10.683594 222.332031-109.019531 233.015625-233.015625-12.144532-140.824219-136.152344-245.136719-276.972656-232.992187-60.074219 5.183593-116.390626 31.40625-159.015626 74.050781zm0 0" fill="#d9d9d9"/><path d="m193.566406 193.605469-16.234375 102.488281 92.453125 47.109375 73.378906-73.378906-47.109374-92.453125zm0 0" fill="#6f7478"/><path d="m187.328125 199.84375-12.484375-12.484375 12.484375-12.480469 12.480469 12.480469zm-24.96875-24.964844-12.484375-12.480468 12.484375-12.484376 12.480469 12.484376zm0 0"/><path d="m187.324219 199.84375-12.480469-12.480469 12.480469-12.480469 12.480469 12.480469zm-24.96875-24.972656-12.484375-12.480469 12.484375-12.480469 12.480469 12.480469zm0 0" fill="#a8a8a8"/><path d="m39.5625 119.34375 15.835938 31.070312 81.992187-12.984374 12.984375-81.996094-31.070312-15.832032c-32.191407 20.304688-59.4375 47.546876-79.742188 79.742188zm0 0" fill="#6f7478"/><path d="m134.167969 328.003906-8.003907-15.730468 15.730469-8.015626 8.003907 15.730469zm31.460937-16.03125-8.007812-15.730468 15.730468-8.015626 8.007813 15.730469zm0 0" fill="#a8a8a8"/><path d="m93.566406 414.152344 12.984375-81.992188-73.972656-37.691406-24.632813 24.671875c9.328126 36.894531 26.824219 71.226563 51.195313 100.460937zm0 0" fill="#62666a"/><path d="m18.773438 308.28125c12.875 31.683594 31.988281 60.457031 56.203124 84.609375 6.171876 6.164063 12.570313 11.957031 19.199219 17.371094l12.355469-78.101563-73.96875-37.691406zm0 0" fill="#6f7478"/><path d="m269.355469 396.886719-2.78125-17.433594 17.433593-2.761719 2.761719 17.441406zm-5.519531-34.867188-2.761719-17.441406 17.433593-2.753906 2.761719 17.433593zm0 0" fill="#a8a8a8"/><path d="m223.515625 480.363281 15.808594 31.027344c37.972656 2.488281 76.023437-3.503906 111.394531-17.539063l5.464844-34.496093-73.96875-37.691407zm0 0" fill="#6f7478"/><path d="m394.097656 286.832031-17.445312-2.761719 2.765625-17.433593 17.433593 2.753906zm-34.839844-5.523437-17.433593-2.761719 2.753906-17.433594 17.441406 2.761719zm0 0" fill="#a8a8a8"/><path d="m511.351562 239.363281-31.023437-15.808593-58.699219 58.699218 37.691406 73.96875 34.492188-5.464844c14.039062-35.371093 20.03125-73.421874 17.539062-111.394531zm0 0" fill="#62666a"/><path d="m480.328125 223.554688-58.699219 58.699218 37.691406 73.96875 8.929688-1.421875c23.3125-34.625 37.765625-74.441406 42.089844-115.960937zm0 0" fill="#6f7478"/><path d="m303.921875 181.371094-15.730469-8.007813 8.015625-15.730469 15.726563 8.007813zm16.027344-31.460938-15.730469-8.007812 8.015625-15.726563 15.730469 8.003907zm0 0" fill="#a8a8a8"/><path d="m414.117188 93.601562 5.445312-34.421874c-29.234375-24.371094-63.5625-41.867188-100.460938-51.199219l-24.714843 24.714843 37.691406 73.972657zm0 0" fill="#6f7478"/></svg>