<?xml version="1.0" encoding="iso-8859-1"?>
<!-- Generator: Adobe Illustrator 19.0.0, SVG Export Plug-In . SVG Version: 6.00 Build 0)  -->
<svg version="1.1" id="Layer_1" xmlns="http://www.w3.org/2000/svg" xmlns:xlink="http://www.w3.org/1999/xlink" x="0px" y="0px"
	 viewBox="0 0 511.996 511.996" style="enable-background:new 0 0 511.996 511.996;" xml:space="preserve">
<g>
	<path style="fill:#434A54;" d="M149.33,501.324c0,5.891-4.773,10.672-10.664,10.672s-10.672-4.781-10.672-10.672
		s4.781-10.672,10.672-10.672S149.33,495.434,149.33,501.324z"/>
	<path style="fill:#434A54;" d="M383.992,501.324c0,5.891-4.781,10.672-10.672,10.672s-10.672-4.781-10.672-10.672
		s4.781-10.672,10.672-10.672S383.992,495.434,383.992,501.324z"/>
</g>
<path style="fill:#A0D468;" d="M394.648,0h-277.31c-5.898,0-10.68,4.781-10.68,10.656v170.671v170.655v138.67
	c0,5.891,4.781,10.672,10.68,10.672h277.311c5.906,0,10.688-4.781,10.688-10.672V10.656C405.336,4.781,400.555,0,394.648,0z"/>
<rect x="106.667" y="255.998" style="fill:#8CC153;" width="298.67" height="21.328"/>
<path style="fill:#E6E9ED;" d="M138.666,170.671h-32v21.328h21.328v149.327h-21.328v21.328h32c5.891,0,10.664-4.766,10.664-10.656
	V181.327C149.33,175.436,144.557,170.671,138.666,170.671z"/>
<g style="opacity:0.2;">
	<path style="fill:#FFFFFF;" d="M394.648,0H373.32c5.891,0,10.672,4.781,10.672,10.656v479.996c0,5.891-4.781,10.672-10.672,10.672
		h21.328c5.906,0,10.688-4.781,10.688-10.672V10.656C405.336,4.781,400.555,0,394.648,0z"/>
</g>
<g>
</g>
<g>
</g>
<g>
</g>
<g>
</g>
<g>
</g>
<g>
</g>
<g>
</g>
<g>
</g>
<g>
</g>
<g>
</g>
<g>
</g>
<g>
</g>
<g>
</g>
<g>
</g>
<g>
</g>
</svg>
