<?xml version="1.0" encoding="iso-8859-1"?>
<!-- Generator: Adobe Illustrator 19.0.0, SVG Export Plug-In . SVG Version: 6.00 Build 0)  -->
<svg version="1.1" id="Capa_1" xmlns="http://www.w3.org/2000/svg" xmlns:xlink="http://www.w3.org/1999/xlink" x="0px" y="0px"
	 viewBox="0 0 512 512" style="enable-background:new 0 0 512 512;" xml:space="preserve">
<path style="fill:#F05467;" d="M195.986,388.604c-0.605,0.435-1.199,0.883-1.795,1.33c-6.054,4.549-11.598,9.743-16.513,15.492
	c-0.057,0.067-0.113,0.133-0.171,0.2c-0.623,0.733-1.224,1.482-1.808,2.243l8.19,73.885c3.401,1.086,6.834,2.094,10.3,3.029
	c0.001-0.001,0.001-0.001,0.002-0.002c0.038,0.01,0.077,0.02,0.115,0.03c1.053,0.283,2.109,0.557,3.167,0.826
	c18.721,4.759,38.326,7.306,58.528,7.306V369.32C233.608,369.32,212.886,376.469,195.986,388.604z"/>
<path style="fill:#BD445A;" d="M170.812,415.367c26.951,19.341,56.373,28.641,85.19,28.641v48.934
	c21.386,0,42.104-2.85,61.811-8.162c0.001,0.001,0.001,0.001,0.002,0.002c0.032-0.008,0.064-0.019,0.096-0.027l15.913-79.91
	C284.981,347.955,198.04,365.87,170.812,415.367z"/>
<path style="fill:#FDC88E;" d="M348.719,474.108v-1.77v-25.257v-2.157c0-14.602-5.204-28.725-14.679-39.834l0,0
	c-0.07-0.082-0.144-0.163-0.215-0.245c-2.814,4.959-5.291,10.134-7.409,15.49c-5.674,14.347-8.746,30-8.622,46.376l0.117,18.045
	c3.433-0.927,6.834-1.926,10.204-3.002C335.128,479.514,342.005,476.966,348.719,474.108z"/>
<path style="fill:#FF707E;" d="M282.364,430.106c-3.428-0.057-6.75,0.366-9.901,1.205c-5.4,1.438-10.931,2.157-16.461,2.157
	s-11.061-0.719-16.461-2.157c-3.151-0.84-6.472-1.262-9.901-1.205c-19.508,0.321-35.449,17.282-35.449,36.793v0.289v15.163v0.289
	v2.14c19.707,5.312,40.425,8.162,61.811,8.162c21.387,0,42.103-2.85,61.811-8.162v-2.141v-0.289v-15.163v-0.289
	C317.813,447.388,301.871,430.428,282.364,430.106z"/>
<path style="fill:#FDC88E;" d="M177.191,406.019c-0.51,0.606-0.996,1.231-1.493,1.849c-8.129,10.576-12.414,23.659-12.414,37.056
	v2.129v27.056c6.714,2.858,13.589,5.405,20.604,7.644c3.401,1.086,6.834,2.094,10.3,3.029c0.001-0.001,0.001-0.001,0.002-0.002
	c0.038,0.01,0.077,0.02,0.115,0.03l-0.131-17.157C194.004,445.157,187.831,424.111,177.191,406.019z"/>
<path style="fill:#4C515E;" d="M281.097,28.832C237.908-10.27,170.741-9.496,128.41,30.522
	c-13.205,12.484-22.655,27.35-28.356,43.248c-5.627,15.69-22.168,22.974-36.756,19.01c-6.975-1.896-13.871,3.365-13.298,10.527
	c2.36,29.468,10.717,53.073,31.053,73.277c36.551,36.316,68.014,47.988,103.872,49.869c35.03,1.838,73.348-9.843,100.041-36.365
	C330.02,145.326,328.729,71.955,281.097,28.832z"/>
<circle style="fill:#BD445A;" cx="220.14" cy="77.738" r="37.971"/>
<path style="fill:#E2A071;" d="M209.642,386.129c2.453,26.63,22.27,47.388,46.358,47.388s43.905-20.758,46.358-47.388H209.642z"/>
<path style="fill:#F6B47B;" d="M125.342,224.025l55.891,159.441c22.108,13.433,48.098,21.089,75.867,20.877
	c65.363-0.499,120.226-44.413,137.48-104.163c6.433,3.299,13.72,5.14,21.446,5.08c26.166-0.2,47.108-22.046,45.959-48.41
	c-0.792-18.214-12.307-33.865-28.376-40.665c-4.211-1.782-8.731-2.966-13.457-3.417c-0.515-0.058-1.042-0.095-1.567-0.132
	L351,146.074c-38.57-37.986-100.631-37.512-138.617,1.058l0,0l-11.399,0.087C158.888,147.539,125.021,181.926,125.342,224.025
	L125.342,224.025"/>
<path style="fill:#FDC88E;" d="M267.505,211.815c-5.852-5.185-7.465-7.215-26.734-25.779c-5.892-5.68-18.529-10.423-32.366-7.434
	c-19.122,4.132-35.233,21.438-46.592,50.047c-0.035,0.089-0.07,0.177-0.106,0.265c-4.935,12.163-21.317,14.268-29.425,3.946
	l-6.939-8.834c-2.921-1.235-5.827-2.873-8.347-4.174c-6.329-3.155-13.461-4.924-21.023-4.867c-1.082,0.008-2.163,0.058-3.265,0.138
	c-23.464,1.797-42.055,21.347-42.721,44.873c-0.747,26.379,20.526,47.902,46.693,47.704c7.726-0.059,14.985-2.01,21.367-5.406
	c10.447,34.21,33.256,62.99,63.187,81.176c15.296,3.782,30.502,5.769,44.844,5.66c71.835-0.548,130.993-53.524,141.466-122.343
	c1.586-10.423-6.061-20.094-16.586-20.717C320.753,244.276,291.027,232.518,267.505,211.815z"/>
<circle style="fill:#F6B47B;" cx="96.322" cy="261.337" r="15.453"/>
<circle style="fill:#E2A071;" cx="415.678" cy="258.905" r="15.453"/>
<g>
	<path style="fill:#F1A67D;" d="M171.743,289.017l-10.302,0.078c-4.267,0.033-7.752-3.401-7.785-7.668
		c-0.033-4.267,3.4-7.752,7.668-7.785l10.302-0.078c4.267-0.033,7.752,3.401,7.785,7.668
		C179.442,285.499,176.011,288.984,171.743,289.017z"/>
	<path style="fill:#F1A67D;" d="M340.688,287.806l-10.302,0.078c-4.267,0.033-7.752-3.401-7.785-7.668
		c-0.033-4.267,3.4-7.752,7.668-7.785l10.302-0.078c4.267-0.033,7.752,3.401,7.785,7.668S344.956,287.773,340.688,287.806z"/>
</g>
<g>
	<path style="fill:#434549;" d="M189.045,279.18c-2.834,0-5.563-1.565-6.917-4.272c-1.909-3.817-0.362-8.458,3.455-10.366
		L202.668,256l-17.085-8.542c-3.816-1.908-5.363-6.549-3.455-10.366c1.908-3.817,6.547-5.365,10.367-3.455L223.4,249.09
		c2.617,1.308,4.271,3.984,4.271,6.91c0,2.927-1.653,5.602-4.271,6.91l-30.905,15.453
		C191.384,278.919,190.206,279.18,189.045,279.18z"/>
	<path style="fill:#434549;" d="M322.956,279.18c-1.161,0-2.34-0.263-3.45-0.817L288.6,262.911c-2.617-1.308-4.271-3.984-4.271-6.91
		c0-2.927,1.653-5.602,4.271-6.91l30.905-15.453c3.82-1.909,8.459-0.362,10.367,3.455c1.909,3.817,0.362,8.458-3.455,10.366
		L309.333,256l17.085,8.542c3.816,1.908,5.363,6.549,3.455,10.366C328.52,277.616,325.79,279.18,322.956,279.18z"/>
</g>
<g>
	<path style="fill:#4C515E;" d="M241.993,236.485c-2.39,0-4.748-1.106-6.259-3.189c-4.74-6.531-11.598-11.512-19.314-14.024
		c-4.057-1.321-6.276-5.681-4.955-9.738c1.321-4.059,5.686-6.276,9.739-4.955c10.951,3.565,20.3,10.357,27.036,19.642
		c2.506,3.454,1.738,8.285-1.716,10.791C245.153,236.006,243.566,236.485,241.993,236.485z"/>
	<path style="fill:#4C515E;" d="M270.01,236.487c-1.573,0-3.161-0.479-4.532-1.474c-3.454-2.506-4.222-7.338-1.715-10.791
		c6.746-9.294,16.096-16.087,27.039-19.642c4.054-1.319,8.417,0.901,9.735,4.96c1.319,4.058-0.902,8.418-4.96,9.736
		c-7.817,2.54-14.493,7.389-19.307,14.023C274.758,235.38,272.401,236.487,270.01,236.487z"/>
</g>
<path style="fill:#E2A071;" d="M245.073,275.979c-6.026,6.026-6.026,15.829,0,21.853c6.026,6.026,15.829,6.026,21.853,0
	c6.026-6.026,6.026-15.829,0-21.853C260.902,269.954,251.099,269.954,245.073,275.979z"/>
<rect x="135.521" y="141.135" style="fill:#F05467;" width="166.838" height="47.615"/>
<path style="fill:#FF707E;" d="M243.579,188.745c-0.895-0.865-1.823-1.761-2.808-2.709c-5.892-5.68-18.529-10.423-32.366-7.434
	c-7.187,1.554-13.948,4.968-20.192,10.143L243.579,188.745L243.579,188.745z"/>
<path style="fill:#4C515E;" d="M280.264,40.388c-26.015-7.106-51.599,12.695-51.394,39.654
	c-36.982,0.282-70.348,15.526-94.392,39.95C110.423,144.406,95.691,178,95.972,214.983c7.562-0.058,14.693,1.711,21.023,4.867
	c7.685,3.969,18.969,11.095,23.274,0.245c31.911-80.374,93.698-72.819,116.583-50.752c19.076,18.377,20.829,20.52,25.967,25.073
	c31.596,27.81,76.773,36.704,115.958,21.316c7.169-2.811,14.934-3.688,21.375-2.965l0.029-0.258
	C415.142,129.76,357.392,61.434,280.264,40.388z"/>
<g>
	<path style="fill:#606575;" d="M280.264,40.388c-13.764-3.759-27.397,0.025-37.161,8.406l28.306,87.263
		c5.025,15.491,13.956,29.457,26.053,40.359c0.237,0.214,0.479,0.43,0.728,0.651c25.397,22.355,61.576,29.082,92.115,17.091
		c0.086-0.034,0.172-0.067,0.258-0.101c15.245-5.906,23.216-22.85,17.355-38.113C386.334,99.722,338.903,56.388,280.264,40.388z"/>
	<path style="fill:#606575;" d="M198.613,133.289c16.382-3.54,33.593-2.103,48.672,3.521l-18.413-56.769
		c-36.982,0.282-70.348,15.527-94.392,39.95c-18.682,18.962-31.733,43.462-36.5,70.785c-0.063,0.359-0.092,0.714-0.107,1.067
		c4.669,0.102,9.261,0.654,13.751,1.66c7.969,1.785,16.145-1.928,20.398-8.901C147.458,159.291,169.518,139.578,198.613,133.289z"/>
</g>
<path style="fill:#4C515E;" d="M137.976,444.431l-51.07-71.503c-3.311-4.635-9.752-5.708-14.386-2.398l0,0
	c-4.635,3.311-5.709,9.752-2.398,14.386l50.866,71.216c3.193,4.47,9.353,5.964,14.02,3.066
	C140.12,456.023,141.418,449.251,137.976,444.431z"/>
<path style="fill:#F6B47B;" d="M105.396,398.679l-4.206,20.336l15.513-4.505c3.954,5.535,11.932,6.196,16.743,1.386l0,0
	c3.805-3.805,4.302-9.803,1.173-14.182l-11.308-15.831c-3.954-5.535-11.932-6.195-16.743-1.386l0,0
	C102.765,388.302,102.268,394.3,105.396,398.679z"/>
<path style="fill:#FDC88E;" d="M116.965,446.948L116.965,446.948c-8.712,8.712-22.837,8.712-31.549,0l-6.079-6.079
	c-12.07-12.07-12.07-31.638,0-43.706l0,0c7.626-7.626,20.276-6.58,26.545,2.197l13.462,18.847
	C125.682,427.079,124.676,439.236,116.965,446.948z"/>
<circle style="fill:#606575;" cx="64.386" cy="359.534" r="36.056"/>
<path style="fill:#4C515E;" d="M72.551,324.417c0.608,2.625,0.94,5.355,0.94,8.164c0,19.913-16.143,36.056-36.056,36.056
	c-2.809,0-5.539-0.332-8.164-0.94c3.7,15.979,18.013,27.892,35.117,27.892c19.913,0,36.056-16.143,36.056-36.056
	C100.443,342.429,88.53,328.117,72.551,324.417z"/>
<circle style="fill:#606575;" cx="145.771" cy="475.944" r="36.056"/>
<g>
	<path style="fill:#4C515E;" d="M153.935,440.827c0.608,2.625,0.94,5.355,0.94,8.164c0,19.913-16.143,36.056-36.056,36.056
		c-2.809,0-5.539-0.332-8.164-0.94c3.7,15.979,18.013,27.892,35.117,27.892c19.913,0,36.056-16.143,36.056-36.056
		C181.827,458.84,169.914,444.528,153.935,440.827z"/>
	<path style="fill:#4C515E;" d="M374.024,443.961l51.07-71.502c3.311-4.635,9.752-5.708,14.386-2.398l0,0
		c4.635,3.311,5.709,9.752,2.398,14.386l-50.866,71.216c-3.193,4.47-9.353,5.964-14.02,3.066
		C371.88,455.554,370.582,448.781,374.024,443.961z"/>
</g>
<path style="fill:#F6B47B;" d="M406.604,398.21l4.206,20.336l-15.513-4.505c-3.954,5.535-11.932,6.196-16.743,1.386l0,0
	c-3.805-3.805-4.302-9.803-1.173-14.182l11.308-15.831c3.954-5.535,11.932-6.195,16.743-1.386l0,0
	C409.235,387.833,409.732,393.83,406.604,398.21z"/>
<path style="fill:#FDC88E;" d="M395.035,446.477L395.035,446.477c8.712,8.712,22.837,8.712,31.549,0l6.079-6.079
	c12.07-12.07,12.07-31.638,0-43.706l0,0c-7.626-7.626-20.276-6.58-26.545,2.197l-13.462,18.847
	C386.318,426.61,387.325,438.766,395.035,446.477z"/>
<circle style="fill:#606575;" cx="447.614" cy="359.534" r="36.056"/>
<path style="fill:#4C515E;" d="M455.778,324.417c0.608,2.625,0.94,5.355,0.94,8.164c0,19.913-16.143,36.056-36.056,36.056
	c-2.809,0-5.539-0.332-8.164-0.94c3.7,15.979,18.013,27.892,35.117,27.892c19.913,0,36.056-16.143,36.056-36.056
	C483.67,342.429,471.757,328.117,455.778,324.417z"/>
<circle style="fill:#606575;" cx="366.23" cy="475.944" r="36.056"/>
<path style="fill:#4C515E;" d="M374.394,440.827c0.608,2.625,0.94,5.355,0.94,8.164c0,19.913-16.143,36.056-36.056,36.056
	c-2.809,0-5.539-0.332-8.164-0.94c3.7,15.979,18.013,27.892,35.117,27.892c19.913,0,36.056-16.143,36.056-36.056
	C402.286,458.84,390.373,444.528,374.394,440.827z"/>
<g>
</g>
<g>
</g>
<g>
</g>
<g>
</g>
<g>
</g>
<g>
</g>
<g>
</g>
<g>
</g>
<g>
</g>
<g>
</g>
<g>
</g>
<g>
</g>
<g>
</g>
<g>
</g>
<g>
</g>
</svg>
