<?xml version="1.0" encoding="utf-8"?>
<!-- Generator: Adobe Illustrator 16.0.0, SVG Export Plug-In . SVG Version: 6.00 Build 0)  -->
<!DOCTYPE svg PUBLIC "-//W3C//DTD SVG 1.1//EN" "http://www.w3.org/Graphics/SVG/1.1/DTD/svg11.dtd">
<svg xmlns="http://www.w3.org/2000/svg" xmlns:xlink="http://www.w3.org/1999/xlink" version="1.1" id="Layer_1" x="0px" y="0px" width="512" height="512" viewBox="0 0 512 512" xml:space="preserve">
<g id="hamburger">
	<g>
		<path fill="#F4BE8E" d="M490.667,447.906c0,5.906-4.766,10.656-10.656,10.656H32.223c-5.891,0-10.656-4.75-10.656-10.656v-53.312    h469.1V447.906z"/>
	</g>
	<g>
		<path fill="#F4BE8E" d="M255.875,53.438c-129.529,0-234.542,76.373-234.542,170.59h469.1    C490.433,129.811,385.419,53.438,255.875,53.438z"/>
	</g>
	<path fill="#965353" d="M21.567,394.595c-11.765,0-21.328-9.562-21.328-21.312s9.562-21.312,21.328-21.312h469.1   c11.766,0,21.328,9.562,21.328,21.312s-9.562,21.312-21.328,21.312H21.567z"/>
	<path fill="#965353" d="M21.333,309.315c-11.765,0-21.328-9.562-21.328-21.312c0-11.78,9.562-21.335,21.328-21.335h469.1   c11.766,0,21.328,9.555,21.328,21.335c0,11.75-9.562,21.312-21.328,21.312H21.333z"/>
	<g>
		<path fill="#EC5564" d="M256.125,341.314c0,5.875-4.781,10.656-10.672,10.656H21.567c-5.891,0-10.656-4.781-10.656-10.656v-21.343    c0-5.875,4.765-10.656,10.656-10.656h223.886c5.891,0,10.672,4.781,10.672,10.656V341.314z"/>
	</g>
	<g>
		<path fill="#EC5564" d="M501.339,341.314c0,5.875-4.781,10.656-10.672,10.656H266.781c-5.891,0-10.656-4.781-10.656-10.656    v-21.343c0-5.875,4.766-10.656,10.656-10.656h223.886c5.891,0,10.672,4.781,10.672,10.656V341.314z"/>
	</g>
	<g>
		<polygon fill="#FECD57" points="256.125,437.25 42.895,309.315 468.871,309.315   "/>
	</g>
	<path fill="#F5BA45" d="M213.235,351.971c0,5.875-4.781,10.656-10.672,10.656c-5.875,0-10.656-4.781-10.656-10.656   c0-5.906,4.781-10.656,10.656-10.656C208.454,341.314,213.235,346.064,213.235,351.971z"/>
	<path fill="#F5BA45" d="M309.421,362.627c0,5.875-4.766,10.656-10.656,10.656s-10.656-4.781-10.656-10.656   c0-5.906,4.766-10.656,10.656-10.656S309.421,356.721,309.421,362.627z"/>
	<path fill="#EAAD7A" d="M181.486,117.405c0,5.891-4.766,10.671-10.656,10.671c-5.89,0-10.671-4.781-10.671-10.671   c0-5.89,4.781-10.656,10.671-10.656C176.72,106.749,181.486,111.515,181.486,117.405z"/>
	<path fill="#EAAD7A" d="M266.781,117.405c0,5.891-4.781,10.671-10.656,10.671c-5.891,0-10.672-4.781-10.672-10.671   c0-5.89,4.781-10.656,10.672-10.656C262,106.749,266.781,111.515,266.781,117.405z"/>
	<path fill="#EAAD7A" d="M352.076,117.405c0,5.891-4.781,10.671-10.671,10.671c-5.875,0-10.656-4.781-10.656-10.671   c0-5.89,4.781-10.656,10.656-10.656C347.295,106.749,352.076,111.515,352.076,117.405z"/>
	<path fill="#EAAD7A" d="M138.596,170.716c0,5.891-4.766,10.656-10.656,10.656s-10.656-4.765-10.656-10.656   c0-5.89,4.766-10.656,10.656-10.656S138.596,164.826,138.596,170.716z"/>
	<path fill="#EAAD7A" d="M223.891,170.716c0,5.891-4.766,10.656-10.656,10.656c-5.891,0-10.672-4.765-10.672-10.656   c0-5.89,4.781-10.656,10.672-10.656C219.125,160.061,223.891,164.826,223.891,170.716z"/>
	<path fill="#EAAD7A" d="M309.187,170.716c0,5.891-4.781,10.656-10.656,10.656c-5.891,0-10.672-4.765-10.672-10.656   c0-5.89,4.781-10.656,10.672-10.656C304.405,160.061,309.187,164.826,309.187,170.716z"/>
	<path fill="#EAAD7A" d="M394.716,170.716c0,5.891-4.766,10.656-10.656,10.656s-10.672-4.765-10.672-10.656   c0-5.89,4.781-10.656,10.672-10.656S394.716,164.826,394.716,170.716z"/>
	<path fill="#9ED36A" d="M506.667,234.355c0-5.89-4.781-10.671-10.672-10.671c-1.438,0-2.812,0.297-4.062,0.812l0,0l-0.016,0.016   c-0.047,0.016-0.078,0.016-0.109,0.031L442.7,244.809l-49.125-20.265c-0.031-0.016-0.062-0.016-0.094-0.031l-0.031-0.016l0,0   c-1.25-0.516-2.625-0.812-4.062-0.812s-2.812,0.297-4.062,0.812l0,0l-0.031,0.016c-0.031,0.016-0.062,0.016-0.094,0.031   l-49.123,20.265l-49.125-20.265c-0.031-0.016-0.047-0.016-0.078-0.031l-0.031-0.016l0,0c-1.266-0.516-2.625-0.812-4.078-0.812   c-1.438,0-2.797,0.297-4.062,0.812l0,0l-0.031,0.016c-0.031,0.016-0.062,0.016-0.078,0.031l-49.124,20.265l-49.124-20.265   c-0.031-0.016-0.062-0.016-0.094-0.031l-0.031-0.016l0,0c-1.25-0.516-2.625-0.812-4.062-0.812s-2.812,0.297-4.062,0.812l0,0   l-0.031,0.016c-0.031,0.016-0.062,0.016-0.094,0.031l-49.124,20.265l-49.124-20.265c-0.031-0.016-0.047-0.016-0.078-0.031   l-0.031-0.016l0,0c-1.266-0.516-2.625-0.812-4.078-0.812c-1.438,0-2.812,0.297-4.062,0.812l0,0l-0.031,0.016   c-0.031,0.016-0.062,0.016-0.078,0.031L12.177,246.48l0,0c-3.875,1.609-6.609,5.406-6.609,9.859   c0,5.891,4.781,10.656,10.671,10.656c1.438,0,2.812-0.281,4.062-0.797l0,0l0.031-0.016c0.031-0.016,0.062-0.016,0.094-0.031   l49.108-20.266l49.124,20.266c0.031,0.016,0.062,0.016,0.094,0.031l0.031,0.016l0,0c1.25,0.516,2.625,0.797,4.062,0.797   s2.812-0.281,4.062-0.797l0,0l0.031-0.016c0.031-0.016,0.062-0.016,0.094-0.031l49.124-20.266l49.124,20.266   c0.031,0.016,0.062,0.016,0.094,0.031l0.031,0.016l0,0c1.25,0.516,2.625,0.797,4.062,0.797s2.812-0.281,4.062-0.797l0,0   l0.031-0.016c0.031-0.016,0.062-0.016,0.094-0.031l49.108-20.266l49.125,20.266c0.031,0.016,0.062,0.016,0.094,0.031l0.031,0.016   l0,0c1.25,0.516,2.625,0.797,4.062,0.797s2.812-0.281,4.062-0.797l0,0l0.031-0.016c0.031-0.016,0.062-0.016,0.094-0.031   l49.123-20.266l49.125,20.266c0.031,0.016,0.047,0.016,0.078,0.031l0.031,0.016l0,0c1.266,0.516,2.625,0.797,4.078,0.797   c1.438,0,2.812-0.281,4.062-0.797l0,0l0.016-0.016c0.047-0.016,0.078-0.016,0.109-0.031l53.186-21.938v-0.016   C503.933,242.605,506.667,238.793,506.667,234.355z"/>
</g>
</svg>
