<?xml version="1.0" encoding="iso-8859-1"?>
<!-- Generator: Adobe Illustrator 19.0.0, SVG Export Plug-In . SVG Version: 6.00 Build 0)  -->
<svg version="1.1" id="Capa_1" xmlns="http://www.w3.org/2000/svg" xmlns:xlink="http://www.w3.org/1999/xlink" x="0px" y="0px"
	 viewBox="0 0 512 512" style="enable-background:new 0 0 512 512;" xml:space="preserve">
<g>
	<path style="fill:#B0BEC5;" d="M256,213.314h-0.341c-5.888-0.174-10.521-5.088-10.348-10.976c0-0.011,0.001-0.021,0.001-0.032
		l0.661-21.333c0.181-5.684,4.789-10.226,10.475-10.325c11.779-0.248,21.127-9.999,20.879-21.778
		c-0.248-11.779-9.999-21.127-21.778-20.879c-9.311,0.196-17.419,6.41-20.029,15.351c-1.51,5.694-7.35,9.086-13.044,7.577
		c-5.694-1.51-9.086-7.35-7.577-13.044c0.043-0.163,0.09-0.324,0.141-0.484c6.614-22.617,30.31-35.59,52.927-28.976
		s35.59,30.31,28.976,52.927c-4.18,14.293-15.51,25.373-29.893,29.233l-0.384,12.416C266.482,208.746,261.76,213.317,256,213.314z"
		/>
	<path style="fill:#B0BEC5;" d="M10.667,405.314C4.776,405.314,0,400.538,0,394.647v-21.333c0-5.891,4.776-10.667,10.667-10.667
		s10.667,4.776,10.667,10.667v21.333C21.333,400.538,16.558,405.314,10.667,405.314z"/>
	<path style="fill:#B0BEC5;" d="M501.333,405.314c-5.891,0-10.667-4.776-10.667-10.667v-21.333c0-5.891,4.776-10.667,10.667-10.667
		S512,367.423,512,373.314v21.333C512,400.538,507.224,405.314,501.333,405.314z"/>
	<path style="fill:#B0BEC5;" d="M501.333,383.98H10.667C4.776,383.98,0,379.205,0,373.314c0-5.891,4.776-10.667,10.667-10.667
		h490.667c5.891,0,10.667,4.776,10.667,10.667C512,379.205,507.224,383.98,501.333,383.98z"/>
</g>
<path style="fill:#FFC107;" d="M501.333,383.98c-1.691-0.006-3.357-0.407-4.864-1.173c-1.536-0.832-165.653-84.16-240.469-84.16
	s-238.933,83.328-240.469,84.16c-5.243,2.686-11.671,0.614-14.357-4.629C0.402,376.673,0,375.005,0,373.314
	c0-39.893,61.12-67.605,120.235-94.4c8.427-3.819,16.683-7.552,24.576-11.264c21.539-10.687,40.752-25.529,56.533-43.669
	c12.746-18.055,32.673-29.722,54.656-32c22.495,2.018,42.936,13.911,55.808,32.469c15.372,18.003,34.243,32.693,55.467,43.179
	c7.893,3.712,16.149,7.467,24.576,11.264C450.88,305.708,512,333.421,512,373.314C512,379.205,507.224,383.98,501.333,383.98z"/>
<g>
</g>
<g>
</g>
<g>
</g>
<g>
</g>
<g>
</g>
<g>
</g>
<g>
</g>
<g>
</g>
<g>
</g>
<g>
</g>
<g>
</g>
<g>
</g>
<g>
</g>
<g>
</g>
<g>
</g>
</svg>
