<?xml version="1.0" encoding="iso-8859-1"?>
<!-- Generator: Adobe Illustrator 19.0.0, SVG Export Plug-In . SVG Version: 6.00 Build 0)  -->
<svg version="1.1" id="Capa_1" xmlns="http://www.w3.org/2000/svg" xmlns:xlink="http://www.w3.org/1999/xlink" x="0px" y="0px"
	 viewBox="0 0 512 512" style="enable-background:new 0 0 512 512;" xml:space="preserve">
<path style="fill:#607D8B;" d="M480,224.053c-15.832,0.651-31.384,4.391-45.781,11.008L74.667,288.053
	c-36.704,1.476-67.595,27.954-74.667,64c0,31.637,26.603,64,224,64l11.925-0.235c118.528-6.763,271.424-109.525,275.797-146.795
	c0.031-0.476,0.031-0.953,0-1.429C511.403,243.787,508.736,224.053,480,224.053z"/>
<path style="fill:#37474F;" d="M319.403,115.403c-0.954-5.042-5.364-8.69-10.496-8.683c-18.505,0.758-37.025-1.037-55.04-5.333
	c-16.741-4.12-33.969-5.915-51.2-5.333c-17.177-0.354-34.147,3.802-49.216,12.053c-5.119,2.915-6.906,9.428-3.991,14.547
	c0.432,0.759,0.956,1.461,1.559,2.093c18.508,21.211,44.863,33.96,72.981,35.307c21.066-1.705,41.448-8.278,59.541-19.2
	c9.216-4.587,18.859-9.387,29.291-13.504C317.614,125.469,320.376,120.448,319.403,115.403z"/>
<path style="fill:#455A64;" d="M467.413,315.573c-2.56,3.627-14.933,16.427-62.08,25.813c-6.4,1.28-13.44,2.56-21.333,3.627
	c-12.373,1.92-26.453,3.413-42.667,4.48c-6.827,0.64-13.867,1.067-21.333,1.28c-16,0.853-33.707,1.28-53.333,1.28
	c-170.88,0-198.827-43.307-201.387-48.427c-1.483-2.604-1.718-5.737-0.64-8.533l17.707-49.92l8.747-23.893l26.88-75.52
	c7.603-16.024,20.071-29.239,35.627-37.76c4.212-2.318,9.453-1.531,12.8,1.92c14.513,16.997,35.294,27.388,57.6,28.8
	c17.768-1.908,34.891-7.737,50.133-17.067c9.6-4.693,19.627-9.813,30.933-14.293c18.307-7.394,37.856-11.231,57.6-11.307
	c31.147,0,43.093,18.347,52.907,50.133c4.693,15.573,18.987,58.24,31.36,95.573c2.347,7.04,4.693,13.653,6.827,20.053
	c8.32,24.747,14.72,43.733,14.933,44.16C469.786,309.198,469.313,312.748,467.413,315.573z"/>
<g>
	<path style="fill:#546E7A;" d="M440.747,266.08c-1.493,0.64-14.72,4.907-35.627,10.24c0.092,0.351,0.163,0.707,0.213,1.067v64
		c-6.4,1.28-13.44,2.56-21.333,3.627v-63.787c-12.587,2.773-27.093,5.547-42.667,8.32v59.947c-6.827,0.64-13.867,1.067-21.333,1.28
		v-58.24c-28.272,3.989-56.782,6.056-85.333,6.187c-110.08,0-145.707-45.013-147.2-46.933l-5.12-6.613l8.747-23.893l13.44,17.707
		c0.213,0.213,31.787,38.4,130.133,38.4c67.551-1.155,134.613-11.709,199.253-31.36l13.013-4.267
		c2.347,7.04,4.693,13.653,6.827,20.053L440.747,266.08z"/>
	<path style="fill:#546E7A;" d="M511.765,267.04c-0.413-5.357-4.805-9.537-10.176-9.685c-5.46-0.147-10.189,3.762-11.072,9.152
		c-3.221,19.371-140.395,121.408-255.829,128c-5.891,0.165-10.533,5.074-10.368,10.965c0.165,5.891,5.074,10.533,10.965,10.368l0,0
		c204.8-2.133,261.035-64.832,263.339-67.499c0.844-0.982,1.502-2.11,1.941-3.328c7.344-21.801,11.203-44.623,11.435-67.627
		C512,273.717,512,270.261,511.765,267.04z"/>
</g>
<g>
</g>
<g>
</g>
<g>
</g>
<g>
</g>
<g>
</g>
<g>
</g>
<g>
</g>
<g>
</g>
<g>
</g>
<g>
</g>
<g>
</g>
<g>
</g>
<g>
</g>
<g>
</g>
<g>
</g>
</svg>
