<?xml version="1.0" encoding="iso-8859-1"?>
<!-- Generator: Adobe Illustrator 19.0.0, SVG Export Plug-In . SVG Version: 6.00 Build 0)  -->
<svg version="1.1" id="Capa_1" xmlns="http://www.w3.org/2000/svg" xmlns:xlink="http://www.w3.org/1999/xlink" x="0px" y="0px"
	 viewBox="0 0 512 512" style="enable-background:new 0 0 512 512;" xml:space="preserve">
<path style="fill:#F2F2F2;" d="M457.6,324.8h-34.133v-70.4c0-92.8-74.667-167.467-167.467-167.467S88.533,161.6,88.533,254.4v70.4
	H54.4v-70.4c0-110.933,90.667-201.6,201.6-201.6s201.6,90.667,201.6,201.6V324.8z"/>
<path style="fill:#CDD6E0;" d="M473.6,254.4h-67.2c0-83.2-67.2-150.4-150.4-150.4s-150.4,67.2-150.4,150.4H38.4
	c0-120.533,97.067-218.667,217.6-218.667S473.6,133.867,473.6,254.4z"/>
<path style="fill:#40596B;" d="M456.533,294.933H419.2v166.4h37.333c12.8,0,22.4-9.6,22.4-22.4v-121.6
	C478.933,304.533,469.333,294.933,456.533,294.933z"/>
<g>
	<path style="fill:#FF7058;" d="M478.933,315.2v123.733C497.067,438.933,512,424,512,405.867V347.2
		C512,330.133,497.067,315.2,478.933,315.2z"/>
	<path style="fill:#FF7058;" d="M0,348.267v58.667C0,425.067,14.933,440,33.067,440V315.2C14.933,315.2,0,330.133,0,348.267z"/>
</g>
<path style="fill:#334A5E;" d="M406.4,278.933L406.4,278.933c-8.533,0-14.933,6.4-14.933,13.867v169.6
	c0,7.467,6.4,13.867,13.867,13.867l0,0c7.467,0,13.867-6.4,13.867-13.867V292.8C420.267,285.333,413.867,278.933,406.4,278.933z"/>
<path style="fill:#40596B;" d="M55.467,294.933c-12.8,0-22.4,9.6-22.4,22.4v121.6c0,12.8,9.6,22.4,22.4,22.4H92.8v-166.4H55.467z"/>
<path style="fill:#334A5E;" d="M106.667,278.933L106.667,278.933c-8.533,0-14.933,6.4-14.933,13.867v169.6
	c0,7.467,6.4,13.867,13.867,13.867l0,0c7.467,0,13.867-6.4,13.867-13.867V292.8C120.533,285.333,114.133,278.933,106.667,278.933z"
	/>
<g>
</g>
<g>
</g>
<g>
</g>
<g>
</g>
<g>
</g>
<g>
</g>
<g>
</g>
<g>
</g>
<g>
</g>
<g>
</g>
<g>
</g>
<g>
</g>
<g>
</g>
<g>
</g>
<g>
</g>
</svg>
