<?xml version="1.0" encoding="iso-8859-1"?>
<!-- Generator: Adobe Illustrator 19.0.0, SVG Export Plug-In . SVG Version: 6.00 Build 0)  -->
<svg version="1.1" id="Capa_1" xmlns="http://www.w3.org/2000/svg" xmlns:xlink="http://www.w3.org/1999/xlink" x="0px" y="0px"
	 viewBox="0 0 512.379 512.379" style="enable-background:new 0 0 512.379 512.379;" xml:space="preserve">
<path style="fill:#455A64;" d="M369.155,43.387c-29.441-30.335-70.799-46.081-112.96-43.008
	c-42.126-3.061-83.457,12.613-112.96,42.837c-13.596,16.076-18.92,37.57-14.4,58.133c1.479,5.933,7.488,9.544,13.421,8.065
	c0.338-0.084,0.672-0.184,1-0.3c3.93-1.4,8.074-2.1,12.245-2.069l29.419,32.747c35.512,39.37,96.215,42.498,135.585,6.986
	c2.447-2.207,4.779-4.539,6.986-6.986l29.397-32.747c4.169-0.044,8.313,0.642,12.245,2.027c5.516,2.069,11.664-0.725,13.734-6.241
	c0.179-0.476,0.323-0.964,0.432-1.461C387.913,80.894,382.68,59.438,369.155,43.387z"/>
<g>
	<path style="fill:#546E7A;" d="M127.234,262.629L69.848,136.336c-2.456-5.355-8.788-7.705-14.142-5.249
		c-1.546,0.709-2.899,1.777-3.948,3.115c-6.264,7.94-10.135,17.501-11.157,27.563L0.194,500.453
		c-0.363,3.025,0.584,6.06,2.603,8.341c2.045,2.303,4.985,3.609,8.064,3.584h74.667c5.375,0.048,9.947-3.91,10.667-9.237l32-234.667
		C128.433,266.475,128.1,264.448,127.234,262.629z"/>
	<path style="fill:#546E7A;" d="M471.811,161.787c-1.212-12.173-6.593-23.553-15.232-32.213c-2.493-2.547-6.111-3.649-9.6-2.923
		c-3.503,0.695-6.426,3.098-7.787,6.4l-54.187,129.92c-0.731,1.751-0.974,3.668-0.704,5.547l32,234.667
		c0.734,5.27,5.24,9.192,10.56,9.195h74.667c3.05,0.001,5.954-1.304,7.979-3.584c2.05-2.267,3.028-5.304,2.688-8.341
		L471.811,161.787z"/>
</g>
<path style="fill:#CFD8DC;" d="M456.728,129.829c-4.265-4.51-9.328-8.191-14.933-10.859l-45.227-21.739
	c-5.163-1.877-8.917-3.52-12.011-4.885c-3.093-1.365-5.675-2.453-7.915-3.179c-7.853-2.706-16.153-3.879-24.448-3.456
	c-3.022,0.008-5.901,1.286-7.936,3.52l-32.597,36.267c-27.606,30.633-74.819,33.087-105.452,5.481
	c-1.921-1.731-3.75-3.56-5.481-5.481l-32.64-36.267c-2.025-2.224-4.886-3.5-7.893-3.52c-7.891-0.364-15.785,0.669-23.317,3.051
	l-1.003,0.277c-2.581,0.875-5.099,1.984-8.128,3.307c-3.029,1.323-6.741,3.008-12.928,5.312l-44.544,21.333
	c-7.32,3.579-13.71,8.807-18.667,15.275c-2.354,3.121-2.812,7.279-1.195,10.837l56.448,124.245v211.029
	c0,4.037,2.279,7.728,5.888,9.536c1.835,0.917,46.059,22.464,143.445,22.464s141.611-21.547,143.445-22.464
	c3.609-1.808,5.888-5.499,5.888-9.536v-211.2l53.333-128C460.436,137.305,459.602,132.867,456.728,129.829z"/>
<g>
	<path style="fill:#2196F3;" d="M160.194,192.379c-5.891,0-10.667-4.776-10.667-10.667c-0.341-8.279-1.967-16.455-4.821-24.235
		c-9.103-21.838-6.744-46.774,6.293-66.517c2.867-5.146,9.363-6.994,14.509-4.128c5.146,2.867,6.994,9.363,4.128,14.509
		c-0.086,0.154-0.175,0.306-0.269,0.456c-9.908,14.594-11.524,33.288-4.267,49.365c3.509,9.818,5.453,20.127,5.76,30.549
		C170.861,187.603,166.086,192.379,160.194,192.379z"/>
	<path style="fill:#2196F3;" d="M352.194,192.379c-5.891,0.011-10.675-4.757-10.686-10.648c-0.005-2.84,1.123-5.565,3.134-7.571
		c6.528-6.528,4.416-16.128,0.171-32.555c-5.574-15.537-6.544-32.352-2.795-48.427c2.005-5.539,8.121-8.404,13.66-6.399
		c5.21,1.886,8.109,7.448,6.67,12.799c-2.294,12.288-1.217,24.968,3.115,36.693c8.248,17.33,6.028,37.829-5.739,52.992
		C357.726,191.258,355.018,192.378,352.194,192.379z"/>
</g>
<g>
</g>
<g>
</g>
<g>
</g>
<g>
</g>
<g>
</g>
<g>
</g>
<g>
</g>
<g>
</g>
<g>
</g>
<g>
</g>
<g>
</g>
<g>
</g>
<g>
</g>
<g>
</g>
<g>
</g>
</svg>
