<?xml version="1.0" encoding="iso-8859-1"?>
<!-- Generator: Adobe Illustrator 19.0.0, SVG Export Plug-In . SVG Version: 6.00 Build 0)  -->
<svg version="1.1" id="Capa_1" xmlns="http://www.w3.org/2000/svg" xmlns:xlink="http://www.w3.org/1999/xlink" x="0px" y="0px"
	 viewBox="0 0 512 512" style="enable-background:new 0 0 512 512;" xml:space="preserve">
<g>
	<polygon style="fill:#40596B;" points="141.163,168.992 234.891,75.264 216.043,56.416 103.456,168.992 	"/>
	<polygon style="fill:#40596B;" points="408.544,168.992 295.957,56.416 277.109,75.264 370.848,168.992 	"/>
</g>
<path style="fill:#FF7058;" d="M305.003,48.992c0,27.061-21.941,49.013-49.003,49.013s-49.003-21.952-49.003-49.013
	C206.997,21.941,228.939,0,256,0S305.003,21.941,305.003,48.992"/>
<path style="fill:#FFFFFF;" d="M272.928,48.992c0,9.355-7.573,16.939-16.928,16.939c-9.344,0-16.928-7.584-16.928-16.939
	c0-9.333,7.584-16.917,16.928-16.917C265.355,32.075,272.928,39.659,272.928,48.992"/>
<path style="fill:#F2F2F2;" d="M490.667,512H21.333C9.547,512,0,502.453,0,490.667V187.733C0,175.957,9.547,166.4,21.333,166.4
	h469.333c11.787,0,21.333,9.557,21.333,21.333v302.933C512,502.453,502.453,512,490.667,512"/>
<rect x="42.667" y="209.067" style="fill:#84DBFF;" width="426.667" height="260.256"/>
<g>
	<path style="fill:#40596B;" d="M126.048,366.955h-12.277c-2.859,0-5.163,2.315-5.163,5.173v24.469H84.171v-24.469
		c0-2.869-2.315-5.173-5.173-5.173H66.667c-2.88,0-5.184,2.315-5.184,5.173v74.027c0,2.859,2.315,5.163,5.184,5.163h12.32
		c2.869,0,5.173-2.315,5.173-5.163V417.6h24.437v28.565c0,2.859,2.315,5.163,5.163,5.163h12.277c2.869,0,5.173-2.315,5.173-5.163
		v-74.027C131.232,369.269,128.917,366.955,126.048,366.955"/>
	<path style="fill:#40596B;" d="M213.92,377.909c-3.584-3.829-7.936-6.859-12.96-9.003c-9.92-4.181-22.912-4.181-32.779,0.021
		c-5.003,2.123-9.355,5.141-12.939,8.96c-3.605,3.829-6.411,8.48-8.384,13.835c-1.92,5.248-2.891,11.115-2.891,17.429
		c0,6.347,0.96,12.224,2.837,17.451c1.92,5.333,4.683,9.984,8.245,13.856c3.584,3.883,7.957,6.912,12.96,9.003
		c4.971,2.101,10.539,3.147,16.555,3.147c6.027,0,11.605-1.067,16.597-3.168c5.045-2.133,9.419-5.184,12.981-9.088
		c3.563-3.872,6.325-8.533,8.224-13.845c1.867-5.237,2.827-11.072,2.827-17.355c0-6.293-0.992-12.16-2.912-17.429
		C220.288,386.379,217.483,381.749,213.92,377.909 M202.187,409.152c0,3.659-0.459,6.987-1.397,9.888
		c-0.875,2.773-2.123,5.152-3.712,7.072c-1.525,1.867-3.285,3.243-5.408,4.224c-4.235,1.984-9.973,2.037-14.336,0
		c-2.091-0.981-3.851-2.357-5.387-4.224c-1.579-1.931-2.848-4.32-3.755-7.093c-0.928-2.891-1.397-6.208-1.397-9.867
		c0-3.627,0.459-6.923,1.387-9.835c0.896-2.784,2.133-5.152,3.723-7.051c1.557-1.877,3.339-3.275,5.504-4.267
		c2.123-1.003,4.576-1.515,7.253-1.515c2.645,0,5.067,0.512,7.147,1.515c2.112,1.024,3.851,2.421,5.355,4.267
		c1.557,1.984,2.795,4.352,3.669,7.115C201.728,402.261,202.187,405.547,202.187,409.152"/>
	<path style="fill:#40596B;" d="M296.224,366.955h-58.891c-2.869,0-5.184,2.315-5.184,5.173v10.763c0,2.88,2.325,5.184,5.184,5.184
		h18.059v58.08c0,2.859,2.325,5.163,5.184,5.163h12.288c2.859,0,5.163-2.315,5.163-5.163v-58.08h18.187
		c2.859,0,5.163-2.315,5.163-5.184v-10.763C301.397,369.269,299.083,366.955,296.224,366.955"/>
	<path style="fill:#40596B;" d="M372.64,430.336h-38.496v-11.637h34.08c2.869,0,5.173-2.315,5.173-5.184v-10.763
		c0-2.869-2.315-5.173-5.173-5.173h-34.08v-9.621h36.747c2.869,0,5.173-2.315,5.173-5.163v-10.645c0-2.88-2.315-5.184-5.173-5.184
		h-54.261c-2.859,0-5.173,2.315-5.173,5.184v74.016c0,2.859,2.325,5.163,5.173,5.163h56.011c2.869,0,5.173-2.315,5.173-5.163V435.52
		C377.813,432.651,375.499,430.336,372.64,430.336"/>
	<path style="fill:#40596B;" d="M443.093,430.219h-29.589v-58.08c0-2.869-2.325-5.173-5.184-5.173h-12.331
		c-2.88,0-5.184,2.315-5.184,5.173v74.005c0,2.869,2.315,5.184,5.184,5.184h47.115c2.869,0,5.173-2.325,5.173-5.184v-10.752
		C448.267,432.533,445.963,430.219,443.093,430.219"/>
</g>
<g>
	<polygon style="fill:#FFFFFF;" points="148.747,238.752 163.691,269.035 197.12,273.909 172.928,297.472 178.645,330.763 
		148.747,315.051 118.859,330.763 124.565,297.472 100.373,273.909 133.803,269.035 	"/>
	<polygon style="fill:#FFFFFF;" points="256,238.752 270.944,269.035 304.373,273.909 280.192,297.472 285.899,330.763 256,315.051 
		226.101,330.763 231.819,297.472 207.627,273.909 241.067,269.035 	"/>
	<polygon style="fill:#FFFFFF;" points="363.275,238.752 378.208,269.035 411.637,273.909 387.435,297.472 393.163,330.763 
		363.275,315.051 333.365,330.763 339.083,297.472 314.891,273.909 348.309,269.035 	"/>
</g>
<g>
</g>
<g>
</g>
<g>
</g>
<g>
</g>
<g>
</g>
<g>
</g>
<g>
</g>
<g>
</g>
<g>
</g>
<g>
</g>
<g>
</g>
<g>
</g>
<g>
</g>
<g>
</g>
<g>
</g>
</svg>
