<svg height="512pt" viewBox="-123 0 512 512.00001" width="512pt" xmlns="http://www.w3.org/2000/svg"><path d="m185.476562 97.734375h-106.621093v-41.277344c-.003907-18.265625 10.316406-34.964843 26.65625-43.128906l26.652343-13.328125 26.65625 13.328125c16.339844 8.164063 26.660157 24.863281 26.65625 43.128906zm0 0" fill="#ffb1b5"/><path d="m231.011719 183.253906h-195.472657v-44.425781c0-29.441406 23.867188-53.308594 53.3125-53.308594h88.847657c29.445312 0 53.3125 23.867188 53.3125 53.308594zm0 0" fill="#b3e4e8"/><path d="m133.277344 512-97.738282-248.78125v-17.769531h195.472657v17.769531zm0 0" fill="#ea9d2d"/><path d="m49.605469 299.132812 83.671875 212.867188 62.746094-159.558594c-41.117188-29.355468-89.175782-47.480468-139.433594-52.589844zm0 0" fill="#fbb540"/><path d="m53.308594 174.367188h159.933594c29.441406 0 53.308593 23.871093 53.308593 53.3125 0 19.628906-15.910156 35.539062-35.539062 35.539062h-195.472657c-19.628906 0-35.539062-15.910156-35.539062-35.539062 0-29.441407 23.867188-53.3125 53.308594-53.3125zm0 0" fill="#ffb1b5"/><path d="m97.734375 334.300781h17.769531v17.769531h-17.769531zm0 0" fill="#ea9d2d"/><path d="m177.699219 289.875h17.769531v17.769531h-17.769531zm0 0" fill="#d18d28"/><path d="m142.160156 280.988281h17.769532v17.769531h-17.769532zm0 0" fill="#d18d28"/><g fill="#ea9d2d"><path d="m106.621094 369.839844h17.769531v17.769531h-17.769531zm0 0"/><path d="m124.390625 405.378906h17.769531v17.769532h-17.769531zm0 0"/><path d="m142.160156 369.839844h17.769532v17.769531h-17.769532zm0 0"/></g><path d="m88.851562 138.828125c-2.359374 0-4.617187-.9375-6.285156-2.601563l-8.882812-8.886718c-3.410156-3.53125-3.3125-9.152344.21875-12.5625 3.441406-3.324219 8.902344-3.324219 12.34375 0l8.886718 8.882812c3.46875 3.472656 3.46875 9.097656-.003906 12.566406-1.664062 1.664063-3.921875 2.601563-6.277344 2.601563zm0 0" fill="#aac16b"/><path d="m133.277344 58.863281c-2.359375 0-4.617188-.9375-6.285156-2.601562l-8.882813-8.886719c-3.53125-3.410156-3.628906-9.035156-.21875-12.5625 3.40625-3.53125 9.03125-3.628906 12.5625-.21875.074219.070312.148437.144531.21875.21875l8.886719 8.882812c3.46875 3.472657 3.46875 9.097657-.003906 12.566407-1.664063 1.664062-3.925782 2.601562-6.277344 2.601562zm0 0" fill="#f55648"/><path d="m142.160156 227.679688c-2.355468 0-4.617187-.9375-6.28125-2.605469l-8.886718-8.882813c-3.40625-3.53125-3.308594-9.15625.21875-12.566406 3.445312-3.324219 8.902343-3.324219 12.347656 0l8.882812 8.886719c3.46875 3.46875 3.46875 9.097656 0 12.566406-1.667968 1.664063-3.925781 2.601563-6.28125 2.601563zm0 0" fill="#aedee2"/><path d="m195.472656 147.714844c-2.359375 0-4.617187-.9375-6.285156-2.605469l-8.882812-8.882813c-3.410157-3.53125-3.3125-9.15625.21875-12.566406 3.441406-3.324218 8.902343-3.324218 12.34375 0l8.886718 8.886719c3.46875 3.46875 3.46875 9.097656-.003906 12.566406-1.664062 1.664063-3.925781 2.601563-6.277344 2.601563zm0 0" fill="#fbb540"/><path d="m142.160156 138.828125c-4.90625 0-8.882812-3.980469-8.882812-8.886719 0-2.355468.9375-4.613281 2.601562-6.28125l8.886719-8.882812c3.527344-3.410156 9.152344-3.3125 12.5625.21875 3.324219 3.441406 3.324219 8.902344 0 12.34375l-8.886719 8.886718c-1.664062 1.664063-3.925781 2.601563-6.28125 2.601563zm0 0" fill="#f55648"/><path d="m53.308594 227.679688c-4.90625-.003907-8.882813-3.980469-8.882813-8.886719 0-2.355469.9375-4.617188 2.601563-6.28125l8.886718-8.886719c3.53125-3.40625 9.15625-3.308594 12.5625.21875 3.328126 3.445312 3.328126 8.902344 0 12.347656l-8.882812 8.882813c-1.667969 1.667969-3.925781 2.605469-6.285156 2.605469zm0 0" fill="#f55648"/><path d="m204.355469 227.679688c-4.90625-.003907-8.882813-3.980469-8.882813-8.886719 0-2.355469.9375-4.617188 2.601563-6.28125l8.886719-8.886719c3.527343-3.40625 9.152343-3.308594 12.5625.21875 3.324218 3.445312 3.324218 8.902344 0 12.347656l-8.886719 8.882813c-1.664063 1.667969-3.925781 2.605469-6.28125 2.605469zm0 0" fill="#aac16b"/></svg>