<?xml version="1.0" encoding="iso-8859-1"?>
<!-- Generator: Adobe Illustrator 19.0.0, SVG Export Plug-In . SVG Version: 6.00 Build 0)  -->
<svg version="1.1" id="Layer_1" xmlns="http://www.w3.org/2000/svg" xmlns:xlink="http://www.w3.org/1999/xlink" x="0px" y="0px"
	 viewBox="0 0 511.986 511.986" style="enable-background:new 0 0 511.986 511.986;" xml:space="preserve">
<path style="fill:#F5F7FA;" d="M198.186,40.431c61.084,75.998-113.325,45.327-58.374,225.423
	c40.507,132.746,196.354,83.685,230.696,0C466.85,31.095,117.423-60.059,198.186,40.431z"/>
<g>
	<path style="fill:#ED5564;" d="M209.904,60.328c5.688-2.414,12.531-5.695,19.406-9.913c17.96-11.031,28.851-23.671,32.468-37.655
		c-54.163-23.195-98.06-15.219-63.592,27.671C204.295,48.016,208.037,54.547,209.904,60.328z"/>
	<path style="fill:#ED5564;" d="M386.352,166.489c-3.172,5.227-6.906,10.992-11.234,17.046
		c-15.39,21.554-41.482,50.999-78.279,68.802l-9.296-19.202c32.577-15.757,55.983-42.171,69.904-61.553
		c12.218-17.031,19.483-31.804,21.952-37.171c-3.562-10.96-8.156-21.288-13.609-30.968c-7.827,11.492-23.186,32.429-45.701,55.857
		c-19.578,20.367-40.529,38.397-62.303,53.608c-27.327,19.093-56.007,33.757-85.256,43.584l-6.796-20.226
		c61.998-20.835,109.794-61.389,138.964-91.747c28.953-30.116,45.608-56.139,48.39-60.631c-7.422-10-15.718-19.148-24.53-27.421
		c-11.281,21.851-27.562,42.561-48.546,61.701c-19.249,17.554-42.491,33.851-69.084,48.436
		c-37.897,20.781-71.334,31.991-81.981,35.304c0,17.789,3.195,38.812,10.866,63.943c40.507,132.746,196.354,83.685,230.696,0
		C385.555,229.159,389.743,195.98,386.352,166.489z"/>
	<path style="fill:#ED5564;" d="M265.833,102.233c20.444-18.694,35.881-38.851,45.975-59.998c-10-7.695-20.327-14.367-30.593-19.992
		c-13.101,39.491-62.021,58.077-75.873,62.615c-16.851,21.812-64.045,37.819-74.372,93.912c14.483-5,41.178-15.188,70.106-31.093
		C226.107,133.912,247.895,118.623,265.833,102.233z"/>
</g>
<polygon style="fill:#F6BB42;" points="341.339,511.986 170.663,511.986 138.664,292.743 373.337,292.743 "/>
<path style="fill:#E8A734;" d="M367.602,331.961l-51.264,51.279l-45.256-45.264l1.008-1l-15.086-15.094l-1.008,1.016l-1.359-1.359
	l-15.078,15.078l1.352,1.359l-45.256,45.264l-51.265-51.279l5.156,35.327l31.03,31.03l-23.124,23.124l3.844,26.327l34.358-34.374
	l45.256,45.265l-51.123,51.123l2.211,2.203h25.749l38.249-38.249l38.249,38.249H324.4l-53.318-53.326l45.256-45.265l34.358,34.374
	l3.844-26.327l-23.124-23.124l31.029-31.03L367.602,331.961z M255.997,443.566l-45.257-45.248l45.257-45.249l45.248,45.249
	L255.997,443.566z"/>
<polygon points="136.031,287.274 120.946,272.197 154.031,239.112 169.116,254.197 "/>
<polygon points="174.679,339.148 159.594,324.055 248.45,235.198 263.536,250.276 "/>
<polygon points="378.305,289.634 342.339,253.65 357.416,238.565 393.399,274.556 "/>
<polygon points="335.979,337.805 250.794,252.627 265.88,237.542 351.056,322.726 "/>
<path style="fill:#FFCE54;" d="M394.649,319.992c0,11.781-9.531,21.327-21.312,21.327H138.664c-11.78,0-21.327-9.546-21.327-21.327
	v-63.998c0-11.78,9.547-21.335,21.327-21.335h234.673c11.781,0,21.312,9.555,21.312,21.335V319.992z"/>
<g>
	<path style="fill:#F6BB42;" d="M141.789,242.198c4.164,4.164,10.922,4.164,15.086,0c2.086-2.078,3.125-4.812,3.125-7.539h-21.328
		C138.672,237.386,139.711,240.12,141.789,242.198z"/>
	<path style="fill:#F6BB42;" d="M184.46,242.198c4.164,4.164,10.914,4.164,15.086,0c2.077-2.078,3.124-4.812,3.116-7.539h-21.327
		C181.335,237.386,182.374,240.12,184.46,242.198z"/>
	<path style="fill:#F6BB42;" d="M227.123,242.198c4.164,4.164,10.921,4.164,15.085,0c2.078-2.078,3.125-4.812,3.125-7.539h-21.335
		C223.998,237.386,225.037,240.12,227.123,242.198z"/>
	<path style="fill:#F6BB42;" d="M269.786,242.198c4.164,4.164,10.929,4.164,15.085,0c2.094-2.078,3.125-4.812,3.125-7.539h-21.335
		C266.661,237.386,267.708,240.12,269.786,242.198z"/>
	<path style="fill:#F6BB42;" d="M312.448,242.198c4.172,4.164,10.922,4.164,15.078,0c2.094-2.078,3.125-4.812,3.125-7.539h-21.312
		C309.323,237.386,310.37,240.12,312.448,242.198z"/>
	<path style="fill:#F6BB42;" d="M351.994,234.659c0,2.727,1.031,5.461,3.125,7.539c4.156,4.164,10.921,4.164,15.093,0
		c2.062-2.078,3.109-4.812,3.109-7.539H351.994z"/>
</g>
<g>
</g>
<g>
</g>
<g>
</g>
<g>
</g>
<g>
</g>
<g>
</g>
<g>
</g>
<g>
</g>
<g>
</g>
<g>
</g>
<g>
</g>
<g>
</g>
<g>
</g>
<g>
</g>
<g>
</g>
</svg>
