<?xml version="1.0" encoding="iso-8859-1"?>
<!-- Generator: Adobe Illustrator 19.0.0, SVG Export Plug-In . SVG Version: 6.00 Build 0)  -->
<svg version="1.1" id="Layer_1" xmlns="http://www.w3.org/2000/svg" xmlns:xlink="http://www.w3.org/1999/xlink" x="0px" y="0px"
	 viewBox="0 0 511.997 511.997" style="enable-background:new 0 0 511.997 511.997;" xml:space="preserve">
<path style="fill:#434A54;" d="M511.997,112.553c0-5.891-4.766-10.672-10.656-10.672c-1.531,0-2.984,0.328-4.297,0.906l0,0
	l-68.125,30.016l8.594,19.516l67.953-29.938c0.016,0,0.047-0.016,0.047-0.016l0.125-0.062l0,0
	C509.388,120.646,511.997,116.912,511.997,112.553z"/>
<path style="fill:#656D78;" d="M483.278,135.24l-14.406-28.578c-2.656-5.25-9.062-7.375-14.328-4.719L391.2,133.881h35.469v41.843
	l51.891-26.156C483.81,146.912,485.935,140.506,483.278,135.24z"/>
<polygon style="fill:#E6E9ED;" points="110.031,163.052 166.984,133.881 187.046,173.052 130.093,202.208 "/>
<path style="fill:#CCD1D9;" d="M196.546,168.177l-20.062-39.156c-1.891-3.688-5.625-5.812-9.5-5.812
	c-1.641,0-3.297,0.375-4.859,1.172l-56.953,29.172c-5.25,2.687-7.328,9.109-4.641,14.359l20.047,39.171
	c1.891,3.688,5.641,5.797,9.516,5.797c1.625,0,3.297-0.375,4.844-1.172l56.968-29.171
	C197.155,179.849,199.218,173.427,196.546,168.177z M134.718,187.865l-10.344-20.188l37.984-19.437l10.328,20.171L134.718,187.865z"
	/>
<path style="fill:#5D9CEC;" d="M106.671,202.224c0,5.891-4.781,10.656-10.672,10.656c-5.875,0-10.656-4.766-10.656-10.656
	s4.781-10.671,10.656-10.671C101.89,191.552,106.671,196.333,106.671,202.224z"/>
<path style="fill:#48CFAD;" d="M447.997,123.209C28.641,80.99,0,379.2,0,379.2h413.106c28.422-49.312,77.562-42.656,77.562-42.656
	L447.997,123.209z M389.341,261.825l-202.498,0.062c15.672-31.461,42.844-54.82,80.938-69.554
	c38.359-14.844,80.141-17.969,108.436-17.969c13.125,0,23.797,0.672,30.5,1.25l8.672,51.515L389.341,261.825z"/>
<path style="fill:#CCD1D9;" d="M405.341,389.888H10.672c-5.891,0-10.671,4.781-10.671,10.655c0,5.906,4.781,10.656,10.671,10.656
	h394.669c5.891,0,10.656-4.75,10.656-10.656C415.997,394.669,411.231,389.888,405.341,389.888z"/>
<path style="fill:#E6E9ED;" d="M477.95,336.544H9.953C1.656,362.044,0,379.2,0,379.2h413.106
	C432.466,345.606,461.435,337.981,477.95,336.544z"/>
<path style="fill:#37BC9B;" d="M330.671,240.505L330.671,240.505L330.671,240.505h-64l0,0c-5.891,0-10.672,4.766-10.672,10.656
	s4.781,10.664,10.672,10.664l0,0h64l0,0l0,0c5.891,0,10.672-4.773,10.672-10.664S336.561,240.505,330.671,240.505z"/>
<path style="fill:#434A54;" d="M447.997,283.2c0,5.906-4.781,10.688-10.672,10.688s-10.656-4.781-10.656-10.688
	c0-5.875,4.766-10.656,10.656-10.656S447.997,277.325,447.997,283.2z"/>
<g>
	<path style="fill:#CCD1D9;" d="M383.997,368.544c-5.891,0-10.656,4.781-10.656,10.656h21.328
		C394.669,373.325,389.888,368.544,383.997,368.544z"/>
	<path style="fill:#CCD1D9;" d="M341.343,368.544c-5.891,0-10.672,4.781-10.672,10.656h21.326
		C351.997,373.325,347.233,368.544,341.343,368.544z"/>
	<path style="fill:#CCD1D9;" d="M298.671,368.544c-5.891,0-10.672,4.781-10.672,10.656h21.344
		C309.343,373.325,304.561,368.544,298.671,368.544z"/>
	<path style="fill:#CCD1D9;" d="M255.999,368.544c-5.891,0-10.656,4.781-10.656,10.656h21.328
		C266.671,373.325,261.89,368.544,255.999,368.544z"/>
	<path style="fill:#CCD1D9;" d="M213.343,368.544c-5.891,0-10.672,4.781-10.672,10.656h21.328
		C223.999,373.325,219.233,368.544,213.343,368.544z"/>
	<path style="fill:#CCD1D9;" d="M170.671,368.544c-5.891,0-10.672,4.781-10.672,10.656h21.343
		C181.343,373.325,176.561,368.544,170.671,368.544z"/>
	<path style="fill:#CCD1D9;" d="M127.999,368.544c-5.891,0-10.656,4.781-10.656,10.656h21.328
		C138.671,373.325,133.89,368.544,127.999,368.544z"/>
	<path style="fill:#CCD1D9;" d="M85.344,368.544c-5.891,0-10.672,4.781-10.672,10.656h21.327
		C95.999,373.325,91.234,368.544,85.344,368.544z"/>
	<path style="fill:#CCD1D9;" d="M42.672,368.544C36.781,368.544,32,373.325,32,379.2h21.344
		C53.344,373.325,48.562,368.544,42.672,368.544z"/>
</g>
<g style="opacity:0.2;">
	<path style="fill:#FFFFFF;" d="M451.966,142.975l-3.969-19.766C28.641,80.99,0,379.2,0,379.2h25.265
		C41.047,312.856,116.328,116.021,451.966,142.975z"/>
</g>
<g>
</g>
<g>
</g>
<g>
</g>
<g>
</g>
<g>
</g>
<g>
</g>
<g>
</g>
<g>
</g>
<g>
</g>
<g>
</g>
<g>
</g>
<g>
</g>
<g>
</g>
<g>
</g>
<g>
</g>
</svg>
