<?xml version="1.0" encoding="iso-8859-1"?>
<!-- Generator: Adobe Illustrator 19.0.0, SVG Export Plug-In . SVG Version: 6.00 Build 0)  -->
<svg version="1.1" id="Capa_1" xmlns="http://www.w3.org/2000/svg" xmlns:xlink="http://www.w3.org/1999/xlink" x="0px" y="0px"
	 viewBox="0 0 512.108 512.108" style="enable-background:new 0 0 512.108 512.108;" xml:space="preserve">
<g>
	<path style="fill:#B0BEC5;" d="M69.708,72.011c-2.456-5.355-8.788-7.705-14.142-5.249c-1.546,0.709-2.899,1.777-3.948,3.115
		c-6.294,7.989-10.173,17.612-11.179,27.733L0.054,500.32c-0.589,5.861,3.685,11.091,9.546,11.68
		c0.372,0.037,0.746,0.055,1.12,0.053h74.667c5.469,0.032,10.076-4.078,10.667-9.515l32-298.667
		c0.206-1.903-0.103-3.826-0.896-5.568L69.708,72.011z"/>
	<path style="fill:#B0BEC5;" d="M471.67,97.462c-1.212-12.173-6.593-23.553-15.232-32.213c-2.497-2.54-6.111-3.64-9.6-2.923
		c-3.503,0.695-6.426,3.098-7.787,6.4l-54.187,129.92c-0.705,1.647-0.984,3.444-0.811,5.227l32,298.667
		c0.591,5.437,5.198,9.547,10.667,9.515h74.667c5.891,0.03,10.69-4.722,10.72-10.613c0.002-0.374-0.016-0.748-0.053-1.12
		L471.67,97.462z"/>
</g>
<path style="fill:#CFD8DC;" d="M456.588,65.504c-4.265-4.51-9.328-8.191-14.933-10.859l-45.141-21.717
	c-18.322-6.728-37.602-10.48-57.109-11.115c-4.337-0.155-8.335,2.334-10.112,6.293c-1.769,3.949-0.977,8.576,2.005,11.712
	c3.064,3.307,5.616,7.053,7.573,11.115l19.584,39.189l-102.4,37.248l-102.4-37.248l19.605-39.211
	c1.957-4.061,4.51-7.808,7.573-11.115c2.982-3.136,3.775-7.763,2.005-11.712c-1.826-3.916-5.792-6.385-10.112-6.293
	c-19.839,0.666-39.438,4.556-58.027,11.52L70.156,54.646c-7.32,3.579-13.71,8.807-18.667,15.275
	c-2.354,3.121-2.812,7.279-1.195,10.837l56.427,124.267v275.029c0,4.037,2.279,7.728,5.888,9.536
	c1.835,0.917,46.059,22.464,143.445,22.464S397.665,490.507,399.5,489.59c3.609-1.808,5.888-5.499,5.888-9.536v-275.2l53.333-128
	C460.296,72.98,459.462,68.542,456.588,65.504z"/>
<path style="fill:#B0BEC5;" d="M245.388,512.054c-5.891,0-10.667-4.776-10.667-10.667V128.054c0-5.891,4.776-10.667,10.667-10.667
	c5.891,0,10.667,4.776,10.667,10.667v373.333C256.054,507.278,251.279,512.054,245.388,512.054z"/>
<path style="fill:#90A4AE;" d="M347.062,25.44C332.996,9.319,312.649,0.064,291.254,0.054h-70.4
	c-21.395,0.01-41.742,9.266-55.808,25.387c-3.869,4.443-3.403,11.18,1.04,15.049c2.35,2.046,5.477,2.963,8.56,2.508l1.28-0.149
	l71.403,101.973c3.389,4.819,10.042,5.978,14.861,2.59c1.006-0.707,1.882-1.584,2.59-2.59l71.403-101.973l1.28,0.149
	c5.828,0.859,11.249-3.169,12.108-8.997C350.025,30.918,349.109,27.791,347.062,25.44z"/>
<g>
	<path style="fill:#B0BEC5;" d="M264.78,132.598L190.113,25.931c-3.861-5.504-11.861-5.013-18.624-3.989
		c-2.347,0.353-4.509,1.479-6.144,3.2c-4.535,4.812-8.312,10.286-11.2,16.235l-24.96,49.92c-2.631,5.271-0.49,11.677,4.781,14.307
		c0.36,0.18,0.73,0.339,1.107,0.477l117.333,42.667c1.169,0.427,2.404,0.644,3.648,0.64c5.891-0.005,10.663-4.785,10.658-10.676
		C266.71,136.524,266.035,134.389,264.78,132.598z"/>
	<path style="fill:#B0BEC5;" d="M382.924,91.275l-24.96-49.92c-2.888-5.948-6.665-11.422-11.2-16.235
		c-1.635-1.721-3.797-2.847-6.144-3.2c-6.763-1.024-14.741-1.493-18.624,4.011l-74.667,106.667
		c-3.381,4.824-2.212,11.476,2.612,14.857c1.791,1.256,3.926,1.93,6.114,1.932c1.244,0.004,2.479-0.213,3.648-0.64l117.333-42.667
		c5.534-2.019,8.384-8.142,6.365-13.677c-0.138-0.378-0.297-0.748-0.477-1.107L382.924,91.275z"/>
</g>
<g>
</g>
<g>
</g>
<g>
</g>
<g>
</g>
<g>
</g>
<g>
</g>
<g>
</g>
<g>
</g>
<g>
</g>
<g>
</g>
<g>
</g>
<g>
</g>
<g>
</g>
<g>
</g>
<g>
</g>
</svg>
