<?xml version="1.0" encoding="iso-8859-1"?>
<!-- Generator: Adobe Illustrator 19.0.0, SVG Export Plug-In . SVG Version: 6.00 Build 0)  -->
<svg version="1.1" id="Capa_1" xmlns="http://www.w3.org/2000/svg" xmlns:xlink="http://www.w3.org/1999/xlink" x="0px" y="0px"
	 viewBox="0 0 512 512" style="enable-background:new 0 0 512 512;" xml:space="preserve">
<path style="fill:#455A64;" d="M352,0H160c-5.891,0-10.667,4.776-10.667,10.667v42.667C149.333,59.224,154.109,64,160,64
	c5.891,0,10.667-4.776,10.667-10.667h170.667C341.333,59.224,346.109,64,352,64c5.891,0,10.667-4.776,10.667-10.667V10.667
	C362.667,4.776,357.891,0,352,0z"/>
<g>
	<rect x="192" style="fill:#546E7A;" width="21.333" height="64"/>
	<rect x="298.667" style="fill:#546E7A;" width="21.333" height="64"/>
</g>
<path style="fill:#1976D2;" d="M365.845,137.92c-0.298-5.883-5.309-10.411-11.193-10.113c-0.252,0.013-0.503,0.034-0.754,0.065
	c-5.341,0.445-10.602-1.51-14.357-5.333c-12.173-13.015-19.13-30.056-19.541-47.872V53.333c0-5.891-4.776-10.667-10.667-10.667
	H202.667c-5.891,0-10.667,4.776-10.667,10.667v21.333c-0.419,17.732-7.308,34.698-19.371,47.701
	c-3.82,3.915-9.181,5.932-14.635,5.504c-2.928-0.376-5.878,0.516-8.107,2.453c-2.246,1.905-3.605,4.653-3.755,7.595L128,500.8
	c-0.295,5.884,4.236,10.892,10.12,11.187c0.182,0.009,0.364,0.014,0.547,0.013h96c5.72,0.005,10.426-4.503,10.667-10.219
	L256,257.067v-0.619l10.667,245.333c0.24,5.715,4.946,10.224,10.667,10.219h96c5.891,0.007,10.673-4.762,10.68-10.653
	c0-0.182-0.004-0.365-0.013-0.547L365.845,137.92z"/>
<g>
	<path style="fill:#1565C0;" d="M202.667,42.667H160c-5.891,0-10.667,4.776-10.667,10.667v20.8l-3.2,63.787
		c-0.273,5.609,3.85,10.47,9.429,11.115c1.416,0.169,2.841,0.255,4.267,0.256c10.064-0.174,19.699-4.109,27.008-11.029
		c16.687-16.998,26.178-39.776,26.496-63.595V53.333C213.333,47.442,208.558,42.667,202.667,42.667z"/>
	<path style="fill:#1565C0;" d="M362.667,74.667V53.333c0-5.891-4.776-10.667-10.667-10.667h-42.667
		c-5.891,0-10.667,4.776-10.667,10.667v21.333c0.462,23.918,10.039,46.756,26.773,63.851c7.204,6.776,16.671,10.632,26.56,10.816
		c1.498,0,2.994-0.092,4.48-0.277c5.545-0.686,9.621-5.534,9.344-11.115L362.667,74.667z"/>
</g>
<path style="fill:#42A5F5;" d="M256,160c-5.891,0-10.667-4.776-10.667-10.667c0-3.678,1.895-7.096,5.013-9.045
	c8.277-5.184,10.965-45.163,5.739-85.589c-0.754-5.867,3.391-11.235,9.259-11.989c5.867-0.754,11.235,3.391,11.989,9.259
	c2.709,20.971,9.579,90.667-15.595,106.411C260.022,159.46,258.029,160.023,256,160z"/>
<g>
</g>
<g>
</g>
<g>
</g>
<g>
</g>
<g>
</g>
<g>
</g>
<g>
</g>
<g>
</g>
<g>
</g>
<g>
</g>
<g>
</g>
<g>
</g>
<g>
</g>
<g>
</g>
<g>
</g>
</svg>
