<?xml version="1.0" encoding="iso-8859-1"?>
<!-- Generator: Adobe Illustrator 19.0.0, SVG Export Plug-In . SVG Version: 6.00 Build 0)  -->
<svg version="1.1" id="Capa_1" xmlns="http://www.w3.org/2000/svg" xmlns:xlink="http://www.w3.org/1999/xlink" x="0px" y="0px"
	 viewBox="0 0 510.891 510.891" style="enable-background:new 0 0 510.891 510.891;" xml:space="preserve">
<g>
	<path style="fill:#FFD15C;" d="M510.88,309.867v-101.92C343.563,171.275,167.147,171.509,0,208.885v100.064
		C167.381,272.672,343.691,272.928,510.88,309.867"/>
	<path style="fill:#FFD15C;" d="M0.011,329.387v110.667h510.88V330.304C343.733,292.949,167.317,292.693,0.011,329.387"/>
</g>
<g>
	<path style="fill:#40596B;" d="M94.304,439.659H43.488v-43.584c0-14.037,11.371-25.397,25.419-25.397
		c14.016,0,25.397,11.349,25.397,25.397V439.659z"/>
	<path style="fill:#40596B;" d="M187.595,439.659h-50.837v-63.776c0-14.016,11.371-25.419,25.419-25.419
		c14.016,0,25.419,11.392,25.419,25.419V439.659z"/>
	<path style="fill:#40596B;" d="M280.864,439.659h-50.816v-83.957c0-14.037,11.349-25.397,25.397-25.397
		c14.016,0,25.419,11.349,25.419,25.397V439.659z"/>
	<path style="fill:#40596B;" d="M374.133,439.659h-50.816v-63.776c0-14.016,11.371-25.419,25.397-25.419
		c14.037,0,25.419,11.392,25.419,25.419V439.659z"/>
	<path style="fill:#40596B;" d="M467.403,439.659h-50.816v-43.584c0-14.037,11.371-25.397,25.419-25.397
		c14.016,0,25.397,11.349,25.397,25.397V439.659z"/>
	<path style="fill:#40596B;" d="M94.357,286.304v26.453c-17.024,2.229-34.016,4.832-50.859,7.851v-34.315
		c0-16.939,11.349-30.667,25.333-30.667C82.859,255.637,94.357,269.365,94.357,286.304"/>
	<path style="fill:#40596B;" d="M187.531,266.112v37.749c-17.003,1.024-34.005,2.229-50.837,4.043v-41.792
		c0-16.939,11.499-30.667,25.504-30.667C176.203,235.445,187.531,249.173,187.531,266.112"/>
	<path style="fill:#40596B;" d="M280.885,245.92v56.523c-16.832-0.395-33.856-0.395-50.859-0.192V245.92
		c0-16.939,11.349-30.667,25.333-30.667C269.525,215.253,280.885,228.992,280.885,245.92"/>
</g>
<path style="fill:#FFD15C;" d="M207.008,53.429c-70.293,5.707-140.064,23.68-206.997,54.304v87.019
	c98.603-21.771,200.352-30.453,301.6-26.752L207.008,53.429z"/>
<path style="fill:#F8B64C;" d="M0.011,308.949v20.437c167.317-36.672,343.733-36.437,510.88,0.917v-20.437
	C343.691,272.928,167.381,272.693,0.011,308.949"/>
<g>
	<path style="fill:#40596B;" d="M94.357,171.243v26.453c-17.024,2.208-34.016,4.832-50.859,7.851v-34.315
		c0-16.939,11.349-30.88,25.333-30.88C82.859,140.363,94.357,154.304,94.357,171.243"/>
	<path style="fill:#40596B;" d="M187.531,151.051V188.8c-17.003,1.003-34.005,2.229-50.837,4.043v-41.792
		c0-16.939,11.499-30.88,25.504-30.88C176.203,120.171,187.531,134.112,187.531,151.051"/>
</g>
<path style="fill:#F8B64C;" d="M0.011,193.824v20.437c167.317-36.672,343.733-36.437,510.88,0.917v-20.437
	C343.691,157.803,167.381,157.568,0.011,193.824"/>
<rect x="0.011" y="440" style="fill:#FFD15C;" width="510.88" height="17.461"/>
<g>
</g>
<g>
</g>
<g>
</g>
<g>
</g>
<g>
</g>
<g>
</g>
<g>
</g>
<g>
</g>
<g>
</g>
<g>
</g>
<g>
</g>
<g>
</g>
<g>
</g>
<g>
</g>
<g>
</g>
</svg>
