<?xml version="1.0" encoding="iso-8859-1"?>
<!-- Generator: Adobe Illustrator 19.0.0, SVG Export Plug-In . SVG Version: 6.00 Build 0)  -->
<svg version="1.1" id="Layer_1" xmlns="http://www.w3.org/2000/svg" xmlns:xlink="http://www.w3.org/1999/xlink" x="0px" y="0px"
	 viewBox="0 0 497.114 497.114" style="enable-background:new 0 0 497.114 497.114;" xml:space="preserve">
<g>
	<polygon style="fill:#506263;" points="302.157,437.914 288.557,451.514 281.357,442.714 273.357,449.114 266.957,449.114 
		261.357,457.114 207.757,457.114 196.557,449.114 188.557,449.114 183.757,441.114 179.757,441.114 170.157,431.514 
		162.157,439.514 160.557,437.914 160.557,437.114 160.557,437.114 160.557,437.114 160.557,437.914 158.157,439.514 
		150.157,431.514 139.757,441.114 136.557,441.114 131.757,449.114 122.957,449.114 112.557,457.114 58.957,457.114 53.357,449.114 
		46.157,449.114 38.157,442.714 31.757,450.714 18.957,437.914 0.557,456.314 0.557,466.714 0.557,497.114 158.957,497.114 
		160.557,497.114 320.557,497.114 320.557,466.714 320.557,456.314 	"/>
	<polygon style="fill:#506263;" points="488.557,465.114 488.557,449.114 480.557,449.114 480.557,441.114 472.557,441.114 
		472.557,449.114 456.557,449.114 456.557,457.114 424.557,457.114 424.557,449.114 408.557,449.114 408.557,465.114 
		376.557,465.114 376.557,449.114 368.557,449.114 368.557,449.114 360.557,449.114 360.557,449.114 360.557,449.114 
		360.557,433.114 344.557,433.114 344.557,449.114 344.557,449.114 344.557,457.114 336.557,457.114 336.557,449.114 
		328.557,449.114 328.557,449.114 320.557,449.114 320.557,449.114 320.557,449.114 320.557,417.114 296.557,417.114 
		296.557,449.114 296.557,449.114 296.557,457.114 280.557,457.114 280.557,449.114 272.557,449.114 272.557,449.114 
		264.557,449.114 264.557,449.114 264.557,449.114 264.557,465.114 264.557,465.114 264.557,497.114 496.557,497.114 
		496.557,465.114 	"/>
</g>
<path style="fill:#B4CFD1;" d="M279.757,489.114l11.2-64c0.8-3.2-1.6-7.2-5.6-8l-160.8-29.6c-3.2-0.8-7.2,1.6-7.2,4.8l-16.8,94.4
	v1.6h179.2V489.114z"/>
<path style="fill:#506263;" d="M265.357,82.714c0,1.6-1.6,2.4-3.2,1.6l0,0c-1.6,0-2.4-1.6-1.6-3.2l14.4-79.2c0-1.6,1.6-2.4,3.2-1.6
	l0,0c1.6,0,2.4,1.6,1.6,3.2L265.357,82.714z"/>
<path style="fill:#A3BCBF;" d="M298.157,160.314c0,0.8-1.6,1.6-2.4,1.6l-92-16.8c-0.8,0-1.6-1.6-1.6-2.4l16.8-92
	c0-0.8,1.6-1.6,2.4-1.6l92,16.8c0.8,0,1.6,1.6,1.6,2.4L298.157,160.314z"/>
<path style="fill:#95ACAD;" d="M274.957,156.314c0,0.8-0.8,2.4-1.6,1.6l-47.2-8.8c-0.8,0-0.8-0.8-0.8-2.4l16.8-92
	c0-0.8,0.8-2.4,1.6-1.6l47.2,8.8c0.8,0,0.8,0.8,0.8,2.4L274.957,156.314z"/>
<path style="fill:#B4CFD1;" d="M311.757,161.914c-0.8,2.4,1.6,4.8-0.8,4.8l-122.4-22.4c-2.4-0.8,0-2.4,0.8-4.8l12-65.6
	c0.8-2.4,3.2-4,5.6-4l113.6,20.8c2.4,0.8,4,3.2,4,5.6L311.757,161.914z"/>
<path style="fill:#A3BCBF;" d="M317.357,131.514l-122.4-22.4l-5.6,30.4c-0.8,2.4-3.2,4-0.8,4.8l122.4,22.4c2.4,0.8,0-2.4,0.8-4.8
	L317.357,131.514z"/>
<path style="fill:#D6E5E5;" d="M238.157,93.114c-5.6-0.8-10.4,2.4-12,8l-7.2,39.2l20,3.2l7.2-39.2
	C246.957,99.514,242.957,93.914,238.157,93.114z"/>
<path style="fill:#506263;" d="M237.357,93.914c-5.6-0.8-10.4,2.4-12,8l-7.2,38.4l20,3.2l7.2-38.4
	C246.957,100.314,242.957,95.514,237.357,93.914z"/>
<path style="fill:#394747;" d="M236.557,101.114c-5.6-0.8-10.4,2.4-12,8l-5.6,31.2l20,3.2l5.6-31.2
	C245.357,107.514,241.357,101.914,236.557,101.114z"/>
<path style="fill:#D6E5E5;" d="M282.957,101.114c-5.6-0.8-10.4,2.4-12,8l-7.2,39.2l20,3.2l7.2-39.2
	C291.757,107.514,287.757,101.914,282.957,101.114z"/>
<path style="fill:#506263;" d="M282.157,101.914c-5.6-0.8-10.4,2.4-12,8l-7.2,38.4l20,3.2l7.2-38.4
	C291.757,108.314,287.757,103.514,282.157,101.914z"/>
<path style="fill:#394747;" d="M281.357,109.114c-5.6-0.8-10.4,2.4-12,8l-5.6,31.2l20,3.2l5.6-31.2
	C290.157,115.514,286.157,109.914,281.357,109.114z"/>
<path style="fill:#A3BCBF;" d="M319.757,90.714l-113.6-20c-2.4-0.8-4.8,1.6-5.6,4l-1.6,10.4l122.4,22.4l1.6-10.4
	C323.757,93.914,322.157,91.514,319.757,90.714z"/>
<path style="fill:#B4CFD1;" d="M328.557,93.114c0,0.8-0.8,0.8-0.8,0.8l-128-23.2c-0.8,0-0.8-0.8-0.8-0.8l0,0c0-0.8,0.8-0.8,0.8-0.8
	l128,23.2C327.757,92.314,328.557,92.314,328.557,93.114L328.557,93.114z"/>
<path style="fill:#A3BCBF;" d="M327.757,94.714c0,0.8-0.8,0.8-0.8,0.8l-128-23.2c-0.8,0-0.8-0.8-0.8-0.8l0,0c0-0.8,0.8-0.8,0.8-0.8
	l128,23.2C327.757,93.914,327.757,94.714,327.757,94.714L327.757,94.714z"/>
<path style="fill:#B4CFD1;" d="M329.357,213.114c-0.8,3.2,2.4,7.2-0.8,6.4l-173.6-31.2c-3.2-0.8,0.8-3.2,0.8-6.4l9.6-54.4
	c0.8-3.2,4-5.6,8-5.6l160.8,28.8c3.2,0.8,5.6,4,5.6,7.2L329.357,213.114z"/>
<g>
	<path style="fill:#A3BCBF;" d="M330.957,202.714l-173.6-31.2l-1.6,10.4c-0.8,3.2-4.8,5.6-0.8,6.4l173.6,31.2
		c3.2,0.8,0.8-3.2,0.8-6.4L330.957,202.714z"/>
	<path style="fill:#A3BCBF;" d="M333.357,150.714l-160.8-28.8c-3.2-0.8-7.2,1.6-8,5.6l-2.4,15.2l174.4,31.2l2.4-15.2
		C339.757,154.714,337.357,151.514,333.357,150.714z"/>
</g>
<path style="fill:#B4CFD1;" d="M345.357,153.914c0,0.8-0.8,1.6-1.6,0.8l-181.6-32.8c-1.6,0.8-1.6,0-1.6-0.8l0,0
	c0-0.8,0.8-1.6,1.6-0.8l181.6,32.8C344.557,152.314,345.357,153.114,345.357,153.914L345.357,153.914z"/>
<path style="fill:#A3BCBF;" d="M344.557,157.114c0,0.8-0.8,1.6-1.6,0.8l-181.6-32.8c-0.8,0-1.6-0.8-0.8-1.6l0,0
	c0-0.8,0.8-1.6,1.6-0.8l181.6,32.8C344.557,155.514,344.557,156.314,344.557,157.114L344.557,157.114z"/>
<path style="fill:#D6E5E5;" d="M186.957,144.314c-5.6-0.8-10.4,2.4-11.2,8l-7.2,39.2l19.2,3.2l7.2-38.4
	C196.557,150.714,192.557,145.914,186.957,144.314z"/>
<path style="fill:#506263;" d="M186.957,145.914c-5.6-0.8-10.4,2.4-11.2,8l-7.2,37.6l19.2,3.2l6.4-37.6
	C195.757,151.514,192.557,146.714,186.957,145.914z"/>
<path style="fill:#394747;" d="M186.157,153.114c-5.6-0.8-10.4,2.4-11.2,8l-6.4,30.4l19.2,3.2l5.6-30.4
	C194.957,158.714,190.957,153.914,186.157,153.114z"/>
<path style="fill:#D6E5E5;" d="M218.157,149.914c-5.6-0.8-10.4,2.4-11.2,8l-7.2,38.4l19.2,3.2l7.2-38.4
	C226.957,156.314,223.757,151.514,218.157,149.914z"/>
<path style="fill:#506263;" d="M218.157,151.514c-5.6-0.8-10.4,2.4-11.2,8l-6.4,37.6l19.2,3.2l6.4-37.6
	C226.957,157.114,223.757,152.314,218.157,151.514z"/>
<path style="fill:#394747;" d="M217.357,158.714c-5.6-0.8-10.4,2.4-11.2,8l-5.6,30.4l19.2,3.2l5.6-30.4
	C226.157,164.314,222.157,159.514,217.357,158.714z"/>
<path style="fill:#D6E5E5;" d="M249.357,155.514c-5.6-0.8-10.4,2.4-11.2,8l-7.2,38.4l19.2,3.2l7.2-38.4
	C258.157,161.914,254.957,157.114,249.357,155.514z"/>
<path style="fill:#506263;" d="M249.357,157.114c-5.6-0.8-10.4,2.4-11.2,8l-6.4,37.6l19.2,3.2l6.4-37.6
	C258.157,162.714,254.957,157.914,249.357,157.114z"/>
<path style="fill:#394747;" d="M247.757,164.314c-5.6-0.8-10.4,2.4-11.2,8l-5.6,30.4l19.2,3.2l5.6-30.4
	C257.357,169.914,253.357,165.114,247.757,164.314z"/>
<path style="fill:#D6E5E5;" d="M280.557,161.114c-5.6-0.8-10.4,2.4-11.2,8l-7.2,38.4l19.2,3.2l7.2-38.4
	C289.357,167.514,286.157,162.714,280.557,161.114z"/>
<path style="fill:#506263;" d="M280.557,162.714c-5.6-0.8-10.4,2.4-11.2,8l-6.4,37.6l19.2,3.2l6.4-37.6
	C289.357,168.314,286.157,163.514,280.557,162.714z"/>
<path style="fill:#394747;" d="M278.957,169.914c-5.6-0.8-10.4,2.4-11.2,8l-5.6,30.4l19.2,3.2l5.6-30.4
	C287.757,175.514,284.557,170.714,278.957,169.914z"/>
<path style="fill:#D6E5E5;" d="M311.757,167.514c-5.6-0.8-10.4,2.4-11.2,8l-7.2,38.4l19.2,3.2l7.2-38.4
	C320.557,173.114,317.357,168.314,311.757,167.514z"/>
<path style="fill:#506263;" d="M311.757,168.314c-5.6-0.8-10.4,2.4-11.2,8l-6.4,37.6l18.4,3.2l6.4-37.6
	C320.557,173.914,317.357,169.114,311.757,168.314z"/>
<path style="fill:#394747;" d="M310.157,175.514c-5.6-0.8-10.4,2.4-11.2,8l-5.6,30.4l19.2,3.2l5.6-30.4
	C318.957,181.114,315.757,176.314,310.157,175.514z"/>
<path style="fill:#B4CFD1;" d="M317.357,280.314c-0.8,3.2,2.4,7.2-0.8,6.4l-173.6-31.2c-3.2-0.8,0.8-3.2,0.8-6.4l9.6-54.4
	c0.8-3.2,4-5.6,8-5.6l160.8,28.8c3.2,0.8,5.6,4,5.6,8L317.357,280.314z"/>
<g>
	<path style="fill:#A3BCBF;" d="M318.957,269.914l-174.4-31.2l-1.6,10.4c-0.8,3.2-4.8,5.6-0.8,6.4l173.6,31.2
		c3.2,0.8,0.8-3.2,0.8-6.4L318.957,269.914z"/>
	<path style="fill:#A3BCBF;" d="M321.357,217.914l-160.8-28.8c-3.2-0.8-7.2,1.6-8,5.6l-2.4,14.4l173.6,31.2l2.4-15.2
		C327.757,221.914,325.357,218.714,321.357,217.914z"/>
</g>
<path style="fill:#B4CFD1;" d="M333.357,221.114c0,0.8-0.8,1.6-1.6,0.8l-181.6-32.8c-0.8,0-1.6-0.8-0.8-1.6l0,0
	c0-0.8,0.8-1.6,1.6-0.8l181.6,32.8C332.557,219.514,333.357,220.314,333.357,221.114L333.357,221.114z"/>
<path style="fill:#A3BCBF;" d="M332.557,223.514c0,0.8-0.8,1.6-1.6,0.8l-181.6-32.8c-0.8,0-1.6-0.8-0.8-1.6l0,0
	c0-0.8,0.8-1.6,1.6-0.8l181.6,32.8C332.557,222.714,332.557,222.714,332.557,223.514L332.557,223.514z"/>
<path style="fill:#D6E5E5;" d="M174.957,211.514c-5.6-0.8-10.4,2.4-11.2,8l-7.2,38.4l19.2,3.2l7.2-38.4
	C184.557,217.914,180.557,212.314,174.957,211.514z"/>
<path style="fill:#506263;" d="M174.957,212.314c-5.6-0.8-10.4,2.4-11.2,8l-6.4,37.6l19.2,3.2l6.4-37.6
	C183.757,218.714,180.557,213.914,174.957,212.314z"/>
<path style="fill:#394747;" d="M174.157,219.514c-5.6-0.8-10.4,2.4-11.2,8l-5.6,30.4l19.2,3.2l5.6-30.4
	C182.957,225.914,178.957,220.314,174.157,219.514z"/>
<path style="fill:#D6E5E5;" d="M206.157,217.114c-5.6-0.8-10.4,2.4-11.2,8l-7.2,38.4l19.2,3.2l7.2-38.4
	C214.957,223.514,211.757,217.914,206.157,217.114z"/>
<path style="fill:#506263;" d="M206.157,217.914c-5.6-0.8-10.4,2.4-11.2,8l-6.4,37.6l19.2,3.2l6.4-37.6
	C214.957,224.314,211.757,219.514,206.157,217.914z"/>
<path style="fill:#394747;" d="M204.557,225.114c-5.6-0.8-10.4,2.4-11.2,8l-5.6,30.4l19.2,3.2l5.6-30.4
	C214.157,231.514,210.157,225.914,204.557,225.114z"/>
<path style="fill:#D6E5E5;" d="M237.357,222.714c-5.6-0.8-10.4,2.4-11.2,8l-7.2,38.4l19.2,3.2l7.2-38.4
	C246.157,229.114,242.957,223.514,237.357,222.714z"/>
<path style="fill:#506263;" d="M237.357,223.514c-5.6-0.8-10.4,2.4-11.2,8l-6.4,37.6l19.2,3.2l6.4-37.6
	C246.157,229.914,242.957,225.114,237.357,223.514z"/>
<path style="fill:#394747;" d="M235.757,230.714c-5.6-0.8-10.4,2.4-11.2,8l-5.6,30.4l19.2,3.2l5.6-30.4
	C245.357,237.114,241.357,231.514,235.757,230.714z"/>
<path style="fill:#D6E5E5;" d="M268.557,228.314c-5.6-0.8-10.4,2.4-11.2,8l-7.2,38.4l19.2,3.2l7.2-38.4
	C277.357,234.714,274.157,229.114,268.557,228.314z"/>
<path style="fill:#506263;" d="M268.557,229.114c-5.6-0.8-10.4,2.4-11.2,8l-6.4,37.6l19.2,3.2l6.4-37.6
	C277.357,235.514,274.157,230.714,268.557,229.114z"/>
<path style="fill:#394747;" d="M266.957,236.314c-5.6-0.8-10.4,2.4-11.2,8l-5.6,30.4l19.2,3.2l5.6-30.4
	C275.757,242.714,272.557,237.114,266.957,236.314z"/>
<path style="fill:#D6E5E5;" d="M299.757,233.914c-5.6-0.8-10.4,2.4-11.2,8l-7.2,38.4l19.2,3.2l7.2-38.4
	C308.557,240.314,305.357,234.714,299.757,233.914z"/>
<path style="fill:#506263;" d="M299.757,234.714c-5.6-0.8-10.4,2.4-11.2,8l-6.4,37.6l19.2,3.2l6.4-37.6
	C308.557,241.114,305.357,236.314,299.757,234.714z"/>
<path style="fill:#394747;" d="M298.157,241.914c-5.6-0.8-10.4,2.4-11.2,8l-5.6,30.4l19.2,3.2l5.6-30.4
	C306.957,248.314,303.757,242.714,298.157,241.914z"/>
<path style="fill:#B4CFD1;" d="M304.557,346.714c-0.8,3.2,2.4,7.2-0.8,6.4l-173.6-31.2c-3.2-0.8,0.8-3.2,0.8-6.4l9.6-54.4
	c0.8-3.2,4-5.6,8-5.6l160.8,28.8c3.2,0.8,5.6,4,5.6,8L304.557,346.714z"/>
<g>
	<path style="fill:#A3BCBF;" d="M306.957,336.314l-174.4-31.2l-1.6,10.4c-0.8,3.2-4.8,5.6-0.8,6.4l173.6,31.2
		c3.2,0.8,0.8-3.2,0.8-6.4L306.957,336.314z"/>
	<path style="fill:#A3BCBF;" d="M309.357,285.114l-160.8-28.8c-3.2-0.8-7.2,1.6-8,5.6l-2.4,15.2l173.6,31.2l2.4-15.2
		C315.757,289.114,313.357,285.114,309.357,285.114z"/>
</g>
<path style="fill:#B4CFD1;" d="M321.357,287.514c0,0.8-0.8,1.6-1.6,0.8l-181.6-32.8c-0.8,0-1.6-0.8-0.8-1.6l0,0
	c0-0.8,0.8-1.6,1.6-0.8l181.6,32.8C320.557,286.714,321.357,286.714,321.357,287.514L321.357,287.514z"/>
<path style="fill:#A3BCBF;" d="M320.557,290.714c0,0.8-0.8,1.6-1.6,0.8l-181.6-32.8c-0.8,0-1.6-0.8-0.8-1.6l0,0
	c0-0.8,0.8-1.6,1.6-0.8l181.6,32.8C320.557,289.114,320.557,289.914,320.557,290.714L320.557,290.714z"/>
<path style="fill:#D6E5E5;" d="M162.957,278.714c-5.6-0.8-10.4,2.4-11.2,8l-7.2,38.4l19.2,3.2l7.2-38.4
	C171.757,284.314,168.557,279.514,162.957,278.714z"/>
<path style="fill:#506263;" d="M162.957,279.514c-5.6-0.8-10.4,2.4-11.2,8l-7.2,37.6l19.2,3.2l6.4-37.6
	C171.757,285.114,168.557,280.314,162.957,279.514z"/>
<path style="fill:#394747;" d="M162.157,286.714c-5.6-0.8-10.4,2.4-11.2,8l-6.4,30.4l19.2,3.2l5.6-30.4
	C170.957,292.314,166.957,287.514,162.157,286.714z"/>
<path style="fill:#D6E5E5;" d="M194.157,284.314c-5.6-0.8-10.4,2.4-11.2,8l-7.2,38.4l19.2,3.2l7.2-38.4
	C202.957,289.914,199.757,285.114,194.157,284.314z"/>
<path style="fill:#506263;" d="M194.157,285.114c-5.6-0.8-10.4,2.4-11.2,8l-6.4,37.6l19.2,3.2l6.4-37.6
	C202.957,291.514,199.757,285.914,194.157,285.114z"/>
<path style="fill:#394747;" d="M192.557,292.314c-5.6-0.8-10.4,2.4-11.2,8l-5.6,30.4l19.2,3.2l5.6-30.4
	C202.157,297.914,198.157,293.114,192.557,292.314z"/>
<path style="fill:#D6E5E5;" d="M225.357,289.914c-5.6-0.8-10.4,2.4-11.2,8l-7.2,38.4l19.2,3.2l7.2-38.4
	C234.157,295.514,230.957,290.714,225.357,289.914z"/>
<path style="fill:#506263;" d="M225.357,290.714c-5.6-0.8-10.4,2.4-11.2,8l-6.4,37.6l19.2,3.2l6.4-37.6
	C234.157,297.114,230.957,291.514,225.357,290.714z"/>
<path style="fill:#394747;" d="M223.757,297.914c-5.6-0.8-10.4,2.4-11.2,8l-5.6,30.4l19.2,3.2l5.6-30.4
	C232.557,303.514,229.357,298.714,223.757,297.914z"/>
<path style="fill:#D6E5E5;" d="M256.557,295.514c-5.6-0.8-10.4,2.4-11.2,8l-7.2,38.4l19.2,3.2l7.2-38.4
	C265.357,301.114,262.157,296.314,256.557,295.514z"/>
<path style="fill:#506263;" d="M256.557,296.314c-5.6-0.8-10.4,2.4-11.2,8l-6.4,37.6l19.2,3.2l6.4-37.6
	C265.357,302.714,262.157,297.114,256.557,296.314z"/>
<path style="fill:#394747;" d="M254.957,303.514c-5.6-0.8-10.4,2.4-11.2,8l-5.6,30.4l19.2,3.2l5.6-30.4
	C263.757,309.114,260.557,304.314,254.957,303.514z"/>
<path style="fill:#D6E5E5;" d="M287.757,301.114c-5.6-0.8-10.4,2.4-11.2,8l-7.2,38.4l19.2,3.2l7.2-38.4
	C296.557,306.714,293.357,301.914,287.757,301.114z"/>
<path style="fill:#506263;" d="M287.757,301.914c-5.6-0.8-10.4,2.4-11.2,8l-6.4,37.6l19.2,3.2l6.4-37.6
	C296.557,308.314,292.557,302.714,287.757,301.914z"/>
<path style="fill:#394747;" d="M286.157,309.114c-5.6-0.8-10.4,2.4-11.2,8l-5.6,30.4l19.2,3.2l5.6-30.4
	C294.957,314.714,291.757,309.914,286.157,309.114z"/>
<path style="fill:#B4CFD1;" d="M292.557,413.914c-0.8,3.2,2.4,7.2-0.8,6.4l-173.6-31.2c-3.2-0.8,0.8-3.2,0.8-6.4l9.6-54.4
	c0.8-3.2,4-5.6,8-5.6l160.8,28.8c3.2,0.8,5.6,4,5.6,8L292.557,413.914z"/>
<g>
	<path style="fill:#A3BCBF;" d="M294.957,403.514l-174.4-31.2l-1.6,10.4c-0.8,3.2-4.8,5.6-0.8,6.4l173.6,31.2
		c3.2,0.8,0.8-3.2,0.8-6.4L294.957,403.514z"/>
	<path style="fill:#A3BCBF;" d="M297.357,351.514l-160.8-28.8c-3.2-0.8-7.2,1.6-8,5.6l-2.4,15.2l173.6,31.2l2.4-15.2
		C303.757,355.514,301.357,352.314,297.357,351.514z"/>
</g>
<path style="fill:#B4CFD1;" d="M309.357,354.714c0,0.8-0.8,1.6-1.6,0.8l-181.6-32.8c-0.8,0-1.6-0.8-0.8-1.6l0,0
	c0-0.8,0.8-1.6,1.6-0.8l180.8,32.8C308.557,353.114,309.357,353.914,309.357,354.714L309.357,354.714z"/>
<path style="fill:#A3BCBF;" d="M308.557,357.114c0,0.8-0.8,1.6-1.6,0.8l-181.6-32.8c-0.8,0-1.6-0.8-0.8-1.6l0,0
	c0-0.8,0.8-1.6,1.6-0.8l181.6,32.8C308.557,356.314,308.557,357.114,308.557,357.114L308.557,357.114z"/>
<path style="fill:#D6E5E5;" d="M150.957,345.114c-5.6-0.8-10.4,2.4-11.2,8l-7.2,38.4l19.2,3.2l7.2-38.4
	C159.757,351.514,156.557,345.914,150.957,345.114z"/>
<path style="fill:#506263;" d="M150.957,345.914c-5.6-0.8-10.4,2.4-11.2,8l-6.4,37.6l19.2,3.2l6.4-37.6
	C159.757,352.314,156.557,347.514,150.957,345.914z"/>
<path style="fill:#394747;" d="M150.157,353.114c-5.6-0.8-10.4,2.4-11.2,8l-5.6,30.4l19.2,3.2l5.6-30.4
	C158.957,359.514,154.957,353.914,150.157,353.114z"/>
<path style="fill:#D6E5E5;" d="M182.157,350.714c-5.6-0.8-10.4,2.4-11.2,8l-7.2,38.4l19.2,3.2l7.2-38.4
	C190.957,357.114,187.757,351.514,182.157,350.714z"/>
<path style="fill:#506263;" d="M182.157,351.514c-5.6-0.8-10.4,2.4-11.2,8l-6.4,37.6l19.2,3.2l6.4-37.6
	C190.957,357.914,187.757,353.114,182.157,351.514z"/>
<path style="fill:#394747;" d="M180.557,358.714c-5.6-0.8-10.4,2.4-11.2,8l-5.6,30.4l19.2,3.2l5.6-30.4
	C190.157,365.114,186.157,359.514,180.557,358.714z"/>
<path style="fill:#D6E5E5;" d="M213.357,356.314c-5.6-0.8-10.4,2.4-11.2,8l-7.2,38.4l19.2,3.2l7.2-38.4
	C222.157,362.714,218.957,357.114,213.357,356.314z"/>
<path style="fill:#506263;" d="M213.357,357.114c-5.6-0.8-10.4,2.4-11.2,8l-6.4,37.6l19.2,3.2l6.4-37.6
	C222.157,363.514,218.957,358.714,213.357,357.114z"/>
<path style="fill:#394747;" d="M211.757,364.314c-5.6-0.8-10.4,2.4-11.2,8l-5.6,30.4l19.2,3.2l5.6-30.4
	C220.557,370.714,217.357,365.114,211.757,364.314z"/>
<path style="fill:#D6E5E5;" d="M244.557,361.914c-5.6-0.8-10.4,2.4-11.2,8l-7.2,38.4l19.2,3.2l7.2-38.4
	C253.357,368.314,250.157,362.714,244.557,361.914z"/>
<path style="fill:#506263;" d="M244.557,362.714c-5.6-0.8-10.4,2.4-11.2,8l-6.4,37.6l19.2,3.2l6.4-37.6
	C253.357,369.114,250.157,364.314,244.557,362.714z"/>
<path style="fill:#394747;" d="M242.957,369.914c-5.6-0.8-10.4,2.4-11.2,8l-5.6,30.4l19.2,3.2l5.6-30.4
	C251.757,376.314,248.557,370.714,242.957,369.914z"/>
<path style="fill:#D6E5E5;" d="M275.757,367.514c-5.6-0.8-10.4,2.4-11.2,8l-7.2,38.4l19.2,3.2l7.2-38.4
	C284.557,373.914,281.357,368.314,275.757,367.514z"/>
<path style="fill:#506263;" d="M275.757,368.314c-5.6-0.8-10.4,2.4-11.2,8l-6.4,37.6l19.2,3.2l6.4-37.6
	C284.557,374.714,280.557,369.914,275.757,368.314z"/>
<path style="fill:#394747;" d="M274.157,375.514c-5.6-0.8-10.4,2.4-11.2,8l-5.6,30.4l19.2,3.2l5.6-30.4
	C282.957,381.914,279.757,376.314,274.157,375.514z"/>
<g>
	<path style="fill:#A3BCBF;" d="M279.757,489.114l2.4-12.8l-173.6-32l-8,43.2v1.6L279.757,489.114L279.757,489.114z"/>
	<path style="fill:#A3BCBF;" d="M285.357,417.114l-160.8-28.8c-3.2-0.8-7.2,1.6-7.2,5.6l-2.4,15.2l173.6,30.4l2.4-15.2
		C291.757,421.114,289.357,417.914,285.357,417.114z"/>
</g>
<path style="fill:#B4CFD1;" d="M297.357,420.314c0,0.8-0.8,1.6-1.6,0.8l-181.6-32.8c-0.8,0-1.6-0.8-0.8-1.6l0,0
	c0-0.8,0.8-1.6,1.6-0.8l181.6,32.8C297.357,418.714,297.357,419.514,297.357,420.314L297.357,420.314z"/>
<path style="fill:#A3BCBF;" d="M296.557,422.714c0,0.8-0.8,1.6-1.6,0.8l-181.6-32.8c-0.8,0-1.6-0.8-0.8-1.6l0,0
	c0-0.8,0.8-1.6,1.6-0.8l181.6,32.8C296.557,421.114,297.357,421.914,296.557,422.714L296.557,422.714z"/>
<path style="fill:#95ACAD;" d="M318.957,66.714c0,1.6-1.6,2.4-3.2,2.4l-98.4-18.4c-1.6,0-2.4-1.6-2.4-3.2l0,0c0-1.6,1.6-2.4,3.2-2.4
	l98.4,17.6C318.957,63.514,319.757,65.114,318.957,66.714L318.957,66.714z"/>
<path style="fill:#506263;" d="M421.357,493.114c0,2.4-2.4,4-4.8,4h-338.4c-2.4,0-4.8-1.6-4.8-4l0,0c0-2.4,2.4-4,4.8-4h338.4
	C419.757,489.114,421.357,490.714,421.357,493.114L421.357,493.114z"/>
<path style="fill:#D6E5E5;" d="M154.157,489.114l7.2-41.6c1.6-8-4-15.2-11.2-16.8c-8-1.6-15.2,4-16.8,12l-8,46.4H154.157z"/>
<path style="fill:#506263;" d="M154.157,489.114l7.2-40c1.6-8-4-15.2-11.2-16.8c-8-1.6-15.2,4-16.8,12l-8,44.8H154.157z"/>
<path style="fill:#394747;" d="M154.157,489.114l5.6-29.6c1.6-8-4-15.2-11.2-16.8c-8-1.6-15.2,4-16.8,12l-6.4,34.4H154.157z"/>
<path style="fill:#D6E5E5;" d="M204.557,489.114l5.6-32.8c1.6-8-4-15.2-11.2-16.8c-8-1.6-15.2,4-16.8,12l-6.4,37.6H204.557z"/>
<path style="fill:#506263;" d="M204.557,489.114l5.6-31.2c1.6-8-4-15.2-11.2-16.8c-8-1.6-15.2,4-16.8,12l-6.4,36H204.557z"/>
<path style="fill:#394747;" d="M204.557,489.114l4-21.6c1.6-8-4-15.2-11.2-16.8c-8-1.6-15.2,4-16.8,12l-4.8,26.4H204.557z"/>
<path style="fill:#D6E5E5;" d="M254.157,489.114l4-24c1.6-8-4-15.2-11.2-16.8c-8-1.6-15.2,4-16.8,12l-4.8,28.8H254.157z"/>
<path style="fill:#506263;" d="M254.157,489.114l4-22.4c1.6-8-4-15.2-11.2-16.8c-8-1.6-15.2,4-16.8,12l-4.8,27.2H254.157z"/>
<path style="fill:#394747;" d="M254.157,489.114l2.4-12.8c1.6-8-4-15.2-11.2-16.8c-8-1.6-15.2,4-16.8,12l-3.2,17.6H254.157z"/>
<g>
</g>
<g>
</g>
<g>
</g>
<g>
</g>
<g>
</g>
<g>
</g>
<g>
</g>
<g>
</g>
<g>
</g>
<g>
</g>
<g>
</g>
<g>
</g>
<g>
</g>
<g>
</g>
<g>
</g>
</svg>
