<?xml version="1.0" encoding="iso-8859-1"?>
<!-- Generator: Adobe Illustrator 19.0.0, SVG Export Plug-In . SVG Version: 6.00 Build 0)  -->
<svg version="1.1" id="Layer_1" xmlns="http://www.w3.org/2000/svg" xmlns:xlink="http://www.w3.org/1999/xlink" x="0px" y="0px"
	 viewBox="0 0 496 496" style="enable-background:new 0 0 496 496;" xml:space="preserve">
<polygon style="fill:#AFCCD3;" points="478.4,425.6 478.4,390.4 466.4,390.4 466.4,372 438.4,372 438.4,396.8 416,396.8 416,414.4 
	336.8,414.4 336.8,396.8 309.6,396.8 309.6,420.8 235.2,420.8 235.2,397.6 225.6,397.6 225.6,396.8 203.2,396.8 203.2,388 
	203.2,388 203.2,364.8 180,364.8 180,388 176,388 176,404 155.2,404 155.2,397.6 141.6,397.6 141.6,401.6 130.4,401.6 130.4,402.4 
	127.2,402.4 127.2,324 80.8,324 80.8,401.6 73.6,401.6 73.6,411.2 33.6,411.2 33.6,401.6 22.4,401.6 22.4,388.8 8.8,388.8 
	8.8,398.4 2.4,398.4 2.4,425.6 0,425.6 0,496 496,496 496,425.6 "/>
<rect x="198.4" y="300" style="fill:#4A6B75;" width="99.2" height="22.4"/>
<rect x="198.4" y="310.4" style="fill:#3B555B;" width="99.2" height="12.8"/>
<path style="fill:#132021;" d="M168,55.2c0,1.6-0.8,2.4-2.4,2.4l0,0c-1.6,0-2.4-0.8-2.4-2.4V2.4c0-1.6,0.8-2.4,2.4-2.4l0,0
	c1.6,0,2.4,0.8,2.4,2.4V55.2z"/>
<polygon style="fill:#31484C;" points="135.2,57.6 165.6,40 196,57.6 196,122.4 165.6,140 135.2,122.4 "/>
<polyline style="fill:#426366;" points="135.2,122.4 135.2,57.6 165.6,40 "/>
<polyline style="fill:#1F3133;" points="165.6,40 196,57.6 196,122.4 165.6,140 "/>
<polyline style="fill:#132021;" points="165.6,40 196,57.6 196,122.4 "/>
<rect x="129.6" y="97.6" style="fill:#405F66;" width="72.8" height="60"/>
<polyline style="fill:#31484C;" points="129.6,156.8 129.6,97.6 202.4,97.6 "/>
<path style="fill:#638491;" d="M203.2,96c0,0.8-0.8,1.6-1.6,1.6h-72c-0.8,0-1.6-0.8-1.6-1.6l0,0c0-0.8,0.8-1.6,1.6-1.6h72
	C202.4,94.4,203.2,95.2,203.2,96L203.2,96z"/>
<g>
	<path style="fill:#4A6B75;" d="M194.4,107.2c0,0.8-0.8,1.6-1.6,1.6h-55.2c-0.8,0-1.6-0.8-1.6-1.6l0,0c0-0.8,0.8-1.6,1.6-1.6h55.2
		C194.4,106.4,194.4,106.4,194.4,107.2L194.4,107.2z"/>
	<path style="fill:#4A6B75;" d="M194.4,119.2c0,0.8-0.8,1.6-1.6,1.6h-55.2c-0.8,0-1.6-0.8-1.6-1.6l0,0c0-0.8,0.8-1.6,1.6-1.6h55.2
		C194.4,117.6,194.4,118.4,194.4,119.2L194.4,119.2z"/>
	<path style="fill:#4A6B75;" d="M194.4,130.4c0,0.8-0.8,1.6-1.6,1.6h-55.2c-0.8,0-1.6-0.8-1.6-1.6l0,0c0-0.8,0.8-1.6,1.6-1.6h55.2
		C194.4,129.6,194.4,130.4,194.4,130.4L194.4,130.4z"/>
</g>
<rect x="123.2" y="142.4" style="fill:#3B555B;" width="84.8" height="69.6"/>
<polyline style="fill:#405F66;" points="123.2,212 123.2,142.4 208,142.4 "/>
<path style="fill:#638491;" d="M209.6,140.8c0,0.8-0.8,1.6-1.6,1.6h-84c-0.8,0-1.6-0.8-1.6-1.6l0,0c0-0.8,0.8-1.6,1.6-1.6h84
	C208.8,139.2,209.6,140,209.6,140.8L209.6,140.8z"/>
<g>
	<path style="fill:#4A6B75;" d="M199.2,153.6c0,0.8-0.8,1.6-1.6,1.6h-64c-0.8,0-1.6-0.8-1.6-1.6l0,0c0-0.8,0.8-1.6,1.6-1.6h64
		C198.4,152,199.2,152.8,199.2,153.6L199.2,153.6z"/>
	<path style="fill:#4A6B75;" d="M199.2,167.2c0,0.8-0.8,1.6-1.6,1.6h-64c-0.8,0-1.6-0.8-1.6-1.6l0,0c0-0.8,0.8-1.6,1.6-1.6h64
		C198.4,165.6,199.2,166.4,199.2,167.2L199.2,167.2z"/>
	<path style="fill:#4A6B75;" d="M199.2,180.8c0,0.8-0.8,1.6-1.6,1.6h-64c-0.8,0-1.6-0.8-1.6-1.6l0,0c0-0.8,0.8-1.6,1.6-1.6h64
		C198.4,179.2,199.2,180,199.2,180.8L199.2,180.8z"/>
</g>
<rect x="116.8" y="195.2" style="fill:#638491;" width="97.6" height="298.4"/>
<polyline style="fill:#4A6B75;" points="116.8,195.2 214.4,195.2 214.4,493.6 "/>
<path style="fill:#638491;" d="M217.6,194.4c0,0.8-0.8,1.6-1.6,1.6H116c-0.8,0-1.6-0.8-1.6-1.6l0,0c0-0.8,0.8-1.6,1.6-1.6h99.2
	C216.8,192,217.6,193.6,217.6,194.4L217.6,194.4z"/>
<g>
	<path style="fill:#6A8E99;" d="M211.2,208.8c0,0.8-0.8,1.6-1.6,1.6h-88c-0.8,0-1.6-0.8-1.6-1.6l0,0c0-0.8,0.8-1.6,1.6-1.6h88
		C210.4,207.2,211.2,208,211.2,208.8L211.2,208.8z"/>
	<path style="fill:#6A8E99;" d="M211.2,228.8c0,0.8-0.8,1.6-1.6,1.6h-88c-0.8,0-1.6-0.8-1.6-1.6l0,0c0-0.8,0.8-1.6,1.6-1.6h88
		C210.4,227.2,211.2,228,211.2,228.8L211.2,228.8z"/>
	<path style="fill:#6A8E99;" d="M211.2,249.6c0,0.8-0.8,1.6-1.6,1.6h-88c-0.8,0-1.6-0.8-1.6-1.6l0,0c0-0.8,0.8-1.6,1.6-1.6h88
		C210.4,248,211.2,248.8,211.2,249.6L211.2,249.6z"/>
	<path style="fill:#6A8E99;" d="M211.2,269.6c0,0.8-0.8,1.6-1.6,1.6h-88c-0.8,0-1.6-0.8-1.6-1.6l0,0c0-0.8,0.8-1.6,1.6-1.6h88
		C210.4,268.8,211.2,268.8,211.2,269.6L211.2,269.6z"/>
	<path style="fill:#6A8E99;" d="M211.2,290.4c0,0.8-0.8,1.6-1.6,1.6h-88c-0.8,0-1.6-0.8-1.6-1.6l0,0c0-0.8,0.8-1.6,1.6-1.6h88
		C210.4,288.8,211.2,289.6,211.2,290.4L211.2,290.4z"/>
	<path style="fill:#6A8E99;" d="M211.2,311.2c0,0.8-0.8,1.6-1.6,1.6h-88c-0.8,0-1.6-0.8-1.6-1.6l0,0c0-0.8,0.8-1.6,1.6-1.6h88
		C210.4,309.6,211.2,310.4,211.2,311.2L211.2,311.2z"/>
	<path style="fill:#6A8E99;" d="M211.2,331.2c0,0.8-0.8,1.6-1.6,1.6h-88c-0.8,0-1.6-0.8-1.6-1.6l0,0c0-0.8,0.8-1.6,1.6-1.6h88
		C210.4,329.6,211.2,330.4,211.2,331.2L211.2,331.2z"/>
	<path style="fill:#6A8E99;" d="M211.2,352c0,0.8-0.8,1.6-1.6,1.6h-88c-0.8,0-1.6-0.8-1.6-1.6l0,0c0-0.8,0.8-1.6,1.6-1.6h88
		C210.4,350.4,211.2,351.2,211.2,352L211.2,352z"/>
	<path style="fill:#6A8E99;" d="M211.2,372c0,0.8-0.8,1.6-1.6,1.6h-88c-0.8,0-1.6-0.8-1.6-1.6l0,0c0-0.8,0.8-1.6,1.6-1.6h88
		C210.4,371.2,211.2,371.2,211.2,372L211.2,372z"/>
	<path style="fill:#6A8E99;" d="M211.2,392.8c0,0.8-0.8,1.6-1.6,1.6h-88c-0.8,0-1.6-0.8-1.6-1.6l0,0c0-0.8,0.8-1.6,1.6-1.6h88
		C210.4,391.2,211.2,392,211.2,392.8L211.2,392.8z"/>
	<path style="fill:#6A8E99;" d="M211.2,413.6c0,0.8-0.8,1.6-1.6,1.6h-88c-0.8,0-1.6-0.8-1.6-1.6l0,0c0-0.8,0.8-1.6,1.6-1.6h88
		C210.4,412,211.2,412.8,211.2,413.6L211.2,413.6z"/>
	<path style="fill:#6A8E99;" d="M211.2,433.6c0,0.8-0.8,1.6-1.6,1.6h-88c-0.8,0-1.6-0.8-1.6-1.6l0,0c0-0.8,0.8-1.6,1.6-1.6h88
		C210.4,432,211.2,432.8,211.2,433.6L211.2,433.6z"/>
	<path style="fill:#6A8E99;" d="M211.2,454.4c0,0.8-0.8,1.6-1.6,1.6h-88c-0.8,0-1.6-0.8-1.6-1.6l0,0c0-0.8,0.8-1.6,1.6-1.6h88
		C210.4,452.8,211.2,453.6,211.2,454.4L211.2,454.4z"/>
	<path style="fill:#6A8E99;" d="M211.2,474.4c0,0.8-0.8,1.6-1.6,1.6h-88c-0.8,0-1.6-0.8-1.6-1.6l0,0c0-0.8,0.8-1.6,1.6-1.6h88
		C210.4,472.8,211.2,473.6,211.2,474.4L211.2,474.4z"/>
</g>
<path style="fill:#132021;" d="M328,55.2c0,1.6,0.8,2.4,2.4,2.4l0,0c1.6,0,2.4-0.8,2.4-2.4V2.4c0-1.6-0.8-2.4-2.4-2.4l0,0
	c-1.6,0-2.4,0.8-2.4,2.4V55.2z"/>
<polygon style="fill:#31484C;" points="360.8,57.6 330.4,40 300,57.6 300,122.4 330.4,140 360.8,122.4 "/>
<polyline style="fill:#426366;" points="360.8,122.4 360.8,57.6 330.4,40 "/>
<polyline style="fill:#1F3133;" points="330.4,40 300,57.6 300,122.4 330.4,140 "/>
<polyline style="fill:#132021;" points="330.4,40 300,57.6 300,122.4 "/>
<rect x="293.6" y="97.6" style="fill:#405F66;" width="72.8" height="60"/>
<polyline style="fill:#31484C;" points="366.4,156.8 366.4,97.6 293.6,97.6 "/>
<path style="fill:#638491;" d="M292.8,96c0,0.8,0.8,1.6,1.6,1.6h72c0.8,0,1.6-0.8,1.6-1.6l0,0c0-0.8-0.8-1.6-1.6-1.6h-72
	C293.6,94.4,292.8,95.2,292.8,96L292.8,96z"/>
<g>
	<path style="fill:#4A6B75;" d="M301.6,107.2c0,0.8,0.8,1.6,1.6,1.6h55.2c0.8,0,1.6-0.8,1.6-1.6l0,0c0-0.8-0.8-1.6-1.6-1.6h-55.2
		C301.6,106.4,301.6,106.4,301.6,107.2L301.6,107.2z"/>
	<path style="fill:#4A6B75;" d="M301.6,119.2c0,0.8,0.8,1.6,1.6,1.6h55.2c0.8,0,1.6-0.8,1.6-1.6l0,0c0-0.8-0.8-1.6-1.6-1.6h-55.2
		C301.6,117.6,301.6,118.4,301.6,119.2L301.6,119.2z"/>
	<path style="fill:#4A6B75;" d="M301.6,130.4c0,0.8,0.8,1.6,1.6,1.6h55.2c0.8,0,1.6-0.8,1.6-1.6l0,0c0-0.8-0.8-1.6-1.6-1.6h-55.2
		C301.6,129.6,301.6,130.4,301.6,130.4L301.6,130.4z"/>
</g>
<rect x="288" y="142.4" style="fill:#3B555B;" width="84.8" height="69.6"/>
<polyline style="fill:#405F66;" points="372.8,212 372.8,142.4 288,142.4 "/>
<path style="fill:#638491;" d="M286.4,140.8c0,0.8,0.8,1.6,1.6,1.6h84c0.8,0,1.6-0.8,1.6-1.6l0,0c0-0.8-0.8-1.6-1.6-1.6h-84
	C287.2,139.2,286.4,140,286.4,140.8L286.4,140.8z"/>
<g>
	<path style="fill:#4A6B75;" d="M296.8,153.6c0,0.8,0.8,1.6,1.6,1.6h64c0.8,0,1.6-0.8,1.6-1.6l0,0c0-0.8-0.8-1.6-1.6-1.6h-64
		C297.6,152,296.8,152.8,296.8,153.6L296.8,153.6z"/>
	<path style="fill:#4A6B75;" d="M296.8,167.2c0,0.8,0.8,1.6,1.6,1.6h64c0.8,0,1.6-0.8,1.6-1.6l0,0c0-0.8-0.8-1.6-1.6-1.6h-64
		C297.6,165.6,296.8,166.4,296.8,167.2L296.8,167.2z"/>
	<path style="fill:#4A6B75;" d="M296.8,180.8c0,0.8,0.8,1.6,1.6,1.6h64c0.8,0,1.6-0.8,1.6-1.6l0,0c0-0.8-0.8-1.6-1.6-1.6h-64
		C297.6,179.2,296.8,180,296.8,180.8L296.8,180.8z"/>
</g>
<rect x="281.6" y="195.2" style="fill:#638491;" width="97.6" height="298.4"/>
<polyline style="fill:#4A6B75;" points="379.2,195.2 281.6,195.2 281.6,493.6 "/>
<path style="fill:#638491;" d="M278.4,194.4c0,0.8,0.8,1.6,1.6,1.6h99.2c0.8,0,1.6-0.8,1.6-1.6l0,0c0-0.8-0.8-1.6-1.6-1.6h-98.4
	C279.2,192,278.4,193.6,278.4,194.4L278.4,194.4z"/>
<g>
	<path style="fill:#6A8E99;" d="M284.8,208.8c0,0.8,0.8,1.6,1.6,1.6h88c0.8,0,1.6-0.8,1.6-1.6l0,0c0-0.8-0.8-1.6-1.6-1.6h-88
		C285.6,207.2,284.8,208,284.8,208.8L284.8,208.8z"/>
	<path style="fill:#6A8E99;" d="M284.8,228.8c0,0.8,0.8,1.6,1.6,1.6h88c0.8,0,1.6-0.8,1.6-1.6l0,0c0-0.8-0.8-1.6-1.6-1.6h-88
		C285.6,227.2,284.8,228,284.8,228.8L284.8,228.8z"/>
	<path style="fill:#6A8E99;" d="M284.8,249.6c0,0.8,0.8,1.6,1.6,1.6h88c0.8,0,1.6-0.8,1.6-1.6l0,0c0-0.8-0.8-1.6-1.6-1.6h-88
		C285.6,248,284.8,248.8,284.8,249.6L284.8,249.6z"/>
	<path style="fill:#6A8E99;" d="M284.8,269.6c0,0.8,0.8,1.6,1.6,1.6h88c0.8,0,1.6-0.8,1.6-1.6l0,0c0-0.8-0.8-1.6-1.6-1.6h-88
		C285.6,268.8,284.8,268.8,284.8,269.6L284.8,269.6z"/>
	<path style="fill:#6A8E99;" d="M284.8,290.4c0,0.8,0.8,1.6,1.6,1.6h88c0.8,0,1.6-0.8,1.6-1.6l0,0c0-0.8-0.8-1.6-1.6-1.6h-88
		C285.6,288.8,284.8,289.6,284.8,290.4L284.8,290.4z"/>
	<path style="fill:#6A8E99;" d="M284.8,311.2c0,0.8,0.8,1.6,1.6,1.6h88c0.8,0,1.6-0.8,1.6-1.6l0,0c0-0.8-0.8-1.6-1.6-1.6h-88
		C285.6,309.6,284.8,310.4,284.8,311.2L284.8,311.2z"/>
	<path style="fill:#6A8E99;" d="M284.8,331.2c0,0.8,0.8,1.6,1.6,1.6h88c0.8,0,1.6-0.8,1.6-1.6l0,0c0-0.8-0.8-1.6-1.6-1.6h-88
		C285.6,329.6,284.8,330.4,284.8,331.2L284.8,331.2z"/>
	<path style="fill:#6A8E99;" d="M284.8,352c0,0.8,0.8,1.6,1.6,1.6h88c0.8,0,1.6-0.8,1.6-1.6l0,0c0-0.8-0.8-1.6-1.6-1.6h-88
		C285.6,350.4,284.8,351.2,284.8,352L284.8,352z"/>
	<path style="fill:#6A8E99;" d="M284.8,372c0,0.8,0.8,1.6,1.6,1.6h88c0.8,0,1.6-0.8,1.6-1.6l0,0c0-0.8-0.8-1.6-1.6-1.6h-88
		C285.6,371.2,284.8,371.2,284.8,372L284.8,372z"/>
	<path style="fill:#6A8E99;" d="M284.8,392.8c0,0.8,0.8,1.6,1.6,1.6h88c0.8,0,1.6-0.8,1.6-1.6l0,0c0-0.8-0.8-1.6-1.6-1.6h-88
		C285.6,391.2,284.8,392,284.8,392.8L284.8,392.8z"/>
	<path style="fill:#6A8E99;" d="M284.8,413.6c0,0.8,0.8,1.6,1.6,1.6h88c0.8,0,1.6-0.8,1.6-1.6l0,0c0-0.8-0.8-1.6-1.6-1.6h-88
		C285.6,412,284.8,412.8,284.8,413.6L284.8,413.6z"/>
	<path style="fill:#6A8E99;" d="M284.8,433.6c0,0.8,0.8,1.6,1.6,1.6h88c0.8,0,1.6-0.8,1.6-1.6l0,0c0-0.8-0.8-1.6-1.6-1.6h-88
		C285.6,432,284.8,432.8,284.8,433.6L284.8,433.6z"/>
	<path style="fill:#6A8E99;" d="M284.8,454.4c0,0.8,0.8,1.6,1.6,1.6h88c0.8,0,1.6-0.8,1.6-1.6l0,0c0-0.8-0.8-1.6-1.6-1.6h-88
		C285.6,452.8,284.8,453.6,284.8,454.4L284.8,454.4z"/>
	<path style="fill:#6A8E99;" d="M284.8,474.4c0,0.8,0.8,1.6,1.6,1.6h88c0.8,0,1.6-0.8,1.6-1.6l0,0c0-0.8-0.8-1.6-1.6-1.6h-88
		C285.6,472.8,284.8,473.6,284.8,474.4L284.8,474.4z"/>
</g>
<path style="fill:#132021;" d="M404,493.6c0,1.6-0.8,2.4-2.4,2.4H94.4c-1.6,0-2.4-0.8-2.4-2.4l0,0c0-1.6,0.8-2.4,2.4-2.4h307.2
	C403.2,491.2,404,492,404,493.6L404,493.6z"/>
<polygon style="fill:#4A6B75;" points="211.2,405.6 208,404 248,306.4 288,404 284.8,405.6 248,316.8 "/>
<g>
</g>
<g>
</g>
<g>
</g>
<g>
</g>
<g>
</g>
<g>
</g>
<g>
</g>
<g>
</g>
<g>
</g>
<g>
</g>
<g>
</g>
<g>
</g>
<g>
</g>
<g>
</g>
<g>
</g>
</svg>
