<svg xmlns="http://www.w3.org/2000/svg" height="601pt" version="1.1" viewBox="-147 1 601 601.80002" width="601pt">
<g id="surface1">
<path d="M 143.296875 132.644531 L 143.296875 163.253906 C 143.3125 171.917969 147.023438 180.160156 153.5 185.914062 L 153.5 204.066406 L 194.3125 204.066406 L 194.3125 185.914062 C 200.789062 180.160156 204.503906 171.917969 204.515625 163.253906 L 204.515625 132.644531 Z M 143.296875 132.644531 " style=" stroke:none;fill-rule:nonzero;fill:rgb(41.176471%,80%,84.313725%);fill-opacity:1;" />
<path d="M 184.109375 132.644531 L 184.109375 163.53125 C 184.0625 164.503906 183.945312 165.476562 183.761719 166.4375 C 183 173.925781 179.488281 180.863281 173.90625 185.914062 L 173.90625 206.324219 L 194.3125 206.324219 L 194.3125 185.914062 C 200.789062 180.160156 204.503906 171.917969 204.515625 163.253906 L 204.515625 132.644531 Z M 184.109375 132.644531 " style=" stroke:none;fill-rule:nonzero;fill:rgb(38.039216%,74.117647%,78.039216%);fill-opacity:1;" />
<path d="M 265.738281 591.796875 L 82.078125 591.796875 L 92.28125 571.390625 L 92.28125 510.167969 L 82.078125 489.761719 L 265.738281 489.761719 L 255.535156 510.167969 L 255.535156 571.390625 Z M 265.738281 591.796875 " style=" stroke:none;fill-rule:nonzero;fill:rgb(38.039216%,74.117647%,78.039216%);fill-opacity:1;" />
<path d="M 204.515625 132.644531 L 143.296875 132.644531 L 143.296875 112.238281 C 155.976562 95.332031 179.957031 91.90625 196.863281 104.585938 C 199.765625 106.761719 202.339844 109.335938 204.515625 112.238281 Z M 204.515625 132.644531 " style=" stroke:none;fill-rule:nonzero;fill:rgb(38.039216%,74.117647%,78.039216%);fill-opacity:1;" />
<path d="M 163.703125 57.191406 L 184.109375 57.191406 L 184.109375 102.035156 L 163.703125 102.035156 Z M 163.703125 57.191406 " style=" stroke:none;fill-rule:nonzero;fill:rgb(38.039216%,74.117647%,78.039216%);fill-opacity:1;" />
<path d="M 115.679688 88.847656 L 130.109375 74.417969 L 160.71875 105.03125 L 146.289062 119.460938 Z M 115.679688 88.847656 " style=" stroke:none;fill-rule:nonzero;fill:rgb(38.039216%,74.117647%,78.039216%);fill-opacity:1;" />
<path d="M 187.101562 105.015625 L 217.710938 74.402344 L 232.140625 88.832031 L 201.53125 119.445312 Z M 187.101562 105.015625 " style=" stroke:none;fill-rule:nonzero;fill:rgb(38.039216%,74.117647%,78.039216%);fill-opacity:1;" />
<path d="M 112.6875 122.441406 L 235.128906 122.441406 L 235.128906 142.847656 L 112.6875 142.847656 Z M 112.6875 122.441406 " style=" stroke:none;fill-rule:nonzero;fill:rgb(38.039216%,74.117647%,78.039216%);fill-opacity:1;" />
<path d="M 245.332031 448.949219 L 228.167969 231.136719 C 226.332031 210.046875 208.675781 193.863281 187.507812 193.863281 L 112.6875 193.863281 L 71.871094 163.253906 L 31.058594 163.253906 L 31.058594 198.964844 C 31.058594 208.601562 35.597656 217.671875 43.304688 223.453125 L 112.6875 275.492188 L 102.484375 448.949219 Z M 245.332031 448.949219 " style=" stroke:none;fill-rule:nonzero;fill:rgb(38.039216%,74.117647%,78.039216%);fill-opacity:1;" />
<path d="M 71.871094 0 L 92.28125 0 L 92.28125 20.40625 C 92.28125 42.949219 74.007812 61.21875 51.464844 61.21875 L 31.058594 61.21875 L 31.058594 40.8125 C 31.058594 18.273438 49.332031 0 71.871094 0 Z M 71.871094 0 " style=" stroke:none;fill-rule:nonzero;fill:rgb(92.941176%,35.686275%,10.980392%);fill-opacity:1;" />
<path d="M 0.449219 51.015625 L 102.484375 51.015625 L 102.484375 71.421875 L 0.449219 71.421875 Z M 0.449219 51.015625 " style=" stroke:none;fill-rule:nonzero;fill:rgb(38.039216%,74.117647%,78.039216%);fill-opacity:1;" />
<path d="M 31.058594 61.21875 L 71.871094 61.21875 L 71.871094 102.035156 L 31.058594 102.035156 Z M 31.058594 61.21875 " style=" stroke:none;fill-rule:nonzero;fill:rgb(38.039216%,74.117647%,78.039216%);fill-opacity:1;" />
<path d="M 51.464844 214.269531 C 40.195312 214.269531 31.058594 205.136719 31.058594 193.863281 L 31.058594 102.035156 L 82.078125 102.035156 L 82.078125 132.644531 L 71.871094 142.847656 L 71.871094 193.863281 C 71.871094 205.136719 62.738281 214.269531 51.464844 214.269531 Z M 51.464844 214.269531 " style=" stroke:none;fill-rule:nonzero;fill:rgb(41.176471%,80%,84.313725%);fill-opacity:1;" />
<path d="M 133.09375 448.949219 L 112.6875 489.761719 L 224.921875 489.761719 L 224.921875 448.949219 Z M 133.09375 448.949219 " style=" stroke:none;fill-rule:nonzero;fill:rgb(38.039216%,74.117647%,78.039216%);fill-opacity:1;" />
<path d="M 61.667969 581.59375 L 286.144531 581.59375 L 286.144531 602 L 61.667969 602 Z M 61.667969 581.59375 " style=" stroke:none;fill-rule:nonzero;fill:rgb(41.176471%,80%,84.313725%);fill-opacity:1;" />
<path d="M 163.703125 520.371094 L 184.109375 520.371094 L 184.109375 550.984375 L 163.703125 550.984375 Z M 163.703125 520.371094 " style=" stroke:none;fill-rule:nonzero;fill:rgb(34.509804%,67.058824%,70.980392%);fill-opacity:1;" />
<path d="M 122.890625 520.371094 L 143.296875 520.371094 L 143.296875 550.984375 L 122.890625 550.984375 Z M 122.890625 520.371094 " style=" stroke:none;fill-rule:nonzero;fill:rgb(34.509804%,67.058824%,70.980392%);fill-opacity:1;" />
<path d="M 204.515625 520.371094 L 224.921875 520.371094 L 224.921875 550.984375 L 204.515625 550.984375 Z M 204.515625 520.371094 " style=" stroke:none;fill-rule:nonzero;fill:rgb(34.509804%,67.058824%,70.980392%);fill-opacity:1;" />
<path d="M 224.921875 469.355469 L 224.921875 448.949219 L 133.09375 448.949219 L 122.890625 469.355469 Z M 224.921875 469.355469 " style=" stroke:none;fill-rule:nonzero;fill:rgb(36.470588%,71.372549%,74.901961%);fill-opacity:1;" />
<path d="M 255.535156 510.167969 L 265.738281 489.761719 L 82.078125 489.761719 L 92.28125 510.167969 Z M 255.535156 510.167969 " style=" stroke:none;fill-rule:nonzero;fill:rgb(36.470588%,71.372549%,74.901961%);fill-opacity:1;" />
<path d="M 61.667969 479.558594 L 286.144531 479.558594 L 286.144531 499.964844 L 61.667969 499.964844 Z M 61.667969 479.558594 " style=" stroke:none;fill-rule:nonzero;fill:rgb(41.176471%,80%,84.313725%);fill-opacity:1;" />
<path d="M 71.871094 91.832031 L 31.058594 81.628906 L 31.058594 71.421875 L 71.871094 71.421875 Z M 71.871094 91.832031 " style=" stroke:none;fill-rule:nonzero;fill:rgb(36.470588%,71.372549%,74.901961%);fill-opacity:1;" />
<path d="M 122.890625 214.269531 L 122.890625 193.863281 L 112.6875 193.863281 L 102.484375 186.210938 L 102.484375 214.269531 C 102.484375 225.542969 93.347656 234.679688 82.078125 234.679688 L 58.269531 234.679688 L 85.074219 254.777344 C 106.339844 253.257812 122.832031 235.589844 122.890625 214.269531 Z M 122.890625 214.269531 " style=" stroke:none;fill-rule:nonzero;fill:rgb(41.176471%,80%,84.313725%);fill-opacity:1;" />
<path d="M 205.539062 198.25 L 104.523438 269.371094 L 112.6875 275.492188 L 111.890625 289.082031 L 221.332031 212.097656 C 217.371094 206.175781 211.925781 201.402344 205.539062 198.25 Z M 205.539062 198.25 " style=" stroke:none;fill-rule:nonzero;fill:rgb(41.176471%,80%,84.313725%);fill-opacity:1;" />
<path d="M 228.710938 238.023438 L 108.820312 341.222656 L 107.15625 369.578125 L 230.699219 263.238281 Z M 228.710938 238.023438 " style=" stroke:none;fill-rule:nonzero;fill:rgb(41.176471%,80%,84.313725%);fill-opacity:1;" />
<path d="M 233.117188 294 L 104.6875 411.421875 L 102.972656 440.644531 L 235.148438 319.792969 Z M 233.117188 294 " style=" stroke:none;fill-rule:nonzero;fill:rgb(41.176471%,80%,84.313725%);fill-opacity:1;" />
<path d="M 237.628906 351.230469 L 148.960938 448.949219 L 176.507812 448.949219 L 239.832031 379.167969 Z M 237.628906 351.230469 " style=" stroke:none;fill-rule:nonzero;fill:rgb(41.176471%,80%,84.313725%);fill-opacity:1;" />
<path d="M 258.664062 316.304688 L 209.035156 316.304688 C 203.402344 316.304688 198.835938 311.734375 198.835938 306.097656 C 198.835938 304.875 199.058594 303.664062 199.484375 302.519531 L 222.445312 241.300781 C 223.9375 237.320312 227.742188 234.679688 231.992188 234.679688 L 281.625 234.679688 C 287.257812 234.679688 291.824219 239.25 291.824219 244.886719 C 291.824219 246.105469 291.601562 247.320312 291.171875 248.460938 L 268.214844 309.683594 C 266.726562 313.664062 262.917969 316.304688 258.664062 316.304688 Z M 258.664062 316.304688 " style=" stroke:none;fill-rule:nonzero;fill:rgb(26.27451%,58.039216%,80%);fill-opacity:1;" />
<path d="M 281.625 234.679688 L 275.941406 234.679688 L 214.71875 316.304688 L 258.664062 316.304688 C 262.917969 316.304688 266.722656 313.664062 268.214844 309.683594 L 291.171875 248.460938 C 293.152344 243.1875 290.476562 237.304688 285.199219 235.328125 C 284.058594 234.898438 282.847656 234.679688 281.625 234.679688 Z M 281.625 234.679688 " style=" stroke:none;fill-rule:nonzero;fill:rgb(24.313725%,53.72549%,74.117647%);fill-opacity:1;" />
<path d="M 296.347656 306.101562 L 255.535156 306.101562 L 265.738281 265.289062 L 306.550781 265.289062 Z M 296.347656 306.101562 " style=" stroke:none;fill-rule:nonzero;fill:rgb(41.176471%,80%,84.313725%);fill-opacity:1;" />
<path d="M 293.796875 265.289062 L 286.144531 295.898438 L 258.085938 295.898438 L 255.535156 306.101562 L 296.347656 306.101562 L 306.550781 265.289062 Z M 293.796875 265.289062 " style=" stroke:none;fill-rule:nonzero;fill:rgb(38.039216%,74.117647%,78.039216%);fill-opacity:1;" />
</g>
</svg>