<svg xmlns="http://www.w3.org/2000/svg" height="591pt" version="1.1" viewBox="1 -102 591.865 591" width="591pt">
<g id="surface1">
<path d="M 326.738281 388.144531 L 459.371094 224.90625 L 592 388.144531 Z M 326.738281 388.144531 " style=" stroke:none;fill-rule:nonzero;fill:rgb(96.078431%,68.235294%,27.058824%);fill-opacity:1;" />
<path d="M 326.738281 388.144531 L 538.070312 388.144531 L 429.578125 261.574219 Z M 326.738281 388.144531 " style=" stroke:none;fill-rule:nonzero;fill:rgb(90.196078%,54.117647%,0%);fill-opacity:1;" />
<path d="M 367.546875 194.300781 L 296.132812 112.679688 L 224.714844 194.300781 Z M 367.546875 194.300781 " style=" stroke:none;fill-rule:nonzero;fill:rgb(98.039216%,73.72549%,37.254902%);fill-opacity:1;" />
<path d="M 296.132812 112.679688 L 326.738281 194.300781 L 367.546875 194.300781 Z M 296.132812 112.679688 " style=" stroke:none;fill-rule:nonzero;fill:rgb(96.078431%,68.235294%,27.058824%);fill-opacity:1;" />
<path d="M 238.582031 194.300781 L 81.882812 388.144531 L 510.75 388.144531 L 354.050781 194.300781 Z M 238.582031 194.300781 " style=" stroke:none;fill-rule:nonzero;fill:rgb(96.078431%,68.235294%,27.058824%);fill-opacity:1;" />
<path d="M 265.527344 235.109375 L 306.335938 235.109375 L 306.335938 255.515625 L 265.527344 255.515625 Z M 265.527344 235.109375 " style=" stroke:none;fill-rule:nonzero;fill:rgb(94.117647%,61.960784%,14.901961%);fill-opacity:1;" />
<path d="M 336.941406 275.917969 L 377.75 275.917969 L 377.75 296.324219 L 336.941406 296.324219 Z M 336.941406 275.917969 " style=" stroke:none;fill-rule:nonzero;fill:rgb(94.117647%,61.960784%,14.901961%);fill-opacity:1;" />
<path d="M 377.75 337.132812 L 418.558594 337.132812 L 418.558594 357.539062 L 377.75 357.539062 Z M 377.75 337.132812 " style=" stroke:none;fill-rule:nonzero;fill:rgb(94.117647%,61.960784%,14.901961%);fill-opacity:1;" />
<path d="M 296.132812 316.726562 L 336.941406 316.726562 L 336.941406 337.132812 L 296.132812 337.132812 Z M 296.132812 316.726562 " style=" stroke:none;fill-rule:nonzero;fill:rgb(94.117647%,61.960784%,14.901961%);fill-opacity:1;" />
<path d="M 245.121094 235.109375 L 205.597656 235.109375 L 189.101562 255.515625 L 245.121094 255.515625 Z M 245.121094 235.109375 " style=" stroke:none;fill-rule:nonzero;fill:rgb(94.117647%,61.960784%,14.901961%);fill-opacity:1;" />
<path d="M 354.050781 194.300781 L 238.582031 194.300781 L 222.09375 214.703125 L 370.546875 214.703125 Z M 354.050781 194.300781 " style=" stroke:none;fill-rule:nonzero;fill:rgb(94.117647%,61.960784%,14.901961%);fill-opacity:1;" />
<path d="M 510.382812 61.667969 C 510.382812 95.476562 482.976562 122.882812 449.167969 122.882812 C 415.359375 122.882812 387.953125 95.476562 387.953125 61.667969 C 387.953125 27.863281 415.359375 0.457031 449.167969 0.457031 C 482.976562 0.457031 510.382812 27.863281 510.382812 61.667969 Z M 510.382812 61.667969 " style=" stroke:none;fill-rule:nonzero;fill:rgb(96.078431%,44.313725%,21.960784%);fill-opacity:1;" />
<path d="M 307.121094 388.144531 L 197.292969 245.371094 L 81.882812 388.144531 Z M 307.121094 388.144531 " style=" stroke:none;fill-rule:nonzero;fill:rgb(94.117647%,61.960784%,14.901961%);fill-opacity:1;" />
<path d="M 0 388.144531 L 143.097656 204.503906 L 280.421875 388.144531 Z M 0 388.144531 " style=" stroke:none;fill-rule:nonzero;fill:rgb(98.039216%,73.72549%,37.254902%);fill-opacity:1;" />
<path d="M 92.085938 306.527344 L 132.894531 306.527344 L 132.894531 326.929688 L 92.085938 326.929688 Z M 92.085938 306.527344 " style=" stroke:none;fill-rule:nonzero;fill:rgb(94.117647%,61.960784%,14.901961%);fill-opacity:1;" />
<path d="M 132.894531 326.929688 L 173.703125 326.929688 L 173.703125 347.335938 L 132.894531 347.335938 Z M 132.894531 326.929688 " style=" stroke:none;fill-rule:nonzero;fill:rgb(94.117647%,61.960784%,14.901961%);fill-opacity:1;" />
<path d="M 354.050781 194.300781 L 301.671875 194.300781 L 363.285156 388.144531 L 510.75 388.144531 Z M 354.050781 194.300781 " style=" stroke:none;fill-rule:nonzero;fill:rgb(94.117647%,61.960784%,14.901961%);fill-opacity:1;" />
</g>
</svg>