<svg xmlns="http://www.w3.org/2000/svg" height="611pt" version="1.1" viewBox="-112 1 611 611.99998" width="611pt">
<g id="surface1">
<path d="M 286.101562 448.800781 L 102.5 448.800781 L 20.898438 601.800781 L 102.5 601.800781 L 113.71875 568.058594 C 128.546875 523.570312 176.628906 499.527344 221.113281 514.351562 C 246.472656 522.804688 266.367188 542.699219 274.820312 568.058594 L 286.101562 601.800781 L 367.699219 601.800781 Z M 286.101562 448.800781 " style=" stroke:none;fill-rule:nonzero;fill:rgb(76.470588%,78.823529%,81.960784%);fill-opacity:1;" />
<path d="M 235.101562 448.800781 L 286.101562 448.800781 L 245.300781 336.601562 L 143.300781 336.601562 L 102.5 448.800781 L 153.5 448.800781 L 173.898438 377.398438 L 214.699219 377.398438 Z M 235.101562 448.800781 " style=" stroke:none;fill-rule:nonzero;fill:rgb(76.470588%,78.823529%,81.960784%);fill-opacity:1;" />
<path d="M 153.5 336.601562 L 173.898438 102 L 214.699219 102 L 235.101562 336.601562 Z M 153.5 336.601562 " style=" stroke:none;fill-rule:nonzero;fill:rgb(76.470588%,78.823529%,81.960784%);fill-opacity:1;" />
<path d="M 0.5 591.601562 L 133.101562 591.601562 L 133.101562 612 L 0.5 612 Z M 0.5 591.601562 " style=" stroke:none;fill-rule:nonzero;fill:rgb(81.568627%,84.313725%,87.45098%);fill-opacity:1;" />
<path d="M 255.5 591.601562 L 388.101562 591.601562 L 388.101562 612 L 255.5 612 Z M 255.5 591.601562 " style=" stroke:none;fill-rule:nonzero;fill:rgb(81.568627%,84.313725%,87.45098%);fill-opacity:1;" />
<path d="M 217.363281 132.601562 L 214.699219 102 L 173.898438 102 L 171.238281 132.601562 Z M 217.363281 132.601562 " style=" stroke:none;fill-rule:nonzero;fill:rgb(64.313725%,69.019608%,74.901961%);fill-opacity:1;" />
<path d="M 184.101562 0 L 204.5 0 L 204.5 61.199219 L 184.101562 61.199219 Z M 184.101562 0 " style=" stroke:none;fill-rule:nonzero;fill:rgb(76.470588%,78.823529%,81.960784%);fill-opacity:1;" />
<path d="M 173.898438 61.199219 L 214.699219 61.199219 L 214.699219 102 L 173.898438 102 Z M 173.898438 61.199219 " style=" stroke:none;fill-rule:nonzero;fill:rgb(76.470588%,78.823529%,81.960784%);fill-opacity:1;" />
<path d="M 153.5 91.800781 L 235.101562 91.800781 L 235.101562 112.199219 L 153.5 112.199219 Z M 153.5 91.800781 " style=" stroke:none;fill-rule:nonzero;fill:rgb(81.568627%,84.313725%,87.45098%);fill-opacity:1;" />
<path d="M 204.5 91.800781 L 235.101562 91.800781 L 235.101562 112.199219 L 204.5 112.199219 Z M 204.5 91.800781 " style=" stroke:none;fill-rule:nonzero;fill:rgb(83.921569%,83.921569%,83.921569%);fill-opacity:1;" />
<path d="M 256.429688 367.199219 L 245.300781 336.601562 L 143.300781 336.601562 L 132.171875 367.199219 Z M 256.429688 367.199219 " style=" stroke:none;fill-rule:nonzero;fill:rgb(64.313725%,69.019608%,74.901961%);fill-opacity:1;" />
<path d="M 122.898438 326.398438 L 265.699219 326.398438 L 265.699219 346.800781 L 122.898438 346.800781 Z M 122.898438 326.398438 " style=" stroke:none;fill-rule:nonzero;fill:rgb(81.568627%,84.313725%,87.45098%);fill-opacity:1;" />
<path d="M 302.421875 479.398438 L 286.101562 448.800781 L 102.5 448.800781 L 86.179688 479.398438 Z M 302.421875 479.398438 " style=" stroke:none;fill-rule:nonzero;fill:rgb(64.313725%,69.019608%,74.901961%);fill-opacity:1;" />
<path d="M 82.101562 438.601562 L 306.5 438.601562 L 306.5 459 L 82.101562 459 Z M 82.101562 438.601562 " style=" stroke:none;fill-rule:nonzero;fill:rgb(81.568627%,84.313725%,87.45098%);fill-opacity:1;" />
<path d="M 235.101562 326.398438 L 265.699219 326.398438 L 265.699219 346.800781 L 235.101562 346.800781 Z M 235.101562 326.398438 " style=" stroke:none;fill-rule:nonzero;fill:rgb(83.921569%,83.921569%,83.921569%);fill-opacity:1;" />
<path d="M 275.898438 438.601562 L 306.5 438.601562 L 306.5 459 L 275.898438 459 Z M 275.898438 438.601562 " style=" stroke:none;fill-rule:nonzero;fill:rgb(83.921569%,83.921569%,83.921569%);fill-opacity:1;" />
<path d="M 357.5 591.601562 L 388.101562 591.601562 L 388.101562 612 L 357.5 612 Z M 357.5 591.601562 " style=" stroke:none;fill-rule:nonzero;fill:rgb(83.921569%,83.921569%,83.921569%);fill-opacity:1;" />
<path d="M 102.5 591.601562 L 133.101562 591.601562 L 133.101562 612 L 102.5 612 Z M 102.5 591.601562 " style=" stroke:none;fill-rule:nonzero;fill:rgb(83.921569%,83.921569%,83.921569%);fill-opacity:1;" />
</g>
</svg>