<?xml version="1.0" encoding="iso-8859-1"?>
<!-- Generator: Adobe Illustrator 19.0.0, SVG Export Plug-In . SVG Version: 6.00 Build 0)  -->
<svg version="1.1" id="Layer_1" xmlns="http://www.w3.org/2000/svg" xmlns:xlink="http://www.w3.org/1999/xlink" x="0px" y="0px"
	 viewBox="0 0 496 496" style="enable-background:new 0 0 496 496;" xml:space="preserve">
<g>
	<path style="fill:#264066;" d="M411.2,495.2C407.2,408,336,338.4,248,338.4S88.8,408,84.8,494.4h326.4V495.2z"/>
	<rect y="463.2" style="fill:#264066;" width="496" height="32.8"/>
</g>
<path style="fill:#E28B50;" d="M160,490.4c0-18.4,14.4-32.8,32.8-32.8s32.8,14.4,32.8,32.8"/>
<path style="fill:#EFA573;" d="M160,490.4c0-18.4,14.4-32.8,32.8-32.8"/>
<path style="fill:#D36D29;" d="M168.8,490.4c0-12.8,10.4-23.2,23.2-23.2s23.2,10.4,23.2,23.2"/>
<path style="fill:#D8D0AD;" d="M174.4,490.4c0-9.6,8-18.4,18.4-18.4c9.6,0,18.4,8,18.4,18.4"/>
<path style="fill:#EDE6C5;" d="M174.4,490.4c0-9.6,8-14.4,18.4-14.4c9.6,0,18.4,4,18.4,14.4"/>
<path style="fill:#E28B50;" d="M271.2,490.4c0-18.4,14.4-32.8,32.8-32.8s32.8,14.4,32.8,32.8"/>
<path style="fill:#EFA573;" d="M271.2,490.4c0-18.4,14.4-32.8,32.8-32.8"/>
<path style="fill:#D36D29;" d="M280,490.4c0-12.8,10.4-23.2,23.2-23.2c12.8,0,23.2,10.4,23.2,23.2"/>
<path style="fill:#D8D0AD;" d="M285.6,490.4c0-9.6,8-18.4,18.4-18.4s18.4,8,18.4,18.4"/>
<path style="fill:#EDE6C5;" d="M285.6,490.4c0-9.6,8-14.4,18.4-14.4s18.4,4,18.4,14.4"/>
<path style="fill:#1077DD;" d="M357.6,264c0-66.4-94.4-117.6-109.6-166.4v-0.8l0,0l0,0v0.8C232.8,146.4,138.4,198.4,138.4,264
	c0,68.8,48.8,71.2,109.6,72l0,0l0,0l0,0l0,0C308.8,335.2,357.6,332.8,357.6,264z"/>
<path id="SVGCleanerId_0" style="fill:#2F9AF2;" d="M248,97.6L248,97.6L248,97.6c-12.8,43.2-87.2,88-105.6,143.2h211.2
	C335.2,185.6,260.8,140.8,248,97.6L248,97.6L248,97.6z"/>
<g>
	<path id="SVGCleanerId_0_1_" style="fill:#2F9AF2;" d="M248,97.6L248,97.6L248,97.6c-12.8,43.2-87.2,88-105.6,143.2h211.2
		C335.2,185.6,260.8,140.8,248,97.6L248,97.6L248,97.6z"/>
</g>
<path style="fill:#EDE6C5;" d="M320.8,264c0-66.4-63.2-117.6-72.8-166.4v-0.8l0,0l0,0v0.8c-9.6,48.8-72.8,100-72.8,166.4
	c0,68.8,32.8,71.2,72.8,72l0,0l0,0l0,0l0,0C288.8,335.2,320.8,332.8,320.8,264z"/>
<path style="fill:#F4EFDC;" d="M248,97.6L248,97.6L248,97.6c-8.8,43.2-58.4,88-70.4,143.2h140.8C306.4,185.6,256.8,140.8,248,97.6
	L248,97.6L248,97.6z"/>
<path style="fill:#1077DD;" d="M277.6,264c0-66.4-25.6-117.6-29.6-166.4v-0.8l0,0l0,0v0.8c-4,48.8-29.6,100-29.6,166.4
	c0,68.8,13.6,71.2,29.6,72l0,0l0,0l0,0l0,0C264.8,335.2,277.6,332.8,277.6,264z"/>
<path style="fill:#2F9AF2;" d="M248,97.6L248,97.6L248,97.6c-3.2,43.2-24,88-28.8,143.2h57.6C272,185.6,251.2,140.8,248,97.6
	L248,97.6L248,97.6z"/>
<path style="fill:#196B5B;" d="M328,327.2c0,1.6-0.8,2.4-2.4,2.4H170.4c-1.6,0-2.4-0.8-2.4-2.4l0,0c0-1.6,0.8-2.4,2.4-2.4h156
	C327.2,324.8,328,325.6,328,327.2L328,327.2z"/>
<g>
	<rect x="180.8" y="357.6" style="fill:#D36D29;" width="135.2" height="132.8"/>
	<polygon style="fill:#D36D29;" points="315.2,358.4 180.8,358.4 172,330.4 324,330.4 	"/>
</g>
<polygon style="fill:#BC5319;" points="287.2,358.4 208.8,358.4 204.8,330.4 291.2,330.4 "/>
<rect x="209.6" y="357.6" style="fill:#E5844E;" width="77.6" height="132.8"/>
<path style="fill:#0E4C40;" d="M345.6,493.6c0,1.6-0.8,2.4-2.4,2.4H149.6c-1.6,0-2.4-0.8-2.4-2.4l0,0c0-1.6,0.8-2.4,2.4-2.4h193.6
	C344,491.2,345.6,492.8,345.6,493.6L345.6,493.6z"/>
<path style="fill:#E28B50;" d="M214.4,490.4c0-18.4,14.4-32.8,32.8-32.8S280,472,280,490.4"/>
<path style="fill:#EFA573;" d="M214.4,490.4c0-18.4,14.4-32.8,32.8-32.8"/>
<path style="fill:#D36D29;" d="M223.2,490.4c0-12.8,10.4-23.2,23.2-23.2c12.8,0,23.2,10.4,23.2,23.2"/>
<path style="fill:#D8D0AD;" d="M228.8,490.4c0-9.6,8-18.4,18.4-18.4c10.4,0,18.4,8,18.4,18.4"/>
<path style="fill:#EDE6C5;" d="M228.8,490.4c0-9.6,8-14.4,18.4-14.4c10.4,0,18.4,4,18.4,14.4"/>
<path style="fill:#196B5B;" d="M352,491.2c0,0.8-0.8,1.6-1.6,1.6H145.6c-0.8,0-1.6-0.8-1.6-1.6l0,0c0-0.8,0.8-1.6,1.6-1.6h204.8
	C351.2,489.6,352,490.4,352,491.2L352,491.2z"/>
<g>
	<path style="fill:#EDE6C5;" d="M317.6,358.4c0,0.8-0.8,1.6-1.6,1.6H179.2c-0.8,0-1.6-0.8-1.6-1.6l0,0c0-0.8,0.8-1.6,1.6-1.6H316
		C317.6,356.8,317.6,357.6,317.6,358.4L317.6,358.4z"/>
	<path style="fill:#EDE6C5;" d="M325.6,330.4c0,0.8-0.8,1.6-1.6,1.6H172c-0.8,0-1.6-0.8-1.6-1.6l0,0c0-0.8,0.8-1.6,1.6-1.6h152
		C324.8,328.8,325.6,329.6,325.6,330.4L325.6,330.4z"/>
</g>
<path style="fill:#BC5319;" d="M200,448c0,2.4-2.4,4.8-4.8,4.8h-0.8c-2.4,0-4.8-2.4-4.8-4.8v-58.4c0-2.4,2.4-4.8,4.8-4.8h0.8
	c2.4,0,4.8,2.4,4.8,4.8V448z"/>
<path style="fill:#EDD7AB;" d="M195.2,455.2h-0.8c-4,0-6.4-3.2-6.4-6.4v-58.4c0-4,3.2-6.4,6.4-6.4h0.8c4,0,6.4,3.2,6.4,6.4V448
	C202.4,452,199.2,455.2,195.2,455.2z M194.4,387.2c-1.6,0-2.4,0.8-2.4,2.4V448c0,1.6,0.8,2.4,2.4,2.4h0.8c1.6,0,2.4-0.8,2.4-2.4
	v-58.4c0-1.6-0.8-2.4-2.4-2.4H194.4z"/>
<path style="fill:#BC5319;" d="M235.2,448c0,2.4-2.4,4.8-4.8,4.8h-0.8c-2.4,0-4.8-2.4-4.8-4.8v-58.4c0-2.4,2.4-4.8,4.8-4.8h0.8
	c2.4,0,4.8,2.4,4.8,4.8V448z"/>
<path style="fill:#EDD7AB;" d="M231.2,455.2h-0.8c-4,0-6.4-3.2-6.4-6.4v-58.4c0-4,3.2-6.4,6.4-6.4h0.8c4,0,6.4,3.2,6.4,6.4V448
	C237.6,452,234.4,455.2,231.2,455.2z M229.6,387.2c-1.6,0-2.4,0.8-2.4,2.4V448c0,1.6,0.8,2.4,2.4,2.4h0.8c1.6,0,2.4-0.8,2.4-2.4
	v-58.4c0-1.6-0.8-2.4-2.4-2.4H229.6z"/>
<path style="fill:#BC5319;" d="M271.2,448c0,2.4-2.4,4.8-4.8,4.8h-0.8c-2.4,0-4.8-2.4-4.8-4.8v-58.4c0-2.4,2.4-4.8,4.8-4.8h0.8
	c2.4,0,4.8,2.4,4.8,4.8V448z"/>
<path style="fill:#EDD7AB;" d="M266.4,455.2h-0.8c-4,0-6.4-3.2-6.4-6.4v-58.4c0-4,3.2-6.4,6.4-6.4h0.8c4,0,6.4,3.2,6.4,6.4V448
	C272.8,452,269.6,455.2,266.4,455.2z M264.8,387.2c-1.6,0-2.4,0.8-2.4,2.4V448c0,1.6,0.8,2.4,2.4,2.4h0.8c1.6,0,2.4-0.8,2.4-2.4
	v-58.4c0-1.6-0.8-2.4-2.4-2.4H264.8z"/>
<path style="fill:#BC5319;" d="M306.4,448c0,2.4-2.4,4.8-4.8,4.8h-0.8c-2.4,0-4.8-2.4-4.8-4.8v-58.4c0-2.4,2.4-4.8,4.8-4.8h0.8
	c2.4,0,4.8,2.4,4.8,4.8V448z"/>
<path style="fill:#EDD7AB;" d="M301.6,455.2h-0.8c-4,0-6.4-3.2-6.4-6.4v-58.4c0-4,3.2-6.4,6.4-6.4h0.8c4,0,6.4,3.2,6.4,6.4V448
	C308,452,305.6,455.2,301.6,455.2z M300.8,387.2c-1.6,0-2.4,0.8-2.4,2.4V448c0,1.6,0.8,2.4,2.4,2.4h0.8c1.6,0,2.4-0.8,2.4-2.4v-58.4
	c0-1.6-0.8-2.4-2.4-2.4H300.8z"/>
<g>
	<circle style="fill:#BC5319;" cx="191.2" cy="370.4" r="3.2"/>
	<path style="fill:#BC5319;" d="M210.4,370.4c0,1.6-1.6,3.2-3.2,3.2c-1.6,0-3.2-1.6-3.2-3.2s1.6-3.2,3.2-3.2
		C208.8,367.2,210.4,368.8,210.4,370.4z"/>
	<circle style="fill:#BC5319;" cx="224" cy="370.4" r="3.2"/>
	<circle style="fill:#BC5319;" cx="240" cy="370.4" r="3.2"/>
	<circle style="fill:#BC5319;" cx="256" cy="370.4" r="3.2"/>
	<circle style="fill:#BC5319;" cx="272" cy="370.4" r="3.2"/>
	<path style="fill:#BC5319;" d="M291.2,370.4c0,1.6-1.6,3.2-3.2,3.2s-3.2-1.6-3.2-3.2s1.6-3.2,3.2-3.2
		C290.4,367.2,291.2,368.8,291.2,370.4z"/>
	<circle style="fill:#BC5319;" cx="304.8" cy="370.4" r="3.2"/>
</g>
<g>
	<polygon style="fill:#E5844E;" points="320.8,340 321.6,337.6 174.4,337.6 175.2,340 	"/>
	<polygon style="fill:#E5844E;" points="319.2,345.6 320,344 176,344 176.8,345.6 	"/>
	<polygon style="fill:#E5844E;" points="317.6,352 317.6,350.4 178.4,350.4 178.4,352 	"/>
</g>
<g>
	<polyline style="fill:#6BC2FC;" points="248,336.8 248,336.8 248,336.8 248,336.8 	"/>
	<path style="fill:#6BC2FC;" d="M240.8,112.8c0-0.8,0.8-0.8,0.8-1.6C241.6,112,241.6,112,240.8,112.8z"/>
	<path style="fill:#6BC2FC;" d="M245.6,104c0-0.8,0.8-0.8,0.8-1.6C246.4,103.2,245.6,103.2,245.6,104z"/>
	<path style="fill:#6BC2FC;" d="M243.2,108c0-0.8,0.8-0.8,0.8-1.6C244,107.2,244,108,243.2,108z"/>
	<path style="fill:#6BC2FC;" d="M220.8,140L220.8,140L220.8,140z"/>
	<path style="fill:#6BC2FC;" d="M235.2,121.6c0.8-0.8,0.8-0.8,0.8-1.6C236,120.8,236,120.8,235.2,121.6z"/>
	<path style="fill:#6BC2FC;" d="M248,98.4L248,98.4C248,97.6,248,97.6,248,98.4C248,97.6,248,97.6,248,98.4L248,98.4L248,98.4
		L248,98.4z"/>
	<path style="fill:#6BC2FC;" d="M238.4,117.6c0-0.8,0.8-0.8,0.8-1.6C239.2,116,238.4,116.8,238.4,117.6z"/>
	<path style="fill:#6BC2FC;" d="M224,136l0.8-0.8L224,136z"/>
	<path style="fill:#6BC2FC;" d="M232,126.4c0-0.8,0.8-0.8,0.8-1.6C232.8,124.8,232.8,125.6,232,126.4z"/>
</g>
<polygon style="fill:#EDD7AB;" points="256,105.6 248,113.6 240,105.6 248,52.8 "/>
<g>
	<polyline style="fill:#E2C28A;" points="248,52.8 256,105.6 248,113.6 	"/>
	<path style="fill:#E2C28A;" d="M259.2,109.6c0,2.4-1.6,4-4,4h-14.4c-2.4,0-4-1.6-4-4v-2.4c0-2.4,1.6-4,4-4h14.4c2.4,0,4,1.6,4,4
		V109.6z"/>
	<path style="fill:#E2C28A;" d="M260.8,48.8c0,7.2-5.6,12.8-12.8,12.8s-12.8-5.6-12.8-12.8S240.8,36,248,36
		C255.2,36,260.8,41.6,260.8,48.8z"/>
</g>
<g>
	<circle style="fill:#EDD7AB;" cx="244" cy="44" r="4.8"/>
	<circle style="fill:#EDD7AB;" cx="242.4" cy="54.4" r="2.4"/>
</g>
<g>
	<path style="fill:#C6A877;" d="M250.4,36.8c0,1.6-0.8,2.4-2.4,2.4l0,0c-1.6,0-2.4-0.8-2.4-2.4V2.4c0-1.6,0.8-2.4,2.4-2.4l0,0
		c1.6,0,2.4,0.8,2.4,2.4V36.8z"/>
	<path style="fill:#C6A877;" d="M256.8,7.2c0.8,0,1.6,0.8,1.6,2.4l0,0c0,1.6-0.8,2.4-1.6,2.4H240c-0.8,0-1.6-0.8-1.6-2.4l0,0
		c0-1.6,0.8-2.4,1.6-2.4C240,7.2,256.8,7.2,256.8,7.2z"/>
</g>
<g>
	<path style="fill:#264066;" d="M129.6,467.2h-7.2c0-6.4-4-12-9.6-14.4V404h0.8c0.8,0,0.8,0,0.8-0.8s0-0.8-0.8-0.8l0,0l0.8-2.4l0,0
		v-0.8l0.8-2.4V396l0,0l0.8-2.4l0,0v-0.8l0,0l0.8-3.2l0,0c0,0,0.8,0,0.8-0.8l0,0l0,0c0.8,0,1.6-0.8,1.6-1.6c0-0.8,0-0.8-0.8-0.8
		c8.8-4.8,14.4-12.8,14.4-29.6c0-4-0.8-8-1.6-11.2l0,0l0,0l0,0c-0.8-1.6-1.6-3.2-2.4-4.8c0-0.8-0.8-0.8-0.8-1.6
		c-0.8-0.8-1.6-2.4-1.6-3.2c0-0.8-0.8-1.6-1.6-1.6c-0.8-0.8-1.6-2.4-2.4-3.2c-0.8-0.8-0.8-1.6-1.6-1.6c-0.8-0.8-1.6-2.4-2.4-3.2
		c-0.8-0.8-0.8-1.6-1.6-1.6c-0.8-0.8-1.6-2.4-2.4-3.2c-0.8-0.8-0.8-0.8-1.6-1.6c-0.8-0.8-2.4-2.4-3.2-3.2c0-0.8-0.8-0.8-0.8-1.6
		c-3.2-4-7.2-7.2-10.4-11.2c-0.8-0.8-1.6-1.6-2.4-2.4s-1.6-1.6-1.6-1.6c-0.8-0.8-1.6-1.6-2.4-2.4s-0.8-1.6-1.6-1.6
		c-0.8-0.8-1.6-1.6-2.4-2.4s-0.8-1.6-1.6-1.6c-0.8-0.8-1.6-1.6-1.6-2.4c-0.8-0.8-0.8-0.8-1.6-1.6c0,0,0-0.8-0.8-0.8
		c0.8,0,1.6-0.8,1.6-1.6v-0.8c0-0.8-0.8-1.6-1.6-1.6l-3.2-20.8c3.2,0,5.6-2.4,5.6-5.6s-2.4-5.6-4.8-5.6l0,0v-12h3.2
		c0,0,0.8-0.8,0.8-1.6s0-1.6-0.8-1.6H80v-2.4c0-0.8-0.8-1.6-1.6-1.6s-1.6,0.8-1.6,1.6v2.4h-3.2c0,0-0.8,0.8-0.8,1.6s0,1.6,0.8,1.6
		h3.2v12l0,0c-2.4,0.8-4.8,3.2-4.8,5.6c0,3.2,2.4,5.6,5.6,5.6L76,280c-0.8,0-1.6,0.8-1.6,1.6v0.8c0,0.8,0.8,1.6,1.6,1.6
		c0,0,0,0.8-0.8,0.8c0,0.8-0.8,0.8-0.8,1.6c-0.8,0.8-1.6,1.6-1.6,2.4c-0.8,0.8-0.8,0.8-1.6,1.6c-0.8,0.8-1.6,1.6-2.4,2.4
		s-0.8,0.8-1.6,1.6c-0.8,0.8-1.6,1.6-2.4,3.2c-0.8,0.8-0.8,0.8-1.6,1.6c-0.8,0.8-2.4,2.4-3.2,3.2l-0.8,0.8c-1.6,1.6-4,4-5.6,5.6
		c-0.8,0.8-2.4,2.4-3.2,3.2c-0.8,0.8-0.8,0.8-1.6,1.6c-0.8,0.8-1.6,1.6-2.4,3.2c-0.8,0.8-0.8,1.6-1.6,1.6c-0.8,0.8-1.6,1.6-2.4,3.2
		c-0.8,0.8-0.8,1.6-1.6,2.4c-0.8,2.4-1.6,3.2-2.4,4s-0.8,1.6-1.6,2.4s-1.6,2.4-2.4,3.2c-0.8,0.8-0.8,1.6-1.6,2.4s-1.6,2.4-1.6,3.2
		c0,0.8-0.8,1.6-0.8,1.6c-0.8,1.6-1.6,3.2-1.6,4v0.8l0,0l0,0c-1.6,4-1.6,7.2-1.6,11.2c0,16,5.6,24.8,14.4,29.6l-0.8,0.8
		c0,0.8,0.8,1.6,1.6,1.6l0,0l0,0c0,0,0,0.8,0.8,0.8l0,0l0.8,3.2l0,0l0,0l2.4,7.2l0,0l0,0l0.8,2.4l0,0c-0.8,0-0.8,0-0.8,0.8
		s0,0.8,0.8,0.8H48v48.8c-5.6,2.4-9.6,8-9.6,14.4h-8c0,0-0.8,0-0.8,0.8c0,0,0,0.8,0.8,0.8h0.8c0,0,0,0,0,0.8s0.8,0.8,0.8,0.8h93.6
		c0.8,0,0.8-0.8,0.8-0.8v-0.8h2.4C130.4,468,130.4,468,129.6,467.2C130.4,467.2,130.4,467.2,129.6,467.2z"/>
	<path style="fill:#264066;" d="M465.6,467.2h-7.2c0-6.4-4-12-9.6-14.4V404h0.8c0.8,0,0.8,0,0.8-0.8s0-0.8-0.8-0.8l0,0l0.8-2.4l0,0
		v-0.8l0.8-2.4V396l0,0l0.8-2.4l0,0v-0.8l0,0l0.8-3.2l0,0c0,0,0.8,0,0.8-0.8l0,0l0,0c0.8,0,1.6-0.8,1.6-1.6c0-0.8,0-0.8-0.8-0.8
		c8.8-4.8,15.2-12.8,15.2-29.6c0-4-0.8-8-1.6-11.2l0,0l0,0l0,0c-0.8-1.6-1.6-3.2-2.4-4.8c0-0.8-0.8-0.8-0.8-1.6
		c-0.8-0.8-1.6-2.4-1.6-3.2c0-0.8-0.8-1.6-1.6-1.6c-0.8-0.8-1.6-2.4-2.4-3.2c-0.8-0.8-0.8-1.6-1.6-1.6c-0.8-0.8-1.6-2.4-2.4-3.2
		c-0.8-0.8-0.8-1.6-1.6-1.6c-0.8-0.8-1.6-2.4-2.4-3.2c-0.8-0.8-0.8-0.8-1.6-1.6c-0.8-0.8-2.4-2.4-3.2-3.2c0-0.8-0.8-0.8-0.8-1.6
		c-3.2-4-7.2-7.2-10.4-11.2c-0.8-0.8-1.6-1.6-2.4-2.4s-1.6-1.6-1.6-1.6c-0.8-0.8-1.6-1.6-2.4-2.4s-0.8-1.6-1.6-1.6
		c-0.8-0.8-1.6-1.6-2.4-2.4s-0.8-1.6-1.6-1.6c-0.8-0.8-1.6-1.6-1.6-2.4c-0.8-0.8-0.8-0.8-0.8-1.6c0,0,0-0.8-0.8-0.8
		c0.8,0,1.6-0.8,1.6-1.6v-0.8c0-0.8-0.8-1.6-1.6-1.6l-3.2-20.8c3.2,0,5.6-2.4,5.6-5.6s-2.4-5.6-4.8-5.6l0,0v-12h3.2
		c0,0,0.8-0.8,0.8-1.6s0-1.6-0.8-1.6h-3.2v-2.4c0-0.8-0.8-1.6-1.6-1.6c-0.8,0-1.6,0.8-1.6,1.6v2.4h-3.2c0,0-0.8,0.8-0.8,1.6
		s0,1.6,0.8,1.6h3.2v12l0,0c-2.4,0.8-4.8,3.2-4.8,5.6c0,3.2,2.4,5.6,5.6,5.6L412,280c-0.8,0-1.6,0.8-1.6,1.6v0.8
		c0,0.8,0.8,1.6,1.6,1.6c0,0,0,0.8-0.8,0.8c0,0.8-0.8,0.8-0.8,1.6c-0.8,0.8-1.6,1.6-1.6,2.4c-0.8,0.8-0.8,0.8-1.6,1.6
		c-0.8,0.8-1.6,1.6-2.4,2.4s-0.8,0.8-1.6,1.6c-0.8,0.8-1.6,1.6-2.4,3.2c-0.8,0.8-0.8,0.8-1.6,1.6c-0.8,0.8-2.4,2.4-3.2,3.2l-0.8,0.8
		c-1.6,1.6-4,4-5.6,5.6c-0.8,0.8-2.4,2.4-3.2,3.2c-0.8,0.8-0.8,0.8-1.6,1.6c-0.8,0.8-1.6,1.6-2.4,3.2c-0.8,0.8-0.8,1.6-1.6,1.6
		c-0.8,0.8-1.6,1.6-2.4,3.2c-0.8,0.8-0.8,1.6-1.6,2.4c-0.8,0.8-1.6,1.6-2.4,3.2c-0.8,0.8-0.8,1.6-1.6,2.4c-0.8,0.8-1.6,2.4-2.4,3.2
		c-0.8,0.8-0.8,1.6-1.6,2.4c-0.8,0.8-1.6,2.4-1.6,3.2c0,0.8-0.8,1.6-0.8,1.6c-0.8,1.6-1.6,3.2-1.6,4v0.8l0,0l0,0
		c-1.6,4-1.6,7.2-1.6,11.2c0,16,5.6,24.8,14.4,29.6l-0.8,0.8c0,0.8,0.8,1.6,1.6,1.6l0,0l0,0c0,0,0,0.8,0.8,0.8l0,0l0.8,3.2l0,0l0,0
		l1.6,6.4l0,0l0,0l0.8,2.4l0,0c-0.8,0-0.8,0-0.8,0.8s0,0.8,0.8,0.8h0.8v48.8c-5.6,2.4-9.6,8-9.6,14.4h-7.2c0,0-0.8,0-0.8,0.8
		c0,0,0,0.8,0.8,0.8h0.8c0,0,0,0,0,0.8s0.8,0.8,0.8,0.8h93.6c0.8,0,0.8-0.8,0.8-0.8v-0.8h2.4C465.6,468,466.4,468,465.6,467.2
		C466.4,467.2,465.6,467.2,465.6,467.2z"/>
</g>
<g>
</g>
<g>
</g>
<g>
</g>
<g>
</g>
<g>
</g>
<g>
</g>
<g>
</g>
<g>
</g>
<g>
</g>
<g>
</g>
<g>
</g>
<g>
</g>
<g>
</g>
<g>
</g>
<g>
</g>
</svg>
