<?xml version="1.0" encoding="iso-8859-1"?>
<!-- Generator: Adobe Illustrator 19.0.0, SVG Export Plug-In . SVG Version: 6.00 Build 0)  -->
<svg version="1.1" id="Layer_1" xmlns="http://www.w3.org/2000/svg" xmlns:xlink="http://www.w3.org/1999/xlink" x="0px" y="0px"
	 viewBox="0 0 511.986 511.986" style="enable-background:new 0 0 511.986 511.986;" xml:space="preserve">
<g>
	<path style="fill:#EC87C0;" d="M447.988,138.606c0,5.891-4.781,10.671-10.656,10.671c-5.906,0-10.687-4.781-10.687-10.671
		s4.78-10.664,10.687-10.664C443.207,127.941,447.988,132.715,447.988,138.606z"/>
	<path style="fill:#EC87C0;" d="M277.337,181.277c0,5.89-4.781,10.664-10.68,10.664c-5.89,0-10.664-4.773-10.664-10.664
		s4.774-10.672,10.664-10.672C272.555,170.605,277.337,175.386,277.337,181.277z"/>
</g>
<path style="fill:#FC6E51;" d="M469.316,202.604c0,5.891-4.766,10.672-10.672,10.672c-5.875,0-10.656-4.781-10.656-10.672
	s4.781-10.664,10.656-10.664C464.551,191.94,469.316,196.713,469.316,202.604z"/>
<path style="fill:#ED5564;" d="M415.989,42.608h-10.655V32.054c0-5.891-4.781-10.664-10.688-10.664
	c-5.875,0-10.656,4.773-10.656,10.664v10.554h-10.656c-5.906,0-10.688,4.781-10.688,10.671s4.781,10.664,10.688,10.664h10.656
	v10.664c0,5.891,4.781,10.671,10.656,10.671c5.906,0,10.688-4.781,10.688-10.671V63.944h10.655c5.891,0,10.656-4.773,10.656-10.664
	S421.88,42.608,415.989,42.608z"/>
<path style="fill:#AC92EB;" d="M373.334,149.277h-10.688v-10.562c0-5.891-4.766-10.664-10.655-10.664
	c-5.891,0-10.656,4.773-10.656,10.664v10.562h-10.687c-5.875,0-10.656,4.773-10.656,10.664s4.781,10.664,10.656,10.664h10.687
	v10.672c0,5.89,4.766,10.664,10.656,10.664s10.655-4.773,10.655-10.664v-10.672h10.688c5.875,0,10.656-4.773,10.656-10.664
	C383.99,154.051,379.209,149.277,373.334,149.277z"/>
<path style="fill:#434A54;" d="M334.648,490.596c70.686,0,127.996-10.953,127.996-24.469l-7.531-198.893
	c0,0-30.124-16.32-120.465-16.32c-90.35,0-120.467,16.32-120.467,16.32l-7.53,198.893
	C206.651,479.642,263.955,490.596,334.648,490.596z"/>
<g style="opacity:0.1;">
	<path style="fill:#FFFFFF;" d="M455.113,267.234c0,0-30.124-16.32-120.465-16.32c-3.656,0-7.203,0.031-10.656,0.086
		c82.061,1.211,109.793,16.234,109.793,16.234l7.531,198.893c0,12.828-51.639,23.359-117.324,24.391
		c3.5,0.047,7.062,0.078,10.656,0.078c70.686,0,127.996-10.953,127.996-24.469L455.113,267.234z"/>
</g>
<path style="fill:#656D78;" d="M511.986,277.273c0,35.342-81.186,63.998-181.338,63.998c-100.139,0-181.324-28.656-181.324-63.998
	c0-35.351,81.186-63.999,181.324-63.999C430.801,213.276,511.986,241.923,511.986,277.273z"/>
<path style="fill:#434A54;" d="M330.648,298.599c-28.297,0-55.327-2.828-76.108-7.951c-21.147-5.219-28.819-11.125-30.366-13.375
	c1.547-2.266,9.219-8.172,30.366-13.391c20.781-5.125,47.812-7.945,76.108-7.945c28.311,0,55.342,2.82,76.123,7.945
	c21.155,5.219,28.811,11.125,30.373,13.391c-1.562,2.25-9.218,8.156-30.373,13.375C385.99,295.771,358.959,298.599,330.648,298.599z
	"/>
<polygon style="fill:#656D78;" points="14.57,225.752 291.68,65.756 313.023,102.701 35.905,262.695 "/>
<path style="fill:#434A54;" d="M295.586,51.186L0,221.846l31.999,55.429l295.587-170.667L295.586,51.186z M29.139,229.658
	l258.65-149.332l10.672,18.476L39.811,248.126L29.139,229.658z"/>
<rect x="242.641" y="57.564" transform="matrix(-0.5 -0.866 0.866 -0.5 325.165 388.1767)" style="fill:#F6BB42;" width="63.995" height="85.318"/>
<polygon style="fill:#FFCE54;" points="232.361,112.325 306.273,69.661 316.93,88.13 243.033,130.801 "/>
<polygon style="fill:#656D78;" points="11.039,240.322 84.935,197.659 95.599,216.127 21.703,258.797 "/>
<g>
</g>
<g>
</g>
<g>
</g>
<g>
</g>
<g>
</g>
<g>
</g>
<g>
</g>
<g>
</g>
<g>
</g>
<g>
</g>
<g>
</g>
<g>
</g>
<g>
</g>
<g>
</g>
<g>
</g>
</svg>
