<?xml version="1.0" encoding="iso-8859-1"?>
<!-- Generator: Adobe Illustrator 19.0.0, SVG Export Plug-In . SVG Version: 6.00 Build 0)  -->
<svg version="1.1" id="Capa_1" xmlns="http://www.w3.org/2000/svg" xmlns:xlink="http://www.w3.org/1999/xlink" x="0px" y="0px"
	 viewBox="0 0 512 512" style="enable-background:new 0 0 512 512;" xml:space="preserve">
<path style="fill:#495052;" d="M344.276,79.448H220.69c-4.873,0-8.828,3.955-8.828,8.828v52.966h141.241V88.276
	C353.103,83.403,349.149,79.448,344.276,79.448z"/>
<path style="fill:#E0993D;" d="M389.482,230.585l-54.034-54.034v-35.31H229.517v35.31l-54.034,54.034
	c-4.97,4.97-7.759,11.705-7.759,18.732V512h229.517V249.309C397.241,242.282,394.452,235.546,389.482,230.585z"/>
<path style="fill:#7BCBDB;" d="M186.898,186.898l-3.037-3.037c-15.987-15.987-24.964-37.667-24.964-60.275H70.621
	c0,22.607-8.978,44.288-24.964,60.275l-3.037,3.037c-15.987,15.987-24.964,37.667-24.964,60.275v238.345
	c0,14.627,11.855,26.483,26.483,26.483l0,0h141.241c14.627,0,26.483-11.855,26.483-26.483l0,0V247.172
	C211.862,224.565,202.884,202.884,186.898,186.898z"/>
<path style="fill:#FAEBE1;" d="M489.931,357.517c-7.91-2.639-13.241-10.037-13.241-18.37v-12.526H273.655v12.526
	c0,8.333-5.332,15.731-13.241,18.37s-13.241,10.037-13.241,18.37v118.457c0,9.754,7.901,17.655,17.655,17.655h220.69
	c9.754,0,17.655-7.901,17.655-17.655V375.887C503.172,367.554,497.841,360.157,489.931,357.517z"/>
<polygon style="fill:#D7F3F7;" points="158.897,70.621 158.897,0 8.828,0 8.828,35.31 70.621,35.31 70.621,70.621 61.793,70.621 
	61.793,123.586 167.724,123.586 167.724,70.621 "/>
<path style="fill:#495052;" d="M485.517,273.655h-220.69c-9.754,0-17.655,7.901-17.655,17.655v35.31h256v-35.31
	C503.172,281.556,495.272,273.655,485.517,273.655z"/>
<rect x="52.966" y="256" style="fill:#D7F3F7;" width="123.586" height="176.552"/>
<g style="opacity:0.5;">
	<rect x="308.966" y="388.414" style="fill:#495052;" width="132.414" height="52.966"/>
</g>
<g style="opacity:0.17;">
	<rect x="70.621" y="61.793" width="88.276" height="8.828"/>
</g>
<g>
	<path style="fill:#FFFFFF;" d="M308.966,485.517h-26.483c-4.873,0-8.828-3.955-8.828-8.828v-26.483h17.655v17.655h17.655V485.517z"
		/>
	<path style="fill:#FFFFFF;" d="M467.862,485.517h-26.483v-17.655h17.655v-17.655h17.655v26.483
		C476.69,481.562,472.735,485.517,467.862,485.517z"/>
</g>
<g style="opacity:0.17;">
	<rect x="229.517" y="158.897" width="61.793" height="17.655"/>
</g>
<g style="opacity:0.17;">
	<rect x="308.966" y="158.897" width="26.483" height="17.655"/>
</g>
<g style="opacity:0.17;">
	<rect x="238.345" y="79.448" width="17.655" height="44.138"/>
</g>
<g style="opacity:0.17;">
	<rect x="273.655" y="79.448" width="17.655" height="44.138"/>
</g>
<g style="opacity:0.17;">
	<rect x="308.966" y="79.448" width="17.655" height="44.138"/>
</g>
<g style="opacity:0.17;">
	<path d="M158.897,123.586H70.621c-0.009,2.948-0.168,5.897-0.477,8.828h89.229C159.064,129.483,158.905,126.535,158.897,123.586z"
		/>
</g>
<g style="opacity:0.17;">
	<rect x="229.517" y="141.241" width="105.931" height="8.828"/>
</g>
<g style="opacity:0.17;">
	<rect x="273.655" y="326.621" width="203.034" height="8.828"/>
</g>
<g>
</g>
<g>
</g>
<g>
</g>
<g>
</g>
<g>
</g>
<g>
</g>
<g>
</g>
<g>
</g>
<g>
</g>
<g>
</g>
<g>
</g>
<g>
</g>
<g>
</g>
<g>
</g>
<g>
</g>
</svg>
