<?xml version="1.0" encoding="iso-8859-1"?>
<!-- Generator: Adobe Illustrator 19.0.0, SVG Export Plug-In . SVG Version: 6.00 Build 0)  -->
<svg version="1.1" id="Layer_1" xmlns="http://www.w3.org/2000/svg" xmlns:xlink="http://www.w3.org/1999/xlink" x="0px" y="0px"
	 viewBox="0 0 511.992 511.992" style="enable-background:new 0 0 511.992 511.992;" xml:space="preserve">
<g>
	<rect x="351.966" y="229.046" style="fill:#434A54;" width="85.34" height="40.953"/>
	<rect x="74.496" y="231.496" style="fill:#434A54;" width="85.33" height="40.937"/>
</g>
<g>
	<path style="fill:#656D78;" d="M480.027,234.652c0,5.891-4.781,10.672-10.656,10.672H42.637c-5.891,0-10.672-4.781-10.672-10.672
		V10.656C31.965,4.765,36.746,0,42.637,0h426.734c5.875,0,10.656,4.766,10.656,10.656V234.652z"/>
	<path style="fill:#656D78;" d="M480.027,501.336c0,5.875-4.781,10.656-10.656,10.656H42.637c-5.891,0-10.672-4.781-10.672-10.656
		V266.652c0-5.891,4.781-10.656,10.672-10.656h426.734c5.875,0,10.656,4.766,10.656,10.656V501.336z"/>
</g>
<rect x="74.496" y="42.655" style="fill:#4FC2E9;" width="362.72" height="160"/>
<rect x="74.636" y="298.646" style="fill:#EC87C0;" width="170.67" height="96"/>
<rect x="266.636" y="298.646" style="fill:#AC92EB;" width="170.68" height="96"/>
<path style="fill:#48CFAD;" d="M384.154,431.992H215.165v21.344h168.989c5.875,0,10.656-4.781,10.656-10.688
	C394.81,436.773,390.029,431.992,384.154,431.992z"/>
<path style="fill:#E6E9ED;" d="M191.868,410.649h-42.562c-17.671,0-32,14.344-32,31.999c0,17.688,14.328,32,32,32h42.562
	c17.672,0,32-14.312,32-32C223.868,424.993,209.54,410.649,191.868,410.649z"/>
<path style="fill:#3BAFDA;" d="M383.967,74.655h-266.66c-5.891,0-10.672,4.781-10.672,10.671v74.67
	c0,5.891,4.781,10.656,10.672,10.656s10.656-4.766,10.656-10.656V95.998h256.003c5.906,0,10.656-4.781,10.656-10.672
	C394.623,79.436,389.873,74.655,383.967,74.655z"/>
<g>
</g>
<g>
</g>
<g>
</g>
<g>
</g>
<g>
</g>
<g>
</g>
<g>
</g>
<g>
</g>
<g>
</g>
<g>
</g>
<g>
</g>
<g>
</g>
<g>
</g>
<g>
</g>
<g>
</g>
</svg>
