<svg height="512pt" viewBox="-4 0 512 512.00038" width="512pt" xmlns="http://www.w3.org/2000/svg"><path d="m390.507812 164.882812-20.886718-67.898437c-5.636719-18.324219 4.648437-37.746094 22.972656-43.382813 3.304688-1.015624 6.746094-1.535156 10.203125-1.535156h44.847656c19.171875.003906 34.710938 15.542969 34.710938 34.714844 0 3.457031-.519531 6.898438-1.535157 10.203125l-20.886718 67.894531h-69.425782zm0 0" fill="#f7ba61"/><path d="m407.863281 173.558594c-4.792969 0-8.675781-3.886719-8.675781-8.675782v-34.714843c0-4.789063 3.882812-8.675781 8.675781-8.675781s8.679688 3.886718 8.679688 8.675781v34.714843c0 4.792969-3.886719 8.675782-8.679688 8.675782zm0 0" fill="#ea9d2d"/><path d="m442.578125 173.558594c-4.792969 0-8.679687-3.886719-8.679687-8.675782v-34.714843c0-4.789063 3.886718-8.675781 8.679687-8.675781 4.789063 0 8.675781 3.886718 8.675781 8.675781v34.714843c0 4.792969-3.886718 8.675782-8.675781 8.675782zm0 0" fill="#ea9d2d"/><path d="m34.710938 329.761719h433.898437c19.171875 0 34.714844 15.542969 34.714844 34.714843v147.523438h-503.324219v-147.523438c0-19.171874 15.542969-34.714843 34.710938-34.714843zm0 0" fill="#64a8b2"/><path d="m199.59375 286.371094c0 47.929687-38.851562 86.78125-86.78125 86.78125-47.925781 0-86.777344-38.851563-86.777344-86.78125 0-47.925782 38.851563-86.777344 86.777344-86.777344 47.929688 0 86.78125 38.851562 86.78125 86.777344zm0 0" fill="#cdcdcd"/><path d="m164.882812 286.371094c0 28.757812-23.3125 52.070312-52.070312 52.070312-28.753906 0-52.066406-23.3125-52.066406-52.070312 0-28.753906 23.3125-52.066406 52.066406-52.066406 28.757812 0 52.070312 23.3125 52.070312 52.066406zm0 0" fill="#eea5a9"/><path d="m199.59375 112.8125c0 47.929688-38.851562 86.78125-86.78125 86.78125-47.925781 0-86.777344-38.851562-86.777344-86.78125 0-47.925781 38.851563-86.777344 86.777344-86.777344 47.929688 0 86.78125 38.851563 86.78125 86.777344zm0 0" fill="#cdcdcd"/><path d="m164.882812 112.8125c0 28.757812-23.3125 52.070312-52.070312 52.070312-28.753906 0-52.066406-23.3125-52.066406-52.070312 0-28.753906 23.3125-52.066406 52.066406-52.066406 28.757812 0 52.070312 23.3125 52.070312 52.066406zm0 0" fill="#aedee2"/><path d="m60.746094 269.015625h104.136718v34.714844h-104.136718zm0 0" fill="#da979b"/><path d="m95.457031 121.492188c-4.792969-.003907-8.671875-3.894532-8.667969-8.6875 0-1.710938.507813-3.382813 1.457032-4.808594l17.355468-26.03125c2.660157-3.988282 8.050782-5.066406 12.035157-2.40625 3.988281 2.660156 5.066406 8.050781 2.40625 12.039062l-17.355469 26.03125c-1.613281 2.417969-4.324219 3.867188-7.230469 3.863282zm0 0" fill="#8aced8"/><path d="m121.492188 138.847656c-4.792969-.003906-8.675782-3.894531-8.671876-8.6875.003907-1.710937.511719-3.382812 1.460938-4.808594l17.355469-26.03125c2.660156-3.988281 8.046875-5.066406 12.035156-2.40625 3.988281 2.660157 5.0625 8.050782 2.40625 12.039063l-17.359375 26.03125c-1.609375 2.417969-4.324219 3.867187-7.226562 3.863281zm0 0" fill="#8aced8"/><path d="m269.015625 225.625h52.070313v52.070312h-52.070313zm0 0" fill="#f3af3e"/><path d="m321.085938 234.304688h-52.070313v-49.289063c.003906-18 8.996094-34.808594 23.96875-44.796875l8.253906-5.5c5.867188-3.914062 13.792969-2.328125 17.703125 3.539062 1.398438 2.097657 2.144532 4.558594 2.144532 7.082032zm0 0" fill="#ea6b65"/><path d="m390.507812 225.625h69.425782v156.207031h-69.425782zm0 0" fill="#8f563b"/><path d="m390.507812 164.882812h69.425782v69.421876h-69.425782zm0 0" fill="#cdcdcd"/><path d="m251.660156 43.390625h17.355469v17.355469h-17.355469zm0 0" fill="#aedee2"/><path d="m251.660156 95.457031h17.355469v17.355469h-17.355469zm0 0" fill="#aedee2"/><path d="m225.628906 69.425781h17.355469v17.355469h-17.355469zm0 0" fill="#aedee2"/><path d="m277.695312 69.425781h17.355469v17.355469h-17.355469zm0 0" fill="#aedee2"/><path d="m329.761719 0h17.355469v17.355469h-17.355469zm0 0" fill="#f7ba61"/><path d="m312.40625 17.355469h17.355469v17.355469h-17.355469zm0 0" fill="#f7ba61"/><path d="m329.761719 34.710938h17.355469v17.355468h-17.355469zm0 0" fill="#f7ba61"/><path d="m347.117188 17.355469h17.355468v17.355469h-17.355468zm0 0" fill="#f7ba61"/><path d="m95.457031 190.914062h34.710938v17.355469h-34.710938zm0 0" fill="#b9b9b9"/><path d="m260.339844 269.015625h69.421875v112.816406h-69.421875zm0 0" fill="#3b869e"/><path d="m34.710938 373.152344h433.898437c19.171875 0 34.714844 15.542968 34.714844 34.710937v104.136719h-503.324219v-104.136719c0-19.167969 15.542969-34.710937 34.710938-34.710937zm0 0" fill="#6fbbc6"/><g fill="#64a8b2"><path d="m52.066406 416.542969h17.355469v17.355469h-17.355469zm0 0"/><path d="m86.78125 416.542969h17.355469v17.355469h-17.355469zm0 0"/><path d="m121.492188 416.542969h17.355468v17.355469h-17.355468zm0 0"/><path d="m156.203125 416.542969h17.355469v17.355469h-17.355469zm0 0"/><path d="m190.914062 416.542969h17.355469v17.355469h-17.355469zm0 0"/><path d="m225.628906 416.542969h17.355469v17.355469h-17.355469zm0 0"/><path d="m260.339844 416.542969h17.355468v17.355469h-17.355468zm0 0"/><path d="m295.050781 416.542969h17.355469v17.355469h-17.355469zm0 0"/><path d="m329.761719 416.542969h17.355469v17.355469h-17.355469zm0 0"/><path d="m364.476562 416.542969h17.355469v17.355469h-17.355469zm0 0"/><path d="m399.1875 416.542969h17.355469v17.355469h-17.355469zm0 0"/><path d="m433.898438 416.542969h17.355468v17.355469h-17.355468zm0 0"/></g></svg>