<?xml version="1.0" encoding="iso-8859-1"?>
<!-- Generator: Adobe Illustrator 19.0.0, SVG Export Plug-In . SVG Version: 6.00 Build 0)  -->
<svg version="1.1" id="Capa_1" xmlns="http://www.w3.org/2000/svg" xmlns:xlink="http://www.w3.org/1999/xlink" x="0px" y="0px"
	 viewBox="0 0 512 512" style="enable-background:new 0 0 512 512;" xml:space="preserve">
<path style="fill:#F2F2F2;" d="M487.495,511.989H24.509c-16.544,0-25.845-8.949-20.939-19.616l61.376-133.429
	c2.709-5.909,14.421-10.571,26.187-10.571h329.728c11.787,0,23.477,4.672,26.197,10.571l61.376,133.429
	C513.33,503.04,504.039,511.989,487.495,511.989"/>
<path style="fill:#E4EAEF;" d="M447.058,358.933c-2.72-5.909-14.411-10.56-26.197-10.56h-152.48
	c-8.128,46.24-12.384,80.64-12.384,80.64s108.437-24.139,196.757-57.685L447.058,358.933z"/>
<g>
	<path style="fill:#84DBFF;" d="M417.714,434.624c-27.563,0-46.891,13.504-42.891,31.125l10.507,46.24h22.464l-12.341-46.24
		c-2.912-10.912,8.832-19.488,26.08-19.488h65.664l-5.355-11.637H417.714z"/>
	<path style="fill:#84DBFF;" d="M338.823,408c-3.104,0.853-6.08,1.707-9.077,2.56c-4.907,1.077-10.24,1.6-15.883,1.6H294.45
		c-14.837,0-26.88,6.187-28.587,14.613c-0.224,0.736-0.224,1.493-0.224,2.24l1.6,82.987h-22.496l0.96-46.72h-77.44
		c-29.227,0-49.163-14.4-44.683-31.029l5.973-22.08H40.466l4.693-10.133h87.147l14.411-53.653h16l-19.744,85.877
		c-2.347,10.016,9.931,18.443,27.403,18.443h75.52l0.544-23.68c0.107-6.933,4.683-13.333,12.053-18.027
		c8.64-5.547,21.216-8.96,35.093-8.96h19.093c15.68,0,27.2-6.933,25.696-15.147l-7.147-38.507h16l8.651,38.507
		C357.799,395.52,350.973,403.413,338.823,408"/>
</g>
<path style="fill:#54C0EB;" d="M338.823,408c-3.104,0.853-6.08,1.707-9.077,2.56c-4.907,1.077-10.24,1.6-15.883,1.6H294.45
	c-14.837,0-26.88,6.187-28.587,14.613c-6.293,1.493-9.813,2.24-9.813,2.24s0.853-6.613,2.443-18.027
	c8.64-5.547,21.216-8.96,35.093-8.96h19.093c15.68,0,27.2-6.933,25.696-15.147l-7.147-38.507h16l8.651,38.507
	C357.799,395.52,350.973,403.413,338.823,408"/>
<path style="fill:#FF7058;" d="M400.455,144.448c0,79.776-144.448,284.565-144.448,284.565S111.549,224.224,111.549,144.448
	S176.221,0,256.007,0C335.773,0,400.455,64.672,400.455,144.448"/>
<path style="fill:#FFD15C;" d="M348.658,144.448c0,51.168-41.493,92.651-92.661,92.651s-92.661-41.483-92.661-92.651
	s41.493-92.661,92.661-92.661S348.658,93.28,348.658,144.448"/>
<path style="fill:#FFFFFF;" d="M324.434,144.448c0,37.792-30.635,68.437-68.437,68.437c-37.792,0-68.437-30.645-68.437-68.437
	s30.645-68.437,68.437-68.437C293.799,76.011,324.434,106.656,324.434,144.448"/>
<g>
</g>
<g>
</g>
<g>
</g>
<g>
</g>
<g>
</g>
<g>
</g>
<g>
</g>
<g>
</g>
<g>
</g>
<g>
</g>
<g>
</g>
<g>
</g>
<g>
</g>
<g>
</g>
<g>
</g>
</svg>
