<?xml version="1.0" encoding="iso-8859-1"?>
<!-- Generator: Adobe Illustrator 19.0.0, SVG Export Plug-In . SVG Version: 6.00 Build 0)  -->
<svg version="1.1" id="Layer_1" xmlns="http://www.w3.org/2000/svg" xmlns:xlink="http://www.w3.org/1999/xlink" x="0px" y="0px"
	 viewBox="0 0 511.993 511.993" style="enable-background:new 0 0 511.993 511.993;" xml:space="preserve">
<path style="fill:#4A89DC;" d="M511.176,43.924c-1.656-3.984-5.531-6.594-9.844-6.594H10.663c-4.312,0-8.203,2.609-9.852,6.594
	c-1.647,3.984-0.742,8.562,2.312,11.625l85.334,85.326c2,2,4.711,3.125,7.539,3.125h319.993c2.828,0,5.531-1.125,7.531-3.125
	l85.342-85.326C511.926,52.486,512.832,47.908,511.176,43.924z"/>
<g>
	<path style="fill:#5D9CEC;" d="M244.189,266.45L18.21,40.455c-3.055-3.047-7.641-3.953-11.625-2.312C2.601,39.799,0,43.69,0,48.002
		v127.997c0,2.828,1.124,5.547,3.124,7.547L205.94,386.353c2.031,2.031,4.758,3.125,7.547,3.125c0.991,0,1.999-0.141,2.983-0.422
		c3.742-1.094,6.586-4.141,7.43-7.936l23.164-104.826C247.853,272.731,246.767,269.013,244.189,266.45z"/>
	<path style="fill:#5D9CEC;" d="M505.394,38.143c-3.969-1.641-8.562-0.734-11.625,2.312L271.368,262.872
		c-3.109,3.109-3.992,7.812-2.211,11.844l39.18,88.811c1.406,3.234,4.344,5.547,7.797,6.188c0.641,0.125,1.297,0.188,1.953,0.188
		c2.812,0,5.53-1.109,7.546-3.125l183.23-183.23c2-2,3.125-4.719,3.125-7.547V48.002C511.988,43.69,509.394,39.799,505.394,38.143z"
		/>
</g>
<path style="fill:#F6BB42;" d="M362.054,356.761v-20.766c0-2.266-0.719-4.469-2.031-6.297l-15.469-21.156
	c-19.874-29.561-52.967-47.217-88.56-47.217c-35.562,0-68.624,17.625-88.514,47.139l-15.984,21.094
	c-1.406,1.844-2.164,4.109-2.164,6.438v32c0,58.811,47.851,106.668,106.662,106.668s106.653-47.857,106.653-106.668
	C362.647,364.276,362.46,360.511,362.054,356.761z"/>
<path style="fill:#FFCE54;" d="M255.994,229.326c-58.812,0-106.662,47.859-106.662,106.669s47.851,106.67,106.662,106.67
	s106.653-47.859,106.653-106.67S314.806,229.326,255.994,229.326z"/>
<path style="fill:#E8AA3D;" d="M255.853,378.323c-5.891,0-10.672-4.766-10.672-10.656v-63.998c0-5.891,4.781-10.672,10.672-10.672
	c5.89,0,10.663,4.781,10.663,10.672v63.998C266.517,373.558,261.743,378.323,255.853,378.323z"/>
<g>
</g>
<g>
</g>
<g>
</g>
<g>
</g>
<g>
</g>
<g>
</g>
<g>
</g>
<g>
</g>
<g>
</g>
<g>
</g>
<g>
</g>
<g>
</g>
<g>
</g>
<g>
</g>
<g>
</g>
</svg>
