<?xml version="1.0" encoding="iso-8859-1"?>
<!-- Generator: Adobe Illustrator 19.0.0, SVG Export Plug-In . SVG Version: 6.00 Build 0)  -->
<svg version="1.1" id="Layer_1" xmlns="http://www.w3.org/2000/svg" xmlns:xlink="http://www.w3.org/1999/xlink" x="0px" y="0px"
	 viewBox="0 0 511.99 511.99" style="enable-background:new 0 0 511.99 511.99;" xml:space="preserve">
<path style="fill:#434A54;" d="M31.952,469.303L31.952,469.303c-5.906,0-10.672,4.781-10.672,10.688
	c0,5.873,4.766,10.654,10.672,10.654l0,0h42.671v-21.342H31.952L31.952,469.303z"/>
<path style="fill:#ED5564;" d="M468.831,213.98c-22.937-22.929-57.061-27.828-84.779-14.703v-39.226
	C384.052,71.655,312.398,0,224.01,0C135.606,0,63.951,71.655,63.951,160.051v351.937h320.101V404.396l84.779-84.779
	C498.003,290.432,498.003,243.151,468.831,213.98z"/>
<g style="opacity:0.2;">
	<path style="fill:#FFFFFF;" d="M362.71,160.051v45.624c6.812-3.219,14.015-5.352,21.342-6.398v-39.226
		C384.052,71.655,312.398,0,224.01,0c-3.594,0-7.156,0.133-10.672,0.367C296.742,5.86,362.71,75.241,362.71,160.051z"/>
	<path style="fill:#FFFFFF;" d="M468.831,213.98c-17.312-17.305-40.998-24.335-63.498-21.101
		c15.422,2.211,30.281,9.234,42.155,21.101c29.171,29.171,29.171,76.452,0,105.637l-84.778,84.779v107.592h21.342V404.396
		l84.779-84.779C498.003,290.432,498.003,243.151,468.831,213.98z"/>
</g>
<g>
	<path style="fill:#E6E9ED;" d="M223.994,0l76.014,76.021l33.077-33.069C304.507,16.312,266.165,0,224.01,0
		C223.994,0,223.994,0,223.994,0z"/>
	<path style="fill:#E6E9ED;" d="M384.052,160.051c0-5.156-0.25-10.25-0.733-15.28l-7.281,7.281l8.015,8.007v-0.008H384.052z"/>
	<path style="fill:#E6E9ED;" d="M416.114,192.121l35.952,35.952l15.39-15.406C453.082,198.995,434.614,192.144,416.114,192.121z"/>
	<path style="fill:#E6E9ED;" d="M114.903,42.96l33.062,33.062l76.029-76.021C181.839,0.008,143.496,16.321,114.903,42.96z"/>
	<polygon style="fill:#E6E9ED;" points="300.008,228.073 223.994,152.052 300.008,76.022 376.037,152.052 	"/>
	<polygon style="fill:#E6E9ED;" points="147.965,228.073 71.951,152.052 147.965,76.022 223.994,152.052 	"/>
	<polygon style="fill:#E6E9ED;" points="300.008,380.117 223.994,304.088 300.008,228.073 376.037,304.088 	"/>
	<polygon style="fill:#E6E9ED;" points="147.965,380.117 71.951,304.088 147.965,228.073 223.994,304.088 	"/>
	<path style="fill:#E6E9ED;" d="M468.831,319.617c14.594-14.623,21.891-33.764,21.875-52.904l-38.64-38.64l-76.029,76.015
		l54.155,54.154L468.831,319.617z"/>
	<polygon style="fill:#E6E9ED;" points="223.994,456.146 279.837,511.988 320.179,511.988 376.037,456.146 300.008,380.117 	"/>
	<polygon style="fill:#E6E9ED;" points="223.994,456.146 147.965,380.117 71.951,456.146 127.793,511.988 168.136,511.988 	"/>
</g>
<rect x="63.951" y="469.304" style="fill:#DA4453;" width="320.1" height="42.686"/>
<g>
	<path style="fill:#ED5564;" d="M330.694,501.316c-5.891,0-10.656,4.781-10.656,10.672h21.328
		C341.366,506.098,336.6,501.316,330.694,501.316z"/>
	<path style="fill:#ED5564;" d="M288.023,501.316c-5.89,0-10.671,4.781-10.671,10.672h21.343
		C298.695,506.098,293.914,501.316,288.023,501.316z"/>
	<path style="fill:#ED5564;" d="M245.337,501.316c-5.89,0-10.671,4.781-10.671,10.672h21.343
		C256.009,506.098,251.227,501.316,245.337,501.316z"/>
	<path style="fill:#ED5564;" d="M202.666,501.316c-5.89,0-10.671,4.781-10.671,10.672h21.343
		C213.338,506.098,208.557,501.316,202.666,501.316z"/>
	<path style="fill:#ED5564;" d="M159.98,501.316c-5.891,0-10.672,4.781-10.672,10.672h21.343
		C170.651,506.098,165.87,501.316,159.98,501.316z"/>
	<path style="fill:#ED5564;" d="M117.309,501.316c-5.891,0-10.672,4.781-10.672,10.672h21.343
		C127.98,506.098,123.199,501.316,117.309,501.316z"/>
</g>
<g>
</g>
<g>
</g>
<g>
</g>
<g>
</g>
<g>
</g>
<g>
</g>
<g>
</g>
<g>
</g>
<g>
</g>
<g>
</g>
<g>
</g>
<g>
</g>
<g>
</g>
<g>
</g>
<g>
</g>
</svg>
