<?xml version="1.0" encoding="iso-8859-1"?>
<!-- Generator: Adobe Illustrator 19.0.0, SVG Export Plug-In . SVG Version: 6.00 Build 0)  -->
<svg version="1.1" id="Layer_1" xmlns="http://www.w3.org/2000/svg" xmlns:xlink="http://www.w3.org/1999/xlink" x="0px" y="0px"
	 viewBox="0 0 511.988 511.988" style="enable-background:new 0 0 511.988 511.988;" xml:space="preserve">
<path style="fill:#656D78;" d="M469.328,0H42.659C25.019,0,10.66,14.352,10.66,31.999v447.989c0,17.656,14.359,32,31.999,32h426.669
	c17.625,0,32-14.344,32-32V31.999C501.328,14.351,486.953,0,469.328,0z"/>
<path style="fill:#434A54;" d="M85.33,469.332c-5.891,0-10.672-4.781-10.672-10.687V330.648c0-5.875,4.781-10.656,10.672-10.656
	s10.656,4.781,10.656,10.656v127.997C95.986,464.551,91.221,469.332,85.33,469.332z"/>
<rect x="63.987" y="351.994" style="fill:#E6E9ED;" width="42.671" height="42.654"/>
<path style="fill:#434A54;" d="M170.656,469.332c-5.891,0-10.672-4.781-10.672-10.687V330.648c0-5.875,4.781-10.656,10.672-10.656
	s10.672,4.781,10.672,10.656v127.997C181.328,464.551,176.547,469.332,170.656,469.332z"/>
<rect x="149.324" y="426.644" style="fill:#E6E9ED;" width="42.655" height="42.686"/>
<path style="fill:#434A54;" d="M255.982,469.332c-5.875,0-10.656-4.781-10.656-10.687V330.648c0-5.875,4.781-10.656,10.656-10.656
	c5.906,0,10.671,4.781,10.671,10.656v127.997C266.653,464.551,261.889,469.332,255.982,469.332z"/>
<rect x="234.654" y="373.334" style="fill:#E6E9ED;" width="42.679" height="42.655"/>
<path style="fill:#434A54;" d="M341.332,469.332c-5.906,0-10.688-4.781-10.688-10.687V330.648c0-5.875,4.781-10.656,10.688-10.656
	c5.874,0,10.655,4.781,10.655,10.656v127.997C351.987,464.551,347.206,469.332,341.332,469.332z"/>
<rect x="319.984" y="394.644" style="fill:#E6E9ED;" width="42.655" height="42.688"/>
<path style="fill:#434A54;" d="M426.641,469.332c-5.874,0-10.655-4.781-10.655-10.687V330.648c0-5.875,4.781-10.656,10.655-10.656
	c5.906,0,10.688,4.781,10.688,10.656v127.997C437.329,464.551,432.548,469.332,426.641,469.332z"/>
<g>
	<rect x="405.334" y="319.994" style="fill:#E6E9ED;" width="42.654" height="42.655"/>
	<path style="fill:#E6E9ED;" d="M106.658,74.662c0,11.781-9.547,21.336-21.328,21.336s-21.343-9.555-21.343-21.336
		c0-11.78,9.562-21.327,21.343-21.327S106.658,62.882,106.658,74.662z"/>
</g>
<path style="fill:#CCD1D9;" d="M85.33,106.662c-17.64,0-31.999-14.352-31.999-32c0-17.64,14.359-31.999,31.999-31.999
	c17.641,0,31.999,14.359,31.999,31.999C117.329,92.31,102.971,106.662,85.33,106.662z M85.33,63.999
	c-5.891,0-10.672,4.789-10.672,10.663c0,5.883,4.781,10.672,10.672,10.672c5.875,0,10.656-4.789,10.656-10.672
	C95.986,68.788,91.205,63.999,85.33,63.999z"/>
<path style="fill:#E6E9ED;" d="M191.983,74.662c0,11.781-9.546,21.336-21.327,21.336s-21.328-9.555-21.328-21.336
	c0-11.78,9.547-21.327,21.328-21.327S191.983,62.882,191.983,74.662z"/>
<path style="fill:#CCD1D9;" d="M170.656,106.662c-17.641,0-31.999-14.352-31.999-32c0-17.64,14.358-31.999,31.999-31.999
	c17.64,0,31.999,14.359,31.999,31.999C202.655,92.31,188.296,106.662,170.656,106.662z M170.656,63.999
	c-5.875,0-10.672,4.789-10.672,10.663c0,5.883,4.797,10.672,10.672,10.672c5.891,0,10.672-4.789,10.672-10.672
	C181.328,68.788,176.547,63.999,170.656,63.999z"/>
<path style="fill:#E6E9ED;" d="M277.333,74.662c0,11.781-9.555,21.336-21.351,21.336c-11.781,0-21.328-9.555-21.328-21.336
	c0-11.78,9.547-21.327,21.328-21.327C267.778,53.335,277.333,62.882,277.333,74.662z"/>
<path style="fill:#CCD1D9;" d="M255.982,106.662c-17.641,0-31.999-14.352-31.999-32c0-17.64,14.358-31.999,31.999-31.999
	c17.663,0,32.006,14.359,32.006,31.999C287.988,92.31,273.645,106.662,255.982,106.662z M255.982,63.999
	c-5.875,0-10.656,4.789-10.656,10.663c0,5.883,4.781,10.672,10.656,10.672c5.891,0,10.671-4.789,10.671-10.672
	C266.653,68.788,261.873,63.999,255.982,63.999z"/>
<path style="fill:#E6E9ED;" d="M362.643,74.662c0,11.781-9.531,21.336-21.312,21.336s-21.344-9.555-21.344-21.336
	c0-11.78,9.562-21.327,21.344-21.327C353.112,53.335,362.643,62.882,362.643,74.662z"/>
<path style="fill:#CCD1D9;" d="M341.332,106.662c-17.656,0-32-14.352-32-32c0-17.64,14.344-31.999,32-31.999
	c17.624,0,31.998,14.359,31.998,31.999C373.33,92.31,358.956,106.662,341.332,106.662z M341.332,63.999
	c-5.906,0-10.688,4.789-10.688,10.663c0,5.883,4.781,10.672,10.688,10.672c5.874,0,10.655-4.789,10.655-10.672
	C351.987,68.788,347.206,63.999,341.332,63.999z"/>
<path style="fill:#E6E9ED;" d="M447.984,74.662c0,11.781-9.562,21.336-21.343,21.336c-11.78,0-21.312-9.555-21.312-21.336
	c0-11.78,9.531-21.327,21.312-21.327C438.423,53.335,447.984,62.882,447.984,74.662z"/>
<path style="fill:#CCD1D9;" d="M426.641,106.662c-17.624,0-31.999-14.352-31.999-32c0-17.64,14.375-31.999,31.999-31.999
	c17.655,0,31.999,14.359,31.999,31.999C458.64,92.31,444.297,106.662,426.641,106.662z M426.641,63.999
	c-5.874,0-10.655,4.789-10.655,10.663c0,5.883,4.781,10.672,10.655,10.672c5.906,0,10.688-4.789,10.688-10.672
	C437.329,68.788,432.548,63.999,426.641,63.999z"/>
<rect x="63.987" y="149.334" style="fill:#A0D468;" width="42.671" height="42.662"/>
<rect x="106.654" y="149.334" style="fill:#AC92EB;" width="42.67" height="42.662"/>
<rect x="149.324" y="149.334" style="fill:#A0D468;" width="42.655" height="42.662"/>
<rect x="191.984" y="149.334" style="fill:#AC92EB;" width="42.671" height="42.662"/>
<rect x="234.654" y="149.334" style="fill:#48CFAD;" width="42.679" height="42.662"/>
<rect x="277.334" y="149.334" style="fill:#AC92EB;" width="42.655" height="42.662"/>
<rect x="319.984" y="149.334" style="fill:#48CFAD;" width="42.655" height="42.662"/>
<rect x="63.987" y="191.994" style="fill:#5D9CEC;" width="42.671" height="42.663"/>
<rect x="106.654" y="191.994" style="fill:#48CFAD;" width="42.67" height="42.663"/>
<rect x="149.324" y="191.994" style="fill:#AC92EB;" width="42.655" height="42.663"/>
<rect x="191.984" y="191.994" style="fill:#5D9CEC;" width="42.671" height="42.663"/>
<rect x="234.654" y="191.994" style="fill:#AC92EB;" width="42.679" height="42.663"/>
<rect x="277.334" y="191.994" style="fill:#48CFAD;" width="42.655" height="42.663"/>
<rect x="319.984" y="191.994" style="fill:#A0D468;" width="42.655" height="42.663"/>
<rect x="63.987" y="234.654" style="fill:#EC87C0;" width="42.671" height="42.68"/>
<rect x="106.654" y="234.654" style="fill:#5D9CEC;" width="42.67" height="42.68"/>
<rect x="149.324" y="234.654" style="fill:#A0D468;" width="42.655" height="42.68"/>
<rect x="191.984" y="234.654" style="fill:#EC87C0;" width="42.671" height="42.68"/>
<rect x="234.654" y="234.654" style="fill:#48CFAD;" width="42.679" height="42.68"/>
<rect x="277.334" y="234.654" style="fill:#5D9CEC;" width="42.655" height="42.68"/>
<rect x="319.984" y="234.654" style="fill:#AC92EB;" width="42.655" height="42.68"/>
<rect x="405.334" y="149.334" style="fill:#ED5564;" width="42.654" height="42.662"/>
<rect x="405.334" y="191.994" style="fill:#A0D468;" width="42.654" height="42.663"/>
<rect x="405.334" y="234.654" style="fill:#FFCE54;" width="42.654" height="42.68"/>
<g>
</g>
<g>
</g>
<g>
</g>
<g>
</g>
<g>
</g>
<g>
</g>
<g>
</g>
<g>
</g>
<g>
</g>
<g>
</g>
<g>
</g>
<g>
</g>
<g>
</g>
<g>
</g>
<g>
</g>
</svg>
