<?xml version="1.0" encoding="iso-8859-1"?>
<!-- Generator: Adobe Illustrator 19.0.0, SVG Export Plug-In . SVG Version: 6.00 Build 0)  -->
<svg version="1.1" id="Layer_1" xmlns="http://www.w3.org/2000/svg" xmlns:xlink="http://www.w3.org/1999/xlink" x="0px" y="0px"
	 viewBox="0 0 511.99 511.99" style="enable-background:new 0 0 511.99 511.99;" xml:space="preserve">
<path style="fill:#434A54;" d="M437.319,260.928c-41.171,0-74.654,33.491-74.654,74.662c0,41.155,33.483,74.655,74.654,74.655
	c41.172,0,74.671-33.5,74.671-74.655C511.99,294.419,478.491,260.928,437.319,260.928z"/>
<path style="fill:#CCD1D9;" d="M437.319,298.247c-20.577,0-37.327,16.749-37.327,37.343c0,20.578,16.75,37.327,37.327,37.327
	c20.594,0,37.344-16.749,37.344-37.327C474.663,314.996,457.913,298.247,437.319,298.247z"/>
<path style="fill:#E6E9ED;" d="M437.335,346.246c-3.766,0-7.422-2-9.359-5.531l-42.67-77.881
	c-2.828-5.172-0.938-11.641,4.234-14.485c5.155-2.828,11.64-0.938,14.468,4.234l42.671,77.881
	c2.828,5.156,0.938,11.641-4.234,14.469C440.819,345.824,439.069,346.246,437.335,346.246z"/>
<path style="fill:#434A54;" d="M74.67,260.928C33.499,260.928,0,294.419,0,335.59c0,41.155,33.5,74.655,74.67,74.655
	s74.655-33.5,74.655-74.655C149.325,294.419,115.841,260.928,74.67,260.928z"/>
<path style="fill:#CCD1D9;" d="M74.67,298.247c-20.593,0-37.343,16.749-37.343,37.343c0,20.578,16.75,37.327,37.343,37.327
	c20.578,0,37.328-16.749,37.328-37.327C111.998,314.996,95.248,298.247,74.67,298.247z"/>
<path style="fill:#A0D468;" d="M469.085,193.787c-5.281-24.953-21.516-60.89-68.765-90.42c-4.156-2.594-9.53-2.031-13.046,1.359
	l-21.344,20.515c-3.359,3.234-4.234,8.281-2.141,12.453l10.812,21.625c-19.219-4.484-47.375-9.796-72.827-9.796
	c-15.983,0-29.187,2.141-39.265,6.391c-19.359,8.171-37.078,37.233-44.546,50.874l-164.12-19.626
	c-4.469-0.531-8.781,1.781-10.797,5.797c-1.234,2.453-2.359,6.469-0.641,11.594c2.828,8.437,13.578,21.483,71.983,54.343
	c15.875,8.938,31.625,17.241,43.328,23.288l-87.811,43.859c-4.219,2.094-6.547,6.703-5.75,11.344
	c0.797,4.625,4.516,8.203,9.188,8.781l81.702,10.203l18.75,18.749c2,2,4.703,3.125,7.531,3.125h159.997
	c2.875,0,5.641-1.156,7.641-3.219c2-2.047,3.094-4.828,3.031-7.703c-0.016-0.547-0.953-54.796,32.375-89.076
	c17.952-18.46,42.967-27.882,74.326-27.992c4.734-0.016,8.891-3.156,10.203-7.703C469.147,241.693,474.913,221.208,469.085,193.787z
	"/>
<path style="fill:#8CC153;" d="M217.964,206.787L53.843,187.162c-4.469-0.531-8.781,1.781-10.797,5.797
	c-1.234,2.453-2.359,6.469-0.641,11.594c2.828,8.437,13.578,21.483,71.983,54.343c15.875,8.938,31.625,17.241,43.328,23.288
	C157.716,282.184,160.966,223.583,217.964,206.787z"/>
<path style="fill:#434A54;" d="M374.602,159.319c-19.219-4.484-47.375-9.796-72.827-9.796c-15.983,0-29.187,2.141-39.265,6.391
	c-19.359,8.171-37.078,37.233-44.546,50.874c0,0,26.5,6.953,79.999-7.64C369.962,179.506,374.602,159.319,374.602,159.319z"/>
<g>
	<polygon style="fill:#E6E9ED;" points="218.73,378.245 135.982,293.028 157.716,282.184 249.62,378.245 	"/>
	<path style="fill:#E6E9ED;" d="M245.323,271.599c-17.64,0-31.999,14.336-31.999,31.992c0,17.64,14.359,31.999,31.999,31.999
		c17.656,0,32-14.359,32-31.999C277.323,285.934,262.979,271.599,245.323,271.599z"/>
</g>
<path style="fill:#F5F7FA;" d="M284.87,328.043c4.172,4.156,4.172,10.922,0,15.078c-4.172,4.172-10.922,4.172-15.078,0
	c-4.172-4.156-4.172-10.922,0-15.078C273.948,323.871,280.698,323.871,284.87,328.043z"/>
<path style="fill:#E6E9ED;" d="M393.305,231.021l-66.812,32.938l39.844,40.319c4.469-9.141,10.328-18.125,18.031-26.031
	c10.671-10.976,23.843-18.757,39.357-23.289L393.305,231.021z"/>
<g>
</g>
<g>
</g>
<g>
</g>
<g>
</g>
<g>
</g>
<g>
</g>
<g>
</g>
<g>
</g>
<g>
</g>
<g>
</g>
<g>
</g>
<g>
</g>
<g>
</g>
<g>
</g>
<g>
</g>
</svg>
