<?xml version="1.0" encoding="iso-8859-1"?>
<!-- Generator: Adobe Illustrator 19.0.0, SVG Export Plug-In . SVG Version: 6.00 Build 0)  -->
<svg version="1.1" id="Layer_1" xmlns="http://www.w3.org/2000/svg" xmlns:xlink="http://www.w3.org/1999/xlink" x="0px" y="0px"
	 viewBox="0 0 511.993 511.993" style="enable-background:new 0 0 511.993 511.993;" xml:space="preserve">
<path style="fill:#7F4545;" d="M209.746,379.866l-95.23-130.167c-2.016-2.75-5.219-4.367-8.608-4.367
	c-3.406,0-6.609,1.617-8.609,4.367L2.051,379.866c-2.359,3.25-2.719,7.547-0.891,11.125c1.812,3.593,5.484,5.843,9.5,5.843h190.478
	c4.016,0,7.687-2.25,9.515-5.843C212.465,387.413,212.121,383.116,209.746,379.866z"/>
<path style="fill:#965353;" d="M510.111,495.268L296.774,185.943c-1.984-2.891-5.266-4.609-8.78-4.609
	c-3.5,0-6.781,1.719-8.781,4.609L65.893,495.268c-2.25,3.25-2.5,7.5-0.656,11c1.844,3.531,5.469,5.719,9.438,5.719h426.656
	c3.953,0,7.594-2.188,9.438-5.719C512.611,502.768,512.361,498.518,510.111,495.268z"/>
<path style="fill:#E6E9ED;" d="M296.774,185.943c-1.984-2.891-5.266-4.609-8.78-4.609c-3.5,0-6.781,1.719-8.781,4.609
	l-63.014,91.396l0,0l29.14,21.312l42.655-21.312l42.671,21.312l29.138-21.312L296.774,185.943z"/>
<path style="fill:#CCD1D9;" d="M114.516,249.699c-2.016-2.75-5.219-4.367-8.608-4.367c-3.406,0-6.609,1.617-8.609,4.367
	l-40.874,55.857l28.14,14.438l21.344-10.656l21.326,10.656l28.156-14.406L114.516,249.699z"/>
<circle style="fill:#FFCE54;" cx="95.997" cy="95.996" r="31.999"/>
<g>
	<path style="fill:#F6BB42;" d="M96.001,138.664c-23.515,0-42.655-19.141-42.655-42.663s19.141-42.662,42.655-42.662
		c23.53,0,42.67,19.14,42.67,42.662S119.531,138.664,96.001,138.664z M96.001,74.666c-11.766,0-21.327,9.57-21.327,21.335
		c0,11.766,9.562,21.335,21.327,21.335s21.343-9.569,21.343-21.335C117.344,84.236,107.767,74.666,96.001,74.666z"/>
	<path style="fill:#F6BB42;" d="M96.001,42.667c-5.891,0-10.656-4.773-10.656-10.664V10.669c0-5.891,4.766-10.664,10.656-10.664
		s10.672,4.773,10.672,10.664v21.334C106.673,37.893,101.892,42.667,96.001,42.667z"/>
	<path style="fill:#F6BB42;" d="M96.001,191.998c-5.891,0-10.656-4.773-10.656-10.664v-21.335c0-5.891,4.766-10.664,10.656-10.664
		s10.672,4.773,10.672,10.664v21.335C106.673,187.225,101.892,191.998,96.001,191.998z"/>
</g>
<g>
	<path style="fill:#FFCE54;" d="M64.018,51.245c-3.688,0-7.281-1.914-9.25-5.336L44.096,27.433
		c-2.937-5.101-1.188-11.624,3.906-14.569C53.111,9.92,59.627,11.67,62.58,16.77l10.656,18.476
		c2.952,5.102,1.203,11.625-3.891,14.57C67.658,50.784,65.83,51.245,64.018,51.245z"/>
	<path style="fill:#FFCE54;" d="M138.686,180.569c-3.688,0-7.281-1.914-9.25-5.336l-10.671-18.477
		c-2.938-5.102-1.203-11.624,3.906-14.569c5.093-2.945,11.624-1.195,14.562,3.906l10.672,18.476
		c2.953,5.102,1.203,11.625-3.906,14.57C142.327,180.108,140.483,180.569,138.686,180.569z"/>
</g>
<g>
	<path style="fill:#F6BB42;" d="M40.565,74.674c-1.797,0-3.641-0.461-5.312-1.438L16.768,62.572
		c-5.093-2.945-6.843-9.468-3.905-14.569c2.952-5.102,9.468-6.852,14.577-3.906l18.468,10.672c5.109,2.944,6.859,9.468,3.906,14.569
		C47.846,72.76,44.252,74.674,40.565,74.674z"/>
	<path style="fill:#F6BB42;" d="M169.889,149.335c-1.812,0-3.641-0.461-5.312-1.429l-18.483-10.672
		c-5.094-2.945-6.844-9.469-3.906-14.57c2.953-5.102,9.469-6.844,14.578-3.898l18.468,10.664c5.109,2.945,6.859,9.469,3.906,14.57
		C177.17,147.422,173.576,149.335,169.889,149.335z"/>
</g>
<g>
	<path style="fill:#FFCE54;" d="M32.003,106.665L32.003,106.665H10.676c-5.891,0-10.672-4.773-10.672-10.664
		s4.781-10.663,10.672-10.663l0,0h21.327c5.891,0,10.671,4.772,10.671,10.663S37.893,106.665,32.003,106.665z"/>
	<path style="fill:#FFCE54;" d="M181.342,106.673h-0.016l-21.328-0.008c-5.89,0-10.655-4.773-10.655-10.664
		s4.766-10.663,10.655-10.663l0,0h21.344c5.891,0,10.655,4.772,10.655,10.663S187.232,106.673,181.342,106.673z"/>
</g>
<g>
	<path style="fill:#F6BB42;" d="M22.112,149.335c-3.688,0-7.266-1.913-9.249-5.335c-2.938-5.102-1.188-11.625,3.905-14.57
		l18.484-10.664c5.094-2.945,11.624-1.195,14.562,3.906c2.953,5.102,1.203,11.625-3.906,14.57L27.44,147.906
		C25.753,148.874,23.925,149.335,22.112,149.335z"/>
	<path style="fill:#F6BB42;" d="M151.436,74.674c-3.688,0-7.266-1.914-9.25-5.336c-2.938-5.102-1.188-11.625,3.906-14.569
		l18.483-10.672c5.094-2.945,11.625-1.195,14.562,3.906c2.953,5.102,1.203,11.624-3.906,14.569l-18.466,10.664
		C155.077,74.213,153.249,74.674,151.436,74.674z"/>
</g>
<g>
	<path style="fill:#FFCE54;" d="M53.33,180.569c-1.812,0-3.641-0.461-5.328-1.43c-5.094-2.945-6.843-9.469-3.906-14.57
		l10.672-18.476c2.953-5.102,9.469-6.852,14.578-3.906c5.094,2.945,6.843,9.468,3.891,14.569l-10.656,18.477
		C60.596,178.655,57.018,180.569,53.33,180.569z"/>
	<path style="fill:#FFCE54;" d="M127.999,51.245c-1.812,0-3.655-0.461-5.327-1.43c-5.109-2.945-6.844-9.469-3.906-14.57
		l10.671-18.476c2.938-5.101,9.469-6.851,14.562-3.906c5.109,2.953,6.859,9.477,3.906,14.577l-10.672,18.469
		C135.265,49.331,131.671,51.245,127.999,51.245z"/>
</g>
<path style="opacity:0.1;fill:#FFFFFF;enable-background:new    ;" d="M65.893,495.268l213.32-309.325
	c2-2.891,5.281-4.609,8.781-4.609c3.515,0,6.796,1.719,8.78,4.609l1.891,2.734L87.22,495.268c-2.25,3.25-2.5,7.5-0.656,11
	c1.844,3.531,5.484,5.719,9.438,5.719H74.674c-3.969,0-7.609-2.188-9.438-5.719C63.393,502.768,63.643,498.518,65.893,495.268z"/>
<path style="fill:#ED5564;" d="M369.896,130.812l-13.483-13.477l13.796-13.796c3.047-3.047,3.953-7.633,2.312-11.625
	c-1.656-3.983-5.547-6.577-9.859-6.577h-74.668c-5.891,0-10.656,4.772-10.656,10.663v42.663c0,5.891,4.766,10.671,10.656,10.671
	h74.668h0.016c5.891,0,10.672-4.78,10.672-10.671C373.35,135.555,372.006,132.758,369.896,130.812z"/>
<path style="fill:#434A54;" d="M287.994,191.998c-5.891,0-10.656-4.773-10.656-10.664V96.001c0-5.891,4.766-10.663,10.656-10.663
	s10.671,4.772,10.671,10.663v85.333C298.665,187.225,293.884,191.998,287.994,191.998z"/>
<path style="opacity:0.1;fill:#FFFFFF;enable-background:new    ;" d="M11.816,390.991c-1.812-3.578-1.469-7.875,0.906-11.125
	l95.231-130.167c0.89-1.211,2.015-2.211,3.28-2.938c-1.594-0.93-3.437-1.43-5.327-1.43c-3.406,0-6.609,1.617-8.609,4.367
	L2.051,379.866c-2.359,3.25-2.719,7.547-0.891,11.125c1.812,3.593,5.484,5.843,9.5,5.843h10.671
	C17.315,396.835,13.643,394.585,11.816,390.991z"/>
<g>
</g>
<g>
</g>
<g>
</g>
<g>
</g>
<g>
</g>
<g>
</g>
<g>
</g>
<g>
</g>
<g>
</g>
<g>
</g>
<g>
</g>
<g>
</g>
<g>
</g>
<g>
</g>
<g>
</g>
</svg>
