<?xml version="1.0" encoding="iso-8859-1"?>
<!-- Generator: Adobe Illustrator 19.0.0, SVG Export Plug-In . SVG Version: 6.00 Build 0)  -->
<svg version="1.1" id="Capa_1" xmlns="http://www.w3.org/2000/svg" xmlns:xlink="http://www.w3.org/1999/xlink" x="0px" y="0px"
	 viewBox="0 0 512 512" style="enable-background:new 0 0 512 512;" xml:space="preserve">
<path style="fill:#CDD6E0;" d="M335.904,49.12c-6.155-6.187-14.517-9.675-23.243-9.675H199.349c-8.725,0-17.109,3.488-23.264,9.675
	l-41.547,41.803h242.891L335.904,49.12z"/>
<path style="fill:#40596B;" d="M472.384,65.184h-41.376c-4.704,0-8.533,3.819-8.533,8.523v17.216h58.432V73.707
	C480.907,69.003,477.099,65.184,472.384,65.184"/>
<rect y="182.187" style="fill:#ACB3BA;" width="512" height="19.061"/>
<g>
	<path style="fill:#F2F2F2;" d="M0,451.221c0,11.776,9.557,21.333,21.333,21.333h469.333c11.787,0,21.333-9.557,21.333-21.333
		V201.248H0V451.221z"/>
	<path style="fill:#F2F2F2;" d="M512,112.256c0-11.787-9.547-21.333-21.333-21.333H21.333C9.557,90.923,0,100.469,0,112.256v69.92
		h512V112.256z"/>
</g>
<path style="fill:#FF7058;" d="M82.336,142.24H44.48c-5.899,0-10.667-4.768-10.667-10.667c0-5.899,4.768-10.667,10.667-10.667
	h37.856c5.888,0,10.667,4.768,10.667,10.667C93.003,137.472,88.224,142.24,82.336,142.24"/>
<path style="fill:#40596B;" d="M390.869,281.739c0,74.485-60.384,134.859-134.869,134.859s-134.869-60.373-134.869-134.859
	S181.515,146.88,256,146.88S390.869,207.253,390.869,281.739"/>
<path style="fill:#FFFFFF;" d="M256,378.933c-53.589,0-97.195-43.605-97.195-97.195s43.605-97.195,97.195-97.195
	c53.579,0,97.195,43.605,97.195,97.195S309.579,378.933,256,378.933"/>
<path style="fill:#84DBFF;" d="M256,345.088c-34.933,0-63.349-28.427-63.349-63.36s28.416-63.339,63.349-63.339
	s63.339,28.405,63.339,63.339S290.933,345.088,256,345.088"/>
<path style="fill:#54C0EB;" d="M256,321.227c-21.771,0-39.488-17.717-39.488-39.499c0-21.771,17.717-39.477,39.488-39.477
	c21.771,0,39.488,17.707,39.488,39.477C295.488,303.509,277.771,321.227,256,321.227"/>
<path style="fill:#FFFFFF;" d="M233.003,275.221c-9.099,0-16.501-7.392-16.501-16.491c0-9.088,7.403-16.48,16.501-16.48
	c9.088,0,16.491,7.392,16.491,16.48C249.493,267.829,242.08,275.221,233.003,275.221"/>
<g>
</g>
<g>
</g>
<g>
</g>
<g>
</g>
<g>
</g>
<g>
</g>
<g>
</g>
<g>
</g>
<g>
</g>
<g>
</g>
<g>
</g>
<g>
</g>
<g>
</g>
<g>
</g>
<g>
</g>
</svg>
