<?xml version="1.0" encoding="iso-8859-1"?>
<!-- Generator: Adobe Illustrator 19.0.0, SVG Export Plug-In . SVG Version: 6.00 Build 0)  -->
<svg version="1.1" id="Capa_1" xmlns="http://www.w3.org/2000/svg" xmlns:xlink="http://www.w3.org/1999/xlink" x="0px" y="0px"
	 viewBox="0 0 512 512" style="enable-background:new 0 0 512 512;" xml:space="preserve">
<path style="fill:#F2F2F2;" d="M490.667,512H21.333C9.557,512,0,502.453,0,490.667V21.333C0,9.547,9.557,0,21.333,0h469.333
	C502.453,0,512,9.547,512,21.333v469.333C512,502.453,502.453,512,490.667,512"/>
<rect x="52" y="285.984" style="fill:#FFD15C;" width="409.963" height="98.731"/>
<rect x="52" y="51.253" style="fill:#84DBFF;" width="409.963" height="333.44"/>
<rect x="52" y="283.435" style="fill:#FFD15C;" width="409.963" height="101.269"/>
<path style="fill:#54C0EB;" d="M52,258.816v53.248c109.664,40.043,243.349-35.712,409.963,9.813v-72.896
	C295.349,294.475,161.664,218.752,52,258.816"/>
<path style="fill:#4CDBC4;" d="M169.013,347.061l-8.053-1.397c4.576-26.208-4.203-102.251-4.288-103.019l8.139-0.939
	C165.163,244.875,173.792,319.712,169.013,347.061"/>
<path style="fill:#F1543F;" d="M152.491,168.96c0,0,55.509-19.829,89.387,34.251c0,0-11.52,14.037-8.277,27.019
	C233.589,230.229,221.333,161.045,152.491,168.96"/>
<path style="fill:#CDD6E0;" d="M152.491,168.96c44.331,34.955,50.837,78.933,50.837,78.933
	c10.816-15.499,30.272-17.664,30.272-17.664c-0.085-0.459-0.203-0.896-0.288-1.355C231.264,219.627,215.883,161.664,152.491,168.96"
	/>
<path style="fill:#F1543F;" d="M152.491,168.96l8.245,80.107c14.411-3.253,42.581-1.163,42.581-1.163
	S196.821,203.915,152.491,168.96"/>
<path style="fill:#FF7058;" d="M153.397,168.96c0,0-59.531-1.397-82.464,62.56c0,0,14.4,10.016,13.771,23.787
	C84.693,255.317,82.933,183.541,153.397,168.96"/>
<path style="fill:#F2F2F2;" d="M153.397,168.96c-37.259,48.651-34.837,93.813-34.837,93.813
	c-13.963-11.669-33.867-7.456-33.867-7.456c-0.011-0.501,0.021-0.939,0.011-1.44C84.885,244.171,88.523,182.4,153.397,168.96"/>
<path style="fill:#FF7058;" d="M153.397,168.96l7.339,80.107c-15.061,1.525-42.165,13.707-42.165,13.707
	S116.139,217.6,153.397,168.96"/>
<g>
	<path style="fill:#FFFFFF;" d="M429.877,115.104c0,17.835-14.453,32.288-32.288,32.288s-32.267-14.453-32.267-32.288
		s14.443-32.288,32.267-32.288S429.877,97.269,429.877,115.104"/>
	<path style="fill:#FFFFFF;" d="M397.579,64.789c-1.376,0-2.453,1.109-2.453,2.453v9.344c0,1.376,1.109,2.453,2.453,2.453
		s2.453-1.088,2.453-2.453v-9.333C400.053,65.899,398.933,64.789,397.579,64.789"/>
	<path style="fill:#FFFFFF;" d="M397.579,151.147c-1.376,0-2.453,1.109-2.453,2.453v9.333c0,1.376,1.109,2.475,2.453,2.475
		s2.453-1.109,2.453-2.475V153.6C400.053,152.245,398.933,151.147,397.579,151.147"/>
	<path style="fill:#FFFFFF;" d="M433.141,79.52c-0.96-0.96-2.507-0.96-3.467,0l-6.592,6.581c-0.971,0.981-0.971,2.539,0,3.499
		c0.96,0.96,2.496,0.96,3.488,0l6.571-6.603C434.123,82.037,434.123,80.48,433.141,79.52"/>
	<path style="fill:#FFFFFF;" d="M372.096,140.587c-0.96-0.96-2.528-0.96-3.488,0l-6.581,6.603c-0.981,0.96-0.981,2.517,0,3.477
		c0.96,0.981,2.507,0.981,3.477,0l6.592-6.581C373.067,143.125,373.067,141.547,372.096,140.587"/>
	<path style="fill:#FFFFFF;" d="M447.893,115.104c0-1.376-1.109-2.475-2.453-2.475h-9.333c-1.376,0-2.453,1.109-2.453,2.475
		c0,1.355,1.099,2.453,2.453,2.453h9.333C446.795,117.557,447.893,116.459,447.893,115.104"/>
	<path style="fill:#FFFFFF;" d="M361.547,115.104c0-1.376-1.109-2.475-2.453-2.475h-9.333c-1.365,0-2.453,1.109-2.453,2.475
		c0,1.355,1.109,2.453,2.453,2.453h9.333C360.427,117.557,361.547,116.459,361.547,115.104"/>
	<path style="fill:#FFFFFF;" d="M433.141,150.667c0.981-0.96,0.981-2.517,0-3.477l-6.571-6.603c-0.992-0.96-2.528-0.96-3.488,0
		c-0.971,0.981-0.971,2.517,0,3.499l6.592,6.581C430.635,151.627,432.213,151.627,433.141,150.667"/>
	<path style="fill:#FFFFFF;" d="M372.096,89.6c0.971-0.96,0.971-2.517,0-3.477l-6.592-6.603c-0.971-0.96-2.517-0.96-3.477,0
		c-0.981,0.96-0.981,2.517,0,3.499l6.581,6.581C369.557,90.56,371.136,90.56,372.096,89.6"/>
</g>
<g>
</g>
<g>
</g>
<g>
</g>
<g>
</g>
<g>
</g>
<g>
</g>
<g>
</g>
<g>
</g>
<g>
</g>
<g>
</g>
<g>
</g>
<g>
</g>
<g>
</g>
<g>
</g>
<g>
</g>
</svg>
