<?xml version="1.0" encoding="iso-8859-1"?>
<!-- Generator: Adobe Illustrator 19.0.0, SVG Export Plug-In . SVG Version: 6.00 Build 0)  -->
<svg version="1.1" id="Layer_1" xmlns="http://www.w3.org/2000/svg" xmlns:xlink="http://www.w3.org/1999/xlink" x="0px" y="0px"
	 viewBox="0 0 501.551 501.551" style="enable-background:new 0 0 501.551 501.551;" xml:space="preserve">
<path style="fill:#FF7058;" d="M478.563,266.449c-2.09,129.567-108.669,235.102-239.282,235.102C106.58,501.551,0,393.927,0,262.269
	C0,131.657,104.49,25.078,235.102,22.988v243.461H478.563z"/>
<path style="fill:#FFD15C;" d="M235.102,266.449h199.575c-2.09,105.535-88.816,190.171-194.351,190.171
	c-107.624,0-195.396-87.771-195.396-195.396c0-105.535,84.637-191.216,190.171-194.351V266.449z"/>
<circle style="fill:#F8B64C;" cx="114.939" cy="205.845" r="15.673"/>
<g>
	<path style="fill:#F2F2F2;" d="M191.216,118.073c0-10.449-8.359-17.763-17.763-17.763c-10.449,0-17.763,8.359-17.763,17.763
		c0,3.135,4.18,5.224,10.449,6.269v17.763h15.673v-17.763C187.037,124.343,191.216,122.253,191.216,118.073z"/>
	<path style="fill:#F2F2F2;" d="M153.6,405.42c6.269-6.269,6.269-16.718,0-22.988c-6.269-6.269-16.718-6.269-22.988,0
		c-2.09,2.09-1.045,6.269,2.09,11.494l-11.494,11.494l10.449,9.404l11.494-11.494C147.331,406.465,151.51,407.51,153.6,405.42z"/>
</g>
<g>
	<path style="fill:#FF7058;" d="M275.853,317.649c-9.404,0-16.718,7.314-16.718,16.718s7.314,16.718,16.718,16.718
		s16.718-7.314,16.718-16.718C292.571,324.963,285.257,317.649,275.853,317.649z M275.853,344.816
		c-6.269,0-10.449-4.18-10.449-10.449s4.18-10.449,10.449-10.449c6.269,0,10.449,4.18,10.449,10.449
		S281.078,344.816,275.853,344.816z"/>
	<path style="fill:#FF7058;" d="M109.714,323.918c-8.359,0-15.673,7.314-15.673,15.673c0,8.359,7.314,15.673,15.673,15.673
		s15.673-7.314,15.673-15.673C124.343,331.233,118.073,323.918,109.714,323.918z M109.714,348.996c-5.224,0-9.404-4.18-9.404-9.404
		s4.18-9.404,9.404-9.404c5.224,0,9.404,4.18,9.404,9.404S114.939,348.996,109.714,348.996z"/>
	<path style="fill:#FF7058;" d="M403.331,115.984l31.347-31.347c40.751,41.796,65.829,98.22,66.874,160.914H273.763L403.331,115.984
		z"/>
</g>
<path style="fill:#FFD15C;" d="M273.763,245.551l129.567-129.567c32.392,33.437,52.245,79.412,53.29,129.567H273.763z"/>
<path style="fill:#F2F2F2;" d="M440.947,229.878c7.314-6.269,8.359-17.763,2.09-25.078c-6.269-7.314-17.763-8.359-25.078-2.09
	c-3.135,2.09-2.09,7.314,1.045,12.539l-13.584,11.494l9.404,11.494l13.584-11.494C433.633,229.878,438.857,231.967,440.947,229.878z
	"/>
<g>
	<path style="fill:#FF7058;" d="M342.727,203.755c-9.404,0-16.718,7.314-16.718,16.718c0,9.404,7.314,16.718,16.718,16.718
		c9.404,0,16.718-7.314,16.718-16.718C359.445,211.069,352.131,203.755,342.727,203.755z M342.727,231.967
		c-6.269,0-10.449-4.18-10.449-10.449s5.224-10.449,10.449-10.449c6.269,0,10.449,5.224,10.449,10.449
		S347.951,231.967,342.727,231.967z"/>
	<path style="fill:#FF7058;" d="M394.971,157.78c-9.404,0-16.718,7.314-16.718,16.718c0,9.404,7.314,16.718,16.718,16.718
		c9.404,0,16.718-7.314,16.718-16.718C411.69,165.094,404.376,157.78,394.971,157.78z M394.971,185.992
		c-6.269,0-10.449-5.224-10.449-10.449c0-6.269,4.18-10.449,10.449-10.449s10.449,4.18,10.449,10.449
		C405.42,180.767,401.241,185.992,394.971,185.992z"/>
</g>
<g>
	<circle style="fill:#F8B64C;" cx="202.71" cy="355.265" r="19.853"/>
	<circle style="fill:#F8B64C;" cx="376.163" cy="334.367" r="19.853"/>
</g>
<path style="fill:#FF7058;" d="M385.567,98.22L256,227.788V0c62.694,1.045,119.118,26.122,160.914,66.873L385.567,98.22z"/>
<path style="fill:#FFD15C;" d="M385.567,98.22L256,227.788V44.931C306.155,45.976,351.086,65.829,385.567,98.22z"/>
<path style="fill:#FF7058;" d="M341.682,82.547c-9.404,0-16.718,7.314-16.718,16.718c0,9.404,7.314,16.718,16.718,16.718
	c9.404,0,16.718-7.314,16.718-16.718S351.086,82.547,341.682,82.547z M341.682,109.714c-6.269,0-10.449-4.18-10.449-10.449
	s4.18-10.449,10.449-10.449s10.449,5.224,10.449,10.449C352.131,105.535,347.951,109.714,341.682,109.714z"/>
<g>
	<circle style="fill:#F8B64C;" cx="288.392" cy="147.331" r="19.853"/>
	<path style="fill:#F8B64C;" d="M303.02,71.053c-1.045,3.135-4.18,5.224-7.314,4.18c-10.449-3.135-21.943,3.135-24.033,13.584
		c-1.045,3.135-4.18,5.224-7.314,4.18c-3.135-1.045-5.224-4.18-4.18-7.314c5.224-16.718,21.943-26.122,38.661-21.943
		C301.975,64.784,304.065,67.918,303.02,71.053z"/>
	<path style="fill:#F8B64C;" d="M339.592,322.873c-3.135,0-5.224-3.135-5.224-6.269c2.09-10.449-5.224-20.898-16.718-22.988
		c-3.135,0-5.224-3.135-5.224-6.269s3.135-5.224,6.269-5.224c16.718,3.135,28.212,18.808,26.122,35.527
		C345.861,321.829,342.727,323.918,339.592,322.873z"/>
	<circle style="fill:#F8B64C;" cx="248.686" cy="288.392" r="14.629"/>
</g>
<path style="fill:#F2F2F2;" d="M78.367,306.155c-9.404-1.045-15.673-9.404-13.584-18.808c1.045-9.404,9.404-15.673,18.808-13.584
	c3.135,0,4.18,5.224,5.224,10.449l15.673,2.09l-2.09,13.584l-16.718-2.09C84.637,303.02,81.502,307.2,78.367,306.155z"/>
<g>
	<circle style="fill:#F8B64C;" cx="239.282" cy="412.735" r="20.898"/>
	<path style="fill:#F8B64C;" d="M297.796,377.208c-3.135,0-5.224,3.135-4.18,6.269c2.09,9.404-5.224,18.808-14.629,20.898
		c-3.135,0-5.224,3.135-4.18,6.269c0,3.135,3.135,5.224,6.269,4.18c15.673-2.09,26.122-16.718,24.033-32.392
		C304.065,379.298,300.931,377.208,297.796,377.208z"/>
	<path style="fill:#F8B64C;" d="M138.971,252.865c-3.135,0-5.224,3.135-4.18,6.269c2.09,9.404-5.224,18.808-14.629,20.898
		c-3.135,0-5.224,3.135-4.18,6.269c0,3.135,3.135,5.224,6.269,4.18c15.673-2.09,26.122-16.718,24.033-32.392
		C145.241,253.91,142.106,251.82,138.971,252.865z"/>
	<path style="fill:#F8B64C;" d="M224.653,187.037c-2.09,2.09-6.269,2.09-8.359-1.045c-7.314-8.359-19.853-9.404-28.212-2.09
		c-2.09,2.09-6.269,2.09-8.359-1.045c-2.09-2.09-2.09-6.269,1.045-8.359c13.584-11.494,32.392-9.404,43.886,3.135
		C226.743,181.812,226.743,184.947,224.653,187.037z"/>
	<path style="fill:#F8B64C;" d="M213.159,270.629c-2.09,2.09-6.269,2.09-8.359-1.045c-7.314-8.359-19.853-9.404-28.212-2.09
		c-2.09,2.09-6.269,2.09-8.359-1.045c-2.09-2.09-2.09-6.269,1.045-8.359c13.584-11.494,32.392-9.404,43.886,3.135
		C216.294,265.404,215.249,268.539,213.159,270.629z"/>
</g>
<g>
</g>
<g>
</g>
<g>
</g>
<g>
</g>
<g>
</g>
<g>
</g>
<g>
</g>
<g>
</g>
<g>
</g>
<g>
</g>
<g>
</g>
<g>
</g>
<g>
</g>
<g>
</g>
<g>
</g>
</svg>
