<?xml version="1.0" encoding="iso-8859-1"?>
<!-- Generator: Adobe Illustrator 19.0.0, SVG Export Plug-In . SVG Version: 6.00 Build 0)  -->
<svg version="1.1" id="Capa_1" xmlns="http://www.w3.org/2000/svg" xmlns:xlink="http://www.w3.org/1999/xlink" x="0px" y="0px"
	 viewBox="0 0 512 512" style="enable-background:new 0 0 512 512;" xml:space="preserve">
<g>
	<rect x="35.2" y="450.133" style="fill:#CDD6E0;" width="71.467" height="23.467"/>
	<rect x="405.333" y="450.133" style="fill:#CDD6E0;" width="71.467" height="23.467"/>
</g>
<path style="fill:#F2F2F2;" d="M490.667,450.133H21.333C9.6,450.133,0,440.533,0,428.8V290.133C0,278.4,9.6,268.8,21.333,268.8
	h469.333c11.733,0,21.333,9.6,21.333,21.333V428.8C512,440.533,502.4,450.133,490.667,450.133z"/>
<rect x="35.2" y="304" style="fill:#CDD6E0;" width="441.6" height="109.867"/>
<circle style="fill:#40596B;" cx="105.6" cy="358.4" r="38.4"/>
<circle style="fill:#FF7058;" cx="420.267" cy="358.4" r="24.533"/>
<circle style="fill:#FFD15C;" cx="353.067" cy="358.4" r="24.533"/>
<circle style="fill:#3DC9AE;" cx="284.8" cy="358.4" r="24.533"/>
<g>
	<path style="fill:#CDD6E0;" d="M369.067,123.733c-62.933-62.933-164.267-62.933-226.133,0l-16-16
		c71.467-71.467,186.667-71.467,258.133,0L369.067,123.733z"/>
	<path style="fill:#CDD6E0;" d="M338.133,154.667c-45.867-45.867-119.467-45.867-164.267,0l-16-16c54.4-54.4,141.867-54.4,195.2,0
		L338.133,154.667z"/>
	<path style="fill:#CDD6E0;" d="M307.2,185.6c-28.8-28.8-74.667-28.8-102.4,0l-16-14.933c37.333-37.333,97.067-37.333,133.333,0
		L307.2,185.6z"/>
</g>
<g>
	<path style="fill:#ACB3BA;" d="M102.4,55.467c0-9.6-7.467-17.067-17.067-17.067s-16,8.533-16,17.067c0,5.333,2.133,9.6,6.4,12.8
		v199.467h21.333V68.267C100.267,65.067,102.4,60.8,102.4,55.467z"/>
	<path style="fill:#ACB3BA;" d="M442.667,55.467c0-9.6-7.467-17.067-17.067-17.067c-9.6,0-17.067,7.467-17.067,17.067
		c0,5.333,2.133,9.6,6.4,12.8v199.467h21.333V68.267C440.533,65.067,442.667,60.8,442.667,55.467z"/>
</g>
<g>
</g>
<g>
</g>
<g>
</g>
<g>
</g>
<g>
</g>
<g>
</g>
<g>
</g>
<g>
</g>
<g>
</g>
<g>
</g>
<g>
</g>
<g>
</g>
<g>
</g>
<g>
</g>
<g>
</g>
</svg>
