<?xml version="1.0" encoding="iso-8859-1"?>
<!-- Generator: Adobe Illustrator 19.0.0, SVG Export Plug-In . SVG Version: 6.00 Build 0)  -->
<svg version="1.1" id="Layer_1" xmlns="http://www.w3.org/2000/svg" xmlns:xlink="http://www.w3.org/1999/xlink" x="0px" y="0px"
	 viewBox="0 0 511.988 511.988" style="enable-background:new 0 0 511.988 511.988;" xml:space="preserve">
<path style="fill:#8CC153;" d="M317.101,36.099c-14.53-17.812-37.342,28.453-69.67,24.297
	c-32.327-4.172-25.187-52.843-101.779-2.266c-57.779,38.171-2.734,66.732-15.187,71.076c-12.438,4.328-72.186,0.578-73.779,45.749
	c-1.609,45.171,117.638,123.692,117.638,123.692l112.45-45.553C286.774,253.094,331.633,53.896,317.101,36.099z"/>
<path style="fill:#A0D468;" d="M511.488,136.175c-8.891-39.999-71.107-17.953-84.889-17.953c-13.766,0,39.561-42.827-27.297-58.967
	c-88.607-21.422-73.326,19.999-106.668,33.843c-33.327,13.843-64.687-20.515-77.139,0c-12.438,20.515,66.483,185.127,66.483,185.127
	l125.512,5.672C407.49,283.897,520.379,176.19,511.488,136.175z"/>
<path style="fill:#FFCE54;" d="M191.995,223.986c0-35.343,28.656-63.999,63.999-63.999s63.998,28.656,63.998,63.999
	c0,35.358-28.655,64.005-63.998,64.005S191.995,259.344,191.995,223.986z"/>
<path style="fill:#434A54;" d="M410.459,152.268c-3.094,5.015-9.672,6.562-14.688,3.453c-5-3.093-6.547-9.671-3.453-14.687
	c3.109-5,9.672-6.547,14.688-3.453C412.006,140.691,413.568,147.253,410.459,152.268z"/>
<path style="fill:#FC6E51;" d="M418.678,220.064c-15.5,25.046-48.358,32.796-73.42,17.296
	c-25.047-15.499-32.781-48.374-17.281-73.42s48.374-32.78,73.42-17.281C426.443,162.159,434.178,195.017,418.678,220.064z"/>
<path style="fill:#ED5564;" d="M74.81,241.641c51.046,29.389,116.263,11.828,145.653-39.233L35.577,95.989
	C6.187,147.05,23.749,212.267,74.81,241.641z"/>
<path style="fill:#DA4453;" d="M101.419,195.424c25.516,14.703,58.124,5.906,72.827-19.609l-92.451-53.218
	C67.107,148.128,75.889,180.737,101.419,195.424z"/>
<path style="fill:#AC92EB;" d="M0,202.658v42.671c0,94.849,51.577,177.627,128.216,221.862c-0.141,0.688-0.219,1.406-0.219,2.141
	c0,5.891,4.781,10.656,10.672,10.656h14.858h204.949h14.858c5.891,0,10.655-4.766,10.655-10.656c0-0.734-0.078-1.453-0.203-2.141
	c76.624-44.234,128.201-127.013,128.201-221.862v-42.671L0,202.658L0,202.658z"/>
<path style="fill:#967ADC;" d="M0,223.986v21.343h31.999c0,5.891,4.781,10.656,10.672,10.656s10.672-4.766,10.672-10.656H74.67
	c0,5.891,4.781,10.656,10.672,10.656s10.656-4.766,10.656-10.656h21.343c0,5.891,4.766,10.656,10.656,10.656
	c5.89,0,10.672-4.766,10.672-10.656h21.327c0,5.891,4.781,10.656,10.672,10.656s10.672-4.766,10.672-10.656h21.327
	c0,5.891,4.781,10.656,10.672,10.656s10.655-4.766,10.655-10.657h21.344c0,5.891,4.766,10.656,10.656,10.656
	s10.672-4.766,10.672-10.656h21.327c0,5.891,4.781,10.656,10.672,10.656c5.89,0,10.671-4.766,10.671-10.656h21.328
	c0,5.891,4.781,10.656,10.672,10.656s10.656-4.766,10.656-10.656h21.343c0,5.891,4.766,10.656,10.655,10.656
	c5.891,0,10.672-4.766,10.672-10.656h21.328c0,5.891,4.781,10.656,10.672,10.656s10.672-4.766,10.672-10.656h21.327
	c0,5.891,4.781,10.656,10.671,10.656c5.891,0,10.656-4.766,10.656-10.656h32v-21.343H0V223.986z"/>
<g>
</g>
<g>
</g>
<g>
</g>
<g>
</g>
<g>
</g>
<g>
</g>
<g>
</g>
<g>
</g>
<g>
</g>
<g>
</g>
<g>
</g>
<g>
</g>
<g>
</g>
<g>
</g>
<g>
</g>
</svg>
