<?xml version="1.0" encoding="iso-8859-1"?>
<!-- Generator: Adobe Illustrator 19.0.0, SVG Export Plug-In . SVG Version: 6.00 Build 0)  -->
<svg version="1.1" id="Capa_1" xmlns="http://www.w3.org/2000/svg" xmlns:xlink="http://www.w3.org/1999/xlink" x="0px" y="0px"
	 viewBox="0 0 512.014 512.014" style="enable-background:new 0 0 512.014 512.014;" xml:space="preserve">
<path style="fill:#EC9922;" d="M489.199,225.237L271.311,9.941c-6.576-6.368-15.328-10.096-24.416-9.936L84.255,1.317
	c-9.424-0.032-17.936,3.856-24.112,10.096c-0.384,0.048-0.672,0.24-0.768,0.704c-5.792,6.208-9.184,14.528-9.264,23.568
	l0.688,162.624c0.016,9.184,3.616,17.888,10.192,24.256l217.984,215.424c13.376,13.408,35.12,13.216,48.528-0.16l115.264-116.736
	l46.688-47.184C502.767,260.389,502.591,238.645,489.199,225.237z M127.871,109.989c-14.544,9.424-34,5.264-43.328-9.136
	c-9.408-14.544-5.248-33.984,9.296-43.408s34-5.264,43.408,9.28C146.559,81.125,142.399,100.581,127.871,109.989z"/>
<path style="fill:#FDBC4B;" d="M247.519,38.229L88.399,4.565c-10.432-2.24-20.704,0.528-28.256,6.864
	c-0.384,0.032-0.672,0.224-0.768,0.688c-5.68,4.496-9.904,10.912-11.568,18.736L13.439,189.829
	c-1.92,9.008-0.192,18.32,4.752,25.952l181.728,280.608c10.256,15.84,31.6,20.4,47.44,10.144l193.504-125.312
	c15.84-10.256,20.4-31.6,10.144-47.44L269.263,53.173C264.319,45.541,256.543,40.149,247.519,38.229z M93.839,57.445
	c14.544-9.424,34-5.264,43.408,9.28c9.312,14.4,5.152,33.856-9.376,43.264c-14.544,9.424-34,5.264-43.328-9.136
	C75.135,86.309,79.295,66.869,93.839,57.445z"/>
<path style="fill:#FCCC6D;" d="M286.415,79.653l164.56,254.112c10.256,15.84,5.696,37.184-10.144,47.44l-72.272,46.8
	c-12.384,8.016-29.36,3.888-36.128-9.712c-6.128-11.36-1.184-25.808,9.904-32.976l43.184-27.968
	c10.08-6.528,12.496-19.536,5.52-28.704l-1.312-2.016c-6.096-10.352-20.048-13.584-30.4-6.88l-72.56,46.992
	c-12.24,7.92-29.024,4.08-35.936-9.424c-6.176-11.744-1.04-25.888,9.904-32.976l72.848-47.184
	c10.08-6.528,12.496-19.536,5.248-29.136l-1.024-1.584c-6.288-10.64-20.048-13.584-30.4-6.88l-91.28,59.12
	c-12.384,8.016-29.36,3.888-35.936-9.424c-6.176-11.744-1.36-26.096,9.728-33.264l91.568-59.296
	c10.08-6.528,12.48-19.536,5.52-28.704l-1.12-1.728c-6.288-10.64-20.048-13.584-30.4-6.88l-28.512,18.464
	c-12.384,8.016-29.36,3.888-36.272-9.616c-5.984-11.456-1.04-25.888,10.048-33.072L286.415,79.653z"/>
<g>
	<path style="fill:#FFFFFF;" d="M144.239,162.677l10.496,13.2c-4.176,3.904-6.544,7.872-7.072,11.904
		c-0.544,4.032,0.624,8.24,3.472,12.64c3.024,4.656,6.272,7.536,9.776,8.624s6.576,0.768,9.216-0.944
		c1.696-1.104,2.816-2.528,3.36-4.288s0.464-4.176-0.272-7.216c-0.512-2.08-1.968-6.608-4.368-13.616
		c-3.104-9.008-4.272-15.984-3.488-20.928c1.088-6.96,4.48-12.272,10.144-15.952c3.648-2.368,7.744-3.536,12.256-3.536
		c4.528,0.016,8.88,1.44,13.072,4.256s8.064,6.976,11.632,12.496c5.824,8.992,8.24,17.056,7.248,24.16
		c-1.008,7.104-4.72,12.896-11.152,17.392l-10.016-14.064c3.28-3.008,5.072-6.048,5.36-9.136s-0.88-6.656-3.52-10.736
		c-2.72-4.208-5.728-6.944-8.992-8.192c-2.096-0.816-4.08-0.624-5.936,0.576c-1.696,1.104-2.688,2.752-2.96,4.976
		c-0.352,2.816,0.928,8.288,3.824,16.416c2.896,8.112,4.56,14.448,4.96,18.96c0.416,4.528-0.304,8.736-2.16,12.64
		c-1.84,3.904-5.04,7.328-9.568,10.256c-4.112,2.656-8.688,4.016-13.76,4.048c-5.056,0.032-9.824-1.456-14.272-4.512
		c-4.448-3.04-8.688-7.68-12.72-13.904c-5.872-9.072-8.288-17.376-7.232-24.96C132.607,175.669,136.831,168.821,144.239,162.677z"/>
	<path style="fill:#FFFFFF;" d="M208.431,312.917l-10.192-15.744l12.24-16.816l-18.56-28.656l-20.112,4.624l-9.952-15.36
		l89.792-18.512l9.92,15.312L208.431,312.917z M219.535,267.893l20.208-27.104l-32.88,7.552L219.535,267.893z"/>
	<path style="fill:#FFFFFF;" d="M213.647,320.981l71.104-46.048l9.376,14.48l-59.024,38.224l23.312,36l-12.08,7.824L213.647,320.981
		z"/>
	<path style="fill:#FFFFFF;" d="M253.023,381.781l71.696-46.432l34.432,53.168l-12.128,7.856l-25.056-38.688l-15.888,10.288
		l23.312,36l-12.08,7.824l-23.312-36l-19.52,12.64l25.936,40.048l-12.08,7.824L253.023,381.781z"/>
</g>
<g>
	<path style="fill:#F2A93C;" d="M55.535,184.165c-7.952,5.152-10.224,15.76-5.072,23.728l49.472,76.384
		c5.152,7.952,15.776,10.224,23.728,5.072s10.224-15.76,5.072-23.728l-49.472-76.384C74.111,181.285,63.487,179.013,55.535,184.165z
		"/>
	<path style="fill:#F2A93C;" d="M132.975,303.749c-7.952,5.152-10.224,15.76-5.072,23.728l11.952,18.464
		c5.152,7.952,15.776,10.224,23.728,5.072s10.224-15.76,5.072-23.728l-11.952-18.464
		C151.551,300.869,140.927,298.597,132.975,303.749z"/>
</g>
<g>
</g>
<g>
</g>
<g>
</g>
<g>
</g>
<g>
</g>
<g>
</g>
<g>
</g>
<g>
</g>
<g>
</g>
<g>
</g>
<g>
</g>
<g>
</g>
<g>
</g>
<g>
</g>
<g>
</g>
</svg>
