<?xml version="1.0" encoding="iso-8859-1"?>
<!-- Generator: Adobe Illustrator 19.0.0, SVG Export Plug-In . SVG Version: 6.00 Build 0)  -->
<svg version="1.1" id="Layer_1" xmlns="http://www.w3.org/2000/svg" xmlns:xlink="http://www.w3.org/1999/xlink" x="0px" y="0px"
	 viewBox="0 0 511.989 511.989" style="enable-background:new 0 0 511.989 511.989;" xml:space="preserve">
<g>
	<path style="fill:#434A54;" d="M511.988,255.994c0-5.891-4.781-10.672-10.656-10.672h-44.483l-8.547,74.654
		c32.296-1.359,47.999-18.827,55.499-33.233c7.844-15.109,8.188-29.952,8.188-30.577l0,0
		C511.988,256.103,511.988,256.056,511.988,255.994z"/>
	<path style="fill:#434A54;" d="M55.14,245.322H10.664C4.773,245.322,0,250.103,0,255.994c0,0.062,0.008,0.109,0.008,0.172H0
		c0.008,0.625,0.336,15.468,8.188,30.577c7.492,14.406,23.202,31.874,55.506,33.233L55.14,245.322z"/>
</g>
<g>
	<path style="fill:#656D78;" d="M456.848,266.665h44.483c3.438,0,6.5,1.641,8.438,4.172c2.078-8.218,2.219-14.28,2.219-14.671l0,0
		c0-0.062,0-0.109,0-0.172c0-5.891-4.781-10.672-10.656-10.672h-44.483l-8.547,74.654c0.828-0.031,1.641-0.078,2.453-0.141
		L456.848,266.665z"/>
	<path style="fill:#656D78;" d="M0,256.166c0.008,0.391,0.141,6.453,2.211,14.671c1.953-2.531,5.008-4.172,8.453-4.172H55.14
		l6.093,53.171c0.805,0.062,1.625,0.109,2.461,0.141l-8.554-74.654H10.664C4.773,245.323,0,250.104,0,255.995
		c0,0.062,0.008,0.109,0.008,0.172L0,256.166L0,256.166z"/>
</g>
<path style="fill:#967ADC;" d="M309.336,74.67H202.659c-5.891,0-10.664,4.766-10.664,10.656v85.342
	c0,5.891,4.773,10.656,10.664,10.656h106.677c5.875,0,10.656-4.766,10.656-10.656V85.326
	C319.992,79.435,315.211,74.67,309.336,74.67z M298.649,159.996h-85.318V95.998h85.318V159.996z"/>
<path style="fill:#E6E9ED;" d="M250.658,117.325c-188.707,0-197.323,106.67-197.323,106.67h394.654
	C447.989,223.995,439.365,117.325,250.658,117.325z"/>
<path style="fill:#434A54;" d="M383.99,138.669c0,5.891-4.78,10.656-10.655,10.656c-5.906,0-10.687-4.765-10.687-10.656
	s4.78-10.672,10.687-10.672C379.21,127.997,383.99,132.778,383.99,138.669z"/>
<g>
	<path style="fill:#EAAD7A;" d="M223.838,213.323c0,29.452-23.874,53.342-53.326,53.342c-29.46,0-53.335-23.89-53.335-53.342
		s23.875-53.327,53.335-53.327C199.964,159.996,223.838,183.871,223.838,213.323z"/>
	<path style="fill:#EAAD7A;" d="M394.803,213.323c0,29.452-23.874,53.342-53.311,53.342c-29.469,0-53.343-23.89-53.343-53.342
		s23.874-53.327,53.343-53.327C370.929,159.996,394.803,183.871,394.803,213.323z"/>
</g>
<path style="fill:#F4BE8E;" d="M309.492,223.995c0,29.452-23.89,53.326-53.342,53.326c-29.453,0-53.335-23.874-53.335-53.326
	c0-29.453,23.882-53.327,53.335-53.327C285.602,170.668,309.492,194.542,309.492,223.995z"/>
<path style="fill:#AC92EB;" d="M394.646,501.316H117.333c0,0-63.998-42.655-63.998-298.649h405.326
	C458.661,479.989,394.646,501.316,394.646,501.316z"/>
<g style="opacity:0.2;">
	<path style="fill:#FFFFFF;" d="M437.334,202.667c0,277.322-63.999,298.649-63.999,298.649h21.312c0,0,64.015-21.327,64.015-298.649
		H437.334z"/>
</g>
<path style="fill:#E6E9ED;" d="M381.632,78.639c-0.016-0.031-2.328-3.094-3.438-6.968c-1.312-4.547-0.516-7.843,2.688-11.062
	c8.671-8.688,11.515-19.984,8.077-31.796c-2.344-7.953-6.827-13.562-7.405-14.265l0,0l-0.016-0.016l0,0
	c-1.953-2.359-4.906-3.859-8.203-3.859c-5.906,0-10.687,4.766-10.687,10.656c0,2.594,0.937,4.968,2.468,6.812l0,0
	c0.016,0.031,2.266,2.938,3.359,6.656c1.266,4.359,0.469,7.578-2.703,10.766c-8.655,8.672-11.515,20.046-8.093,31.999
	c2.328,8.094,6.843,13.844,7.343,14.469l0,0c1.969,2.422,4.938,3.969,8.312,3.969c5.875,0,10.655-4.781,10.655-10.672
	c0-2.531-0.89-4.859-2.374-6.688L381.632,78.639L381.632,78.639z"/>
<path style="fill:#967ADC;" d="M458.614,202.667H53.335c-5.891,0-10.672,4.766-10.672,10.656s4.781,10.672,10.672,10.672h405.279
	c5.905,0,10.687-4.781,10.687-10.672S464.519,202.667,458.614,202.667z"/>
<g>
</g>
<g>
</g>
<g>
</g>
<g>
</g>
<g>
</g>
<g>
</g>
<g>
</g>
<g>
</g>
<g>
</g>
<g>
</g>
<g>
</g>
<g>
</g>
<g>
</g>
<g>
</g>
<g>
</g>
</svg>
