<?xml version="1.0" encoding="iso-8859-1"?>
<!-- Generator: Adobe Illustrator 19.0.0, SVG Export Plug-In . SVG Version: 6.00 Build 0)  -->
<svg version="1.1" id="Capa_1" xmlns="http://www.w3.org/2000/svg" xmlns:xlink="http://www.w3.org/1999/xlink" x="0px" y="0px"
	 viewBox="0 0 513.917 513.917" style="enable-background:new 0 0 513.917 513.917;" xml:space="preserve">
<path style="fill:#84DBFF;" d="M472.235,235.101c0,129.312-105.707,234.208-236.149,234.208C105.685,469.309,0,364.413,0,235.101
	c0-47.872,14.453-92.373,39.392-129.504c2.4-3.52,4.811-7.04,7.477-10.443c34.272-45.749,85.141-78.539,143.776-89.856
	c0.693-0.128,1.408-0.245,2.101-0.395c14.016-2.624,28.544-3.957,43.339-3.957c6.016,0,11.915,0.192,17.76,0.651
	c7.232,0.565,14.347,1.376,21.387,2.56C371.477,20.072,448,93.64,467.349,187.912c0.512,2.336,0.949,4.725,1.408,7.104
	C471.029,208.04,472.235,221.395,472.235,235.101"/>
<g>
	<path style="fill:#54C0EB;" d="M223.403,45.267c-0.32,7.413-11.04,7.979-18.08,10.624c-5.024,1.963-8.96,5.984-12.885,9.685
		c-8.949,8.373-19.029,15.605-29.888,21.461c-11.232,6.037-26.837,9.813-35.211,0.245c26.773-10.88,47.083-34.795,56.331-61.92
		c-12.875,6.976-22.645,18.251-33.877,27.691c-12.683,10.581-27.296,18.752-39.531,29.771
		c-12.181,11.125-22.208,26.315-21.568,42.667c-0.128-9.365-5.899-18.176-13.835-23.413c-7.915-5.227-17.685-7.104-27.157-6.976
		c-0.235,0-0.565,0-0.821,0.064c34.272-45.749,85.152-78.539,143.776-89.856c0.693-0.128,1.397-0.267,2.091-0.395
		c2.859,11.957,10.517,22.795,21.067,29.333C218.197,36.957,223.712,40.104,223.403,45.267"/>
	<path style="fill:#54C0EB;" d="M275.232,4.168c5.771,3.275,11.413,6.795,15.349,11.776c1.077,1.376,2.144,3.083,1.781,4.725
		c-0.832,4.213-7.179,3.339-11.104,5.088c-6.603,3.019-4.448,13.547,1.451,17.685c5.984,4.224,13.707,4.725,20.192,8.064
		c2.528,1.248,5.013,3.584,4.629,6.357c-0.192,1.504-1.269,2.709-2.283,3.829c-7.744,8.629-15.477,17.312-23.221,26.005
		c-2.027,2.123-4.064,4.459-6.795,5.707c-3.499,1.76-7.605,1.632-11.605,1.515c-15.029-0.437-33.941,2.837-37.941,17.248
		c-0.949,3.52-0.949,7.669-3.488,10.379c-2.283,2.517-6.219,3.211-8.128,6.101c-2.912,4.459,1.141,10.059,1.909,15.349
		c1.131,8.352-8.757,16.107-16.619,12.96c-0.32-9.067-0.587-18.187-0.768-27.253c-0.064-1.504-0.128-3.083-0.96-4.267
		c-0.939-1.461-2.795-2.08-4.501-2.581c-8.683-2.645-19.541-4.459-25.568,2.272c-6.091,6.667-3.04,17.355,1.781,25.045
		c4.821,7.541,11.349,15.04,11.616,23.957c0.117,4.48-2.091,9.44-6.411,10.4c-6.421,1.312-10.539-6.795-10.912-13.355
		c-8.245,16.939-11.104,36.437-7.755,54.997c-13.248,3.349-26.443,6.688-39.712,9.963c-4.832,1.248-10.016,2.709-13.205,6.603
		c-2.965,3.712-3.296,8.789-3.232,13.461c0.203,16.171,4.373,32.213,11.925,46.443c2.667,4.853,5.771,9.685,10.219,12.96
		c12.373,9.248,30.133,4.48,45.109,8.565c12.768,3.605,22.976,13.6,29.387,25.109c6.411,11.52,9.632,24.544,12.629,37.376
		c1.408,5.941,2.912,12.224,7.179,16.565c5.003,5.045,12.501,6.421,19.467,7.477c11.925,1.963,24.949,3.669,35.403-2.208
		c9.013-5.024,14.784-14.955,24.427-18.624c6.528-2.443,13.835-1.557,20.672-3.061c6.795-1.525,13.835-7.371,12.373-14.165
		c-1.397-6.421-10.08-11.061-8.117-17.355c1.397-4.352,6.72-5.6,11.029-7.061c19.477-6.539,29.888-32.021,20.309-50.144
		c-1.472-2.837-3.435-5.728-3.691-8.939c-0.683-9.877,13.12-13.205,19.861-20.523c6.155-6.603,6.283-16.544,7.168-25.483
		c0.949-8.939,4.437-19.189,13.131-21.707c8.501-2.517,17.003,3.957,22.208,11.061c5.077,7.125,9.077,15.605,16.501,20.331
		c0.192-15.477,0.373-31.083,0.629-46.56c0.064-5.6,0.309-11.584,3.872-15.851c6.08-7.168,17.387-5.355,26.645-3.392
		c2.976,0.683,6.283,1.248,9.269,0.939C448.011,93.64,371.488,20.104,275.232,4.168 M321.611,156.275l0.896-0.331
		c2.667,0.085,5.205,0.128,7.797,0.267c-1.333,5.525,0.235,11.691,4.053,16.043c1.717,1.877,3.755,3.392,5.461,5.355
		c4.128,4.651,5.397,11.627,3.104,17.419c-5.003,0.373-10.208,0.704-15.211-0.501c-4.896-1.248-9.643-4.267-11.755-8.875
		c-1.205-2.88-1.333-5.963-1.461-9.109C314.315,169.043,315.019,160.04,321.611,156.275 M252.021,236.627
		c-7.744-1.333-14.347-6.165-21.195-9.813c-10.016-5.291-21.312-8.128-32.619-8.192c-3.989-0.128-8.053,0.245-11.925-0.683
		c-3.872-1.024-7.616-3.584-8.747-7.371c-1.333-4.832,2.027-9.813,6.144-12.683c4.128-2.859,9.024-4.416,13.205-7.253l0.821-7.413
		c9.067,9.109,20.171,16.224,32.299,20.747c5.771,2.208,11.851,3.733,18.005,4.352c6.464,0.629,12.939,0.107,19.339-0.331
		c2.165-0.224,4.256-0.373,6.293-0.501c4.373-0.309,8.683-0.683,13.067-1.003c5.205-0.309,10.72-0.875,14.912-4.021
		c1.643,6.421-1.333,13.141-6.027,17.749c-4.64,4.523-10.784,7.413-16.8,10.123C270.357,234.163,261.216,238.067,252.021,236.627
		 M343.125,282.504c-0.384,1.44-1.077,2.891-2.347,3.648c-0.96,0.565-2.027,0.747-3.104,0.811
		c-10.027,1.333-21.259,2.336-29.131-3.893c-3.68-2.891-6.091-6.997-8.363-10.88c-3.104-5.227-6.101-10.453-9.131-15.605
		c-3.115-5.291-6.283-11.147-4.885-17.12c4.683-0.565,9.643-0.245,14.272,0.747l1.397,1.44c-1.579,3.787,0.128,8.245,3.04,11.019
		c2.859,2.837,6.859,4.48,10.603,5.92c3.168,1.312,6.453,2.517,9.707,3.829c4.565,1.835,9.248,3.712,12.939,6.976
		C341.728,272.691,344.256,277.704,343.125,282.504 M360.448,233.224c-0.885,0.875-2.016,1.44-3.296,1.749
		c-9.397,3.083-20.811-4.331-21.707-14.144l1.461-1.184c6.912,0,13.835-0.085,20.811-0.085c1.205-0.064,2.603,0,3.552,0.832
		c0.96,0.875,1.131,2.251,1.195,3.584C362.731,227.187,362.859,230.899,360.448,233.224"/>
</g>
<path style="fill:#40596B;" d="M419.84,284.371c0,74.293-60.224,134.517-134.496,134.517c-74.293,0-134.496-60.224-134.496-134.517
	c0-74.272,60.213-134.496,134.496-134.496S419.84,210.099,419.84,284.371"/>
<path style="fill:#FFFFFF;" d="M285.344,394.6c-60.779,0-110.229-49.44-110.229-110.229s49.451-110.229,110.229-110.229
	c60.768,0,110.229,49.44,110.229,110.229S346.112,394.6,285.344,394.6"/>
<path style="fill:#84DBFF;" d="M285.344,370.333c-47.392,0-85.963-38.56-85.963-85.963s38.56-85.963,85.963-85.963
	s85.963,38.56,85.963,85.963S332.736,370.333,285.344,370.333"/>
<path style="fill:#FF7058;" d="M503.029,449.437l-60.875-60.853c-14.528-14.539-38.091-14.539-52.629,0
	c-14.539,14.517-14.539,38.08,0,52.608l60.864,60.875c14.539,14.539,38.101,14.539,52.64,0
	C517.547,487.517,517.547,463.955,503.029,449.437"/>
<path style="fill:#F1543F;" d="M389.525,388.563L389.525,388.563c3.915-3.915,8.501-6.731,13.376-8.544l-12.149-12.149
	c-6.443,8.128-13.813,15.477-21.92,21.92l12.149,12.149C382.773,397.064,385.611,392.477,389.525,388.563"/>
<g>
</g>
<g>
</g>
<g>
</g>
<g>
</g>
<g>
</g>
<g>
</g>
<g>
</g>
<g>
</g>
<g>
</g>
<g>
</g>
<g>
</g>
<g>
</g>
<g>
</g>
<g>
</g>
<g>
</g>
</svg>
