<?xml version="1.0" encoding="iso-8859-1"?>
<!-- Generator: Adobe Illustrator 19.0.0, SVG Export Plug-In . SVG Version: 6.00 Build 0)  -->
<svg version="1.1" id="Layer_1" xmlns="http://www.w3.org/2000/svg" xmlns:xlink="http://www.w3.org/1999/xlink" x="0px" y="0px"
	 viewBox="0 0 511.99 511.99" style="enable-background:new 0 0 511.99 511.99;" xml:space="preserve">
<path style="fill:#E6E9ED;" d="M287.996,0h-63.992c-5.891,0-10.664,4.765-10.664,10.656v177.387c0,5.891,4.773,10.656,10.664,10.656
	h63.992c5.874,0,10.655-4.766,10.655-10.656V10.656C298.651,4.765,293.87,0,287.996,0z"/>
<path style="fill:#656D78;" d="M351.243,127.966H160.756c-6.242,0-11.328,5.078-11.328,11.328v77.42
	c0,6.25,5.086,11.343,11.328,11.343h190.488c6.234,0,11.312-5.094,11.312-11.343v-77.42
	C362.557,133.044,357.478,127.966,351.243,127.966z"/>
<path style="fill:#FFCE54;" d="M383.182,159.95H128.819c-6.242,0-11.328,5.094-11.328,11.328v173.981
	c0,6.25,5.086,11.344,11.328,11.344h254.363c6.234,0,11.312-5.094,11.312-11.344V171.277
	C394.493,165.043,389.416,159.95,383.182,159.95z"/>
<g>
	<path style="fill:#656D78;" d="M163.146,205.73c-4.164,4.171-4.164,10.921,0,15.077c4.164,4.172,10.914,4.172,15.078,0
		c4.164-4.156,4.164-10.906,0-15.077C174.06,201.574,167.31,201.574,163.146,205.73z"/>
	<path style="fill:#656D78;" d="M205.802,205.73c-4.164,4.171-4.164,10.921,0,15.077c4.164,4.172,10.914,4.172,15.078,0
		c4.164-4.156,4.164-10.906,0-15.077C216.715,201.574,209.966,201.574,205.802,205.73z"/>
	<path style="fill:#656D78;" d="M248.457,205.73c-4.164,4.171-4.164,10.921,0,15.077c4.164,4.172,10.914,4.172,15.078,0
		c4.164-4.156,4.164-10.906,0-15.077C259.371,201.574,252.621,201.574,248.457,205.73z"/>
	<path style="fill:#656D78;" d="M291.12,205.73c-4.171,4.171-4.171,10.921,0,15.077c4.156,4.172,10.906,4.172,15.062,0
		c4.172-4.156,4.172-10.906,0-15.077C302.026,201.574,295.276,201.574,291.12,205.73z"/>
	<path style="fill:#656D78;" d="M348.838,205.73c-4.156-4.156-10.906-4.156-15.062,0c-4.172,4.171-4.172,10.921,0,15.077
		c4.156,4.172,10.906,4.172,15.062,0C353.01,216.652,353.01,209.902,348.838,205.73z"/>
</g>
<rect x="213.336" y="42.655" style="fill:#ED5564;" width="85.31" height="46.03"/>
<path style="fill:#E6E9ED;" d="M369.307,483.928l77.842-191.23c1.188-2.922,1.031-6.203-0.438-8.984
	c-1.453-2.797-4.062-4.781-7.141-5.469l-181.285-39.796c-1.508-0.344-3.07-0.344-4.578,0L72.421,278.244
	c-3.109,0.688-5.75,2.719-7.203,5.562c-1.453,2.828-1.562,6.156-0.305,9.078l82.358,191.043h222.036V483.928z"/>
<path style="fill:#CCD1D9;" d="M255.996,483.928v-245.73c-0.766,0-1.531,0.078-2.289,0.25L72.421,278.244
	c-3.109,0.688-5.75,2.719-7.203,5.562c-1.453,2.828-1.562,6.156-0.305,9.078l82.358,191.043h108.725V483.928z"/>
<path style="fill:#5D9CEC;" d="M0.063,511.99h511.865v-62.999l-15.75-7.859c-3-1.5-6.53-1.5-9.53,0l-16.562,8.281l-16.562-8.281
	c-3-1.5-6.531-1.5-9.531,0l-16.562,8.281l-16.562-8.281c-3-1.5-6.531-1.5-9.531,0l-16.562,8.281l-16.562-8.281
	c-3-1.5-6.531-1.5-9.531,0l-16.562,8.281l-16.562-8.281c-3-1.5-6.531-1.5-9.53,0l-16.562,8.281l-16.562-8.281
	c-3-1.5-6.531-1.5-9.531,0l-17.378,8.687l-17.375-8.688c-3.008-1.5-6.539-1.5-9.539,0l-16.562,8.281l-16.555-8.281
	c-3.008-1.5-6.539-1.5-9.539,0l-16.562,8.281l-16.554-8.281c-3.008-1.5-6.539-1.5-9.539,0l-16.562,8.281l-16.562-8.281
	c-3-1.5-6.531-1.5-9.531,0l-16.562,8.281l-16.562-8.281c-3-1.5-6.531-1.5-9.531,0l-16.562,8.281l-16.562-8.281
	c-3-1.5-6.531-1.5-9.531,0l-15.437,8.281L0.063,511.99z"/>
<g>
</g>
<g>
</g>
<g>
</g>
<g>
</g>
<g>
</g>
<g>
</g>
<g>
</g>
<g>
</g>
<g>
</g>
<g>
</g>
<g>
</g>
<g>
</g>
<g>
</g>
<g>
</g>
<g>
</g>
</svg>
