<?xml version="1.0" encoding="iso-8859-1"?>
<!-- Generator: Adobe Illustrator 19.0.0, SVG Export Plug-In . SVG Version: 6.00 Build 0)  -->
<svg version="1.1" id="Capa_1" xmlns="http://www.w3.org/2000/svg" xmlns:xlink="http://www.w3.org/1999/xlink" x="0px" y="0px"
	 viewBox="0 0 512.006 512.006" style="enable-background:new 0 0 512.006 512.006;" xml:space="preserve">
<path style="fill:#CFD8DC;" d="M443.929,44.934C409.603,17.969,336.153,0.987,333.038,0.283c-5.743-1.313-11.463,2.277-12.776,8.02
	c-0.818,3.578,0.261,7.326,2.856,9.921c9.088,9.088-2.453,50.539-19.563,86.677l-34.304-8.533c-0.842-0.226-1.709-0.348-2.581-0.363
	h-21.333c-0.87,0.001-1.737,0.108-2.581,0.32l-34.304,8.533c-17.131-36.075-28.672-77.547-19.563-86.635
	c4.166-4.165,4.167-10.919,0.001-15.085c-2.595-2.596-6.343-3.675-9.921-2.856c-3.115,0.704-76.565,17.685-110.891,44.651
	C32.515,72.881,22.403,207.963,21.337,223.281c-0.292,4.347,2.09,8.435,6.016,10.325c25.059,11.615,51.854,19.038,79.317,21.973
	v224.427c0.003,3.939,2.176,7.557,5.653,9.408c1.749,0.917,43.605,22.592,143.68,22.592s141.931-21.675,143.68-22.592
	c3.477-1.851,5.651-5.469,5.653-9.408V255.579c27.456-2.938,54.244-10.361,79.296-21.973c3.934-1.884,6.325-5.973,6.037-10.325
	C489.603,207.963,479.491,72.881,443.929,44.934z"/>
<path style="fill:#90A4AE;" d="M308.867,9.286c-2.392-2.947-6.169-4.401-9.92-3.819c-14.213,2.49-28.548,4.228-42.944,5.205
	c-14.396-0.977-28.731-2.715-42.944-5.205c-5.822-0.902-11.272,3.085-12.175,8.907c-0.28,1.806-0.091,3.653,0.548,5.365
	l33.92,90.667c1.557,4.167,5.536,6.93,9.984,6.933h21.333c4.448-0.003,8.427-2.767,9.984-6.933l33.92-90.667
	C311.898,16.199,311.248,12.222,308.867,9.286z"/>
<path style="fill:#B0BEC5;" d="M245.337,192.006c-5.891,0-10.667-4.776-10.667-10.667v-74.667c0-5.891,4.776-10.667,10.667-10.667
	s10.667,4.776,10.667,10.667v74.667C256.003,187.23,251.228,192.006,245.337,192.006z"/>
<circle style="fill:#90A4AE;" cx="266.67" cy="160.006" r="10.667"/>
<g>
	<path style="fill:#B0BEC5;" d="M255.321,102.939l-33.92-90.667c-1.328-3.559-4.448-6.143-8.192-6.784
		c-16.128-2.752-29.867-5.291-29.867-5.291c-3.451-0.663-7.005,0.442-9.472,2.944c-25.28,25.259,8.533,97.493,19.371,119.04
		c1.809,3.55,5.445,5.796,9.429,5.824c0.87-0.004,1.737-0.111,2.581-0.32l42.667-10.667c5.715-1.43,9.188-7.222,7.758-12.937
		C255.579,103.695,255.46,103.313,255.321,102.939L255.321,102.939z"/>
	<path style="fill:#B0BEC5;" d="M338.222,3.121c-2.481-2.479-6.023-3.58-9.472-2.944c0,0-13.803,2.539-29.867,5.291
		c-3.744,0.641-6.864,3.225-8.192,6.784l-33.92,90.667c-2.061,5.519,0.741,11.663,6.26,13.725c0.374,0.14,0.755,0.258,1.143,0.355
		l42.667,10.667c0.816,0.209,1.654,0.324,2.496,0.341c4.015,0.004,7.692-2.247,9.515-5.824
		C329.774,100.635,363.481,28.379,338.222,3.121z"/>
</g>
<g>
</g>
<g>
</g>
<g>
</g>
<g>
</g>
<g>
</g>
<g>
</g>
<g>
</g>
<g>
</g>
<g>
</g>
<g>
</g>
<g>
</g>
<g>
</g>
<g>
</g>
<g>
</g>
<g>
</g>
</svg>
