<?xml version="1.0" encoding="iso-8859-1"?>
<!-- Generator: Adobe Illustrator 19.0.0, SVG Export Plug-In . SVG Version: 6.00 Build 0)  -->
<svg version="1.1" id="Layer_1" xmlns="http://www.w3.org/2000/svg" xmlns:xlink="http://www.w3.org/1999/xlink" x="0px" y="0px"
	 viewBox="0 0 512 512" style="enable-background:new 0 0 512 512;" xml:space="preserve">
<path style="fill:#AA6455;" d="M273.655,226.988c58.897,39.264,156.604,44.57,203.212,44.687
	c14.578,0.038,26.305,11.9,26.305,26.477v34.766H123.586V226.988L273.655,226.988L273.655,226.988z"/>
<path style="fill:#9B5A50;" d="M196.498,147.809c-6.125-5.012-14.902-5.446-21.325-0.821
	c-19.396,13.965-67.158,41.022-149.422,44.351c-9.434,0.382-16.91,8.177-16.9,17.619l0.106,97.479h123.458
	c0,0,32.066-56.116,119.117-46.116c7.913,0.909,15.501-3.534,18.46-10.93l10.088-25.219c1.431-3.577,0.376-7.671-2.606-10.111
	L196.498,147.809z"/>
<path style="fill:#915046;" d="M79.448,297.609c0-39.003-31.618-70.621-70.621-70.621v79.448h70.621V297.609z"/>
<path style="fill:#EBC9A0;" d="M370.759,332.919c-129.736,0-218.327-33.897-361.803-35.267C4.052,297.604,0,301.606,0,306.511
	v52.892c0,4.875,3.953,8.828,8.828,8.828h141.241c4.875,0,8.828-3.953,8.828-8.828v-13.702
	c69.736,10.112,133.277,22.529,211.862,22.529c70.319,0,118.233-11.203,134.816-15.761c3.819-1.049,6.425-4.535,6.425-8.497v-17.052
	c0-5.758-5.366-9.993-10.944-8.565C481.272,323.418,435.517,332.919,370.759,332.919z"/>
<g>
	<path style="fill:#7D4641;" d="M193.474,189.837c-2.259,0-4.518-0.862-6.241-2.586c-3.448-3.448-3.448-9.035,0-12.483
		l17.655-17.655c3.448-3.448,9.035-3.448,12.483,0s3.448,9.035,0,12.483l-17.655,17.655
		C197.992,188.975,195.733,189.837,193.474,189.837z"/>
	<path style="fill:#7D4641;" d="M217.198,208.596c-2.259,0-4.518-0.862-6.241-2.586c-3.448-3.448-3.448-9.035,0-12.483
		l17.655-17.655c3.448-3.448,9.035-3.448,12.483,0s3.448,9.035,0,12.483l-17.655,17.655
		C221.716,207.734,219.457,208.596,217.198,208.596z"/>
	<path style="fill:#7D4641;" d="M240.922,227.354c-2.259,0-4.518-0.862-6.241-2.586c-3.448-3.448-3.448-9.035,0-12.483
		l17.655-17.655c3.448-3.448,9.035-3.448,12.483,0s3.448,9.035,0,12.483l-17.655,17.655
		C245.44,226.493,243.181,227.354,240.922,227.354z"/>
</g>
<path style="fill:#DCB991;" d="M8.956,332.92C4.052,332.873,0,336.875,0,341.779v17.623c0,4.875,3.953,8.828,8.828,8.828h141.241
	c4.875,0,8.828-3.953,8.828-8.828v-13.77C113.512,339.059,65.508,333.46,8.956,332.92z"/>
<g>
</g>
<g>
</g>
<g>
</g>
<g>
</g>
<g>
</g>
<g>
</g>
<g>
</g>
<g>
</g>
<g>
</g>
<g>
</g>
<g>
</g>
<g>
</g>
<g>
</g>
<g>
</g>
<g>
</g>
</svg>
