<?xml version="1.0" encoding="iso-8859-1"?>
<!-- Generator: Adobe Illustrator 19.0.0, SVG Export Plug-In . SVG Version: 6.00 Build 0)  -->
<svg version="1.1" id="Layer_1" xmlns="http://www.w3.org/2000/svg" xmlns:xlink="http://www.w3.org/1999/xlink" x="0px" y="0px"
	 viewBox="0 0 512 512" style="enable-background:new 0 0 512 512;" xml:space="preserve">
<path style="fill:#EC589B;" d="M512,425.666l-68.492,9.232h-0.035l-176.307,23.759c-28.329,3.822-55.795-11.408-67.548-37.469
	c-5.629-12.49-12.352-26.787-19.938-41.751c-0.058-0.115-0.092-0.173-0.092-0.173c-22.574-44.56-52.687-95.072-83.871-121.433
	c-12.409-10.487-31.391-1.151-30.816,15.091l0.322,9.336l6.193,176.399H44.596c0,0,2.222-113.513-17.474-201.068
	c-5.146-22.827-11.765-43.893-20.306-60.722c-5.065-9.969-7.54-21.1-6.63-32.243c2.037-24.899,14.573-67.594,68.676-111.867
	l181.89,273.899c22.712,34.2,64.268,50.719,104.258,41.441l21.618-5.007l104.281,29.319c11.615,3.269,21.204,11.5,26.2,22.482
	L512,425.666z"/>
<g>
	<path style="fill:#D3468D;" d="M443.473,434.898l-176.307,23.759c-28.329,3.822-55.795-11.408-67.548-37.469
		c-5.629-12.49-12.352-26.787-19.938-41.751C181.925,383.339,225.496,453.754,443.473,434.898z"/>
	<path style="fill:#D3468D;" d="M95.717,257.832c-12.409-10.487-31.391-1.151-30.816,15.091l0.322,9.336
		c-14.481-11.016-27.834-19.097-38.102-24.669c-5.146-22.827-11.765-43.893-20.306-60.722
		C6.816,196.868,52.044,214.158,95.717,257.832z"/>
</g>
<g>
</g>
<g>
</g>
<g>
</g>
<g>
</g>
<g>
</g>
<g>
</g>
<g>
</g>
<g>
</g>
<g>
</g>
<g>
</g>
<g>
</g>
<g>
</g>
<g>
</g>
<g>
</g>
<g>
</g>
</svg>
