<?xml version="1.0" encoding="iso-8859-1"?>
<!-- Generator: Adobe Illustrator 19.0.0, SVG Export Plug-In . SVG Version: 6.00 Build 0)  -->
<svg version="1.1" id="Capa_1" xmlns="http://www.w3.org/2000/svg" xmlns:xlink="http://www.w3.org/1999/xlink" x="0px" y="0px"
	 viewBox="0 0 512 512" style="enable-background:new 0 0 512 512;" xml:space="preserve">
<path style="fill:#E5E5E5;" d="M164.936,131.68v-8.896c0-50.208,40.848-91.056,91.056-91.056s91.056,40.848,91.056,91.056v8.896
	h31.728v-8.896C378.776,55.088,323.688,0,255.992,0S133.208,55.088,133.208,122.784v8.896H164.936z"/>
<rect x="44.808" y="127.68" style="fill:#2B71B8;" width="422.352" height="62.576"/>
<g>
	<rect x="31.656" y="190.256" style="fill:#3789C9;" width="448.64" height="186.08"/>
	<polygon style="fill:#3789C9;" points="44.808,183.568 111.896,149.488 44.808,127.68 	"/>
</g>
<polygon style="fill:#4B9FD8;" points="111.896,149.488 31.656,190.272 111.896,190.272 "/>
<polygon style="fill:#3789C9;" points="467.176,183.568 400.088,149.488 467.176,127.68 "/>
<polygon style="fill:#4B9FD8;" points="400.088,149.488 480.328,190.272 400.088,190.272 "/>
<g>
	<circle style="fill:#143252;" cx="148.808" cy="239.376" r="26.608"/>
	<circle style="fill:#143252;" cx="363.176" cy="239.376" r="26.608"/>
</g>
<path style="fill:#F3F3F3;" d="M362.904,252.992c-8.752,0-15.856-7.104-15.856-15.856v-51.744c0-50.208-40.848-91.056-91.056-91.056
	s-91.056,40.848-91.056,91.056v51.744c0,8.752-7.104,15.856-15.856,15.856s-15.856-7.104-15.856-15.856v-51.744
	c0-67.696,55.088-122.784,122.784-122.784s122.768,55.088,122.768,122.784v51.744C378.776,245.888,371.672,252.992,362.904,252.992z
	"/>
<path style="fill:#FDBC4B;" d="M31.656,372.192V480c0,17.664,14.32,32,32,32h368.688c26.512,0,48-21.488,48-48v-91.808
	L31.656,372.192L31.656,372.192z"/>
<path style="fill:#FFCC5B;" d="M480.328,372.192H271.544c-12.88,0-24.432,9.648-25.104,22.512
	c-0.72,13.728,10.192,25.072,23.76,25.072h45.104c11.376,0,20.576,9.248,20.496,20.624l-0.016,1.696v0.768
	c0.08,11.888-9.536,21.552-21.424,21.552l0,0c-12.88,0-24.432,9.648-25.104,22.512C288.552,500.656,299.464,512,313.032,512h119.296
	c26.512,0,48-21.488,48-48V372.192z"/>
<g>
	<path style="fill:#4B9FD8;" d="M60.264,327.488v-41.424c0-8.832,7.152-16,16-16s16,7.168,16,16v41.424c0,8.832-7.152,16-16,16
		S60.264,336.32,60.264,327.488z"/>
	<path style="fill:#4B9FD8;" d="M60.264,235.872v-3.648c0-8.832,7.152-16,16-16s16,7.168,16,16v3.648c0,8.832-7.152,16-16,16
		S60.264,244.704,60.264,235.872z"/>
</g>
<g>
</g>
<g>
</g>
<g>
</g>
<g>
</g>
<g>
</g>
<g>
</g>
<g>
</g>
<g>
</g>
<g>
</g>
<g>
</g>
<g>
</g>
<g>
</g>
<g>
</g>
<g>
</g>
<g>
</g>
</svg>
