<?xml version="1.0" encoding="iso-8859-1"?>
<!-- Generator: Adobe Illustrator 19.0.0, SVG Export Plug-In . SVG Version: 6.00 Build 0)  -->
<svg version="1.1" id="Capa_1" xmlns="http://www.w3.org/2000/svg" xmlns:xlink="http://www.w3.org/1999/xlink" x="0px" y="0px"
	 viewBox="0 0 512 512" style="enable-background:new 0 0 512 512;" xml:space="preserve">
<g>
	<path style="fill:#455A64;" d="M112,176.003c-2.432,0-4.864-0.544-7.168-1.696c-7.904-3.936-11.104-13.568-7.136-21.472l64-128
		c3.968-7.904,13.536-11.072,21.472-7.168c7.904,3.968,11.104,13.568,7.168,21.472l-64,128
		C123.488,172.771,117.856,176.003,112,176.003z"/>
	<path style="fill:#455A64;" d="M400,176.003c-5.856,0-11.488-3.232-14.304-8.832l-64-128c-3.936-7.904-0.736-17.504,7.168-21.472
		c7.904-3.904,17.504-0.736,21.472,7.168l64,128c3.936,7.904,0.736,17.504-7.168,21.472C404.832,175.459,402.4,176.003,400,176.003z
		"/>
</g>
<path style="fill:#D32F2F;" d="M476.64,214.147c-3.04-3.872-7.712-6.144-12.64-6.144H48c-4.928,0-9.568,2.272-12.608,6.144
	c-3.04,3.872-4.096,8.96-2.912,13.728l64,256c1.792,7.136,8.192,12.128,15.52,12.128h288c7.328,0,13.76-4.992,15.52-12.128l64-256
	C480.704,223.107,479.648,218.019,476.64,214.147z"/>
<path style="fill:#F44336;" d="M496,144.003H16c-8.832,0-16,7.168-16,16v64c0,8.832,7.168,16,16,16h480c8.832,0,16-7.168,16-16v-64
	C512,151.171,504.832,144.003,496,144.003z"/>
<g>
	<path style="fill:#FAFAFA;" d="M256,432.003c-8.832,0-16-7.168-16-16v-96c0-8.832,7.168-16,16-16s16,7.168,16,16v96
		C272,424.835,264.832,432.003,256,432.003z"/>
	<path style="fill:#FAFAFA;" d="M176,432.003c-8.832,0-16-7.168-16-16v-96c0-8.832,7.168-16,16-16s16,7.168,16,16v96
		C192,424.835,184.832,432.003,176,432.003z"/>
	<path style="fill:#FAFAFA;" d="M336,432.003c-8.832,0-16-7.168-16-16v-96c0-8.832,7.168-16,16-16s16,7.168,16,16v96
		C352,424.835,344.832,432.003,336,432.003z"/>
</g>
<g>
</g>
<g>
</g>
<g>
</g>
<g>
</g>
<g>
</g>
<g>
</g>
<g>
</g>
<g>
</g>
<g>
</g>
<g>
</g>
<g>
</g>
<g>
</g>
<g>
</g>
<g>
</g>
<g>
</g>
</svg>
