<?xml version="1.0" encoding="iso-8859-1"?>
<!-- Generator: Adobe Illustrator 19.0.0, SVG Export Plug-In . SVG Version: 6.00 Build 0)  -->
<svg version="1.1" id="Layer_1" xmlns="http://www.w3.org/2000/svg" xmlns:xlink="http://www.w3.org/1999/xlink" x="0px" y="0px"
	 viewBox="0 0 511.984 511.984" style="enable-background:new 0 0 511.984 511.984;" xml:space="preserve">
<path style="fill:#E6E9ED;" d="M490.64,506.645H21.343c-5.891,0-10.672-4.781-10.672-10.656V261.332
	c0-5.89,4.781-10.671,10.672-10.671h469.298c5.891,0,10.672,4.781,10.672,10.671v234.656
	C501.312,501.863,496.531,506.645,490.64,506.645z"/>
<path style="fill:#FC6E51;" d="M447.971,506.645h-85.326c-5.891,0-10.655-4.781-10.655-10.656v-170.65
	c0-5.906,4.765-10.688,10.655-10.688h85.326c5.906,0,10.672,4.781,10.672,10.688v170.65
	C458.642,501.863,453.877,506.645,447.971,506.645z"/>
<rect x="74.672" y="335.992" style="fill:#5D9CEC;" width="234.65" height="106.65"/>
<g>
	<polygon style="fill:#A0D468;" points="149.182,326.556 64.857,329.9 64.857,425.898 76.528,457.21 117.324,446.896 
		112.183,395.555 	"/>
	<polygon style="fill:#A0D468;" points="232.852,326.556 317.178,329.9 317.178,425.898 305.506,457.21 264.695,446.896 
		269.85,395.555 	"/>
</g>
<path style="fill:#FFCE54;" d="M327.834,96.337c0,38.468-31.188,69.67-69.654,69.67c-38.483,0-69.67-31.202-69.67-69.67
	c0-38.467,31.187-69.654,69.67-69.654C296.646,26.683,327.834,57.869,327.834,96.337z"/>
<path style="fill:#E6E9ED;" d="M469.314,208.005H42.67c-5.891,0-10.671-4.781-10.671-10.671v-31.999
	c0-5.89,4.78-10.671,10.671-10.671h426.645c5.89,0,10.655,4.781,10.655,10.671v31.999
	C479.97,203.224,475.204,208.005,469.314,208.005z"/>
<path style="fill:#E9573F;" d="M509.562,233.223l-31.718-42.295c-2.016-2.688-5.172-4.266-8.53-4.266H42.67
	c-3.359,0-6.516,1.578-8.531,4.266L2.14,233.598c-2.421,3.234-2.812,7.562-1.016,11.171c1.812,3.609,5.5,5.891,9.547,5.891h490.641
	c0,0,0,0,0.016,0c5.891,0,10.656-4.766,10.656-10.656C511.984,237.427,511.078,235.067,509.562,233.223z"/>
<path style="fill:#FC6E51;" d="M501.312,229.333H10.671C4.78,229.333,0,234.098,0,240.005v39.804c0,3.812,2.03,7.312,5.327,9.219
	c4.859,2.812,10.391,4.312,16.016,4.312c8.188,0,15.655-3.094,21.327-8.188c5.656,5.094,13.141,8.188,21.328,8.188
	s15.671-3.094,21.327-8.188c5.672,5.094,13.156,8.188,21.343,8.188c8.188,0,15.656-3.094,21.328-8.188
	c5.672,5.094,13.14,8.188,21.327,8.188s15.672-3.094,21.343-8.188c5.656,5.094,13.141,8.188,21.328,8.188s15.671-3.094,21.327-8.188
	c5.672,5.094,13.156,8.188,21.344,8.188c8.187,0,15.655-3.094,21.327-8.188c5.656,5.094,13.141,8.188,21.327,8.188
	c8.188,0,15.671-3.094,21.327-8.188c5.672,5.094,13.156,8.188,21.344,8.188s15.656-3.094,21.327-8.188
	c5.672,5.094,13.14,8.188,21.327,8.188s15.672-3.094,21.344-8.188c5.656,5.094,13.141,8.188,21.327,8.188
	c8.188,0,15.672-3.094,21.327-8.188c5.672,5.094,13.141,8.188,21.328,8.188c8.203,0,15.672-3.094,21.344-8.188
	c5.655,5.094,13.14,8.188,21.326,8.188c5.625,0,11.156-1.5,16.016-4.312c3.297-1.906,5.312-5.406,5.312-9.219v-39.804
	C511.969,234.098,507.203,229.333,501.312,229.333z"/>
<g>
	<path style="fill:#434A54;" d="M394.644,410.648c0,5.906-4.766,10.688-10.656,10.688s-10.672-4.781-10.672-10.688
		c0-5.875,4.781-10.656,10.672-10.656S394.644,404.773,394.644,410.648z"/>
	<path style="fill:#434A54;" d="M501.312,506.645H10.671C4.78,506.645,0,501.863,0,495.988c0-5.904,4.78-10.686,10.671-10.686
		h490.641c5.891,0,10.656,4.781,10.656,10.686C511.969,501.863,507.203,506.645,501.312,506.645z"/>
</g>
<g>
	<path style="fill:#F6BB42;" d="M255.992,176.007c-47.046,0-85.326-38.28-85.326-85.341c0-47.046,38.28-85.326,85.326-85.326
		c47.045,0,85.325,38.28,85.325,85.326C341.317,137.726,303.037,176.007,255.992,176.007z M255.992,26.683
		c-35.296,0-63.998,28.702-63.998,63.982c0,35.296,28.702,63.998,63.998,63.998c35.279,0,63.998-28.702,63.998-63.998
		C319.99,55.385,291.271,26.683,255.992,26.683z"/>
	<path style="fill:#F6BB42;" d="M330.646,101.337H181.322c-5.891,0-10.656-4.781-10.656-10.671c0-5.891,4.766-10.656,10.656-10.656
		h149.324c5.891,0,10.671,4.766,10.671,10.656C341.317,96.555,336.537,101.337,330.646,101.337z"/>
	<path style="fill:#F6BB42;" d="M218.649,166.007c-1.812,0-3.641-0.469-5.328-1.438c-5.094-2.953-6.844-9.468-3.906-14.578
		l74.67-129.309c2.937-5.109,9.468-6.859,14.562-3.906c5.109,2.938,6.859,9.469,3.906,14.562L227.9,160.663
		C225.915,164.085,222.337,166.007,218.649,166.007z"/>
	<path style="fill:#F6BB42;" d="M293.334,166.007c-3.688,0-7.28-1.922-9.249-5.343l-74.67-129.325
		c-2.938-5.093-1.188-11.625,3.906-14.562c5.109-2.953,11.625-1.203,14.578,3.906l74.654,129.309
		c2.953,5.109,1.203,11.625-3.906,14.578C296.974,165.538,295.131,166.007,293.334,166.007z"/>
</g>
<g>
	<path style="fill:#ED5564;" d="M266.664,37.338c0,5.891-4.781,10.672-10.672,10.672s-10.672-4.781-10.672-10.672
		c0-5.89,4.781-10.655,10.672-10.655S266.664,31.448,266.664,37.338z"/>
	<path style="fill:#ED5564;" d="M266.664,144.007c0,5.891-4.781,10.656-10.672,10.656s-10.672-4.766-10.672-10.656
		s4.781-10.671,10.672-10.671S266.664,138.117,266.664,144.007z"/>
	<path style="fill:#ED5564;" d="M215.134,54.776c5.109,2.938,6.859,9.468,3.906,14.562c-2.938,5.109-9.469,6.859-14.562,3.906
		c-5.108-2.938-6.858-9.468-3.905-14.562C203.509,53.573,210.04,51.823,215.134,54.776z"/>
	<path style="fill:#ED5564;" d="M307.506,108.102c5.109,2.938,6.844,9.469,3.906,14.562c-2.938,5.109-9.469,6.859-14.578,3.906
		c-5.094-2.938-6.844-9.469-3.891-14.562C295.881,106.899,302.412,105.149,307.506,108.102z"/>
	<path style="fill:#ED5564;" d="M204.477,108.102c5.094-2.953,11.625-1.203,14.562,3.906c2.953,5.094,1.203,11.625-3.906,14.562
		c-5.094,2.953-11.625,1.203-14.562-3.906C197.619,117.571,199.369,111.039,204.477,108.102z"/>
	<path style="fill:#ED5564;" d="M296.834,54.776c5.109-2.953,11.641-1.203,14.578,3.891c2.938,5.109,1.203,11.64-3.906,14.577
		c-5.094,2.953-11.625,1.203-14.562-3.906C289.99,64.244,291.74,57.713,296.834,54.776z"/>
</g>
<g>
	<path style="fill:#8CC153;" d="M151.917,314.995c-5.703-1.438-11.5,2.031-12.938,7.75c-5.03,20.031-25.702,77.248-53.654,77.248
		c-5.891,0-10.656,4.781-10.656,10.656c0,5.906,4.766,10.688,10.656,10.688c5.406,0,10.656-1.031,15.781-3.031
		c2.733,9.219,4.515,21.404-1.719,27.217c-4.312,4.031-4.547,10.781-0.516,15.062c2.094,2.25,4.937,3.406,7.796,3.406
		c2.609,0,5.219-0.969,7.281-2.875c6.875-6.406,14.125-18.75,9.594-41.029c-1.078-5.312-2.625-10.156-4.016-13.906
		c0.453-0.438,0.891-0.875,1.344-1.312c7.891-7.906,15.296-18.688,21.999-32.094c11.062-22.123,16.578-43.936,16.812-44.873
		C161.104,322.214,157.636,316.4,151.917,314.995z"/>
	<path style="fill:#8CC153;" d="M298.646,399.992c-27.937,0-48.607-57.217-53.639-77.248c-1.438-5.719-7.219-9.188-12.937-7.781
		c-5.719,1.438-9.188,7.219-7.766,12.938c0.234,0.938,5.75,22.75,16.812,44.873c6.703,13.406,14.109,24.188,22,32.094
		c0.438,0.438,0.891,0.875,1.344,1.312c-1.391,3.75-2.938,8.594-4.016,13.906c-4.531,22.279,2.719,34.623,9.593,41.029
		c2.062,1.906,4.672,2.875,7.281,2.875c2.859,0,5.703-1.156,7.797-3.406c4.015-4.281,3.796-11.031-0.516-15.062
		c-6.219-5.812-4.547-17.873-1.75-27.217c5.124,2,10.405,3.031,15.796,3.031c5.891,0,10.672-4.781,10.672-10.688
		C309.318,404.773,304.537,399.992,298.646,399.992z"/>
</g>
<path style="fill:#F5F7FA;" d="M319.99,463.99H63.998c-5.891,0-10.672-4.781-10.672-10.656V325.339
	c0-5.906,4.781-10.688,10.672-10.688H319.99c5.891,0,10.656,4.781,10.656,10.688v127.996
	C330.646,459.21,325.881,463.99,319.99,463.99z M74.669,442.646h234.649V335.995H74.669V442.646z"/>
<g>
</g>
<g>
</g>
<g>
</g>
<g>
</g>
<g>
</g>
<g>
</g>
<g>
</g>
<g>
</g>
<g>
</g>
<g>
</g>
<g>
</g>
<g>
</g>
<g>
</g>
<g>
</g>
<g>
</g>
</svg>
