<?xml version="1.0" encoding="iso-8859-1"?>
<!-- Generator: Adobe Illustrator 19.0.0, SVG Export Plug-In . SVG Version: 6.00 Build 0)  -->
<svg version="1.1" id="Capa_1" xmlns="http://www.w3.org/2000/svg" xmlns:xlink="http://www.w3.org/1999/xlink" x="0px" y="0px"
	 viewBox="0 0 512 512" style="enable-background:new 0 0 512 512;" xml:space="preserve">
<rect x="235.52" y="64.981" style="fill:#334A5E;" width="40.928" height="405.547"/>
<path style="fill:#CDD6E0;" d="M122.528,512L122.528,512c0-22.923,18.581-41.493,41.504-41.493h183.936
	c22.901,0,41.493,18.56,41.493,41.493H122.528z"/>
<polygon style="fill:#84DBFF;" points="458.667,215.317 276.459,215.317 276.459,105.781 458.667,105.781 512,160.544 "/>
<polygon style="fill:#FFD15C;" points="405.333,361.173 276.459,361.173 276.459,251.648 405.333,251.648 458.667,306.411 "/>
<polygon style="fill:#FF7058;" points="53.333,202.453 235.531,202.453 235.531,311.989 53.333,311.989 0,257.227 "/>
<path style="fill:#40596B;" d="M293.355,37.355c0,20.64-16.715,37.355-37.355,37.355s-37.365-16.715-37.365-37.355
	C218.635,16.725,235.36,0,256,0C276.64,0,293.355,16.725,293.355,37.355"/>
<g>
</g>
<g>
</g>
<g>
</g>
<g>
</g>
<g>
</g>
<g>
</g>
<g>
</g>
<g>
</g>
<g>
</g>
<g>
</g>
<g>
</g>
<g>
</g>
<g>
</g>
<g>
</g>
<g>
</g>
</svg>
