<?xml version="1.0" encoding="iso-8859-1"?>
<!-- Generator: Adobe Illustrator 19.0.0, SVG Export Plug-In . SVG Version: 6.00 Build 0)  -->
<svg version="1.1" id="Layer_1" xmlns="http://www.w3.org/2000/svg" xmlns:xlink="http://www.w3.org/1999/xlink" x="0px" y="0px"
	 viewBox="0 0 511.972 511.972" style="enable-background:new 0 0 511.972 511.972;" xml:space="preserve">
<g>
	<path style="fill:#434A54;" d="M90.654,63.996c-2.343,0-4.687-0.766-6.656-2.336l-26.67-21.335
		c-4.594-3.679-5.344-10.39-1.672-14.991c3.688-4.602,10.406-5.344,14.999-1.664l26.671,21.335
		c4.593,3.68,5.343,10.391,1.656,14.991C96.873,62.629,93.779,63.996,90.654,63.996z"/>
	<path style="fill:#434A54;" d="M421.318,63.996c-3.125,0-6.219-1.367-8.328-4c-3.688-4.601-2.938-11.312,1.656-14.991l26.67-21.335
		c4.594-3.68,11.312-2.938,15,1.664c3.672,4.602,2.922,11.312-1.672,14.991L427.973,61.66
		C426.005,63.23,423.661,63.996,421.318,63.996z"/>
</g>
<g>
	<path style="fill:#E6E9ED;" d="M106.654,511.972c-5.891,0-10.671-4.781-10.671-10.656v-319.99c0-5.891,4.781-10.672,10.671-10.672
		s10.671,4.781,10.671,10.672v319.99C117.325,507.191,112.544,511.972,106.654,511.972z"/>
	<path style="fill:#E6E9ED;" d="M405.318,511.972c-5.891,0-10.671-4.781-10.671-10.656v-319.99c0-5.891,4.78-10.672,10.671-10.672
		s10.656,4.781,10.656,10.672v319.99C415.974,507.191,411.209,511.972,405.318,511.972z"/>
</g>
<g>
	<path style="fill:#5D9CEC;" d="M122.653,42.661H90.654c-5.89,0-10.671,4.781-10.671,10.672v127.993
		c0,5.89,4.781,10.663,10.671,10.663h31.999c5.89,0,10.671-4.773,10.671-10.663V53.333
		C133.324,47.442,128.543,42.661,122.653,42.661z"/>
	<path style="fill:#5D9CEC;" d="M421.318,42.661h-31.999c-5.89,0-10.671,4.781-10.671,10.672v127.993
		c0,5.89,4.781,10.663,10.671,10.663h31.999c5.89,0,10.655-4.773,10.655-10.663V53.333
		C431.973,47.442,427.208,42.661,421.318,42.661z"/>
	<path style="fill:#5D9CEC;" d="M234.647,511.972H170.65c-5.891,0-10.671-4.781-10.671-10.656V74.66
		c0-12.266,4.281-29.679,10.875-44.365C179.76,10.476,190.822,0,202.836,0c12.046,0,23.046,10.491,31.827,30.35
		c6.468,14.624,10.656,32.021,10.656,44.311v426.655C245.319,507.191,240.537,511.972,234.647,511.972z"/>
</g>
<path style="fill:#4A89DC;" d="M202.836,0c-12.015,0-23.077,10.476-31.982,30.295c-6.594,14.687-10.875,32.1-10.875,44.365h85.339
	c0-12.289-4.188-29.687-10.656-44.311C225.882,10.491,214.882,0,202.836,0z"/>
<path style="fill:#5D9CEC;" d="M341.322,511.972h-63.997c-5.897,0-10.679-4.781-10.679-10.656V74.66
	c0-12.266,4.266-29.679,10.882-44.365C286.433,10.476,297.496,0,309.511,0c12.029,0,23.045,10.491,31.826,30.35
	c6.469,14.624,10.64,32.021,10.64,44.311v426.655C351.977,507.191,347.213,511.972,341.322,511.972z"/>
<g>
	<path style="fill:#CCD1D9;" d="M298.652,341.325c-4.469,0-8.625-2.844-10.109-7.312l-21.35-63.989
		c-1.859-5.586,1.156-11.624,6.758-13.491c5.593-1.859,11.623,1.156,13.498,6.749l21.328,63.997
		c1.859,5.578-1.156,11.624-6.75,13.483C300.902,341.137,299.777,341.325,298.652,341.325z"/>
	<path style="fill:#CCD1D9;" d="M319.995,341.325c-1.125,0-2.266-0.188-3.375-0.562c-5.593-1.859-8.608-7.905-6.749-13.483
		l21.326-63.997c1.859-5.593,7.906-8.608,13.5-6.749c5.577,1.867,8.608,7.905,6.749,13.491l-21.343,63.989
		C328.619,338.481,324.447,341.325,319.995,341.325z"/>
</g>
<path style="fill:#E6E9ED;" d="M351.946,265.923h0.016c-0.078-1.055-0.859-10.562-6.062-20.296
	c-7.453-13.952-20.453-21.639-36.576-21.639c-16.141,0-29.124,7.687-36.576,21.639c-5.211,9.734-6.008,19.241-6.07,20.296
	c-0.016,0.117,0,0.234-0.016,0.359c0,0.125-0.016,0.242-0.016,0.367c0,0.062,0.016,0.117,0.016,0.18
	c0,0.195,0.016,0.383,0.031,0.578c0,0.164,0.016,0.328,0.031,0.492c0.031,0.188,0.062,0.375,0.094,0.562
	c0.031,0.164,0.047,0.328,0.094,0.492c0.031,0.18,0.078,0.352,0.125,0.523c0.047,0.164,0.094,0.336,0.141,0.492
	c0.062,0.164,0.125,0.32,0.188,0.484s0.125,0.328,0.188,0.492c0.078,0.148,0.141,0.297,0.219,0.438
	c0.078,0.164,0.156,0.328,0.25,0.492c0.078,0.141,0.156,0.266,0.25,0.406c0.094,0.156,0.188,0.312,0.297,0.453
	c0.094,0.141,0.188,0.266,0.281,0.391c0.109,0.141,0.219,0.297,0.344,0.422c0.094,0.125,0.219,0.25,0.328,0.375
	c0.125,0.125,0.234,0.25,0.359,0.375s0.25,0.219,0.391,0.344c0.125,0.109,0.234,0.219,0.375,0.328s0.281,0.203,0.422,0.327
	c0.141,0.094,0.266,0.188,0.406,0.281s0.297,0.188,0.453,0.266c0.148,0.078,0.289,0.172,0.445,0.25s0.312,0.156,0.469,0.234
	c0.156,0.062,0.312,0.141,0.484,0.203c0.141,0.062,0.312,0.109,0.469,0.172c0.172,0.062,0.344,0.125,0.531,0.188
	c0.141,0.031,0.296,0.062,0.452,0.109c0.188,0.047,0.391,0.094,0.578,0.141c0.156,0.016,0.312,0.031,0.469,0.062
	c0.203,0.031,0.406,0.062,0.594,0.062c0.062,0,0.109,0.031,0.172,0.031c0.25,0.016,0.5,0.031,0.75,0.031l0,0h63.981
	c5.891,0,10.655-4.78,10.655-10.679C351.977,266.407,351.962,266.165,351.946,265.923z"/>
<g>
	<path style="fill:#CCD1D9;" d="M191.977,341.325c-4.453,0-8.625-2.844-10.109-7.312l-21.327-63.989
		c-1.875-5.586,1.156-11.624,6.734-13.491c5.593-1.859,11.64,1.156,13.5,6.749l21.327,63.997c1.859,5.578-1.156,11.624-6.75,13.483
		C194.243,341.137,193.102,341.325,191.977,341.325z"/>
	<path style="fill:#CCD1D9;" d="M213.32,341.325c-1.125,0-2.25-0.188-3.375-0.562c-5.593-1.859-8.609-7.905-6.75-13.483
		l21.343-63.997c1.859-5.593,7.89-8.608,13.483-6.749c5.594,1.867,8.609,7.905,6.75,13.491l-21.327,63.989
		C221.944,338.481,217.789,341.325,213.32,341.325z"/>
</g>
<path style="fill:#E6E9ED;" d="M245.287,265.923L245.287,265.923c-0.062-1.055-0.859-10.562-6.062-20.296
	c-7.453-13.952-20.437-21.639-36.576-21.639c-16.124,0-29.124,7.687-36.576,21.639c-5.203,9.734-5.984,19.241-6.062,20.296
	c0,0.117,0,0.234,0,0.359c-0.016,0.125-0.031,0.242-0.031,0.367c0,0.062,0.016,0.117,0.016,0.18c0,0.195,0.016,0.383,0.031,0.578
	c0.016,0.164,0.016,0.328,0.047,0.492c0.016,0.188,0.047,0.375,0.078,0.562c0.031,0.164,0.062,0.328,0.094,0.492
	c0.031,0.18,0.078,0.352,0.141,0.523c0.031,0.164,0.078,0.336,0.141,0.492c0.047,0.164,0.109,0.32,0.172,0.484
	s0.125,0.328,0.203,0.492c0.062,0.148,0.141,0.297,0.203,0.438c0.078,0.164,0.156,0.328,0.25,0.492
	c0.078,0.141,0.172,0.266,0.25,0.406c0.094,0.156,0.188,0.312,0.297,0.453c0.094,0.141,0.188,0.266,0.297,0.391
	c0.109,0.141,0.219,0.297,0.328,0.422s0.219,0.25,0.328,0.375c0.125,0.125,0.234,0.25,0.359,0.375s0.266,0.219,0.391,0.344
	c0.125,0.109,0.25,0.219,0.375,0.328c0.141,0.109,0.281,0.203,0.438,0.327c0.125,0.094,0.25,0.188,0.391,0.281
	c0.156,0.094,0.312,0.188,0.453,0.266c0.156,0.078,0.297,0.172,0.438,0.25c0.156,0.078,0.312,0.156,0.469,0.234
	c0.156,0.062,0.312,0.141,0.484,0.203c0.156,0.062,0.312,0.109,0.469,0.172c0.172,0.062,0.344,0.125,0.531,0.188
	c0.156,0.031,0.312,0.062,0.469,0.109c0.188,0.047,0.375,0.094,0.562,0.141c0.156,0.016,0.328,0.031,0.484,0.062
	c0.188,0.031,0.391,0.062,0.594,0.062c0.047,0,0.109,0.031,0.156,0.031c0.25,0.016,0.5,0.031,0.75,0.031c0,0,0,0,0.016,0h63.965
	c5.89,0,10.671-4.78,10.671-10.679C245.319,266.407,245.303,266.165,245.287,265.923z"/>
<path style="fill:#434A54;" d="M127.981,490.63H85.327c-5.891,0-10.671-4.765-10.671-10.655s4.781-10.656,10.671-10.656h42.654
	c5.906,0,10.671,4.766,10.671,10.656S133.887,490.63,127.981,490.63z"/>
<g>
	<rect x="79.983" y="85.326" style="fill:#4A89DC;" width="53.34" height="21.327"/>
	<rect x="79.983" y="127.996" style="fill:#4A89DC;" width="53.34" height="21.335"/>
	<rect x="378.646" y="85.326" style="fill:#4A89DC;" width="53.33" height="21.327"/>
	<rect x="378.646" y="127.996" style="fill:#4A89DC;" width="53.33" height="21.335"/>
</g>
<path style="fill:#434A54;" d="M426.645,490.63h-42.669c-5.875,0-10.656-4.765-10.656-10.655s4.781-10.656,10.656-10.656h42.669
	c5.891,0,10.671,4.766,10.671,10.656S432.536,490.63,426.645,490.63z"/>
<path style="fill:#4A89DC;" d="M309.511,0c-12.016,0-23.078,10.476-31.983,30.295c-6.616,14.687-10.882,32.1-10.882,44.365h85.331
	c0-12.289-4.171-29.687-10.64-44.311C332.556,10.491,321.541,0,309.511,0z"/>
<g>
</g>
<g>
</g>
<g>
</g>
<g>
</g>
<g>
</g>
<g>
</g>
<g>
</g>
<g>
</g>
<g>
</g>
<g>
</g>
<g>
</g>
<g>
</g>
<g>
</g>
<g>
</g>
<g>
</g>
</svg>
