<?xml version="1.0" encoding="iso-8859-1"?>
<!-- Generator: Adobe Illustrator 19.0.0, SVG Export Plug-In . SVG Version: 6.00 Build 0)  -->
<svg version="1.1" id="Capa_1" xmlns="http://www.w3.org/2000/svg" xmlns:xlink="http://www.w3.org/1999/xlink" x="0px" y="0px"
	 viewBox="0 0 512.074 512.074" style="enable-background:new 0 0 512.074 512.074;" xml:space="preserve">
<path style="fill:#FFD54F;" d="M452.398,193.808c-0.379-2.885-1.92-5.49-4.267-7.211c-71.125-51.499-64.448-87.701-64.427-87.808
	c1.519-5.692-1.864-11.537-7.556-13.056c-1.551-0.414-3.176-0.472-4.753-0.171c-38.051,7.1-76.685,10.607-115.392,10.475
	c-38.686,0.129-77.298-3.378-115.328-10.475c-5.888-1.01-11.479,2.945-12.489,8.832c-0.235,1.373-0.204,2.778,0.094,4.139
	c0,0.363,6.784,36.565-64.363,88.064c-2.082,1.504-3.551,3.708-4.139,6.208l-59.499,252.8c-0.908,3.883,0.425,7.948,3.456,10.539
	c28.437,24.384,41.365,20.309,60.117,11.691c22.803-11.071,48.631-14.282,73.451-9.131c13.666,3.144,26.667,8.683,38.4,16.363
	c23.93,15.796,51.661,24.879,80.299,26.304c28.675-1.435,56.438-10.549,80.384-26.389c11.732-7.681,24.733-13.221,38.4-16.363
	c24.724-5.197,50.482-1.763,72.981,9.728c18.411,8.981,31.616,12.8,60.117-11.712l1.067-1.067c2.61-2.612,3.684-6.389,2.837-9.984
	L452.398,193.808z"/>
<path style="fill:#607D8B;" d="M424.537,36.304c-4.501-6.016-29.867-25.6-168.533-25.6S91.971,30.288,87.47,36.304
	c-3.532,4.715-2.573,11.4,2.142,14.932c0.97,0.726,2.056,1.282,3.213,1.644c53.13,14.745,108.041,22.088,163.179,21.824
	c55.137,0.271,110.047-7.065,163.179-21.803c5.625-1.75,8.766-7.729,7.016-13.354C425.834,38.379,425.272,37.282,424.537,36.304z"/>
<g>
	<path style="fill:#FFC107;" d="M148.974,93.285c-1.036-3.917-4.201-6.909-8.171-7.723c-13.94-2.564-27.705-5.999-41.216-10.283
		c-2.826-0.934-5.912-0.663-8.533,0.747c-2.65,1.456-4.557,3.968-5.248,6.912L59.737,192.805c-1.357,5.733,2.19,11.48,7.923,12.837
		c3.021,0.715,6.203,0.079,8.717-1.743C159.555,143.717,150.297,98.17,148.974,93.285z"/>
	<path style="fill:#FFC107;" d="M426.393,82.938c-1.35-5.734-7.093-9.288-12.827-7.938c-0.351,0.083-0.698,0.183-1.039,0.301
		c-13.511,4.284-27.276,7.718-41.216,10.283c-4.002,0.784-7.207,3.782-8.256,7.723c-1.323,4.992-10.667,50.432,72.533,110.592
		c4.77,3.457,11.439,2.393,14.897-2.376c1.822-2.514,2.458-5.696,1.743-8.717L426.393,82.938z"/>
	<path style="fill:#FFC107;" d="M160.003,416.037h-1.195c-5.858-0.619-10.106-5.87-9.487-11.728c0.005-0.044,0.01-0.089,0.015-0.133
		l21.333-192c0.703-5.858,5.97-10.073,11.84-9.472c5.859,0.609,10.116,5.852,9.507,11.712c-0.004,0.043-0.009,0.086-0.014,0.128
		l-21.333,192C170.069,411.972,165.465,416.07,160.003,416.037z"/>
	<path style="fill:#FFC107;" d="M352.003,416.037c-5.454,0.034-10.056-4.052-10.667-9.472l-21.333-192
		c-0.654-5.891,3.592-11.197,9.483-11.851c5.891-0.654,11.197,3.592,11.851,9.483l21.333,192c0.66,5.854-3.551,11.135-9.404,11.795
		c-0.008,0.001-0.017,0.002-0.025,0.003L352.003,416.037z"/>
</g>
<path style="fill:#455A64;" d="M422.403,34.17c-2.73-2.012-6.254-2.606-9.493-1.6c-51.129,13.958-103.907,20.954-156.907,20.8
	c-52.981,0.128-105.737-6.89-156.843-20.864c-5.627-1.744-11.602,1.404-13.346,7.031c-0.318,1.025-0.479,2.093-0.478,3.166V85.37
	c0.003,4.54,2.879,8.58,7.168,10.069c14.467,4.636,29.217,8.334,44.16,11.072c39.352,7.344,79.307,10.979,119.339,10.859
	c40.074,0.131,80.073-3.504,119.467-10.859c14.929-2.738,29.665-6.436,44.117-11.072c4.255-1.518,7.092-5.552,7.083-10.069V42.704
	C426.67,39.346,425.089,36.185,422.403,34.17z"/>
<g>
</g>
<g>
</g>
<g>
</g>
<g>
</g>
<g>
</g>
<g>
</g>
<g>
</g>
<g>
</g>
<g>
</g>
<g>
</g>
<g>
</g>
<g>
</g>
<g>
</g>
<g>
</g>
<g>
</g>
</svg>
