<?xml version="1.0" encoding="iso-8859-1"?>
<!-- Generator: Adobe Illustrator 19.0.0, SVG Export Plug-In . SVG Version: 6.00 Build 0)  -->
<svg version="1.1" id="Capa_1" xmlns="http://www.w3.org/2000/svg" xmlns:xlink="http://www.w3.org/1999/xlink" x="0px" y="0px"
	 viewBox="0 0 450 450" style="enable-background:new 0 0 450 450;" xml:space="preserve">
<path style="fill:#F4CA62;" d="M26,220.376V311.4c-0.246,40.378,32.287,73.31,72.665,73.557c3.074,0.019,6.147-0.156,9.199-0.525
	l99.104-12.52c5.997-0.76,12.067-0.76,18.064,0l99.104,12.52c40.088,4.834,76.505-23.745,81.339-63.833
	c0.368-3.052,0.543-6.125,0.525-9.199v-91.024L26,220.376z"/>
<path style="fill:#F9E0A0;" d="M325.272,308.896l-100.144-12.52c-6.062-0.752-12.194-0.752-18.256,0l-100.144,12.52
	c-40.334,5.041-77.119-23.569-82.16-63.904C24.19,241.964,24,238.916,24,235.864V226.6c0-40.648,32.952-73.6,73.6-73.6
	c3.052,0,6.1,0.19,9.128,0.568l100.144,12.52c6.062,0.76,12.194,0.76,18.256,0l100.144-12.52
	c40.334-5.041,77.118,23.569,82.16,63.904C407.81,220.5,408,223.548,408,226.6v9.256c0.005,40.648-32.944,73.604-73.592,73.608
	C331.354,309.465,328.303,309.275,325.272,308.896L325.272,308.896z"/>
<g>
	<path style="fill:#F4CA62;" d="M120,257h16v16h-16V257z"/>
	<path style="fill:#F4CA62;" d="M88,241h16v16H88V241z"/>
	<path style="fill:#F4CA62;" d="M64,265h16v16H64V265z"/>
	<path style="fill:#F4CA62;" d="M280,185h16v16h-16V185z"/>
	<path style="fill:#F4CA62;" d="M312,201h16v16h-16V201z"/>
	<path style="fill:#F4CA62;" d="M336,177h16v16h-16V177z"/>
</g>
<g>
	<path style="fill:#DEB859;" d="M250,337h16v16h-16V337z"/>
	<path style="fill:#DEB859;" d="M282,321h16v16h-16V321z"/>
</g>
<g>
	<path style="fill:#F4CA62;" d="M314,257h16v16h-16V257z"/>
	<path style="fill:#F4CA62;" d="M242,249h16v16h-16V249z"/>
</g>
<g>
	<path style="fill:#DEB859;" d="M160,345h16v16h-16V345z"/>
	<path style="fill:#DEB859;" d="M122,329h16v16h-16V329z"/>
	<path style="fill:#DEB859;" d="M82,353h16v16H82V353z"/>
</g>
<g>
	<circle style="fill:#B3E4E8;" cx="270" cy="85" r="20"/>
	<circle style="fill:#B3E4E8;" cx="354" cy="33" r="32"/>
	<circle style="fill:#B3E4E8;" cx="144" cy="153" r="32"/>
	<circle style="fill:#B3E4E8;" cx="32" cy="185" r="32"/>
	<circle style="fill:#B3E4E8;" cx="88" cy="137" r="48"/>
	<circle style="fill:#B3E4E8;" cx="306" cy="385" r="32"/>
	<circle style="fill:#B3E4E8;" cx="418" cy="353" r="32"/>
	<circle style="fill:#B3E4E8;" cx="362" cy="401" r="48"/>
</g>
<g>
</g>
<g>
</g>
<g>
</g>
<g>
</g>
<g>
</g>
<g>
</g>
<g>
</g>
<g>
</g>
<g>
</g>
<g>
</g>
<g>
</g>
<g>
</g>
<g>
</g>
<g>
</g>
<g>
</g>
</svg>
