<?xml version="1.0" encoding="iso-8859-1"?>
<!-- Generator: Adobe Illustrator 19.0.0, SVG Export Plug-In . SVG Version: 6.00 Build 0)  -->
<svg version="1.1" id="Layer_1" xmlns="http://www.w3.org/2000/svg" xmlns:xlink="http://www.w3.org/1999/xlink" x="0px" y="0px"
	 viewBox="0 0 511.98 511.98" style="enable-background:new 0 0 511.98 511.98;" xml:space="preserve">
<g>
	<path style="fill:#E9573F;" d="M447.764,112.019l-14.812-71.622c-0.625-3.047-2.562-5.656-5.281-7.172
		c-2.718-1.5-5.968-1.75-8.874-0.672c-34.422,12.781-34.812,61.31-34.812,63.373c0,4.281,2.547,8.141,6.469,9.812l42.671,18.249
		c1.344,0.578,2.766,0.859,4.188,0.859c2.422,0,4.812-0.828,6.749-2.406C447.139,119.925,448.561,115.91,447.764,112.019z"/>
	<path style="fill:#E9573F;" d="M287.99,458.763c-0.406,0-0.812-0.016-1.219-0.016l-20.702-181.54
		c4.483-0.516,8.327-3.859,9.249-8.539c0.25-1.219,5.938-30.327,5.625-66.934c-0.453-50.264-11.688-88.668-33.405-114.136
		c-20.617-24.187-49.967-35.748-87.223-34.358c-31.303,1.156-59.115,6.594-82.66,16.171C58.445,77.223,42,87.785,28.781,100.8
		C5.782,123.44,0.478,145.908,0.267,146.861c-0.875,3.828,0.438,7.828,3.391,10.406c2.969,2.578,7.101,3.312,10.772,1.938
		c0.266-0.109,26.437-9.875,55.818-10.968c36.78-1.391,60.763,11.187,71.302,37.358c7.727,19.202,3.562,52.138-0.844,87.02
		c-7.265,57.528-15.5,122.729,22.124,165.399c24.968,28.31,65.904,42.076,125.16,42.076c5.891,0,10.672-4.766,10.672-10.672
		C298.662,463.527,293.881,458.763,287.99,458.763z"/>
</g>
<path style="fill:#FC6E51;" d="M499.324,184.548c-4.374-14.906-9.108-28.765-9.312-29.358c-0.312-0.875-0.719-1.703-1.234-2.484
	c-0.375-0.562-9.358-13.874-22.155-27.358c-18.452-19.437-35.42-29.296-50.45-29.296c-33.219,0-49.998,17.875-50.701,18.64
	c-1.062,1.156-1.859,2.547-2.328,4.046l-20.125,64.904c-17.437,7.156-73.45,33.718-90.153,84.762
	c-10.671,32.601-15.944,63.739-15.687,92.551c0.211,23.358,4.031,45.248,11.367,65.092c12.719,34.389,31.726,50.825,32.538,51.513
	c1.922,1.641,4.375,2.531,6.906,2.531h170.649c1.938,0,3.827-0.516,5.483-1.516c2.703-1.609,26.374-16.358,26.468-36.889
	c0-3.062-0.859-7.609-5.078-11.843c-6.343-6.359-19.202-10.297-40.498-12.359c-6.14-0.609-12.062-0.953-16.937-1.156l6.828-53.779
	h-22.249v-77.247h30.592l3.781-40.083c8.391,0,19.765,0,23.671,0c10.125,0,28.451-9.078,34.061-18.734
	C507.433,221.874,508.621,216.172,499.324,184.548z"/>
<path style="fill:#E9573F;" d="M373.314,42.553c0,0-12.468,4.672-16.515,38.92c-3.828,32.374,16.624,89.074,16.624,89.074
	l42.53-21.327L373.314,42.553z"/>
<g>
	<path style="fill:#FC6E51;" d="M373.424,181.219c-4.375,0-8.468-2.703-10.03-7.046c-0.875-2.406-21.266-59.466-17.188-93.949
		c4.453-37.78,19.016-46.03,23.374-47.655c5.438-2.031,11.484,0.641,13.64,6.031l42.64,106.668
		c2.188,5.468-0.483,11.671-5.952,13.858s-11.672-0.484-13.859-5.953l-35.155-87.918c-1.359,4.344-2.625,10.031-3.499,17.468
		c-1.406,11.953,0.874,30.202,6.624,52.795c4.453,17.53,9.39,31.28,9.437,31.42c2,5.531-0.875,11.655-6.405,13.655
		C375.845,181.016,374.627,181.219,373.424,181.219z"/>
	<path style="fill:#FC6E51;" d="M511.277,274.458c-1.719-7.117-5.953-12.694-12.234-16.101c-4.718-2.562-10.593-3.859-17.436-3.859
		c-15.969,0-34.999,7.14-42.561,10.264l-42.062-8.655c-3.125-0.657-6.391,0.141-8.875,2.156c-2.484,2.016-3.922,5.046-3.938,8.249
		l-0.188,51.241c-0.016,5.639,4.344,10.311,9.953,10.686l41.53,2.75c0.234,0.016,0.469,0.031,0.703,0.031
		c0.953,0,1.906-0.125,2.828-0.391c31.061-8.562,51.622-18.139,62.887-29.264C512.527,291.051,512.871,281.02,511.277,274.458z"/>
</g>
<path style="fill:#434A54;" d="M447.983,181.219c0,5.891-4.781,10.672-10.671,10.672c-5.891,0-10.672-4.781-10.672-10.672
	s4.781-10.671,10.672-10.671C443.202,170.548,447.983,175.329,447.983,181.219z"/>
<path style="fill:#E9573F;" d="M380.424,302.894c-30.702-2.844-49.765,6.344-49.765,6.344l92.295,21.123
	C422.954,330.361,419.969,306.566,380.424,302.894z"/>
<path style="fill:#FC6E51;" d="M445.014,417.483c-6.14-0.609-12.062-0.953-16.937-1.156l6.781-53.326l-0.312-0.453
	c6.03-47.106-61.232-53.31-103.888-53.31l21.656,139.65l79.997-9.328l14.593-21.89C446.28,417.608,445.655,417.546,445.014,417.483z
	"/>
<polygon style="fill:#E9573F;" points="404.969,254.826 396.985,256.108 439.047,264.762 445.421,262.278 445.749,258.779 "/>
<g>
</g>
<g>
</g>
<g>
</g>
<g>
</g>
<g>
</g>
<g>
</g>
<g>
</g>
<g>
</g>
<g>
</g>
<g>
</g>
<g>
</g>
<g>
</g>
<g>
</g>
<g>
</g>
<g>
</g>
</svg>
