<?xml version="1.0" encoding="iso-8859-1"?>
<!-- Generator: Adobe Illustrator 19.0.0, SVG Export Plug-In . SVG Version: 6.00 Build 0)  -->
<svg version="1.1" id="Capa_1" xmlns="http://www.w3.org/2000/svg" xmlns:xlink="http://www.w3.org/1999/xlink" x="0px" y="0px"
	 viewBox="0 0 512 512" style="enable-background:new 0 0 512 512;" xml:space="preserve">
<rect x="21.867" y="160.747" style="fill:#F2F2F2;" width="468.256" height="351.125"/>
<rect x="107.2" y="246.08" style="fill:#54C0EB;" width="297.589" height="180.459"/>
<polygon style="fill:#F1543F;" points="102.496,160.768 0.16,160.768 21.429,0 115.264,0 "/>
<polygon style="fill:#CDD6E0;" points="204.8,161.963 102.4,161.963 115.189,0.981 209.067,0.981 "/>
<polygon style="fill:#F1543F;" points="307.168,160.768 204.832,160.768 209.088,0 302.912,0 "/>
<polygon style="fill:#CDD6E0;" points="409.6,161.963 307.2,161.963 302.933,0.981 396.821,0.981 "/>
<polygon style="fill:#F1543F;" points="511.84,160.768 409.515,160.768 396.736,0 490.56,0 "/>
<path style="fill:#FF7058;" d="M51.211,235.648L51.211,235.648C22.912,235.648,0,212.704,0,184.437v-23.584h102.4v23.584
	C102.4,212.704,79.477,235.648,51.211,235.648"/>
<path style="fill:#ACB3BA;" d="M153.6,235.648L153.6,235.648c-28.277,0-51.211-22.933-51.211-51.211v-23.584H204.8v23.584
	C204.8,212.704,181.877,235.648,153.6,235.648"/>
<path style="fill:#FF7058;" d="M256,235.648L256,235.648c-28.267,0-51.2-22.933-51.2-51.211v-23.584h102.4v23.584
	C307.2,212.704,284.267,235.648,256,235.648"/>
<path style="fill:#ACB3BA;" d="M358.4,235.648L358.4,235.648c-28.267,0-51.2-22.933-51.2-51.211v-23.584h102.4v23.584
	C409.6,212.704,386.677,235.648,358.4,235.648"/>
<path style="fill:#FF7058;" d="M460.8,235.648L460.8,235.648c-28.277,0-51.2-22.933-51.2-51.211v-23.584H512v23.584
	C512,212.704,489.088,235.648,460.8,235.648"/>
<rect x="0.085" y="464" style="fill:#CDD6E0;" width="511.829" height="48"/>
<g>
	<polygon style="fill:#FFFFFF;" points="184.523,246.08 107.189,323.413 107.189,304.853 165.963,246.08 	"/>
	<polygon style="fill:#FFFFFF;" points="251.829,246.08 107.189,390.731 107.189,362.891 224.096,246.08 	"/>
</g>
<g>
</g>
<g>
</g>
<g>
</g>
<g>
</g>
<g>
</g>
<g>
</g>
<g>
</g>
<g>
</g>
<g>
</g>
<g>
</g>
<g>
</g>
<g>
</g>
<g>
</g>
<g>
</g>
<g>
</g>
</svg>
