<?xml version="1.0" encoding="iso-8859-1"?>
<!-- Generator: Adobe Illustrator 19.0.0, SVG Export Plug-In . SVG Version: 6.00 Build 0)  -->
<svg version="1.1" id="Capa_1" xmlns="http://www.w3.org/2000/svg" xmlns:xlink="http://www.w3.org/1999/xlink" x="0px" y="0px"
	 viewBox="0 0 512 512" style="enable-background:new 0 0 512 512;" xml:space="preserve">
<path style="fill:#FF7058;" d="M490.667,462.16H21.333C9.557,462.16,0,452.603,0,440.827V128.709
	c0-11.776,9.557-21.333,21.333-21.333h469.333c11.787,0,21.333,9.557,21.333,21.333v312.117
	C512,452.613,502.453,462.16,490.667,462.16"/>
<g>
	<path style="fill:#40596B;" d="M358.667,81.179v26.24h-32v-26.24c0-9.163-7.477-16.64-16.651-16.64H202.069
		c-9.173,0-16.736,7.467-16.736,16.64v26.24h-32v-26.24c0-26.773,21.856-48.64,48.736-48.64h107.947
		C336.789,32.549,358.667,54.416,358.667,81.179"/>
	<path style="fill:#40596B;" d="M94.208,479.461H38.731c-5.888,0-10.667-4.779-10.667-10.667v-6.635h76.811v6.635
		C104.875,474.683,100.107,479.461,94.208,479.461"/>
	<path style="fill:#40596B;" d="M473.269,479.461h-55.477c-5.877,0-10.667-4.779-10.667-10.667v-6.635h76.811v6.635
		C483.936,474.683,479.168,479.461,473.269,479.461"/>
</g>
<g>
	<rect x="153.333" y="91.429" style="fill:#334A5E;" width="32" height="16"/>
	<rect x="326.667" y="91.429" style="fill:#334A5E;" width="32" height="16"/>
</g>
<g>
	<rect x="92.747" y="107.419" style="fill:#FFD15C;" width="24.245" height="354.773"/>
	<rect x="394.987" y="107.419" style="fill:#FFD15C;" width="24.245" height="354.773"/>
</g>
<path style="fill:#84DBFF;" d="M284.885,208.731l-115.819,40.181c-1.92-5.568-8-8.523-13.568-6.592l-17.557-50.645
	c5.557-1.931,8.501-8,6.581-13.568l115.808-40.16c1.941,5.557,8.011,8.512,13.579,6.581l17.557,50.645
	C285.899,197.104,282.955,203.173,284.885,208.731"/>
<path style="fill:#FFFFFF;" d="M377.472,324.475c0,28.064-22.752,50.805-50.816,50.805c-28.053,0-50.805-22.741-50.805-50.805
	c0-28.075,22.752-50.827,50.805-50.827C354.72,273.648,377.472,296.4,377.472,324.475"/>
<g>
</g>
<g>
</g>
<g>
</g>
<g>
</g>
<g>
</g>
<g>
</g>
<g>
</g>
<g>
</g>
<g>
</g>
<g>
</g>
<g>
</g>
<g>
</g>
<g>
</g>
<g>
</g>
<g>
</g>
</svg>
