<?xml version="1.0" encoding="iso-8859-1"?>
<!-- Generator: Adobe Illustrator 19.0.0, SVG Export Plug-In . SVG Version: 6.00 Build 0)  -->
<svg version="1.1" id="Capa_1" xmlns="http://www.w3.org/2000/svg" xmlns:xlink="http://www.w3.org/1999/xlink" x="0px" y="0px"
	 viewBox="0 0 511.989 511.989" style="enable-background:new 0 0 511.989 511.989;" xml:space="preserve">
<rect x="390.229" y="62.901" transform="matrix(-0.7071 -0.7071 0.7071 -0.7071 622.631 466.1357)" style="fill:#F8B64C;" width="35.253" height="82.431"/>
<rect x="86.542" y="366.633" transform="matrix(-0.7071 -0.7071 0.7071 -0.7071 -110.5658 769.8997)" style="fill:#FFD15C;" width="35.253" height="82.431"/>
<rect x="429.547" y="238.384" style="fill:#F8B64C;" width="82.443" height="35.253"/>
<rect y="238.384" style="fill:#FFD15C;" width="82.432" height="35.253"/>
<rect x="390.253" y="366.688" transform="matrix(0.707 -0.7073 0.7073 0.707 -168.9667 408.0143)" style="fill:#F8B64C;" width="35.266" height="82.437"/>
<g>
	
		<rect x="86.501" y="62.914" transform="matrix(0.7071 -0.7071 0.7071 0.7071 -43.1325 104.128)" style="fill:#FFD15C;" width="35.253" height="82.431"/>
	<rect x="238.379" y="0.005" style="fill:#FFD15C;" width="17.621" height="82.443"/>
</g>
<g>
	<rect x="256" y="0.005" style="fill:#F8B64C;" width="17.611" height="82.443"/>
	<rect x="256" y="429.552" style="fill:#F8B64C;" width="17.611" height="82.432"/>
</g>
<g>
	<rect x="238.379" y="429.552" style="fill:#FFD15C;" width="17.621" height="82.432"/>
	<path style="fill:#FFD15C;" d="M95.819,256.005c0,88.459,71.712,160.192,160.181,160.192V95.824
		C167.531,95.824,95.819,167.547,95.819,256.005"/>
</g>
<path style="fill:#F8B64C;" d="M256,95.835v320.352c88.459,0,160.192-71.723,160.192-160.181
	C416.192,167.547,344.459,95.835,256,95.835"/>
<g>
</g>
<g>
</g>
<g>
</g>
<g>
</g>
<g>
</g>
<g>
</g>
<g>
</g>
<g>
</g>
<g>
</g>
<g>
</g>
<g>
</g>
<g>
</g>
<g>
</g>
<g>
</g>
<g>
</g>
</svg>
