<?xml version="1.0" encoding="iso-8859-1"?>
<!-- Generator: Adobe Illustrator 19.0.0, SVG Export Plug-In . SVG Version: 6.00 Build 0)  -->
<svg version="1.1" id="Capa_1" xmlns="http://www.w3.org/2000/svg" xmlns:xlink="http://www.w3.org/1999/xlink" x="0px" y="0px"
	 viewBox="0 0 512 512" style="enable-background:new 0 0 512 512;" xml:space="preserve">
<g>
	<path style="fill:#455A64;" d="M213.333,352.434c-5.989-0.163-10.739-5.102-10.667-11.093c0-17.067,24.917-32,53.333-32
		c28.416,0,53.333,14.933,53.333,32c0.171,5.891-4.466,10.805-10.357,10.976c-5.891,0.171-10.805-4.466-10.976-10.357
		c-8.622-8.067-20.225-12.159-32-11.285c-11.871-0.983-23.586,3.218-32.128,11.52c-0.01,5.667-4.612,10.253-10.279,10.244
		C213.507,352.438,213.42,352.436,213.333,352.434z"/>
	<path style="fill:#455A64;" d="M32,256.007c-5.891,0.01-10.674-4.758-10.684-10.649c-0.003-2.057,0.588-4.07,1.703-5.799
		l85.184-132.48c14.13-21.983,43.405-28.35,65.388-14.22c7.158,4.601,12.942,11.046,16.745,18.658l21.867,43.733
		c2.633,5.272,0.494,11.681-4.779,14.315c-5.272,2.633-11.681,0.494-14.315-4.779l0,0l-21.867-43.733
		c-6.421-12.834-22.03-18.033-34.864-11.612c-4.164,2.083-7.691,5.246-10.214,9.159L40.981,251.122
		C39.014,254.173,35.63,256.013,32,256.007z"/>
	<path style="fill:#455A64;" d="M480,256.007c-3.63,0.006-7.014-1.835-8.981-4.885l-85.184-132.501
		c-7.747-12.066-23.808-15.568-35.874-7.821c-3.935,2.526-7.115,6.069-9.203,10.253l-21.867,43.733
		c-2.633,5.272-9.042,7.412-14.315,4.779c-5.272-2.633-7.412-9.042-4.779-14.315l21.867-43.733
		c11.662-23.373,40.063-32.867,63.436-21.205c7.632,3.808,14.093,9.609,18.697,16.789l85.184,132.48
		c3.181,4.958,1.741,11.557-3.218,14.738C484.044,255.422,482.043,256.008,480,256.007z"/>
</g>
<g>
	<path style="fill:#9575CD;" d="M256.533,277.341L42.667,266.674C21.025,270.772,4.098,287.699,0,309.341v21.333
		c0,53.019,42.981,96,96,96c72.822-0.088,133.201-56.426,138.325-129.067l21.12,1.045c5.514,0.625,10.491-3.339,11.116-8.853
		c0.047-0.418,0.068-0.839,0.063-1.259C266.926,282.663,262.411,277.651,256.533,277.341z"/>
	<path style="fill:#9575CD;" d="M468.821,266.674L468.821,266.674l-213.333,10.667c-5.877,0.299-10.402,5.301-10.112,11.179
		c-0.071,5.549,4.37,10.104,9.919,10.175c0.421,0.005,0.841-0.016,1.259-0.063l21.12-1.045
		c5.114,72.649,65.496,128.999,138.325,129.088c53.019,0,96-42.981,96-96v-21.333C507.854,287.537,490.673,270.559,468.821,266.674z
		"/>
</g>
<g>
</g>
<g>
</g>
<g>
</g>
<g>
</g>
<g>
</g>
<g>
</g>
<g>
</g>
<g>
</g>
<g>
</g>
<g>
</g>
<g>
</g>
<g>
</g>
<g>
</g>
<g>
</g>
<g>
</g>
</svg>
