<?xml version="1.0" encoding="iso-8859-1"?>
<!-- Generator: Adobe Illustrator 19.0.0, SVG Export Plug-In . SVG Version: 6.00 Build 0)  -->
<svg version="1.1" id="Capa_1" xmlns="http://www.w3.org/2000/svg" xmlns:xlink="http://www.w3.org/1999/xlink" x="0px" y="0px"
	 viewBox="0 0 511.692 511.692" style="enable-background:new 0 0 511.692 511.692;" xml:space="preserve">
<g>
	<path style="fill:#AD1457;" d="M149.18,74.358c-5.891,0-10.667-4.776-10.667-10.667c0.443-19.659,4.328-39.089,11.477-57.408
		c2.422-5.37,8.739-7.76,14.109-5.338c5.124,2.311,7.575,8.202,5.603,13.466c-6.059,15.748-9.392,32.413-9.856,49.28
		C159.846,69.583,155.071,74.358,149.18,74.358z"/>
	<path style="fill:#AD1457;" d="M362.513,74.358c-5.891,0-10.667-4.776-10.667-10.667c-0.464-16.867-3.797-33.532-9.856-49.28
		c-2.067-5.517,0.73-11.664,6.246-13.731c5.264-1.972,11.155,0.479,13.466,5.603c7.149,18.319,11.034,37.749,11.477,57.408
		C373.18,69.583,368.404,74.358,362.513,74.358z"/>
</g>
<path style="fill:#D81B60;" d="M341.18,255.692c2.709-19.941,9.782-39.04,20.715-55.936c11.95-18.501,19.463-39.514,21.952-61.397
	c0.256-16.844-1.995-33.632-6.677-49.813c-2.534-8.046-3.878-16.419-3.989-24.853c-0.005-5.891-4.784-10.663-10.675-10.658
	c-3.563,0.003-6.89,1.785-8.866,4.749c-0.469,0.683-47.189,69.909-97.792,69.909s-97.344-69.227-97.792-69.931
	c-2.637-3.874-7.475-5.599-11.968-4.267c-4.494,1.362-7.569,5.502-7.573,10.197c-0.118,8.436-1.469,16.809-4.011,24.853
	c-4.675,16.183-6.918,32.971-6.656,49.813c2.489,21.884,10.002,42.896,21.952,61.397c10.933,16.896,18.006,35.995,20.715,55.936
	c0,29.12-29.867,90.923-41.387,112.277c-2.792,5.187-0.851,11.656,4.336,14.448c1.552,0.836,3.287,1.273,5.05,1.274
	c18.88,0,40.96,36.779,58.688,66.304c19.883,33.109,37.035,61.696,58.645,61.696s38.763-28.587,58.645-61.696
	c17.728-29.525,39.808-66.304,58.688-66.304c5.891-0.003,10.664-4.781,10.661-10.672c-0.001-1.763-0.439-3.498-1.274-5.05
	C371.046,346.614,341.18,284.812,341.18,255.692z"/>
<g>
</g>
<g>
</g>
<g>
</g>
<g>
</g>
<g>
</g>
<g>
</g>
<g>
</g>
<g>
</g>
<g>
</g>
<g>
</g>
<g>
</g>
<g>
</g>
<g>
</g>
<g>
</g>
<g>
</g>
</svg>
