<svg height="496pt" viewBox="0 -12 496.014 496" width="496pt" xmlns="http://www.w3.org/2000/svg"><path d="m488.941406 430.96875c9.421875 9.4375 9.4375 24.628906 0 34-9.363281 9.359375-24.5625 9.359375-33.921875 0-5.046875-5.042969-7.359375-11.761719-6.96875-18.320312.328125-5.679688 2.640625-11.28125 6.96875-15.679688 4.3125-4.320312 9.921875-6.730469 15.671875-6.960938 6.5625-.402343 13.199219 1.917969 18.25 6.960938zm0 0" fill="#ffce54"/><path d="m448.378906 401.765625-22.558594-22.636719-30.640624-30.632812-22.640626 22.640625 19.28125 19.269531 22.640626 22.640625 33.589843 33.601563c.328125-5.679688 2.640625-11.28125 6.96875-15.679688 4.3125-4.320312 9.921875-6.730469 15.671875-6.960938zm0 0" fill="#ed5565"/><path d="m390.53125 307.925781c-4.3125-8.878906-2.71875-19.917969 4.640625-27.367187 9.359375-9.359375 24.558594-9.351563 33.921875.089844 9.359375 9.359374 9.359375 24.558593 0 33.910156l-33.921875 33.929687-22.640625 22.640625-33.917969 33.910156c-9.441406 9.359376-24.640625 9.359376-34 0-9.359375-9.359374-9.359375-24.558593 0-33.921874 7.359375-7.359376 18.40625-8.957032 27.359375-4.628907v-.089843l12.246094-12.238282 34-33.914062 12.234375-12.328125zm0 0" fill="#ffce54"/><path d="m281.972656 223.925781 96.175782 96.242188.070312.078125-34 33.921875-96.246094-96.242188 17.046875-17.039062zm0 0" fill="#ccd1d9"/><path d="m214.050781 224.015625-178.71875-178.808594-11.359375-45.1992185 45.28125 11.2773435 178.71875 178.730469-16.953125 16.953125zm0 0" fill="#ccd1d9"/><path d="m47.890625 446.648438c.410156 6.558593-1.917969 13.277343-6.949219 18.320312-9.363281 9.359375-24.5625 9.359375-33.921875 0-9.359375-9.371094-9.359375-24.5625 0-34 5.03125-5.050781 11.769531-7.371094 18.3125-6.960938 5.6875.320313 11.28125 2.640626 15.609375 6.960938 4.3125 4.398438 6.636719 10 6.949219 15.679688zm0 0" fill="#ffce54"/><path d="m100.859375 348.496094-30.640625 30.640625-22.640625 22.628906-22.246094 22.242187c5.6875.320313 11.28125 2.640626 15.609375 6.960938 4.3125 4.398438 6.636719 10 6.949219 15.679688h.082031l33.605469-33.511719 22.640625-22.640625 19.28125-19.367188zm0 0" fill="#ed5565"/><path d="m100.859375 348.496094-33.917969-33.921875c-9.363281-9.367188-9.363281-24.558594 0-33.917969 9.359375-9.441406 24.558594-9.441406 33.902344-.089844 7.375 7.449219 8.96875 18.488282 4.65625 27.367188l12.3125 12.242187 33.917969 33.992188 12.3125 12.238281c8.96875-4.238281 19.921875-2.640625 27.28125 4.722656 9.359375 9.359375 9.359375 24.558594 0 33.917969s-24.542969 9.359375-33.921875 0l-33.902344-33.917969zm0 0" fill="#ffce54"/><path d="m174.636719 396.109375c-4.425781 0-8.039063-3.574219-8.039063-8 0-4.421875 3.535156-8 7.949219-8h.089844c4.414062 0 8 3.578125 8 8 0 4.425781-3.585938 8-8 8zm0 0" fill="#f6bb42"/><path d="m84.125 305.605469c-4.425781 0-8.039062-3.574219-8.039062-8 0-4.421875 3.535156-8 7.949218-8h.089844c4.414062 0 8 3.578125 8 8 0 4.425781-3.59375 8-8 8zm0 0" fill="#f6bb42"/><path d="m70.21875 379.136719-6.207031 6.207031 33.914062 11.445312 6.292969-6.292968 6.480469-6.511719-34.144531-11.183594zm0 0" fill="#da4453"/><path d="m47.578125 401.765625-6.429687 6.433594 34.113281 11.230469 6.316406-6.292969 6.363281-6.363281-34.035156-11.335938zm0 0" fill="#da4453"/><path d="m321.851562 396.109375c-4.421874 0-8.039062-3.574219-8.039062-8 0-4.421875 3.535156-8 7.953125-8h.085937c4.417969 0 8 3.578125 8 8 0 4.425781-3.582031 8-8 8zm0 0" fill="#f6bb42"/><path d="m412.371094 305.605469c-4.421875 0-8.039063-3.574219-8.039063-8 0-4.421875 3.535157-8 7.953125-8h.085938c4.417968 0 8 3.578125 8 8 0 4.425781-3.582032 8-8 8zm0 0" fill="#f6bb42"/><path d="m332.941406 316.917969c-2.050781 0-4.097656-.78125-5.65625-2.34375l-67.953125-67.96875c-3.128906-3.125-3.128906-8.183594 0-11.308594 3.128907-3.128906 8.183594-3.128906 11.3125 0l67.953125 67.964844c3.125 3.128906 3.125 8.183593 0 11.3125-1.5625 1.570312-3.609375 2.34375-5.65625 2.34375zm0 0" fill="#aab2bd"/><path d="m419.5 372.816406-33.953125 11.335938 6.273437 6.253906 6.351563 6.359375 33.863281-11.40625-6.214844-6.230469zm0 0" fill="#da4453"/><path d="m442.074219 395.4375-33.941407 11.28125 12.671876 12.671875 33.894531-11.320313-6.320313-6.304687zm0 0" fill="#da4453"/><path d="m231.035156 215.03125c-2.046875 0-4.09375-.785156-5.65625-2.34375l-133.519531-133.519531c-3.128906-3.128907-3.128906-8.183594 0-11.3125 3.128906-3.128907 8.183594-3.128907 11.3125 0l133.511719 133.511719c3.128906 3.128906 3.128906 8.183593 0 11.3125-1.550782 1.566406-3.597656 2.351562-5.648438 2.351562zm0 0" fill="#aab2bd"/><path d="m214.050781 224.015625 16.96875-17.046875 16.953125-16.953125 178.816406-178.730469 45.183594-11.2773435-11.28125 45.1992185-178.71875 178.71875-16.953125 16.960938-17.046875 17.039062-96.234375 96.242188-33.917969-34zm0 0" fill="#e6e9ed"/><path d="m163.066406 316.917969c-2.046875 0-4.09375-.78125-5.65625-2.34375-3.125-3.128907-3.125-8.183594 0-11.3125l235.425782-235.40625c3.128906-3.128907 8.183593-3.128907 11.3125 0 3.128906 3.128906 3.128906 8.183593 0 11.3125l-235.425782 235.40625c-1.558594 1.570312-3.605468 2.34375-5.65625 2.34375zm0 0" fill="#ccd1d9"/></svg>