<?xml version="1.0" encoding="iso-8859-1"?>
<!-- Generator: Adobe Illustrator 19.0.0, SVG Export Plug-In . SVG Version: 6.00 Build 0)  -->
<svg version="1.1" id="Capa_1" xmlns="http://www.w3.org/2000/svg" xmlns:xlink="http://www.w3.org/1999/xlink" x="0px" y="0px"
	 viewBox="0 0 512.059 512.059" style="enable-background:new 0 0 512.059 512.059;" xml:space="preserve">
<path style="fill:#EC407A;" d="M490.332,71.957c-0.75-2.844-2.641-5.253-5.227-6.656L395.911,16.64
	C375.876,5.784,353.461,0.066,330.673,0c-5.891,0-10.667,4.776-10.667,10.667c0.638,19.89-6.076,39.318-18.859,54.571
	c-11.423,12.926-27.893,20.258-45.141,20.096c-37.077,0-64-31.403-64-74.667C192.007,4.776,187.231,0,181.34,0
	c-22.796,0.069-45.219,5.794-65.259,16.661l-89.173,48.64c-5.162,2.839-7.045,9.325-4.207,14.487c0.083,0.151,0.17,0.3,0.26,0.447
	l53.333,85.333c1.929,3.151,5.351,5.08,9.045,5.099h21.483c0.533,19.563,2.453,38.613,4.437,58.56
	c3.834,33.681,5.863,67.542,6.08,101.44c-3.527,49.775-14.077,98.802-31.339,145.621c-2.045,5.525,0.775,11.661,6.3,13.706
	c0.111,0.041,0.222,0.08,0.335,0.118c53.079,15.313,108.132,22.689,163.371,21.888c55.238,0.801,110.291-6.575,163.371-21.888
	c5.59-1.86,8.613-7.9,6.752-13.489c-0.037-0.112-0.077-0.224-0.118-0.335c-17.27-46.817-27.821-95.845-31.339-145.621
	c0.217-33.898,2.246-67.759,6.08-101.44c2.005-19.968,3.904-38.997,4.437-58.56h21.483c3.678,0,7.096-1.895,9.045-5.013
	l53.333-85.333C490.613,77.828,491.076,74.802,490.332,71.957z"/>
<path style="fill:#C2185B;" d="M330.673,0H181.34c-5.891,0-10.667,4.776-10.667,10.667c0,55.616,35.883,96,85.333,96
	c23.331,0.206,45.605-9.717,61.056-27.2c16.291-19.16,24.936-43.659,24.277-68.8C341.34,4.776,336.565,0,330.673,0z"/>
<g>
</g>
<g>
</g>
<g>
</g>
<g>
</g>
<g>
</g>
<g>
</g>
<g>
</g>
<g>
</g>
<g>
</g>
<g>
</g>
<g>
</g>
<g>
</g>
<g>
</g>
<g>
</g>
<g>
</g>
</svg>
