<?xml version="1.0" encoding="iso-8859-1"?>
<!-- Generator: Adobe Illustrator 19.0.0, SVG Export Plug-In . SVG Version: 6.00 Build 0)  -->
<svg version="1.1" id="Layer_1" xmlns="http://www.w3.org/2000/svg" xmlns:xlink="http://www.w3.org/1999/xlink" x="0px" y="0px"
	 viewBox="0 0 512 512" style="enable-background:new 0 0 512 512;" xml:space="preserve">
<g>
	<polygon style="fill:#FFD15C;" points="147.249,512 60.848,512 131.249,298.667 217.648,298.667 	"/>
	<polygon style="fill:#FFD15C;" points="346.715,512 434.182,512 363.782,298.667 276.315,298.667 	"/>
</g>
<circle style="fill:#54C0EB;" cx="247.515" cy="235.733" r="235.733"/>
<path style="fill:#F2F2F2;" d="M247.515,411.733c-97.067,0-177.067-78.933-177.067-177.067s80-176,177.067-176
	S424.582,137.6,424.582,235.733S344.582,411.733,247.515,411.733z"/>
<path style="fill:#FF7058;" d="M247.515,353.067c-65.067,0-117.333-53.333-117.333-117.333c0-65.067,53.333-117.333,117.333-117.333
	c65.067,0,117.333,53.333,117.333,117.333C364.849,300.8,312.582,353.067,247.515,353.067z"/>
<path style="fill:#FFD15C;" d="M247.515,294.4c-32,0-58.667-26.667-58.667-58.667s26.667-58.667,58.667-58.667
	s58.667,26.667,58.667,58.667S279.515,294.4,247.515,294.4z"/>
<circle style="fill:#FF7058;" cx="247.515" cy="235.733" r="16"/>
<polygon style="fill:#F2F2F2;" points="251.782,228.267 247.515,235.733 254.982,232.533 285.915,203.733 282.715,200.533 "/>
<path style="fill:#40596B;" d="M276.315,190.933l-2.133,8.533c-2.133,6.4,4.267,13.867,10.667,11.733l8.533-1.067
	c2.133,0,4.267-1.067,5.333-3.2L411.782,97.067l-9.6-10.667l-121.6,100.267C278.449,186.667,277.382,188.8,276.315,190.933z"/>
<path style="fill:#FF7058;" d="M467.249,10.667c5.333,5.333,6.4,12.8,4.267,21.333c8.533-1.067,16,1.067,21.333,6.4
	c9.6,10.667,11.733,25.6-5.333,41.6c-17.067,14.933-90.667,20.267-90.667,20.267s11.733-72.533,28.8-87.467
	C442.715-3.2,457.649,0,467.249,10.667z"/>
<ellipse transform="matrix(-0.7411 0.6714 -0.6714 -0.7411 808.2081 -190.4276)" style="fill:#F1543F;" cx="440.82" cy="60.616" rx="58.667" ry="4.267"/>
<g>
</g>
<g>
</g>
<g>
</g>
<g>
</g>
<g>
</g>
<g>
</g>
<g>
</g>
<g>
</g>
<g>
</g>
<g>
</g>
<g>
</g>
<g>
</g>
<g>
</g>
<g>
</g>
<g>
</g>
</svg>
