<?xml version="1.0" encoding="iso-8859-1"?>
<!-- Generator: Adobe Illustrator 19.0.0, SVG Export Plug-In . SVG Version: 6.00 Build 0)  -->
<svg version="1.1" id="Capa_1" xmlns="http://www.w3.org/2000/svg" xmlns:xlink="http://www.w3.org/1999/xlink" x="0px" y="0px"
	 viewBox="0 0 512.02 512.02" style="enable-background:new 0 0 512.02 512.02;" xml:space="preserve">
<path style="fill:#DEE4E9;" d="M12.228,189.576l48.08,177.488c3.392,12.544,16.32,20.08,29.008,16.64l405.232-109.712
	c12.688-3.44,20.048-16.464,16.64-29.008l-48.08-177.472L12.228,189.576z"/>
<rect x="150.412" y="167.097" transform="matrix(-0.9652 0.2614 -0.2614 -0.9652 491.952 281.7966)" style="fill:#8CC63E;" width="153.643" height="13.04"/>
<g>
	
		<rect x="160.967" y="206.254" transform="matrix(-0.9652 0.2614 -0.2614 -0.9652 522.9307 355.9901)" style="fill:#ACB9C1;" width="153.643" height="13.04"/>
	
		<rect x="171.619" y="245.418" transform="matrix(-0.9652 0.2614 -0.2614 -0.9652 554.1013 430.1709)" style="fill:#ACB9C1;" width="153.643" height="13.04"/>
	
		<rect x="179.909" y="267.2" transform="matrix(-0.9653 0.2613 -0.2613 -0.9653 707.0273 453.4392)" style="fill:#ACB9C1;" width="286.924" height="13.041"/>
</g>
<path style="fill:#9A795F;" d="M463.108,67.512l-11.376-42.016c-3.44-12.688-16.336-20.08-29.008-16.64L17.492,118.552
	c-12.688,3.44-20.08,16.336-16.656,29.008l11.376,42.016L463.108,67.512z"/>
<g>
	<path style="fill:#FFFFFF;" d="M272.836,100.616l-6.88-25.392l-9.072,2.448l-1.392-5.168l24.288-6.576l1.408,5.168l-9.04,2.448
		l6.88,25.376L272.836,100.616z"/>
	<path style="fill:#FFFFFF;" d="M291.844,95.48l-8.272-30.56l6.176-1.664l8.272,30.56L291.844,95.48z"/>
	<path style="fill:#FFFFFF;" d="M320.404,75.688l6.496,0.272c-0.016,3.584-0.864,6.48-2.56,8.672
		c-1.696,2.192-4.176,3.744-7.456,4.624c-4.064,1.104-7.776,0.608-11.136-1.456s-5.696-5.504-6.992-10.304
		c-1.376-5.088-1.136-9.392,0.736-12.912c1.872-3.52,4.944-5.872,9.216-7.024c3.744-1.008,7.072-0.736,10,0.848
		c1.744,0.928,3.296,2.528,4.656,4.784l-5.712,3.12c-0.784-1.488-1.888-2.528-3.28-3.136s-2.912-0.688-4.56-0.24
		c-2.272,0.608-3.888,1.92-4.848,3.936c-0.976,2.016-0.96,4.832,0.016,8.48c1.04,3.856,2.48,6.432,4.32,7.696s3.856,1.6,6.08,0.992
		c1.648-0.448,2.912-1.344,3.808-2.704S320.484,78.072,320.404,75.688z"/>
	<path style="fill:#FFFFFF;" d="M334.804,83.848l-8.272-30.56l6.176-1.664l3.68,13.568l8.784-16.944l8.288-2.24l-8.288,15.008
		l17.184,15.376l-7.984,2.16l-12.288-12.064l-3.616,6.464l2.496,9.232L334.804,83.848z"/>
	<path style="fill:#FFFFFF;" d="M365.54,75.528l-8.272-30.56l22.656-6.128l1.392,5.168l-16.48,4.464l1.84,6.768l15.344-4.16
		l1.392,5.152l-15.344,4.16l2.256,8.32l17.072-4.624l1.392,5.152L365.54,75.528z"/>
	<path style="fill:#FFFFFF;" d="M400.884,65.96l-6.88-25.376l-9.072,2.448l-1.392-5.168l24.288-6.576l1.392,5.168l-9.04,2.448
		l6.88,25.376L400.884,65.96z"/>
	
		<rect x="77.702" y="101.141" transform="matrix(-0.9652 0.2615 -0.2615 -0.9652 192.4166 196.5023)" style="fill:#FFFFFF;" width="10.864" height="19.824"/>
	
		<rect x="85.272" y="132.094" transform="matrix(-0.9652 0.2615 -0.2615 -0.9652 214.5964 249.4085)" style="fill:#FFFFFF;" width="10.864" height="13.776"/>
	
		<rect x="92.653" y="156.389" transform="matrix(-0.9652 0.2614 -0.2614 -0.9652 236.2308 301.178)" style="fill:#FFFFFF;" width="10.864" height="19.823"/>
	
		<rect x="100.236" y="187.342" transform="matrix(-0.9652 0.2614 -0.2614 -0.9652 258.4344 354.0836)" style="fill:#FFFFFF;" width="10.864" height="13.776"/>
	
		<rect x="107.634" y="211.639" transform="matrix(-0.9652 0.2614 -0.2614 -0.9652 280.1144 405.8409)" style="fill:#FFFFFF;" width="10.864" height="19.823"/>
	
		<rect x="115.197" y="242.566" transform="matrix(-0.9652 0.2615 -0.2615 -0.9652 302.2927 458.6823)" style="fill:#FFFFFF;" width="10.864" height="13.776"/>
	
		<rect x="122.606" y="266.896" transform="matrix(-0.9652 0.2615 -0.2615 -0.9652 324.007 510.5026)" style="fill:#FFFFFF;" width="10.864" height="19.824"/>
	
		<rect x="130.146" y="297.863" transform="matrix(-0.9652 0.2614 -0.2614 -0.9652 346.1055 563.4637)" style="fill:#FFFFFF;" width="10.864" height="13.776"/>
	
		<rect x="137.598" y="322.226" transform="matrix(-0.9652 0.2615 -0.2615 -0.9652 367.9379 615.3169)" style="fill:#FFFFFF;" width="10.864" height="19.824"/>
	
		<rect x="145.107" y="353.116" transform="matrix(-0.9653 0.2613 -0.2613 -0.9653 389.9219 668.1613)" style="fill:#FFFFFF;" width="10.863" height="13.775"/>
</g>
<path style="fill:#84939A;" d="M431.524,184.76l5.92,3.392c0.096,0.336-0.032,0.544-0.272,0.96c0.048,0.16-0.08,0.384-0.032,0.544
	c-0.32,0.8-0.64,1.6-1.12,2.448c-0.976,1.696-2.192,3.104-3.392,3.952l3.152,8.976c0.224,0.832,0.112,1.76-0.368,2.608l-6.8,11.84
	c-0.688,1.44-2.656,1.424-3.504,0.24L398.9,182.328c-6.64,9.12-13.328,18.08-19.472,25.104l3.504,12.272
	c0.352,0.624,0.144,1.216-0.048,1.808l-4.656,7.872c-0.192,0.592-1.072,0.656-1.424,0.032L369.54,217.8
	c-3.328,2.864-5.936,4.464-7.568,4.368c-0.64-0.176-1.12-0.464-1.488-0.848c-0.912-1.36-0.832-4.416-0.048-8.736l-13.904-0.528
	c-0.544-0.032-0.896-0.656-0.48-1.12l4.448-8c0.416-0.464,0.816-0.928,1.536-0.944l12.368-3.168
	c2.96-8.848,7.28-19.312,11.856-29.472l-45.52-3.76c-1.472-0.144-2.464-1.84-1.568-3.152l6.752-12.016
	c0.528-0.672,1.264-1.232,2.112-1.456l9.344-1.808c0.144-1.472,0.736-3.232,1.696-4.928c0.48-0.848,1.024-1.52,1.552-2.208
	c0.16-0.048,0.288-0.256,0.4-0.464c0.128-0.208,0.416-0.464,0.736-0.56l5.92,3.408c-0.032,0.544-0.272,0.96-0.304,1.504
	c-0.24,0.416-0.448,1.008-0.848,1.472l8.176-1.504c0.128-1.472,0.768-3.072,1.744-4.768c0.48-0.848,1.024-1.52,1.552-2.208
	c0.24-0.416,0.656-0.896,0.944-1.152l6.128,3.52c-0.08,0.384-0.272,0.96-0.512,1.392c-0.032,0.544-0.272,0.96-0.512,1.392
	l16.992-3.168c1.216-2.112,2.256-4.192,3.392-5.92c11.056-19.248,23.168-26.64,30.576-22.384s7.136,18.432-3.904,37.68
	c-0.928,1.856-2.192,3.808-3.408,5.92l5.84,16.288c0.24-0.416,0.48-0.848,0.944-1.152c0.24-0.432,0.656-0.896,0.944-1.152
	l6.144,3.52c-0.24,0.416-0.272,0.976-0.512,1.392c-0.32,0.8-0.64,1.6-1.12,2.448c-0.96,1.696-2.032,3.056-3.232,3.92l2.784,7.648
	c0.24-0.416,0.656-0.896,0.896-1.312C430.788,185.32,431.076,185.064,431.524,184.76z"/>
<path style="fill:#E9EFF4;" d="M34.58,296.472v183.872c0,12.992,10.512,23.648,23.648,23.648H478.02
	c13.136,0,23.648-10.656,23.648-23.648V296.472H34.58z"/>
<rect x="169.444" y="330.744" style="fill:#E24B4B;" width="153.632" height="13.04"/>
<g>
	<rect x="169.444" y="371.368" style="fill:#BBC7D1;" width="153.632" height="13.04"/>
	<rect x="169.444" y="411.88" style="fill:#BBC7D1;" width="153.632" height="13.04"/>
	<rect x="169.444" y="452.488" style="fill:#BBC7D1;" width="286.896" height="13.04"/>
</g>
<path style="fill:#A5856D;" d="M501.668,296.472v-43.536c0-13.136-10.512-23.648-23.648-23.648H58.228
	c-13.136,0-23.648,10.512-23.648,23.648v43.536H501.668z"/>
<g>
	<path style="fill:#FFFFFF;" d="M309.364,278.712v-26.304h-9.392v-5.36h25.152v5.36h-9.376v26.304H309.364z"/>
	<path style="fill:#FFFFFF;" d="M329.06,278.712v-31.648h6.4v31.648H329.06z"/>
	<path style="fill:#FFFFFF;" d="M361.796,267.08l6.192,1.968c-0.944,3.456-2.528,6.016-4.736,7.696
		c-2.208,1.68-5.008,2.512-8.416,2.512c-4.208,0-7.664-1.44-10.368-4.304c-2.704-2.864-4.064-6.8-4.064-11.776
		c0-5.264,1.36-9.36,4.08-12.272s6.304-4.368,10.736-4.368c3.872,0,7.008,1.152,9.44,3.44c1.44,1.344,2.512,3.296,3.232,5.824
		l-6.32,1.52c-0.368-1.648-1.152-2.944-2.336-3.888s-2.624-1.424-4.336-1.424c-2.352,0-4.256,0.848-5.712,2.528
		s-2.192,4.416-2.192,8.176c0,4,0.72,6.848,2.16,8.544s3.312,2.544,5.616,2.544c1.696,0,3.168-0.544,4.384-1.616
		C360.372,271.096,361.252,269.4,361.796,267.08z"/>
	<path style="fill:#FFFFFF;" d="M373.556,278.712v-31.648h6.384v14.064l12.912-14.064h8.592l-11.92,12.336l12.56,19.328h-8.272
		l-8.704-14.848l-5.184,5.296v9.568h-6.368V278.712z"/>
	<path style="fill:#FFFFFF;" d="M405.396,278.712v-31.648h23.472v5.36h-17.072v7.024h15.888v5.328h-15.888v8.608h17.68v5.328
		H405.396z"/>
	<path style="fill:#FFFFFF;" d="M442.02,278.712v-26.304h-9.392v-5.36h25.152v5.36h-9.376v26.304H442.02z"/>
	<rect x="118.116" y="229.304" style="fill:#FFFFFF;" width="10.864" height="19.824"/>
	<rect x="118.116" y="261.256" style="fill:#FFFFFF;" width="10.864" height="13.776"/>
	<rect x="118.116" y="286.536" style="fill:#FFFFFF;" width="10.864" height="19.824"/>
	<rect x="118.116" y="318.504" style="fill:#FFFFFF;" width="10.864" height="13.776"/>
	<rect x="118.116" y="343.784" style="fill:#FFFFFF;" width="10.864" height="19.824"/>
	<rect x="118.116" y="375.752" style="fill:#FFFFFF;" width="10.864" height="13.776"/>
	<rect x="118.116" y="400.968" style="fill:#FFFFFF;" width="10.864" height="19.824"/>
	<rect x="118.116" y="432.968" style="fill:#FFFFFF;" width="10.864" height="13.776"/>
	<rect x="118.116" y="458.264" style="fill:#FFFFFF;" width="10.864" height="19.824"/>
	<rect x="118.116" y="490.232" style="fill:#FFFFFF;" width="10.864" height="13.776"/>
</g>
<path style="fill:#84939A;" d="M440.532,401.384l4.832,4.832c0,0.336-0.176,0.512-0.512,0.864c0,0.176-0.176,0.352-0.176,0.512
	c-0.512,0.688-1.04,1.376-1.728,2.064c-1.376,1.376-2.928,2.416-4.32,2.928l0.688,9.488c0,0.864-0.352,1.728-1.04,2.416
	l-9.664,9.664c-1.04,1.2-2.928,0.688-3.44-0.688l-15.52-42.944c-8.8,7.072-17.6,13.968-25.36,19.136l0.176,12.768
	c0.176,0.688-0.176,1.2-0.512,1.728l-6.56,6.384c-0.352,0.512-1.216,0.352-1.376-0.336l-3.968-13.104
	c-3.968,1.904-6.896,2.752-8.448,2.24c-0.56-0.336-0.96-0.736-1.2-1.216c-0.512-1.552,0.336-4.48,2.24-8.448l-13.28-4.144
	c-0.512-0.176-0.688-0.864-0.176-1.2l6.384-6.56c0.512-0.336,1.04-0.688,1.728-0.512l12.768,0.176
	c5.184-7.76,12.08-16.736,19.152-25.36l-42.944-15.52c-1.376-0.512-1.904-2.416-0.688-3.456l9.664-9.824
	c0.688-0.512,1.552-0.864,2.416-0.864l9.488,0.688c0.512-1.376,1.552-2.928,2.928-4.32c0.688-0.688,1.376-1.2,2.08-1.728
	c0.176,0,0.352-0.176,0.512-0.352c0.176-0.176,0.512-0.352,0.864-0.352l4.832,4.832c-0.176,0.512-0.512,0.864-0.688,1.376
	c-0.352,0.352-0.688,0.864-1.2,1.2l8.272,0.688c0.512-1.376,1.552-2.768,2.928-4.144c0.688-0.688,1.376-1.216,2.064-1.728
	c0.336-0.352,0.864-0.688,1.2-0.864l5.008,5.008c-0.176,0.352-0.512,0.864-0.864,1.216c-0.16,0.512-0.512,0.864-0.864,1.216
	l17.248,1.376c1.728-1.728,3.28-3.456,4.832-4.832c15.696-15.696,29.328-19.664,35.36-13.632c6.032,6.032,2.064,19.664-13.616,35.36
	c-1.376,1.552-3.104,3.104-4.832,4.832l1.376,17.248c0.352-0.352,0.688-0.688,1.2-0.864c0.352-0.352,0.864-0.688,1.216-0.864
	l5.008,5.008c-0.352,0.336-0.512,0.864-0.864,1.2c-0.512,0.688-1.04,1.376-1.728,2.064c-1.376,1.376-2.752,2.416-4.144,2.928
	l0.688,8.112c0.352-0.336,0.864-0.688,1.216-1.04C439.668,401.736,440.02,401.56,440.532,401.384z"/>
<g>
</g>
<g>
</g>
<g>
</g>
<g>
</g>
<g>
</g>
<g>
</g>
<g>
</g>
<g>
</g>
<g>
</g>
<g>
</g>
<g>
</g>
<g>
</g>
<g>
</g>
<g>
</g>
<g>
</g>
</svg>
