<?xml version="1.0" encoding="iso-8859-1"?>
<!-- Generator: Adobe Illustrator 19.0.0, SVG Export Plug-In . SVG Version: 6.00 Build 0)  -->
<svg version="1.1" id="Layer_1" xmlns="http://www.w3.org/2000/svg" xmlns:xlink="http://www.w3.org/1999/xlink" x="0px" y="0px"
	 viewBox="0 0 511.997 511.997" style="enable-background:new 0 0 511.997 511.997;" xml:space="preserve">
<path style="fill:#E2A67D;" d="M399.606,64.011c-7.391-12.75-21.156-21.344-36.953-21.344h-255.99
	c-15.789,0-29.57,8.594-36.945,21.344h-5.719V85.34c0,15.781,8.578,29.562,21.328,36.938v165.726h298.669V122.276
	c12.75-7.375,21.328-21.156,21.328-36.938V64.011H399.606z"/>
<g>
	<path style="fill:#434A54;" d="M95.999,469.345H42.664c-5.891,0-10.664,4.75-10.664,10.656c0,5.874,4.773,10.655,10.664,10.655
		h53.335c5.891,0,10.664-4.781,10.664-10.655C106.664,474.095,101.89,469.345,95.999,469.345z"/>
	<path style="fill:#434A54;" d="M426.653,469.345h-53.328c-5.891,0-10.672,4.75-10.672,10.656c0,5.874,4.781,10.655,10.672,10.655
		h53.328c5.906,0,10.672-4.781,10.672-10.655C437.325,474.095,432.56,469.345,426.653,469.345z"/>
</g>
<path style="fill:#F4B68C;" d="M405.325,64.011c0-23.578-19.109-42.671-42.672-42.671h-255.99
	c-23.562,0-42.664,19.093-42.664,42.671c0,15.781,8.578,29.562,21.328,36.938v165.718h298.669V100.948
	C396.747,93.573,405.325,79.792,405.325,64.011z"/>
<path style="fill:#434A54;" d="M479.997,234.667h-65.375v63.992h65.375c17.672,0,32-14.312,32-31.992
	C511.997,248.995,497.669,234.667,479.997,234.667z"/>
<path style="fill:#CCD1D9;" d="M458.653,458.658V224.01c0-23.578-19.094-42.671-42.656-42.671H53.328
	c-23.562,0-42.664,19.093-42.664,42.671v234.647C4.773,458.658,0,463.439,0,469.345c0,5.875,4.773,10.656,10.664,10.656h447.989
	c5.906,0,10.672-4.781,10.672-10.656C469.325,463.439,464.56,458.658,458.653,458.658z"/>
<g>
	<path style="fill:#AAB2BC;" d="M351.997,352.003H117.328c-5.891,0-10.664,4.781-10.664,10.656c0,5.906,4.773,10.688,10.664,10.688
		h234.669c5.891,0,10.656-4.781,10.656-10.688C362.653,356.784,357.888,352.003,351.997,352.003z"/>
	<path style="fill:#AAB2BC;" d="M117.328,309.346h234.669c5.891,0,10.656-4.781,10.656-10.688c0-5.875-4.766-10.656-10.656-10.656
		H117.328c-5.891,0-10.664,4.781-10.664,10.656C106.664,304.565,111.437,309.346,117.328,309.346z"/>
</g>
<path style="fill:#E2A67D;" d="M309.327,128.012H159.992c-5.891,0-10.664,4.766-10.664,10.656s4.773,10.672,10.664,10.672h149.335
	c5.891,0,10.672-4.781,10.672-10.672S315.218,128.012,309.327,128.012z"/>
<g>
</g>
<g>
</g>
<g>
</g>
<g>
</g>
<g>
</g>
<g>
</g>
<g>
</g>
<g>
</g>
<g>
</g>
<g>
</g>
<g>
</g>
<g>
</g>
<g>
</g>
<g>
</g>
<g>
</g>
</svg>
