<?xml version="1.0" encoding="iso-8859-1"?>
<!-- Generator: Adobe Illustrator 19.0.0, SVG Export Plug-In . SVG Version: 6.00 Build 0)  -->
<svg version="1.1" id="Layer_1" xmlns="http://www.w3.org/2000/svg" xmlns:xlink="http://www.w3.org/1999/xlink" x="0px" y="0px"
	 viewBox="0 0 511.98 511.98" style="enable-background:new 0 0 511.98 511.98;" xml:space="preserve">
<g>
	<path style="fill:#3BAFDA;" d="M437.326,128.007H159.994c-5.875,0-10.656,4.766-10.656,10.655V351.99
		c0,5.875,4.781,10.655,10.656,10.655h277.332c5.891,0,10.656-4.78,10.656-10.655V138.662
		C447.982,132.772,443.217,128.007,437.326,128.007z"/>
	<path style="fill:#3BAFDA;" d="M405.329,85.337c-23.531,0-42.672,19.14-42.672,42.67v44.248c0,5.891,4.781,10.672,10.672,10.672
		h63.997c5.891,0,10.656-4.781,10.656-10.672v-44.248C447.982,104.476,428.857,85.337,405.329,85.337z"/>
</g>
<path style="fill:#434A54;" d="M501.324,128.007H10.671C4.78,128.007,0,123.226,0,117.335c0-5.89,4.781-10.671,10.671-10.671
	h490.653c5.891,0,10.656,4.781,10.656,10.671C511.98,123.225,507.215,128.007,501.324,128.007z"/>
<g>
	<path style="fill:#4FC2E9;" d="M405.329,85.337c0.125,0,0.234,0,0.359,0C405.594,85.337,405.469,85.337,405.329,85.337z"/>
	<path style="fill:#4FC2E9;" d="M362.657,128.007c0-23.53,19.141-42.67,42.672-42.67H74.669c-5.891,0-10.671,4.766-10.671,10.671
		v319.98c0,5.874,4.781,10.655,10.671,10.655h277.317c5.906,0,10.671-4.781,10.671-10.655V172.255v-28.108L362.657,128.007
		L362.657,128.007z"/>
</g>
<path style="fill:#E6E9ED;" d="M341.315,394.644c-1.594,0-3.219-0.344-4.75-1.125l-16.578-8.28l-16.562,8.28
	c-3,1.5-6.531,1.5-9.53,0l-16.562-8.28l-16.562,8.28c-3,1.5-6.547,1.5-9.547,0l-16.562-8.28l-16.562,8.28c-3,1.5-6.531,1.5-9.531,0
	l-16.578-8.28l-16.562,8.28c-3,1.5-6.531,1.5-9.531,0l-16.562-8.28l-16.562,8.28c-3,1.5-6.546,1.5-9.546,0l-16.562-8.28
	l-16.562,8.28c-5.266,2.656-11.671,0.5-14.312-4.749c-2.625-5.281-0.5-11.688,4.781-14.312L101.9,363.77c3-1.5,6.531-1.5,9.531,0
	l16.562,8.281l16.578-8.281c3-1.5,6.531-1.5,9.531,0l16.562,8.281l16.562-8.281c3-1.5,6.547-1.5,9.547,0l16.562,8.281l16.562-8.281
	c3-1.5,6.531-1.5,9.531,0l16.562,8.282l16.578-8.281c3-1.5,6.531-1.5,9.53,0l16.562,8.281l16.562-8.281c3-1.5,6.547-1.5,9.547,0
	l21.327,10.688c5.266,2.625,7.406,9.031,4.766,14.312C349.002,392.489,345.237,394.644,341.315,394.644z"/>
<g>
</g>
<g>
</g>
<g>
</g>
<g>
</g>
<g>
</g>
<g>
</g>
<g>
</g>
<g>
</g>
<g>
</g>
<g>
</g>
<g>
</g>
<g>
</g>
<g>
</g>
<g>
</g>
<g>
</g>
</svg>
