<?xml version="1.0" encoding="iso-8859-1"?>
<!-- Generator: Adobe Illustrator 19.0.0, SVG Export Plug-In . SVG Version: 6.00 Build 0)  -->
<svg version="1.1" id="Layer_1" xmlns="http://www.w3.org/2000/svg" xmlns:xlink="http://www.w3.org/1999/xlink" x="0px" y="0px"
	 viewBox="0 0 511.995 511.995" style="enable-background:new 0 0 511.995 511.995;" xml:space="preserve">
<polygon style="fill:#E6E9ED;" points="330.669,341.932 330.779,149.819 441.401,149.725 481.12,228.942 501.323,269.332 
	501.135,341.932 "/>
<polygon style="fill:#4FC2E9;" points="478.84,224.379 441.401,149.725 330.779,149.819 330.732,224.379 "/>
<path style="fill:#E6E9ED;" d="M490.651,224.161l-42.672-85.107l-127.857,0.109l-0.141,213.441h191.794l0.219-85.787
	L490.651,224.161z M490.495,331.275H341.341l0.094-170.801l93.373-0.078l36.766,73.311l19.078,38.124L490.495,331.275z"/>
<rect x="362.517" y="160.438" style="fill:#3BAFDA;" width="21.328" height="63.936"/>
<path style="fill:#FC6E51;" d="M336.466,118.444c-3.031-1.968-6.844-2.265-10.141-0.812l-93.935,41.749H10.669
	c-3.367,0-6.547,1.594-8.555,4.297c-2.016,2.703-2.633,6.203-1.664,9.437l29.632,124.943l-8.602,41.14
	c-0.516,3.078,0.359,6.25,2.383,8.641c2.031,2.391,5,3.766,8.141,3.766h298.65c5.891,0,10.672-4.781,10.672-10.672v-213.55
	C341.326,123.772,339.497,120.413,336.466,118.444z"/>
<path style="fill:#CCD1D9;" d="M30.082,298.058l-8.602,41.968c-0.516,3.141,0.359,6.359,2.383,8.797
	c2.023,2.422,5,3.828,8.141,3.828l309.275-0.047v-54.546H30.082z"/>
<g>
	<path style="fill:#434A54;" d="M394.652,288.604c-29.452,0-53.327,23.874-53.327,53.327c0,29.452,23.875,53.343,53.327,53.343
		s53.327-23.891,53.327-53.343C447.979,312.478,424.104,288.604,394.652,288.604z"/>
	<path style="fill:#434A54;" d="M181.329,288.604c-17.453,0-32.937,8.375-42.671,21.327c-9.727-12.952-25.21-21.327-42.664-21.327
		c-29.453,0-53.327,23.874-53.327,53.327c0,29.452,23.875,53.343,53.327,53.343c17.453,0,32.937-8.391,42.664-21.344
		c9.734,12.953,25.218,21.344,42.671,21.344c29.453,0,53.327-23.891,53.327-53.343C234.656,312.478,210.781,288.604,181.329,288.604
		z"/>
</g>
<g>
	<path style="fill:#F5F7FA;" d="M383.982,341.932c0,5.891,4.781,10.672,10.671,10.672c5.891,0,10.672-4.781,10.672-10.672
		s-4.781-10.656-10.672-10.656C388.763,331.275,383.982,336.041,383.982,341.932z"/>
	<path style="fill:#F5F7FA;" d="M85.331,341.932c0,5.891,4.773,10.672,10.664,10.672s10.672-4.781,10.672-10.672
		s-4.781-10.656-10.672-10.656S85.331,336.041,85.331,341.932z"/>
	<path style="fill:#F5F7FA;" d="M170.658,341.932c0,5.891,4.781,10.672,10.672,10.672s10.664-4.781,10.664-10.672
		s-4.773-10.656-10.664-10.656S170.658,336.041,170.658,341.932z"/>
</g>
<path style="fill:#E9573F;" d="M277.327,235.051H85.331c-5.891,0-10.664-4.781-10.664-10.672c0-5.89,4.773-10.671,10.664-10.671
	h191.997c5.891,0,10.672,4.781,10.672,10.671C288,230.27,283.219,235.051,277.327,235.051z"/>
<g>
</g>
<g>
</g>
<g>
</g>
<g>
</g>
<g>
</g>
<g>
</g>
<g>
</g>
<g>
</g>
<g>
</g>
<g>
</g>
<g>
</g>
<g>
</g>
<g>
</g>
<g>
</g>
<g>
</g>
</svg>
