<?xml version="1.0" encoding="iso-8859-1"?>
<!-- Generator: Adobe Illustrator 19.0.0, SVG Export Plug-In . SVG Version: 6.00 Build 0)  -->
<svg version="1.1" id="Capa_1" xmlns="http://www.w3.org/2000/svg" xmlns:xlink="http://www.w3.org/1999/xlink" x="0px" y="0px"
	 viewBox="0 0 512 512" style="enable-background:new 0 0 512 512;" xml:space="preserve">
<path style="fill:#ACB3BA;" d="M221.003,482.283c-25.536,0-46.304-20.768-46.304-46.293v-30.624c0-6.251,5.067-11.317,11.317-11.317
	s11.317,5.067,11.317,11.317v30.624c0,13.067,10.624,23.669,23.68,23.669c13.067,0,23.691-10.603,23.691-23.669V194.699
	c0-6.251,5.067-11.317,11.317-11.317s11.307,5.067,11.307,11.317v241.291C267.307,461.515,246.539,482.283,221.003,482.283"/>
<path style="fill:#40596B;" d="M244.683,391.424v44.565c0,13.045-10.624,23.669-23.68,23.669c-13.067,0-23.691-10.624-23.691-23.669
	v-30.624c0-6.251-5.067-11.317-11.317-11.317s-11.328,5.067-11.328,11.317v30.624c0,25.525,20.779,46.293,46.325,46.293
	c25.536,0,46.304-20.768,46.304-46.293v-44.565H244.683z"/>
<path style="fill:#ACB3BA;" d="M267.317,77.493V41.035c0-6.229-5.077-11.317-11.328-11.317c-6.24,0-11.307,5.088-11.307,11.317
	v36.459H267.317z"/>
<g>
	<path style="fill:#54C0EB;" d="M256,48.32c0,0,88.459,166.421,92.267,248.544c9.301-62.667,122.869-94.293,163.733-21.088
		C485.877,62.304,256,48.32,256,48.32"/>
	<path style="fill:#54C0EB;" d="M256,48.32c0,0-88.459,166.421-92.277,248.544C154.421,234.197,40.864,202.571,0,275.787
		C26.112,62.304,256,48.32,256,48.32"/>
</g>
<path style="fill:#84DBFF;" d="M256,48.32c-64.747,61.579-95.467,166.421-91.648,248.544c50.613-77.163,132.672-77.163,183.296,0
	C351.467,214.741,320.736,109.909,256,48.32"/>
<g>
</g>
<g>
</g>
<g>
</g>
<g>
</g>
<g>
</g>
<g>
</g>
<g>
</g>
<g>
</g>
<g>
</g>
<g>
</g>
<g>
</g>
<g>
</g>
<g>
</g>
<g>
</g>
<g>
</g>
</svg>
