<?xml version="1.0" encoding="iso-8859-1"?>
<!-- Generator: Adobe Illustrator 19.0.0, SVG Export Plug-In . SVG Version: 6.00 Build 0)  -->
<svg version="1.1" id="Capa_1" xmlns="http://www.w3.org/2000/svg" xmlns:xlink="http://www.w3.org/1999/xlink" x="0px" y="0px"
	 viewBox="0 0 512 512" style="enable-background:new 0 0 512 512;" xml:space="preserve">
<g>
	<path style="fill:#CFD8DC;" d="M207.787,135.108c-61.013-6.123-152.213-17.579-153.131-17.771
		c-5.107-0.642-9.943,2.454-11.499,7.36C41.387,130.308,0,260.975,0,298.671c0,5.891,4.776,10.667,10.667,10.667
		c31.765,0,163.435,45.952,171.307,67.627c1.908,5.188,7.464,8.059,12.8,6.613c5.381-1.5,8.693-6.897,7.595-12.373
		c-29.184-148.651-10.091-200.149,10.965-217.173c4.589-3.694,5.314-10.409,1.619-14.998c-1.793-2.227-4.406-3.641-7.251-3.925
		L207.787,135.108z"/>
	<path style="fill:#CFD8DC;" d="M468.843,124.783c-1.557-4.915-6.406-8.013-11.52-7.36c-0.917,0.128-92.267,11.776-153.28,17.685
		c-5.865,0.558-10.167,5.764-9.609,11.628c0.274,2.884,1.71,5.533,3.977,7.337c21.333,16.939,40.427,68.373,11.115,217.216
		c-1.086,5.47,2.224,10.853,7.595,12.352c0.939,0.249,1.908,0.371,2.88,0.363c4.491-0.002,8.5-2.817,10.027-7.04
		c7.872-21.696,139.541-67.627,171.307-67.627c5.891,0,10.667-4.776,10.667-10.667C512,260.975,470.613,130.308,468.843,124.783z"/>
</g>
<path style="fill:#90A4AE;" d="M311.701,137.37c-2.18-1.702-4.926-2.511-7.68-2.261c-24.747,2.411-40.533,3.563-48.021,3.563
	c-7.488,0-23.851-1.195-48.235-3.563c-2.779-0.302-5.563,0.528-7.723,2.304c-37.909,30.549-44.032,108.373-18.091,239.552
	c11.382,32.436,39.984,55.756,74.048,60.373c34.064-4.617,62.666-27.937,74.048-60.373c0.174-0.51,0.316-1.03,0.427-1.557
	C355.989,245.658,349.867,167.791,311.701,137.37z"/>
<path style="fill:#455A64;" d="M465.621,77.252c-2.349-2.027-5.464-2.93-8.533-2.475C455.68,74.991,314.901,96.004,256,96.004
	S56.341,75.012,54.912,74.778c-3.067-0.43-6.172,0.471-8.533,2.475c-2.356,2.026-3.711,4.978-3.712,8.085v42.667
	c-0.043,5.404,3.962,9.986,9.323,10.667c0.917,0.107,92.373,11.605,153.6,17.749c25.429,2.475,41.899,3.669,50.304,3.669
	s24.299-1.173,50.091-3.669c61.333-5.931,153.024-17.621,153.941-17.749c5.395-0.641,9.446-5.234,9.408-10.667V85.338
	C469.333,82.231,467.977,79.278,465.621,77.252z"/>
<g>
</g>
<g>
</g>
<g>
</g>
<g>
</g>
<g>
</g>
<g>
</g>
<g>
</g>
<g>
</g>
<g>
</g>
<g>
</g>
<g>
</g>
<g>
</g>
<g>
</g>
<g>
</g>
<g>
</g>
</svg>
