<?xml version="1.0" encoding="iso-8859-1"?>
<!-- Generator: Adobe Illustrator 19.0.0, SVG Export Plug-In . SVG Version: 6.00 Build 0)  -->
<svg version="1.1" id="Capa_1" xmlns="http://www.w3.org/2000/svg" xmlns:xlink="http://www.w3.org/1999/xlink" x="0px" y="0px"
	 viewBox="0 0 490.664 490.664" style="enable-background:new 0 0 490.664 490.664;" xml:space="preserve">
<path style="fill:#EC407A;" d="M489.62,165.88l-21.333-42.667c-2.227-4.453-7.239-6.772-12.075-5.589
	c-25.195,6.208-46.613,12.203-66.133,17.664c-46.667,15.611-95.459,23.943-144.661,24.704c-49.23-0.745-98.052-9.07-144.747-24.683
	c-19.435-5.461-40.853-11.477-66.133-17.664c-4.836-1.183-9.847,1.137-12.075,5.589L1.129,165.901
	c-2.635,5.269-0.5,11.676,4.769,14.311c0.704,0.352,1.444,0.625,2.207,0.814c126.592,31.339,205.227,100.949,205.227,181.653
	c0,5.891,4.776,10.667,10.667,10.667h42.667c5.891,0,10.667-4.776,10.667-10.667c0-80.704,78.656-150.293,205.227-181.653
	c5.718-1.416,9.206-7.2,7.79-12.918c-0.189-0.764-0.462-1.504-0.814-2.207L489.62,165.88z"/>
<g>
</g>
<g>
</g>
<g>
</g>
<g>
</g>
<g>
</g>
<g>
</g>
<g>
</g>
<g>
</g>
<g>
</g>
<g>
</g>
<g>
</g>
<g>
</g>
<g>
</g>
<g>
</g>
<g>
</g>
</svg>
