<?xml version="1.0" encoding="iso-8859-1"?>
<!-- Generator: Adobe Illustrator 16.0.0, SVG Export Plug-In . SVG Version: 6.00 Build 0)  -->
<!DOCTYPE svg PUBLIC "-//W3C//DTD SVG 1.1//EN" "http://www.w3.org/Graphics/SVG/1.1/DTD/svg11.dtd">
<svg version="1.1" id="Layer_1" xmlns="http://www.w3.org/2000/svg" xmlns:xlink="http://www.w3.org/1999/xlink" x="0px" y="0px"
	 width="64px" height="64px" viewBox="0 0 64 64" style="enable-background:new 0 0 64 64;" xml:space="preserve">
<g id="Hose">
	<g>
		<path style="fill:#999999;" d="M46,0c-6,0-8,5.999-8,14c0,12-10,28-22,28C8,42,3.99,30,3.99,20c0-6,2.01-8,6.01-8s6,2,6,8h4
			c0-6-2-12-10-12S0,14,0,20c0,12,4,26,16,26c18,0,25.99-22.001,25.99-32C41.99,5.999,44,3.999,46,3.999s4,2,4,10.001h4
			C54,5.999,52,0,46,0z"/>
	</g>
</g>
<g id="Wheels">
	<g>
		<path style="fill:#666666;" d="M32,43.999H4c-2.209,0-4,1.791-4,4V60c0,2.209,1.791,4,4,4h28c2.209,0,4-1.791,4-4V47.999
			C36,45.79,34.209,43.999,32,43.999z"/>
	</g>
</g>
<g id="Body_15_">
	<g>
		<path style="fill:#F06EAA;" d="M24,20H12c-4,0-8,2-8,27.999V54h28v-6.001C32,22,28,20,24,20z"/>
	</g>
</g>
<g id="Hole">
	<g>
		<circle style="fill:#666666;" cx="18" cy="28" r="4"/>
	</g>
</g>
<g id="Hose_Head">
	<g>
		<path style="fill-rule:evenodd;clip-rule:evenodd;fill:#999999;" d="M16,20v7.999C16,29.104,16.896,30,18,30s2-0.896,2-2.001V20
			H16z"/>
	</g>
</g>
<g id="Body_2_">
	<g>
		<path style="fill:#CCCCCC;" d="M18,54c0,0-10,0-14-4v4c0,8,2,10,10,10h8c8,0,10-2,10-10v-4C28,54,18,54,18,54z"/>
	</g>
</g>
<g id="Button_1_">
	<g>
		<path style="fill:#CCCCCC;" d="M22,43.999h-8c-1.105,0-2,0.896-2,2.001c0,1.104,0.895,1.999,2,1.999h8c1.104,0,2-0.895,2-1.999
			C24,44.895,23.104,43.999,22,43.999z"/>
	</g>
</g>
<g id="Beater">
	<g>
		<path style="fill:#666666;" d="M40,60c0,0,0,0.895,0,2c0,1.104,0.896,2,2,2h20c1.104,0,2-0.896,2-2c0-1.105,0-2,0-2H40z"/>
	</g>
</g>
<g id="Head_2_">
	<g>
		<path style="fill-rule:evenodd;clip-rule:evenodd;fill:#F06EAA;" d="M62,56h-6v-2c0-1.105-0.896-2-2-2h-4c-1.105,0-2,0.895-2,2v2
			h-6c-1.104,0-2,0.895-2,2c0,1.104,0,2,0,2h10h4h10c0,0,0-0.896,0-2C64,56.895,63.104,56,62,56z"/>
	</g>
</g>
<g id="Tube">
	<g>
		<rect x="50" y="14" style="fill:#CCCCCC;" width="4" height="38"/>
	</g>
</g>
<g>
</g>
<g>
</g>
<g>
</g>
<g>
</g>
<g>
</g>
<g>
</g>
<g>
</g>
<g>
</g>
<g>
</g>
<g>
</g>
<g>
</g>
<g>
</g>
<g>
</g>
<g>
</g>
<g>
</g>
</svg>
