<?xml version="1.0" encoding="iso-8859-1"?>
<!-- Generator: Adobe Illustrator 19.0.0, SVG Export Plug-In . SVG Version: 6.00 Build 0)  -->
<svg version="1.1" id="Capa_1" xmlns="http://www.w3.org/2000/svg" xmlns:xlink="http://www.w3.org/1999/xlink" x="0px" y="0px"
	 viewBox="0 0 512.003 512.003" style="enable-background:new 0 0 512.003 512.003;" xml:space="preserve">
<path style="fill:#607D8B;" d="M280.131,192.366c-7.343-2.297-14.406-5.41-21.056-9.28C230.062,167.107,181.4,126.211,181.4,32.003
	V10.67c0-5.891-4.776-10.667-10.667-10.667h-42.667c-5.891-0.052-10.708,4.682-10.76,10.573c-0.004,0.502,0.027,1.004,0.093,1.502
	c0.149,1.109,14.229,112.384-39.296,161.387c-2.599,2.383-3.853,5.896-3.349,9.387c3.157,21.867,7.104,43.541,10.667,63.509
	c5.338,24.255,8.896,48.868,10.645,73.643c0,27.051-20.928,135.552-21.141,136.64c-0.986,5.143,1.906,10.241,6.827,12.032
	l117.333,42.667c1.168,0.432,2.403,0.656,3.648,0.661c3.075-0.003,5.998-1.333,8.021-3.648l74.667-85.333
	c1.702-1.942,2.642-4.436,2.645-7.019V202.67C288.064,197.833,284.806,193.604,280.131,192.366z"/>
<path style="fill:#546E7A;" d="M416.067,320.003c1.686-24.769,5.18-49.383,10.453-73.643c3.648-19.968,7.595-41.621,10.667-63.509
	c0.504-3.49-0.75-7.004-3.349-9.387c-53.312-48.896-39.339-160.277-39.104-161.408c0.766-5.841-3.348-11.197-9.189-11.963
	c-0.49-0.064-0.984-0.094-1.478-0.09H341.4c-5.891,0-10.667,4.776-10.667,10.667v21.333c0,131.371-73.728,148.885-76.8,149.547
	l-2.133,0.427c-5.776,1.157-9.521,6.778-8.364,12.554c0.61,3.047,2.519,5.676,5.228,7.201c5.803,3.261,11.826,6.112,18.027,8.533
	V411.95l-16.32,18.496c-3.442,3.886-3.586,9.686-0.341,13.739l50.987,63.787c2.863,3.574,7.688,4.922,11.989,3.349l117.333-42.667
	c4.92-1.791,7.813-6.889,6.827-12.032C436.995,455.555,416.067,347.054,416.067,320.003z"/>
<path style="fill:#455A64;" d="M343.32,0.195c-5.071-0.931-10.081,1.898-11.904,6.72c-0.875,2.325-22.229,57.088-75.349,57.088
	S181.592,9.24,180.718,6.915c-2.074-5.514-8.225-8.303-13.739-6.229c-4.158,1.564-6.912,5.541-6.912,9.984v21.333
	c0,105.173,55.573,151.467,88.725,169.771c1.575,0.867,3.343,1.322,5.141,1.323c0.716-0.001,1.431-0.073,2.133-0.213l2.133-0.427
	c3.84-0.789,93.867-20.736,93.867-170.453V10.67C352.058,5.526,348.38,1.121,343.32,0.195z"/>
<g>
	<path style="fill:#FFC107;" d="M192.067,426.67c-1.145,0.004-2.283-0.176-3.371-0.533l-64-21.333
		c-5.591-1.862-8.614-7.903-6.752-13.493s7.903-8.614,13.493-6.752l64,21.333c5.585,1.875,8.592,7.922,6.717,13.507
		C200.699,423.734,196.641,426.659,192.067,426.67z"/>
	<path style="fill:#FFC107;" d="M320.067,426.67c-5.891,0.022-10.685-4.735-10.707-10.626c-0.017-4.623,2.945-8.73,7.336-10.174
		l64-21.333c5.591-1.862,11.632,1.161,13.493,6.752s-1.161,11.632-6.752,13.493l-64,21.333
		C322.351,426.48,321.213,426.667,320.067,426.67z"/>
</g>
<g>
</g>
<g>
</g>
<g>
</g>
<g>
</g>
<g>
</g>
<g>
</g>
<g>
</g>
<g>
</g>
<g>
</g>
<g>
</g>
<g>
</g>
<g>
</g>
<g>
</g>
<g>
</g>
<g>
</g>
</svg>
