<?xml version="1.0" encoding="iso-8859-1"?>
<!-- Generator: Adobe Illustrator 19.0.0, SVG Export Plug-In . SVG Version: 6.00 Build 0)  -->
<svg version="1.1" id="Layer_1" xmlns="http://www.w3.org/2000/svg" xmlns:xlink="http://www.w3.org/1999/xlink" x="0px" y="0px"
	 viewBox="0 0 511.979 511.979" style="enable-background:new 0 0 511.979 511.979;" xml:space="preserve">
<path id="SVGCleanerId_0" style="fill:#F6BB42;" d="M436.652,437.385c80.309-79.887,100.308-206.63,40.982-309.359
	C442.386,66.943,385.75,25.906,322.627,8.884c-5.562,1.398-191.412,49.794-66.637,247.12
	C492.322,246.48,436.871,436.635,436.652,437.385z"/>
<path id="SVGCleanerId_1" style="fill:#4A89DC;" d="M216.711,113.839l-2.266,1.133c-5.515,35.256,3.789,81.324,41.544,141.032
	c236.333-9.523,180.881,180.631,180.663,181.381c30.358-30.201,52.092-67.105,64.185-106.854
	C501.524,321.047,513.258,113.839,216.711,113.839z"/>
<path id="SVGCleanerId_2" style="fill:#5D9CEC;" d="M8.573,321.765c29.03,109.479,128.79,190.194,247.416,190.194
	c70.528,0,134.4-28.529,180.694-74.684c1.562-5.531,52.576-190.67-180.694-181.271C146.066,465.429,9.112,322.328,8.573,321.765z"/>
<g>
	<path id="SVGCleanerId_0_1_" style="fill:#F6BB42;" d="M436.652,437.385c80.309-79.887,100.308-206.63,40.982-309.359
		C442.386,66.943,385.75,25.906,322.627,8.884c-5.562,1.398-191.412,49.794-66.637,247.12
		C492.322,246.48,436.871,436.635,436.652,437.385z"/>
</g>
<g>
	<path id="SVGCleanerId_1_1_" style="fill:#4A89DC;" d="M216.711,113.839l-2.266,1.133c-5.515,35.256,3.789,81.324,41.544,141.032
		c236.333-9.523,180.881,180.631,180.663,181.381c30.358-30.201,52.092-67.105,64.185-106.854
		C501.524,321.047,513.258,113.839,216.711,113.839z"/>
</g>
<g>
	<path id="SVGCleanerId_2_1_" style="fill:#5D9CEC;" d="M8.573,321.765c29.03,109.479,128.79,190.194,247.416,190.194
		c70.528,0,134.4-28.529,180.694-74.684c1.562-5.531,52.576-190.67-180.694-181.271C146.066,465.429,9.112,322.328,8.573,321.765z"
		/>
</g>
<path style="fill:#F6BB42;" d="M398.748,293.08l0.141-2.531c-27.764-22.421-72.324-37.389-142.899-34.545
	C146.066,465.429,9.112,322.328,8.573,321.765c10.976,41.389,32.061,78.652,60.45,109.01
	C76.882,436.119,250.467,549.879,398.748,293.08z"/>
<path style="fill:#FFCE54;" d="M322.752,8.86C213.406-20.756,93.647,25.304,34.337,128.026
	C-0.934,189.108-8.16,258.683,8.659,321.859c3.992,4.109,138.829,140.852,247.331-65.855C129.574,56.092,321.986,9.04,322.752,8.86z
	"/>
<path style="fill:#5D9CEC;" d="M152.503,361.092l2.117,1.391c33.303-12.858,68.536-43.936,101.37-106.479
	C129.574,56.092,321.986,9.04,322.752,8.86C281.427-2.335,238.592-2.71,198.11,6.696C189.556,10.837,4.238,104.277,152.503,361.092z
	"/>
<g>
</g>
<g>
</g>
<g>
</g>
<g>
</g>
<g>
</g>
<g>
</g>
<g>
</g>
<g>
</g>
<g>
</g>
<g>
</g>
<g>
</g>
<g>
</g>
<g>
</g>
<g>
</g>
<g>
</g>
</svg>
