<?xml version="1.0" encoding="iso-8859-1"?>
<!-- Generator: Adobe Illustrator 19.0.0, SVG Export Plug-In . SVG Version: 6.00 Build 0)  -->
<svg version="1.1" id="Layer_1" xmlns="http://www.w3.org/2000/svg" xmlns:xlink="http://www.w3.org/1999/xlink" x="0px" y="0px"
	 viewBox="0 0 511.98 511.98" style="enable-background:new 0 0 511.98 511.98;" xml:space="preserve">
<polygon style="fill:#AAB2BC;" points="371.534,190.953 343.63,133.362 362.831,124.057 390.737,181.657 "/>
<polygon style="fill:#5D9CEC;" points="43.196,234.662 77.866,511.98 288.678,511.98 323.348,234.662 "/>
<polygon style="fill:#656D78;" points="478.014,68.262 228.438,189.157 200.549,131.565 450.125,10.663 "/>
<g>
	<path style="fill:#434A54;" d="M228.454,199.828c-3.953,0-7.765-2.219-9.609-6.023l-27.905-57.592
		c-1.219-2.546-1.391-5.476-0.469-8.148c0.938-2.671,2.875-4.867,5.438-6.101L445.469,1.07c5.312-2.57,11.688-0.352,14.25,4.944
		l27.905,57.6c1.234,2.547,1.406,5.476,0.469,8.148c-0.922,2.672-2.875,4.867-5.422,6.102L233.094,198.758
		C231.594,199.484,230.016,199.828,228.454,199.828z M214.798,136.51l18.608,38.397L463.765,63.309l-18.594-38.396L214.798,136.51z"
		/>
	<polygon style="fill:#434A54;" points="219.157,169.962 209.845,150.76 459.422,29.865 468.719,49.06 	"/>
</g>
<path style="fill:#48CFAD;" d="M409.925,172.352c-2.547-5.273-8.969-7.507-14.25-4.945l-38.39,18.601
	c-5.281,2.555-7.516,8.968-4.953,14.249l46.499,95.998c2.562,5.28,8.969,7.499,14.249,4.937l38.404-18.593
	c5.281-2.562,7.5-8.969,4.938-14.25L409.925,172.352z"/>
<polygon style="fill:#4A89DC;" points="49.867,287.989 316.677,287.989 319.348,266.661 47.196,266.661 "/>
<path style="fill:#434A54;" d="M343.255,266.661h-23.906l-2.672,21.328h4.547c-1.344,13.015-5.297,36.169-16.827,59.231
	c-22.812,45.624-63.552,68.764-121.113,68.764c-57.294,0-97.949-22.921-120.823-68.139c-11.703-23.156-15.733-46.686-17.124-59.856
	h4.531l-2.671-21.328H23.29v10.656c0,1.625,0.219,40.295,19.781,79.435c18.374,36.748,57.607,80.559,140.213,80.559
	c82.591,0,121.832-43.811,140.206-80.559c19.562-39.14,19.781-77.81,19.781-79.435L343.255,266.661z"/>
<g>
</g>
<g>
</g>
<g>
</g>
<g>
</g>
<g>
</g>
<g>
</g>
<g>
</g>
<g>
</g>
<g>
</g>
<g>
</g>
<g>
</g>
<g>
</g>
<g>
</g>
<g>
</g>
<g>
</g>
</svg>
